<svg width="443" height="160" viewBox="0 0 443 160" fill="none" xmlns="http://www.w3.org/2000/svg">
<g filter="url(#filter0_d_16_149)">
<g filter="url(#filter1_d_16_149)">
<rect x="4" width="435" height="152" rx="10" fill="white"/>
<rect x="4.5" y="0.5" width="434" height="151" rx="9.5" stroke="#B2B0B0"/>
</g>
<rect x="13" y="21" width="409" height="27" rx="3" fill="#E3E3E3"/>
<rect x="13" y="64" width="409" height="27" rx="3" fill="#E3E3E3"/>
<rect x="16" y="107" width="81" height="27" rx="3" fill="#E3E3E3"/>
<rect x="315" y="107" width="109" height="27" rx="3" fill="#E3E3E3"/>
<rect x="110" y="107" width="81" height="27" rx="3" fill="#E3E3E3"/>
<path d="M28.1641 36.835H29.4766C29.4082 37.4639 29.2282 38.0267 28.9365 38.5234C28.6449 39.0202 28.2324 39.4144 27.6992 39.7061C27.166 39.9932 26.5007 40.1367 25.7031 40.1367C25.1198 40.1367 24.5889 40.0273 24.1104 39.8086C23.6364 39.5898 23.2285 39.2799 22.8867 38.8789C22.5449 38.4733 22.2806 37.988 22.0938 37.4229C21.9115 36.8532 21.8203 36.2197 21.8203 35.5225V34.5312C21.8203 33.834 21.9115 33.2028 22.0938 32.6377C22.2806 32.068 22.5472 31.5804 22.8936 31.1748C23.2445 30.7692 23.666 30.457 24.1582 30.2383C24.6504 30.0195 25.2041 29.9102 25.8193 29.9102C26.5713 29.9102 27.207 30.0514 27.7266 30.334C28.2461 30.6165 28.6494 31.0085 28.9365 31.5098C29.2282 32.0065 29.4082 32.583 29.4766 33.2393H28.1641C28.1003 32.7744 27.9818 32.3757 27.8086 32.043C27.6354 31.7057 27.3893 31.446 27.0703 31.2637C26.7513 31.0814 26.3343 30.9902 25.8193 30.9902C25.3773 30.9902 24.9876 31.0745 24.6504 31.2432C24.3177 31.4118 24.0374 31.651 23.8096 31.9609C23.5863 32.2708 23.4176 32.6423 23.3037 33.0752C23.1898 33.5081 23.1328 33.9889 23.1328 34.5176V35.5225C23.1328 36.0101 23.1829 36.4681 23.2832 36.8965C23.388 37.3249 23.5452 37.7008 23.7549 38.0244C23.9645 38.348 24.2311 38.6032 24.5547 38.79C24.8783 38.9723 25.2611 39.0635 25.7031 39.0635C26.2637 39.0635 26.7103 38.9746 27.043 38.7969C27.3757 38.6191 27.6263 38.3639 27.7949 38.0312C27.9681 37.6986 28.0911 37.2998 28.1641 36.835ZM30.748 36.3838V36.2266C30.748 35.6934 30.8255 35.1989 30.9805 34.7432C31.1354 34.2829 31.3587 33.8841 31.6504 33.5469C31.9421 33.2051 32.2952 32.9408 32.71 32.7539C33.1247 32.5625 33.5895 32.4668 34.1045 32.4668C34.624 32.4668 35.0911 32.5625 35.5059 32.7539C35.9251 32.9408 36.2806 33.2051 36.5723 33.5469C36.8685 33.8841 37.0941 34.2829 37.249 34.7432C37.404 35.1989 37.4814 35.6934 37.4814 36.2266V36.3838C37.4814 36.917 37.404 37.4115 37.249 37.8672C37.0941 38.3229 36.8685 38.7217 36.5723 39.0635C36.2806 39.4007 35.9274 39.665 35.5127 39.8564C35.1025 40.0433 34.6377 40.1367 34.1182 40.1367C33.5986 40.1367 33.1315 40.0433 32.7168 39.8564C32.3021 39.665 31.9466 39.4007 31.6504 39.0635C31.3587 38.7217 31.1354 38.3229 30.9805 37.8672C30.8255 37.4115 30.748 36.917 30.748 36.3838ZM32.0127 36.2266V36.3838C32.0127 36.7529 32.056 37.1016 32.1426 37.4297C32.2292 37.7533 32.359 38.0404 32.5322 38.291C32.71 38.5417 32.931 38.7399 33.1953 38.8857C33.4596 39.027 33.7673 39.0977 34.1182 39.0977C34.4645 39.0977 34.7676 39.027 35.0273 38.8857C35.2917 38.7399 35.5104 38.5417 35.6836 38.291C35.8568 38.0404 35.9867 37.7533 36.0732 37.4297C36.1644 37.1016 36.21 36.7529 36.21 36.3838V36.2266C36.21 35.862 36.1644 35.5179 36.0732 35.1943C35.9867 34.8662 35.8545 34.5768 35.6768 34.3262C35.5036 34.071 35.2848 33.8704 35.0205 33.7246C34.7607 33.5788 34.4554 33.5059 34.1045 33.5059C33.7581 33.5059 33.4528 33.5788 33.1885 33.7246C32.9287 33.8704 32.71 34.071 32.5322 34.3262C32.359 34.5768 32.2292 34.8662 32.1426 35.1943C32.056 35.5179 32.0127 35.862 32.0127 36.2266ZM43.5928 38.291V32.6035H44.8643V40H43.6543L43.5928 38.291ZM43.832 36.7324L44.3584 36.7188C44.3584 37.2109 44.306 37.6667 44.2012 38.0859C44.1009 38.5007 43.9368 38.8607 43.709 39.166C43.4811 39.4714 43.1826 39.7106 42.8135 39.8838C42.4443 40.0524 41.9954 40.1367 41.4668 40.1367C41.1068 40.1367 40.7764 40.0843 40.4756 39.9795C40.1794 39.8747 39.9242 39.7129 39.71 39.4941C39.4958 39.2754 39.3294 38.9906 39.2109 38.6396C39.097 38.2887 39.04 37.8672 39.04 37.375V32.6035H40.3047V37.3887C40.3047 37.7214 40.3411 37.9971 40.4141 38.2158C40.4915 38.43 40.5941 38.6009 40.7217 38.7285C40.8538 38.8516 40.9997 38.9382 41.1592 38.9883C41.3232 39.0384 41.4919 39.0635 41.665 39.0635C42.2028 39.0635 42.6289 38.9609 42.9434 38.7559C43.2578 38.5462 43.4834 38.266 43.6201 37.915C43.7614 37.5596 43.832 37.1654 43.832 36.7324ZM48.0566 33.7656V40H46.792V32.6035H48.0225L48.0566 33.7656ZM50.3672 32.5625L50.3604 33.7383C50.2555 33.7155 50.1553 33.7018 50.0596 33.6973C49.9684 33.6882 49.8636 33.6836 49.7451 33.6836C49.4535 33.6836 49.196 33.7292 48.9727 33.8203C48.7493 33.9115 48.5602 34.0391 48.4053 34.2031C48.2503 34.3672 48.1273 34.5632 48.0361 34.791C47.9495 35.0143 47.8926 35.2604 47.8652 35.5293L47.5098 35.7344C47.5098 35.2878 47.5531 34.8685 47.6396 34.4766C47.7308 34.0846 47.8698 33.7383 48.0566 33.4375C48.2435 33.1322 48.4805 32.8952 48.7676 32.7266C49.0592 32.5534 49.4056 32.4668 49.8066 32.4668C49.8978 32.4668 50.0026 32.4782 50.1211 32.501C50.2396 32.5192 50.3216 32.5397 50.3672 32.5625ZM55.8428 38.0381C55.8428 37.8558 55.8018 37.6872 55.7197 37.5322C55.6423 37.3727 55.4805 37.2292 55.2344 37.1016C54.9928 36.9694 54.6283 36.8555 54.1406 36.7598C53.7305 36.6732 53.359 36.5706 53.0264 36.4521C52.6982 36.3337 52.418 36.1901 52.1855 36.0215C51.9577 35.8529 51.7822 35.6546 51.6592 35.4268C51.5361 35.1989 51.4746 34.9323 51.4746 34.627C51.4746 34.3353 51.5384 34.0596 51.666 33.7998C51.7982 33.54 51.9827 33.3099 52.2197 33.1094C52.4613 32.9089 52.7507 32.7516 53.0879 32.6377C53.4251 32.5238 53.8011 32.4668 54.2158 32.4668C54.8083 32.4668 55.3141 32.5716 55.7334 32.7812C56.1527 32.9909 56.474 33.2712 56.6973 33.6221C56.9206 33.9684 57.0322 34.3535 57.0322 34.7773H55.7676C55.7676 34.5723 55.7061 34.374 55.583 34.1826C55.4645 33.9867 55.2891 33.8249 55.0566 33.6973C54.8288 33.5697 54.5485 33.5059 54.2158 33.5059C53.8649 33.5059 53.5801 33.5605 53.3613 33.6699C53.1471 33.7747 52.9899 33.9092 52.8896 34.0732C52.7939 34.2373 52.7461 34.4105 52.7461 34.5928C52.7461 34.7295 52.7689 34.8525 52.8145 34.9619C52.8646 35.0667 52.9512 35.1647 53.0742 35.2559C53.1973 35.3424 53.3704 35.4245 53.5938 35.502C53.8171 35.5794 54.1019 35.6569 54.4482 35.7344C55.0544 35.8711 55.5534 36.0352 55.9453 36.2266C56.3372 36.418 56.6289 36.6527 56.8203 36.9307C57.0117 37.2087 57.1074 37.5459 57.1074 37.9424C57.1074 38.266 57.0391 38.5622 56.9023 38.8311C56.7702 39.0999 56.5765 39.3324 56.3213 39.5283C56.0706 39.7197 55.7699 39.8701 55.4189 39.9795C55.0726 40.0843 54.6829 40.1367 54.25 40.1367C53.5983 40.1367 53.0469 40.0205 52.5957 39.7881C52.1445 39.5557 51.8027 39.2549 51.5703 38.8857C51.3379 38.5166 51.2217 38.127 51.2217 37.7168H52.4932C52.5114 38.0632 52.6117 38.3389 52.7939 38.5439C52.9762 38.7445 53.1995 38.888 53.4639 38.9746C53.7282 39.0566 53.9902 39.0977 54.25 39.0977C54.5964 39.0977 54.8857 39.0521 55.1182 38.9609C55.3551 38.8698 55.5352 38.7445 55.6582 38.585C55.7812 38.4255 55.8428 38.2432 55.8428 38.0381ZM61.8379 40.1367C61.3229 40.1367 60.8558 40.0501 60.4365 39.877C60.0218 39.6992 59.6641 39.4508 59.3633 39.1318C59.0671 38.8128 58.8392 38.4346 58.6797 37.9971C58.5202 37.5596 58.4404 37.0811 58.4404 36.5615V36.2744C58.4404 35.6729 58.5293 35.1374 58.707 34.668C58.8848 34.194 59.1263 33.793 59.4316 33.4648C59.737 33.1367 60.0833 32.8883 60.4707 32.7197C60.8581 32.5511 61.2591 32.4668 61.6738 32.4668C62.2025 32.4668 62.6582 32.5579 63.041 32.7402C63.4284 32.9225 63.7451 33.1777 63.9912 33.5059C64.2373 33.8294 64.4196 34.2122 64.5381 34.6543C64.6566 35.0918 64.7158 35.5703 64.7158 36.0898V36.6572H59.1924V35.625H63.4512V35.5293C63.4329 35.2012 63.3646 34.8822 63.2461 34.5723C63.1322 34.2624 62.9499 34.0072 62.6992 33.8066C62.4486 33.6061 62.1068 33.5059 61.6738 33.5059C61.3867 33.5059 61.1224 33.5674 60.8809 33.6904C60.6393 33.8089 60.432 33.9867 60.2588 34.2236C60.0856 34.4606 59.9512 34.75 59.8555 35.0918C59.7598 35.4336 59.7119 35.8278 59.7119 36.2744V36.5615C59.7119 36.9124 59.7598 37.2428 59.8555 37.5527C59.9557 37.8581 60.0993 38.127 60.2861 38.3594C60.4775 38.5918 60.7077 38.7741 60.9766 38.9062C61.25 39.0384 61.5599 39.1045 61.9062 39.1045C62.3529 39.1045 62.7311 39.0133 63.041 38.8311C63.3509 38.6488 63.6221 38.4049 63.8545 38.0996L64.6201 38.708C64.4606 38.9495 64.2578 39.1797 64.0117 39.3984C63.7656 39.6172 63.4626 39.7949 63.1025 39.9316C62.7471 40.0684 62.3255 40.1367 61.8379 40.1367ZM77.5127 30.0469V40H76.1865L71.1758 32.3232V40H69.8564V30.0469H71.1758L76.207 37.7441V30.0469H77.5127ZM84.0205 38.7354V34.9277C84.0205 34.6361 83.9613 34.3831 83.8428 34.1689C83.7288 33.9502 83.5557 33.7816 83.3232 33.6631C83.0908 33.5446 82.8037 33.4854 82.4619 33.4854C82.1429 33.4854 81.8626 33.54 81.6211 33.6494C81.3841 33.7588 81.1973 33.9023 81.0605 34.0801C80.9284 34.2578 80.8623 34.4492 80.8623 34.6543H79.5977C79.5977 34.39 79.666 34.1279 79.8027 33.8682C79.9395 33.6084 80.1354 33.3737 80.3906 33.1641C80.6504 32.9499 80.9603 32.7812 81.3203 32.6582C81.6849 32.5306 82.0905 32.4668 82.5371 32.4668C83.0749 32.4668 83.5488 32.5579 83.959 32.7402C84.3737 32.9225 84.6973 33.1982 84.9297 33.5674C85.1667 33.932 85.2852 34.39 85.2852 34.9414V38.3867C85.2852 38.6328 85.3057 38.8949 85.3467 39.1729C85.3923 39.4508 85.4583 39.6901 85.5449 39.8906V40H84.2256C84.1618 39.8542 84.1117 39.6605 84.0752 39.4189C84.0387 39.1729 84.0205 38.945 84.0205 38.7354ZM84.2393 35.5156L84.2529 36.4043H82.9746C82.6146 36.4043 82.2933 36.4339 82.0107 36.4932C81.7282 36.5479 81.4912 36.6322 81.2998 36.7461C81.1084 36.86 80.9626 37.0036 80.8623 37.1768C80.762 37.3454 80.7119 37.5436 80.7119 37.7715C80.7119 38.0039 80.7643 38.2158 80.8691 38.4072C80.974 38.5986 81.1312 38.7513 81.3408 38.8652C81.555 38.9746 81.8171 39.0293 82.127 39.0293C82.5143 39.0293 82.8561 38.9473 83.1523 38.7832C83.4486 38.6191 83.6833 38.4186 83.8564 38.1816C84.0342 37.9447 84.1299 37.7145 84.1436 37.4912L84.6836 38.0996C84.6517 38.291 84.5651 38.5029 84.4238 38.7354C84.2826 38.9678 84.0934 39.1911 83.8564 39.4053C83.624 39.6149 83.346 39.7904 83.0225 39.9316C82.7035 40.0684 82.3434 40.1367 81.9424 40.1367C81.4411 40.1367 81.0013 40.0387 80.623 39.8428C80.2493 39.6468 79.9577 39.3848 79.748 39.0566C79.543 38.724 79.4404 38.3525 79.4404 37.9424C79.4404 37.5459 79.5179 37.1973 79.6729 36.8965C79.8278 36.5911 80.0511 36.3382 80.3428 36.1377C80.6344 35.9326 80.9854 35.7777 81.3955 35.6729C81.8057 35.568 82.2637 35.5156 82.7695 35.5156H84.2393ZM88.5322 34.0732V40H87.2607V32.6035H88.4639L88.5322 34.0732ZM88.2725 36.0215L87.6846 36.001C87.6891 35.4951 87.7552 35.028 87.8828 34.5996C88.0104 34.1667 88.1995 33.7907 88.4502 33.4717C88.7008 33.1527 89.013 32.9066 89.3867 32.7334C89.7604 32.5557 90.1934 32.4668 90.6855 32.4668C91.0319 32.4668 91.3509 32.5169 91.6426 32.6172C91.9342 32.7129 92.1872 32.8656 92.4014 33.0752C92.6156 33.2848 92.7819 33.5537 92.9004 33.8818C93.0189 34.21 93.0781 34.6064 93.0781 35.0713V40H91.8135V35.1328C91.8135 34.7454 91.7474 34.4355 91.6152 34.2031C91.4876 33.9707 91.3053 33.8021 91.0684 33.6973C90.8314 33.5879 90.5534 33.5332 90.2344 33.5332C89.8607 33.5332 89.5485 33.5993 89.2979 33.7314C89.0472 33.8636 88.8467 34.0459 88.6963 34.2783C88.5459 34.5107 88.4365 34.7773 88.3682 35.0781C88.3044 35.3743 88.2725 35.6888 88.2725 36.0215ZM93.0645 35.3242L92.2168 35.584C92.2214 35.1784 92.2874 34.7887 92.415 34.415C92.5472 34.0413 92.7363 33.7087 92.9824 33.417C93.2331 33.1253 93.5407 32.8952 93.9053 32.7266C94.2699 32.5534 94.6868 32.4668 95.1562 32.4668C95.5527 32.4668 95.9036 32.5192 96.209 32.624C96.5189 32.7288 96.7786 32.8906 96.9883 33.1094C97.2025 33.3236 97.3643 33.5993 97.4736 33.9365C97.583 34.2738 97.6377 34.6748 97.6377 35.1396V40H96.3662V35.126C96.3662 34.7113 96.3001 34.39 96.168 34.1621C96.0404 33.9297 95.8581 33.7679 95.6211 33.6768C95.3887 33.5811 95.1107 33.5332 94.7871 33.5332C94.5091 33.5332 94.263 33.5811 94.0488 33.6768C93.8346 33.7725 93.6546 33.9046 93.5088 34.0732C93.363 34.2373 93.2513 34.4264 93.1738 34.6406C93.1009 34.8548 93.0645 35.0827 93.0645 35.3242ZM102.621 40.1367C102.106 40.1367 101.639 40.0501 101.22 39.877C100.805 39.6992 100.447 39.4508 100.146 39.1318C99.8503 38.8128 99.6224 38.4346 99.4629 37.9971C99.3034 37.5596 99.2236 37.0811 99.2236 36.5615V36.2744C99.2236 35.6729 99.3125 35.1374 99.4902 34.668C99.668 34.194 99.9095 33.793 100.215 33.4648C100.52 33.1367 100.867 32.8883 101.254 32.7197C101.641 32.5511 102.042 32.4668 102.457 32.4668C102.986 32.4668 103.441 32.5579 103.824 32.7402C104.212 32.9225 104.528 33.1777 104.774 33.5059C105.021 33.8294 105.203 34.2122 105.321 34.6543C105.44 35.0918 105.499 35.5703 105.499 36.0898V36.6572H99.9756V35.625H104.234V35.5293C104.216 35.2012 104.148 34.8822 104.029 34.5723C103.915 34.2624 103.733 34.0072 103.482 33.8066C103.232 33.6061 102.89 33.5059 102.457 33.5059C102.17 33.5059 101.906 33.5674 101.664 33.6904C101.423 33.8089 101.215 33.9867 101.042 34.2236C100.869 34.4606 100.734 34.75 100.639 35.0918C100.543 35.4336 100.495 35.8278 100.495 36.2744V36.5615C100.495 36.9124 100.543 37.2428 100.639 37.5527C100.739 37.8581 100.882 38.127 101.069 38.3594C101.261 38.5918 101.491 38.7741 101.76 38.9062C102.033 39.0384 102.343 39.1045 102.689 39.1045C103.136 39.1045 103.514 39.0133 103.824 38.8311C104.134 38.6488 104.405 38.4049 104.638 38.0996L105.403 38.708C105.244 38.9495 105.041 39.1797 104.795 39.3984C104.549 39.6172 104.246 39.7949 103.886 39.9316C103.53 40.0684 103.109 40.1367 102.621 40.1367Z" fill="black"/>
<path d="M18.5703 73.0469V83H17.251V73.0469H18.5703ZM22.043 77.1826V83H20.7783V75.6035H21.9746L22.043 77.1826ZM21.7422 79.0215L21.2158 79.001C21.2204 78.4951 21.2956 78.028 21.4414 77.5996C21.5872 77.1667 21.7923 76.7907 22.0566 76.4717C22.321 76.1527 22.6354 75.9066 23 75.7334C23.3691 75.5557 23.777 75.4668 24.2236 75.4668C24.5882 75.4668 24.9163 75.5169 25.208 75.6172C25.4997 75.7129 25.748 75.8678 25.9531 76.082C26.1628 76.2962 26.3223 76.5742 26.4316 76.916C26.541 77.2533 26.5957 77.6657 26.5957 78.1533V83H25.3242V78.1396C25.3242 77.7523 25.2673 77.4424 25.1533 77.21C25.0394 76.973 24.873 76.8021 24.6543 76.6973C24.4355 76.5879 24.1667 76.5332 23.8477 76.5332C23.5332 76.5332 23.2461 76.5993 22.9863 76.7314C22.7311 76.8636 22.5101 77.0459 22.3232 77.2783C22.141 77.5107 21.9974 77.7773 21.8926 78.0781C21.7923 78.3743 21.7422 78.6888 21.7422 79.0215ZM32.8232 81.0381C32.8232 80.8558 32.7822 80.6872 32.7002 80.5322C32.6227 80.3727 32.4609 80.2292 32.2148 80.1016C31.9733 79.9694 31.6087 79.8555 31.1211 79.7598C30.7109 79.6732 30.3395 79.5706 30.0068 79.4521C29.6787 79.3337 29.3984 79.1901 29.166 79.0215C28.9382 78.8529 28.7627 78.6546 28.6396 78.4268C28.5166 78.1989 28.4551 77.9323 28.4551 77.627C28.4551 77.3353 28.5189 77.0596 28.6465 76.7998C28.7786 76.54 28.9632 76.3099 29.2002 76.1094C29.4417 75.9089 29.7311 75.7516 30.0684 75.6377C30.4056 75.5238 30.7816 75.4668 31.1963 75.4668C31.7887 75.4668 32.2946 75.5716 32.7139 75.7812C33.1331 75.9909 33.4544 76.2712 33.6777 76.6221C33.901 76.9684 34.0127 77.3535 34.0127 77.7773H32.748C32.748 77.5723 32.6865 77.374 32.5635 77.1826C32.445 76.9867 32.2695 76.8249 32.0371 76.6973C31.8092 76.5697 31.529 76.5059 31.1963 76.5059C30.8454 76.5059 30.5605 76.5605 30.3418 76.6699C30.1276 76.7747 29.9704 76.9092 29.8701 77.0732C29.7744 77.2373 29.7266 77.4105 29.7266 77.5928C29.7266 77.7295 29.7493 77.8525 29.7949 77.9619C29.8451 78.0667 29.9316 78.1647 30.0547 78.2559C30.1777 78.3424 30.3509 78.4245 30.5742 78.502C30.7975 78.5794 31.0824 78.6569 31.4287 78.7344C32.0348 78.8711 32.5339 79.0352 32.9258 79.2266C33.3177 79.418 33.6094 79.6527 33.8008 79.9307C33.9922 80.2087 34.0879 80.5459 34.0879 80.9424C34.0879 81.266 34.0195 81.5622 33.8828 81.8311C33.7507 82.0999 33.557 82.3324 33.3018 82.5283C33.0511 82.7197 32.7503 82.8701 32.3994 82.9795C32.0531 83.0843 31.6634 83.1367 31.2305 83.1367C30.5788 83.1367 30.0273 83.0205 29.5762 82.7881C29.125 82.5557 28.7832 82.2549 28.5508 81.8857C28.3184 81.5166 28.2021 81.127 28.2021 80.7168H29.4736C29.4919 81.0632 29.5921 81.3389 29.7744 81.5439C29.9567 81.7445 30.18 81.888 30.4443 81.9746C30.7087 82.0566 30.9707 82.0977 31.2305 82.0977C31.5768 82.0977 31.8662 82.0521 32.0986 81.9609C32.3356 81.8698 32.5156 81.7445 32.6387 81.585C32.7617 81.4255 32.8232 81.2432 32.8232 81.0381ZM38.8457 75.6035V76.5742H34.8467V75.6035H38.8457ZM36.2002 73.8057H37.4648V81.168C37.4648 81.4186 37.5036 81.6077 37.5811 81.7354C37.6585 81.863 37.7588 81.9473 37.8818 81.9883C38.0049 82.0293 38.137 82.0498 38.2783 82.0498C38.3831 82.0498 38.4925 82.0407 38.6064 82.0225C38.7249 81.9997 38.8138 81.9814 38.873 81.9678L38.8799 83C38.7796 83.0319 38.6475 83.0615 38.4834 83.0889C38.3239 83.1208 38.1302 83.1367 37.9023 83.1367C37.5924 83.1367 37.3076 83.0752 37.0479 82.9521C36.7881 82.8291 36.5807 82.624 36.4258 82.3369C36.2754 82.0452 36.2002 81.6533 36.2002 81.1611V73.8057ZM41.7031 75.6035V83H40.4316V75.6035H41.7031ZM40.3359 73.6416C40.3359 73.4365 40.3975 73.2633 40.5205 73.1221C40.6481 72.9808 40.835 72.9102 41.0811 72.9102C41.3226 72.9102 41.5072 72.9808 41.6348 73.1221C41.7669 73.2633 41.833 73.4365 41.833 73.6416C41.833 73.8376 41.7669 74.0062 41.6348 74.1475C41.5072 74.2842 41.3226 74.3525 41.0811 74.3525C40.835 74.3525 40.6481 74.2842 40.5205 74.1475C40.3975 74.0062 40.3359 73.8376 40.3359 73.6416ZM46.8301 75.6035V76.5742H42.8311V75.6035H46.8301ZM44.1846 73.8057H45.4492V81.168C45.4492 81.4186 45.488 81.6077 45.5654 81.7354C45.6429 81.863 45.7432 81.9473 45.8662 81.9883C45.9893 82.0293 46.1214 82.0498 46.2627 82.0498C46.3675 82.0498 46.4769 82.0407 46.5908 82.0225C46.7093 81.9997 46.7982 81.9814 46.8574 81.9678L46.8643 83C46.764 83.0319 46.6318 83.0615 46.4678 83.0889C46.3083 83.1208 46.1146 83.1367 45.8867 83.1367C45.5768 83.1367 45.292 83.0752 45.0322 82.9521C44.7725 82.8291 44.5651 82.624 44.4102 82.3369C44.2598 82.0452 44.1846 81.6533 44.1846 81.1611V73.8057ZM52.8389 81.291V75.6035H54.1104V83H52.9004L52.8389 81.291ZM53.0781 79.7324L53.6045 79.7188C53.6045 80.2109 53.5521 80.6667 53.4473 81.0859C53.347 81.5007 53.1829 81.8607 52.9551 82.166C52.7272 82.4714 52.4287 82.7106 52.0596 82.8838C51.6904 83.0524 51.2415 83.1367 50.7129 83.1367C50.3529 83.1367 50.0225 83.0843 49.7217 82.9795C49.4255 82.8747 49.1702 82.7129 48.9561 82.4941C48.7419 82.2754 48.5755 81.9906 48.457 81.6396C48.3431 81.2887 48.2861 80.8672 48.2861 80.375V75.6035H49.5508V80.3887C49.5508 80.7214 49.5872 80.9971 49.6602 81.2158C49.7376 81.43 49.8402 81.6009 49.9678 81.7285C50.0999 81.8516 50.2458 81.9382 50.4053 81.9883C50.5693 82.0384 50.738 82.0635 50.9111 82.0635C51.4489 82.0635 51.875 81.9609 52.1895 81.7559C52.5039 81.5462 52.7295 81.266 52.8662 80.915C53.0075 80.5596 53.0781 80.1654 53.0781 79.7324ZM59.1348 75.6035V76.5742H55.1357V75.6035H59.1348ZM56.4893 73.8057H57.7539V81.168C57.7539 81.4186 57.7926 81.6077 57.8701 81.7354C57.9476 81.863 58.0479 81.9473 58.1709 81.9883C58.2939 82.0293 58.4261 82.0498 58.5674 82.0498C58.6722 82.0498 58.7816 82.0407 58.8955 82.0225C59.014 81.9997 59.1029 81.9814 59.1621 81.9678L59.1689 83C59.0687 83.0319 58.9365 83.0615 58.7725 83.0889C58.613 83.1208 58.4193 83.1367 58.1914 83.1367C57.8815 83.1367 57.5967 83.0752 57.3369 82.9521C57.0771 82.8291 56.8698 82.624 56.7148 82.3369C56.5645 82.0452 56.4893 81.6533 56.4893 81.1611V73.8057ZM63.6875 83.1367C63.1725 83.1367 62.7054 83.0501 62.2861 82.877C61.8714 82.6992 61.5137 82.4508 61.2129 82.1318C60.9167 81.8128 60.6888 81.4346 60.5293 80.9971C60.3698 80.5596 60.29 80.0811 60.29 79.5615V79.2744C60.29 78.6729 60.3789 78.1374 60.5566 77.668C60.7344 77.194 60.9759 76.793 61.2812 76.4648C61.5866 76.1367 61.9329 75.8883 62.3203 75.7197C62.7077 75.5511 63.1087 75.4668 63.5234 75.4668C64.0521 75.4668 64.5078 75.5579 64.8906 75.7402C65.278 75.9225 65.5947 76.1777 65.8408 76.5059C66.0869 76.8294 66.2692 77.2122 66.3877 77.6543C66.5062 78.0918 66.5654 78.5703 66.5654 79.0898V79.6572H61.042V78.625H65.3008V78.5293C65.2826 78.2012 65.2142 77.8822 65.0957 77.5723C64.9818 77.2624 64.7995 77.0072 64.5488 76.8066C64.2982 76.6061 63.9564 76.5059 63.5234 76.5059C63.2363 76.5059 62.972 76.5674 62.7305 76.6904C62.4889 76.8089 62.2816 76.9867 62.1084 77.2236C61.9352 77.4606 61.8008 77.75 61.7051 78.0918C61.6094 78.4336 61.5615 78.8278 61.5615 79.2744V79.5615C61.5615 79.9124 61.6094 80.2428 61.7051 80.5527C61.8053 80.8581 61.9489 81.127 62.1357 81.3594C62.3271 81.5918 62.5573 81.7741 62.8262 81.9062C63.0996 82.0384 63.4095 82.1045 63.7559 82.1045C64.2025 82.1045 64.5807 82.0133 64.8906 81.8311C65.2005 81.6488 65.4717 81.4049 65.7041 81.0996L66.4697 81.708C66.3102 81.9495 66.1074 82.1797 65.8613 82.3984C65.6152 82.6172 65.3122 82.7949 64.9521 82.9316C64.5967 83.0684 64.1751 83.1367 63.6875 83.1367Z" fill="black"/>
<path d="M27.46 123.484C27.46 123.252 27.4235 123.047 27.3506 122.869C27.2822 122.687 27.1592 122.523 26.9814 122.377C26.8083 122.231 26.5667 122.092 26.2568 121.96C25.9515 121.828 25.5641 121.693 25.0947 121.557C24.6025 121.411 24.1582 121.249 23.7617 121.071C23.3652 120.889 23.0257 120.682 22.7432 120.449C22.4606 120.217 22.2441 119.95 22.0938 119.649C21.9434 119.349 21.8682 119.005 21.8682 118.617C21.8682 118.23 21.9479 117.872 22.1074 117.544C22.2669 117.216 22.4948 116.931 22.791 116.689C23.0918 116.443 23.4495 116.252 23.8643 116.115C24.279 115.979 24.7415 115.91 25.252 115.91C25.9993 115.91 26.6328 116.054 27.1523 116.341C27.6764 116.623 28.0752 116.995 28.3486 117.455C28.6221 117.911 28.7588 118.398 28.7588 118.918H27.4463C27.4463 118.544 27.3665 118.214 27.207 117.927C27.0475 117.635 26.806 117.407 26.4824 117.243C26.1589 117.075 25.7487 116.99 25.252 116.99C24.7826 116.99 24.3952 117.061 24.0898 117.202C23.7845 117.343 23.5566 117.535 23.4062 117.776C23.2604 118.018 23.1875 118.294 23.1875 118.604C23.1875 118.813 23.2308 119.005 23.3174 119.178C23.4085 119.346 23.5475 119.504 23.7344 119.649C23.9258 119.795 24.1673 119.93 24.459 120.053C24.7552 120.176 25.1084 120.294 25.5186 120.408C26.0837 120.568 26.5713 120.745 26.9814 120.941C27.3916 121.137 27.7288 121.358 27.9932 121.604C28.262 121.846 28.4603 122.122 28.5879 122.432C28.7201 122.737 28.7861 123.083 28.7861 123.471C28.7861 123.876 28.7041 124.243 28.54 124.571C28.376 124.899 28.1413 125.18 27.8359 125.412C27.5306 125.645 27.1637 125.825 26.7354 125.952C26.3115 126.075 25.8376 126.137 25.3135 126.137C24.8532 126.137 24.3997 126.073 23.9531 125.945C23.5111 125.818 23.1077 125.626 22.7432 125.371C22.3831 125.116 22.0938 124.801 21.875 124.428C21.6608 124.049 21.5537 123.612 21.5537 123.115H22.8662C22.8662 123.457 22.9323 123.751 23.0645 123.997C23.1966 124.239 23.3766 124.439 23.6045 124.599C23.8369 124.758 24.099 124.877 24.3906 124.954C24.6868 125.027 24.9945 125.063 25.3135 125.063C25.7738 125.063 26.1634 125 26.4824 124.872C26.8014 124.744 27.043 124.562 27.207 124.325C27.3757 124.088 27.46 123.808 27.46 123.484ZM33.373 118.604V119.574H29.374V118.604H33.373ZM30.7275 116.806H31.9922V124.168C31.9922 124.419 32.0309 124.608 32.1084 124.735C32.1859 124.863 32.2861 124.947 32.4092 124.988C32.5322 125.029 32.6644 125.05 32.8057 125.05C32.9105 125.05 33.0199 125.041 33.1338 125.022C33.2523 125 33.3411 124.981 33.4004 124.968L33.4072 126C33.307 126.032 33.1748 126.062 33.0107 126.089C32.8512 126.121 32.6576 126.137 32.4297 126.137C32.1198 126.137 31.835 126.075 31.5752 125.952C31.3154 125.829 31.1081 125.624 30.9531 125.337C30.8027 125.045 30.7275 124.653 30.7275 124.161V116.806ZM39.2178 124.735V120.928C39.2178 120.636 39.1585 120.383 39.04 120.169C38.9261 119.95 38.7529 119.782 38.5205 119.663C38.2881 119.545 38.001 119.485 37.6592 119.485C37.3402 119.485 37.0599 119.54 36.8184 119.649C36.5814 119.759 36.3945 119.902 36.2578 120.08C36.1257 120.258 36.0596 120.449 36.0596 120.654H34.7949C34.7949 120.39 34.8633 120.128 35 119.868C35.1367 119.608 35.3327 119.374 35.5879 119.164C35.8477 118.95 36.1576 118.781 36.5176 118.658C36.8822 118.531 37.2878 118.467 37.7344 118.467C38.2721 118.467 38.7461 118.558 39.1562 118.74C39.571 118.923 39.8945 119.198 40.127 119.567C40.3639 119.932 40.4824 120.39 40.4824 120.941V124.387C40.4824 124.633 40.5029 124.895 40.5439 125.173C40.5895 125.451 40.6556 125.69 40.7422 125.891V126H39.4229C39.359 125.854 39.3089 125.66 39.2725 125.419C39.236 125.173 39.2178 124.945 39.2178 124.735ZM39.4365 121.516L39.4502 122.404H38.1719C37.8118 122.404 37.4906 122.434 37.208 122.493C36.9255 122.548 36.6885 122.632 36.4971 122.746C36.3057 122.86 36.1598 123.004 36.0596 123.177C35.9593 123.345 35.9092 123.544 35.9092 123.771C35.9092 124.004 35.9616 124.216 36.0664 124.407C36.1712 124.599 36.3285 124.751 36.5381 124.865C36.7523 124.975 37.0143 125.029 37.3242 125.029C37.7116 125.029 38.0534 124.947 38.3496 124.783C38.6458 124.619 38.8805 124.419 39.0537 124.182C39.2314 123.945 39.3271 123.715 39.3408 123.491L39.8809 124.1C39.849 124.291 39.7624 124.503 39.6211 124.735C39.4798 124.968 39.2907 125.191 39.0537 125.405C38.8213 125.615 38.5433 125.79 38.2197 125.932C37.9007 126.068 37.5407 126.137 37.1396 126.137C36.6383 126.137 36.1986 126.039 35.8203 125.843C35.4466 125.647 35.1549 125.385 34.9453 125.057C34.7402 124.724 34.6377 124.353 34.6377 123.942C34.6377 123.546 34.7152 123.197 34.8701 122.896C35.0251 122.591 35.2484 122.338 35.54 122.138C35.8317 121.933 36.1826 121.778 36.5928 121.673C37.0029 121.568 37.4609 121.516 37.9668 121.516H39.4365ZM43.7363 119.766V126H42.4717V118.604H43.7021L43.7363 119.766ZM46.0469 118.562L46.04 119.738C45.9352 119.715 45.835 119.702 45.7393 119.697C45.6481 119.688 45.5433 119.684 45.4248 119.684C45.1331 119.684 44.8757 119.729 44.6523 119.82C44.429 119.911 44.2399 120.039 44.085 120.203C43.93 120.367 43.807 120.563 43.7158 120.791C43.6292 121.014 43.5723 121.26 43.5449 121.529L43.1895 121.734C43.1895 121.288 43.2327 120.868 43.3193 120.477C43.4105 120.085 43.5495 119.738 43.7363 119.438C43.9232 119.132 44.1602 118.895 44.4473 118.727C44.7389 118.553 45.0853 118.467 45.4863 118.467C45.5775 118.467 45.6823 118.478 45.8008 118.501C45.9193 118.519 46.0013 118.54 46.0469 118.562ZM50.6543 118.604V119.574H46.6553V118.604H50.6543ZM48.0088 116.806H49.2734V124.168C49.2734 124.419 49.3122 124.608 49.3896 124.735C49.4671 124.863 49.5674 124.947 49.6904 124.988C49.8135 125.029 49.9456 125.05 50.0869 125.05C50.1917 125.05 50.3011 125.041 50.415 125.022C50.5335 125 50.6224 124.981 50.6816 124.968L50.6885 126C50.5882 126.032 50.4561 126.062 50.292 126.089C50.1325 126.121 49.9388 126.137 49.7109 126.137C49.401 126.137 49.1162 126.075 48.8564 125.952C48.5967 125.829 48.3893 125.624 48.2344 125.337C48.084 125.045 48.0088 124.653 48.0088 124.161V116.806ZM58.4951 126H56.417L56.4307 124.927H58.4951C59.2061 124.927 59.7985 124.779 60.2725 124.482C60.7464 124.182 61.1019 123.762 61.3389 123.225C61.5804 122.682 61.7012 122.049 61.7012 121.324V120.716C61.7012 120.146 61.6328 119.64 61.4961 119.198C61.3594 118.752 61.1589 118.376 60.8945 118.07C60.6302 117.76 60.3066 117.526 59.9238 117.366C59.5456 117.207 59.1104 117.127 58.6182 117.127H56.376V116.047H58.6182C59.2699 116.047 59.8646 116.156 60.4023 116.375C60.9401 116.589 61.4027 116.901 61.79 117.312C62.182 117.717 62.4827 118.209 62.6924 118.788C62.902 119.362 63.0068 120.009 63.0068 120.729V121.324C63.0068 122.044 62.902 122.694 62.6924 123.272C62.4827 123.847 62.1797 124.337 61.7832 124.742C61.3913 125.148 60.9173 125.46 60.3613 125.679C59.8099 125.893 59.1878 126 58.4951 126ZM57.1211 116.047V126H55.8018V116.047H57.1211ZM69.1592 124.735V120.928C69.1592 120.636 69.0999 120.383 68.9814 120.169C68.8675 119.95 68.6943 119.782 68.4619 119.663C68.2295 119.545 67.9424 119.485 67.6006 119.485C67.2816 119.485 67.0013 119.54 66.7598 119.649C66.5228 119.759 66.3359 119.902 66.1992 120.08C66.0671 120.258 66.001 120.449 66.001 120.654H64.7363C64.7363 120.39 64.8047 120.128 64.9414 119.868C65.0781 119.608 65.2741 119.374 65.5293 119.164C65.7891 118.95 66.099 118.781 66.459 118.658C66.8236 118.531 67.2292 118.467 67.6758 118.467C68.2135 118.467 68.6875 118.558 69.0977 118.74C69.5124 118.923 69.8359 119.198 70.0684 119.567C70.3053 119.932 70.4238 120.39 70.4238 120.941V124.387C70.4238 124.633 70.4443 124.895 70.4854 125.173C70.5309 125.451 70.597 125.69 70.6836 125.891V126H69.3643C69.3005 125.854 69.2503 125.66 69.2139 125.419C69.1774 125.173 69.1592 124.945 69.1592 124.735ZM69.3779 121.516L69.3916 122.404H68.1133C67.7533 122.404 67.432 122.434 67.1494 122.493C66.8669 122.548 66.6299 122.632 66.4385 122.746C66.2471 122.86 66.1012 123.004 66.001 123.177C65.9007 123.345 65.8506 123.544 65.8506 123.771C65.8506 124.004 65.903 124.216 66.0078 124.407C66.1126 124.599 66.2699 124.751 66.4795 124.865C66.6937 124.975 66.9557 125.029 67.2656 125.029C67.653 125.029 67.9948 124.947 68.291 124.783C68.5872 124.619 68.8219 124.419 68.9951 124.182C69.1729 123.945 69.2686 123.715 69.2822 123.491L69.8223 124.1C69.7904 124.291 69.7038 124.503 69.5625 124.735C69.4212 124.968 69.2321 125.191 68.9951 125.405C68.7627 125.615 68.4847 125.79 68.1611 125.932C67.8421 126.068 67.4821 126.137 67.0811 126.137C66.5798 126.137 66.14 126.039 65.7617 125.843C65.388 125.647 65.0964 125.385 64.8867 125.057C64.6816 124.724 64.5791 124.353 64.5791 123.942C64.5791 123.546 64.6566 123.197 64.8115 122.896C64.9665 122.591 65.1898 122.338 65.4814 122.138C65.7731 121.933 66.124 121.778 66.5342 121.673C66.9443 121.568 67.4023 121.516 67.9082 121.516H69.3779ZM75.5098 118.604V119.574H71.5107V118.604H75.5098ZM72.8643 116.806H74.1289V124.168C74.1289 124.419 74.1676 124.608 74.2451 124.735C74.3226 124.863 74.4229 124.947 74.5459 124.988C74.6689 125.029 74.8011 125.05 74.9424 125.05C75.0472 125.05 75.1566 125.041 75.2705 125.022C75.389 125 75.4779 124.981 75.5371 124.968L75.5439 126C75.4437 126.032 75.3115 126.062 75.1475 126.089C74.988 126.121 74.7943 126.137 74.5664 126.137C74.2565 126.137 73.9717 126.075 73.7119 125.952C73.4521 125.829 73.2448 125.624 73.0898 125.337C72.9395 125.045 72.8643 124.653 72.8643 124.161V116.806ZM80.0625 126.137C79.5475 126.137 79.0804 126.05 78.6611 125.877C78.2464 125.699 77.8887 125.451 77.5879 125.132C77.2917 124.813 77.0638 124.435 76.9043 123.997C76.7448 123.56 76.665 123.081 76.665 122.562V122.274C76.665 121.673 76.7539 121.137 76.9316 120.668C77.1094 120.194 77.3509 119.793 77.6562 119.465C77.9616 119.137 78.3079 118.888 78.6953 118.72C79.0827 118.551 79.4837 118.467 79.8984 118.467C80.4271 118.467 80.8828 118.558 81.2656 118.74C81.653 118.923 81.9697 119.178 82.2158 119.506C82.4619 119.829 82.6442 120.212 82.7627 120.654C82.8812 121.092 82.9404 121.57 82.9404 122.09V122.657H77.417V121.625H81.6758V121.529C81.6576 121.201 81.5892 120.882 81.4707 120.572C81.3568 120.262 81.1745 120.007 80.9238 119.807C80.6732 119.606 80.3314 119.506 79.8984 119.506C79.6113 119.506 79.347 119.567 79.1055 119.69C78.8639 119.809 78.6566 119.987 78.4834 120.224C78.3102 120.461 78.1758 120.75 78.0801 121.092C77.9844 121.434 77.9365 121.828 77.9365 122.274V122.562C77.9365 122.912 77.9844 123.243 78.0801 123.553C78.1803 123.858 78.3239 124.127 78.5107 124.359C78.7021 124.592 78.9323 124.774 79.2012 124.906C79.4746 125.038 79.7845 125.104 80.1309 125.104C80.5775 125.104 80.9557 125.013 81.2656 124.831C81.5755 124.649 81.8467 124.405 82.0791 124.1L82.8447 124.708C82.6852 124.95 82.4824 125.18 82.2363 125.398C81.9902 125.617 81.6872 125.795 81.3271 125.932C80.9717 126.068 80.5501 126.137 80.0625 126.137Z" fill="black"/>
<path d="M123.479 124.927V126H118.208V124.927H123.479ZM118.475 116.047V126H117.155V116.047H118.475ZM122.781 120.326V121.399H118.208V120.326H122.781ZM123.41 116.047V117.127H118.208V116.047H123.41ZM126.186 120.183V126H124.921V118.604H126.117L126.186 120.183ZM125.885 122.021L125.358 122.001C125.363 121.495 125.438 121.028 125.584 120.6C125.73 120.167 125.935 119.791 126.199 119.472C126.464 119.153 126.778 118.907 127.143 118.733C127.512 118.556 127.92 118.467 128.366 118.467C128.731 118.467 129.059 118.517 129.351 118.617C129.642 118.713 129.891 118.868 130.096 119.082C130.305 119.296 130.465 119.574 130.574 119.916C130.684 120.253 130.738 120.666 130.738 121.153V126H129.467V121.14C129.467 120.752 129.41 120.442 129.296 120.21C129.182 119.973 129.016 119.802 128.797 119.697C128.578 119.588 128.309 119.533 127.99 119.533C127.676 119.533 127.389 119.599 127.129 119.731C126.874 119.864 126.653 120.046 126.466 120.278C126.284 120.511 126.14 120.777 126.035 121.078C125.935 121.374 125.885 121.689 125.885 122.021ZM137.321 124.564V115.5H138.593V126H137.431L137.321 124.564ZM132.345 122.384V122.24C132.345 121.675 132.413 121.162 132.55 120.702C132.691 120.237 132.889 119.839 133.145 119.506C133.404 119.173 133.712 118.918 134.067 118.74C134.427 118.558 134.828 118.467 135.271 118.467C135.735 118.467 136.141 118.549 136.487 118.713C136.838 118.872 137.134 119.107 137.376 119.417C137.622 119.722 137.816 120.091 137.957 120.524C138.098 120.957 138.196 121.447 138.251 121.994V122.623C138.201 123.165 138.103 123.653 137.957 124.086C137.816 124.519 137.622 124.888 137.376 125.193C137.134 125.499 136.838 125.733 136.487 125.897C136.136 126.057 135.726 126.137 135.257 126.137C134.824 126.137 134.427 126.043 134.067 125.856C133.712 125.67 133.404 125.408 133.145 125.07C132.889 124.733 132.691 124.337 132.55 123.881C132.413 123.421 132.345 122.922 132.345 122.384ZM133.616 122.24V122.384C133.616 122.753 133.653 123.099 133.726 123.423C133.803 123.746 133.922 124.031 134.081 124.277C134.241 124.523 134.443 124.717 134.689 124.858C134.936 124.995 135.229 125.063 135.571 125.063C135.991 125.063 136.335 124.975 136.604 124.797C136.877 124.619 137.096 124.384 137.26 124.093C137.424 123.801 137.551 123.484 137.643 123.143V121.495C137.588 121.244 137.508 121.003 137.403 120.771C137.303 120.534 137.171 120.324 137.007 120.142C136.847 119.955 136.649 119.807 136.412 119.697C136.18 119.588 135.904 119.533 135.585 119.533C135.239 119.533 134.94 119.606 134.689 119.752C134.443 119.893 134.241 120.089 134.081 120.34C133.922 120.586 133.803 120.873 133.726 121.201C133.653 121.525 133.616 121.871 133.616 122.24ZM146.919 126H144.841L144.854 124.927H146.919C147.63 124.927 148.222 124.779 148.696 124.482C149.17 124.182 149.526 123.762 149.763 123.225C150.004 122.682 150.125 122.049 150.125 121.324V120.716C150.125 120.146 150.057 119.64 149.92 119.198C149.783 118.752 149.583 118.376 149.318 118.07C149.054 117.76 148.73 117.526 148.348 117.366C147.969 117.207 147.534 117.127 147.042 117.127H144.8V116.047H147.042C147.694 116.047 148.288 116.156 148.826 116.375C149.364 116.589 149.826 116.901 150.214 117.312C150.606 117.717 150.907 118.209 151.116 118.788C151.326 119.362 151.431 120.009 151.431 120.729V121.324C151.431 122.044 151.326 122.694 151.116 123.272C150.907 123.847 150.604 124.337 150.207 124.742C149.815 125.148 149.341 125.46 148.785 125.679C148.234 125.893 147.612 126 146.919 126ZM145.545 116.047V126H144.226V116.047H145.545ZM157.583 124.735V120.928C157.583 120.636 157.524 120.383 157.405 120.169C157.291 119.95 157.118 119.782 156.886 119.663C156.653 119.545 156.366 119.485 156.024 119.485C155.705 119.485 155.425 119.54 155.184 119.649C154.947 119.759 154.76 119.902 154.623 120.08C154.491 120.258 154.425 120.449 154.425 120.654H153.16C153.16 120.39 153.229 120.128 153.365 119.868C153.502 119.608 153.698 119.374 153.953 119.164C154.213 118.95 154.523 118.781 154.883 118.658C155.247 118.531 155.653 118.467 156.1 118.467C156.637 118.467 157.111 118.558 157.521 118.74C157.936 118.923 158.26 119.198 158.492 119.567C158.729 119.932 158.848 120.39 158.848 120.941V124.387C158.848 124.633 158.868 124.895 158.909 125.173C158.955 125.451 159.021 125.69 159.107 125.891V126H157.788C157.724 125.854 157.674 125.66 157.638 125.419C157.601 125.173 157.583 124.945 157.583 124.735ZM157.802 121.516L157.815 122.404H156.537C156.177 122.404 155.856 122.434 155.573 122.493C155.291 122.548 155.054 122.632 154.862 122.746C154.671 122.86 154.525 123.004 154.425 123.177C154.325 123.345 154.274 123.544 154.274 123.771C154.274 124.004 154.327 124.216 154.432 124.407C154.536 124.599 154.694 124.751 154.903 124.865C155.118 124.975 155.38 125.029 155.689 125.029C156.077 125.029 156.419 124.947 156.715 124.783C157.011 124.619 157.246 124.419 157.419 124.182C157.597 123.945 157.692 123.715 157.706 123.491L158.246 124.1C158.214 124.291 158.128 124.503 157.986 124.735C157.845 124.968 157.656 125.191 157.419 125.405C157.187 125.615 156.909 125.79 156.585 125.932C156.266 126.068 155.906 126.137 155.505 126.137C155.004 126.137 154.564 126.039 154.186 125.843C153.812 125.647 153.52 125.385 153.311 125.057C153.105 124.724 153.003 124.353 153.003 123.942C153.003 123.546 153.08 123.197 153.235 122.896C153.39 122.591 153.614 122.338 153.905 122.138C154.197 121.933 154.548 121.778 154.958 121.673C155.368 121.568 155.826 121.516 156.332 121.516H157.802ZM163.934 118.604V119.574H159.935V118.604H163.934ZM161.288 116.806H162.553V124.168C162.553 124.419 162.591 124.608 162.669 124.735C162.746 124.863 162.847 124.947 162.97 124.988C163.093 125.029 163.225 125.05 163.366 125.05C163.471 125.05 163.58 125.041 163.694 125.022C163.813 125 163.902 124.981 163.961 124.968L163.968 126C163.868 126.032 163.735 126.062 163.571 126.089C163.412 126.121 163.218 126.137 162.99 126.137C162.68 126.137 162.396 126.075 162.136 125.952C161.876 125.829 161.669 125.624 161.514 125.337C161.363 125.045 161.288 124.653 161.288 124.161V116.806ZM168.486 126.137C167.971 126.137 167.504 126.05 167.085 125.877C166.67 125.699 166.312 125.451 166.012 125.132C165.715 124.813 165.488 124.435 165.328 123.997C165.169 123.56 165.089 123.081 165.089 122.562V122.274C165.089 121.673 165.178 121.137 165.355 120.668C165.533 120.194 165.775 119.793 166.08 119.465C166.385 119.137 166.732 118.888 167.119 118.72C167.507 118.551 167.908 118.467 168.322 118.467C168.851 118.467 169.307 118.558 169.689 118.74C170.077 118.923 170.394 119.178 170.64 119.506C170.886 119.829 171.068 120.212 171.187 120.654C171.305 121.092 171.364 121.57 171.364 122.09V122.657H165.841V121.625H170.1V121.529C170.081 121.201 170.013 120.882 169.895 120.572C169.781 120.262 169.598 120.007 169.348 119.807C169.097 119.606 168.755 119.506 168.322 119.506C168.035 119.506 167.771 119.567 167.529 119.69C167.288 119.809 167.08 119.987 166.907 120.224C166.734 120.461 166.6 120.75 166.504 121.092C166.408 121.434 166.36 121.828 166.36 122.274V122.562C166.36 122.912 166.408 123.243 166.504 123.553C166.604 123.858 166.748 124.127 166.935 124.359C167.126 124.592 167.356 124.774 167.625 124.906C167.898 125.038 168.208 125.104 168.555 125.104C169.001 125.104 169.38 125.013 169.689 124.831C169.999 124.649 170.271 124.405 170.503 124.1L171.269 124.708C171.109 124.95 170.906 125.18 170.66 125.398C170.414 125.617 170.111 125.795 169.751 125.932C169.396 126.068 168.974 126.137 168.486 126.137Z" fill="black"/>
<path d="M337.191 124.927V126H332.215V124.927H337.191ZM332.475 116.047V126H331.155V116.047H332.475ZM338.176 122.384V122.227C338.176 121.693 338.253 121.199 338.408 120.743C338.563 120.283 338.786 119.884 339.078 119.547C339.37 119.205 339.723 118.941 340.138 118.754C340.552 118.562 341.017 118.467 341.532 118.467C342.052 118.467 342.519 118.562 342.934 118.754C343.353 118.941 343.708 119.205 344 119.547C344.296 119.884 344.522 120.283 344.677 120.743C344.832 121.199 344.909 121.693 344.909 122.227V122.384C344.909 122.917 344.832 123.411 344.677 123.867C344.522 124.323 344.296 124.722 344 125.063C343.708 125.401 343.355 125.665 342.94 125.856C342.53 126.043 342.065 126.137 341.546 126.137C341.026 126.137 340.559 126.043 340.145 125.856C339.73 125.665 339.374 125.401 339.078 125.063C338.786 124.722 338.563 124.323 338.408 123.867C338.253 123.411 338.176 122.917 338.176 122.384ZM339.44 122.227V122.384C339.44 122.753 339.484 123.102 339.57 123.43C339.657 123.753 339.787 124.04 339.96 124.291C340.138 124.542 340.359 124.74 340.623 124.886C340.887 125.027 341.195 125.098 341.546 125.098C341.892 125.098 342.195 125.027 342.455 124.886C342.719 124.74 342.938 124.542 343.111 124.291C343.285 124.04 343.414 123.753 343.501 123.43C343.592 123.102 343.638 122.753 343.638 122.384V122.227C343.638 121.862 343.592 121.518 343.501 121.194C343.414 120.866 343.282 120.577 343.104 120.326C342.931 120.071 342.713 119.87 342.448 119.725C342.188 119.579 341.883 119.506 341.532 119.506C341.186 119.506 340.881 119.579 340.616 119.725C340.356 119.87 340.138 120.071 339.96 120.326C339.787 120.577 339.657 120.866 339.57 121.194C339.484 121.518 339.44 121.862 339.44 122.227ZM349.455 125.098C349.756 125.098 350.034 125.036 350.289 124.913C350.544 124.79 350.754 124.621 350.918 124.407C351.082 124.188 351.175 123.94 351.198 123.662H352.401C352.379 124.1 352.23 124.507 351.957 124.886C351.688 125.259 351.335 125.562 350.897 125.795C350.46 126.023 349.979 126.137 349.455 126.137C348.899 126.137 348.414 126.039 347.999 125.843C347.589 125.647 347.247 125.378 346.974 125.036C346.705 124.694 346.502 124.302 346.365 123.86C346.233 123.414 346.167 122.942 346.167 122.445V122.158C346.167 121.661 346.233 121.192 346.365 120.75C346.502 120.303 346.705 119.909 346.974 119.567C347.247 119.226 347.589 118.957 347.999 118.761C348.414 118.565 348.899 118.467 349.455 118.467C350.034 118.467 350.54 118.585 350.973 118.822C351.406 119.055 351.745 119.374 351.991 119.779C352.242 120.18 352.379 120.636 352.401 121.146H351.198C351.175 120.841 351.089 120.565 350.938 120.319C350.793 120.073 350.592 119.877 350.337 119.731C350.086 119.581 349.792 119.506 349.455 119.506C349.068 119.506 348.742 119.583 348.478 119.738C348.218 119.889 348.01 120.094 347.855 120.354C347.705 120.609 347.596 120.894 347.527 121.208C347.464 121.518 347.432 121.835 347.432 122.158V122.445C347.432 122.769 347.464 123.088 347.527 123.402C347.591 123.717 347.698 124.002 347.849 124.257C348.004 124.512 348.211 124.717 348.471 124.872C348.735 125.022 349.063 125.098 349.455 125.098ZM358.185 124.735V120.928C358.185 120.636 358.125 120.383 358.007 120.169C357.893 119.95 357.72 119.782 357.487 119.663C357.255 119.545 356.968 119.485 356.626 119.485C356.307 119.485 356.027 119.54 355.785 119.649C355.548 119.759 355.361 119.902 355.225 120.08C355.092 120.258 355.026 120.449 355.026 120.654H353.762C353.762 120.39 353.83 120.128 353.967 119.868C354.104 119.608 354.299 119.374 354.555 119.164C354.814 118.95 355.124 118.781 355.484 118.658C355.849 118.531 356.255 118.467 356.701 118.467C357.239 118.467 357.713 118.558 358.123 118.74C358.538 118.923 358.861 119.198 359.094 119.567C359.331 119.932 359.449 120.39 359.449 120.941V124.387C359.449 124.633 359.47 124.895 359.511 125.173C359.556 125.451 359.622 125.69 359.709 125.891V126H358.39C358.326 125.854 358.276 125.66 358.239 125.419C358.203 125.173 358.185 124.945 358.185 124.735ZM358.403 121.516L358.417 122.404H357.139C356.779 122.404 356.457 122.434 356.175 122.493C355.892 122.548 355.655 122.632 355.464 122.746C355.272 122.86 355.127 123.004 355.026 123.177C354.926 123.345 354.876 123.544 354.876 123.771C354.876 124.004 354.928 124.216 355.033 124.407C355.138 124.599 355.295 124.751 355.505 124.865C355.719 124.975 355.981 125.029 356.291 125.029C356.678 125.029 357.02 124.947 357.316 124.783C357.613 124.619 357.847 124.419 358.021 124.182C358.198 123.945 358.294 123.715 358.308 123.491L358.848 124.1C358.816 124.291 358.729 124.503 358.588 124.735C358.447 124.968 358.257 125.191 358.021 125.405C357.788 125.615 357.51 125.79 357.187 125.932C356.868 126.068 356.507 126.137 356.106 126.137C355.605 126.137 355.165 126.039 354.787 125.843C354.413 125.647 354.122 125.385 353.912 125.057C353.707 124.724 353.604 124.353 353.604 123.942C353.604 123.546 353.682 123.197 353.837 122.896C353.992 122.591 354.215 122.338 354.507 122.138C354.799 121.933 355.149 121.778 355.56 121.673C355.97 121.568 356.428 121.516 356.934 121.516H358.403ZM364.535 118.604V119.574H360.536V118.604H364.535ZM361.89 116.806H363.154V124.168C363.154 124.419 363.193 124.608 363.271 124.735C363.348 124.863 363.448 124.947 363.571 124.988C363.694 125.029 363.826 125.05 363.968 125.05C364.073 125.05 364.182 125.041 364.296 125.022C364.414 125 364.503 124.981 364.562 124.968L364.569 126C364.469 126.032 364.337 126.062 364.173 126.089C364.013 126.121 363.82 126.137 363.592 126.137C363.282 126.137 362.997 126.075 362.737 125.952C362.478 125.829 362.27 125.624 362.115 125.337C361.965 125.045 361.89 124.653 361.89 124.161V116.806ZM367.393 118.604V126H366.121V118.604H367.393ZM366.025 116.642C366.025 116.437 366.087 116.263 366.21 116.122C366.338 115.981 366.524 115.91 366.771 115.91C367.012 115.91 367.197 115.981 367.324 116.122C367.456 116.263 367.522 116.437 367.522 116.642C367.522 116.838 367.456 117.006 367.324 117.147C367.197 117.284 367.012 117.353 366.771 117.353C366.524 117.353 366.338 117.284 366.21 117.147C366.087 117.006 366.025 116.838 366.025 116.642ZM369.088 122.384V122.227C369.088 121.693 369.165 121.199 369.32 120.743C369.475 120.283 369.699 119.884 369.99 119.547C370.282 119.205 370.635 118.941 371.05 118.754C371.465 118.562 371.929 118.467 372.444 118.467C372.964 118.467 373.431 118.562 373.846 118.754C374.265 118.941 374.62 119.205 374.912 119.547C375.208 119.884 375.434 120.283 375.589 120.743C375.744 121.199 375.821 121.693 375.821 122.227V122.384C375.821 122.917 375.744 123.411 375.589 123.867C375.434 124.323 375.208 124.722 374.912 125.063C374.62 125.401 374.267 125.665 373.853 125.856C373.442 126.043 372.978 126.137 372.458 126.137C371.938 126.137 371.471 126.043 371.057 125.856C370.642 125.665 370.286 125.401 369.99 125.063C369.699 124.722 369.475 124.323 369.32 123.867C369.165 123.411 369.088 122.917 369.088 122.384ZM370.353 122.227V122.384C370.353 122.753 370.396 123.102 370.482 123.43C370.569 123.753 370.699 124.04 370.872 124.291C371.05 124.542 371.271 124.74 371.535 124.886C371.799 125.027 372.107 125.098 372.458 125.098C372.804 125.098 373.107 125.027 373.367 124.886C373.632 124.74 373.85 124.542 374.023 124.291C374.197 124.04 374.326 123.753 374.413 123.43C374.504 123.102 374.55 122.753 374.55 122.384V122.227C374.55 121.862 374.504 121.518 374.413 121.194C374.326 120.866 374.194 120.577 374.017 120.326C373.843 120.071 373.625 119.87 373.36 119.725C373.101 119.579 372.795 119.506 372.444 119.506C372.098 119.506 371.793 119.579 371.528 119.725C371.269 119.87 371.05 120.071 370.872 120.326C370.699 120.577 370.569 120.866 370.482 121.194C370.396 121.518 370.353 121.862 370.353 122.227ZM378.672 120.183V126H377.407V118.604H378.604L378.672 120.183ZM378.371 122.021L377.845 122.001C377.849 121.495 377.924 121.028 378.07 120.6C378.216 120.167 378.421 119.791 378.686 119.472C378.95 119.153 379.264 118.907 379.629 118.733C379.998 118.556 380.406 118.467 380.853 118.467C381.217 118.467 381.545 118.517 381.837 118.617C382.129 118.713 382.377 118.868 382.582 119.082C382.792 119.296 382.951 119.574 383.061 119.916C383.17 120.253 383.225 120.666 383.225 121.153V126H381.953V121.14C381.953 120.752 381.896 120.442 381.782 120.21C381.668 119.973 381.502 119.802 381.283 119.697C381.064 119.588 380.796 119.533 380.477 119.533C380.162 119.533 379.875 119.599 379.615 119.731C379.36 119.864 379.139 120.046 378.952 120.278C378.77 120.511 378.626 120.777 378.521 121.078C378.421 121.374 378.371 121.689 378.371 122.021Z" fill="black"/>
</g>
<defs>
<filter id="filter0_d_16_149" x="0" y="0" width="443" height="160" filterUnits="userSpaceOnUse" color-interpolation-filters="sRGB">
<feFlood flood-opacity="0" result="BackgroundImageFix"/>
<feColorMatrix in="SourceAlpha" type="matrix" values="0 0 0 0 0 0 0 0 0 0 0 0 0 0 0 0 0 0 127 0" result="hardAlpha"/>
<feOffset dy="4"/>
<feGaussianBlur stdDeviation="2"/>
<feComposite in2="hardAlpha" operator="out"/>
<feColorMatrix type="matrix" values="0 0 0 0 0 0 0 0 0 0 0 0 0 0 0 0 0 0 0.25 0"/>
<feBlend mode="normal" in2="BackgroundImageFix" result="effect1_dropShadow_16_149"/>
<feBlend mode="normal" in="SourceGraphic" in2="effect1_dropShadow_16_149" result="shape"/>
</filter>
<filter id="filter1_d_16_149" x="0" y="0" width="443" height="160" filterUnits="userSpaceOnUse" color-interpolation-filters="sRGB">
<feFlood flood-opacity="0" result="BackgroundImageFix"/>
<feColorMatrix in="SourceAlpha" type="matrix" values="0 0 0 0 0 0 0 0 0 0 0 0 0 0 0 0 0 0 127 0" result="hardAlpha"/>
<feOffset dy="4"/>
<feGaussianBlur stdDeviation="2"/>
<feComposite in2="hardAlpha" operator="out"/>
<feColorMatrix type="matrix" values="0 0 0 0 0 0 0 0 0 0 0 0 0 0 0 0 0 0 0.25 0"/>
<feBlend mode="normal" in2="BackgroundImageFix" result="effect1_dropShadow_16_149"/>
<feBlend mode="normal" in="SourceGraphic" in2="effect1_dropShadow_16_149" result="shape"/>
</filter>
</defs>
</svg>
