<svg width="610" height="328" viewBox="0 0 610 328" fill="none" xmlns="http://www.w3.org/2000/svg">
<g filter="url(#filter0_d_16_147)">
<rect x="4.5" y="0.5" width="601" height="319" rx="4.5" fill="white" stroke="#B2B0B0"/>
<path d="M24.833 239.047V249H23.5342V239.047H24.833ZM28.0322 239.047V240.127H20.3418V239.047H28.0322ZM32.8994 247.735V243.928C32.8994 243.636 32.8402 243.383 32.7217 243.169C32.6077 242.95 32.4346 242.782 32.2021 242.663C31.9697 242.545 31.6826 242.485 31.3408 242.485C31.0218 242.485 30.7415 242.54 30.5 242.649C30.263 242.759 30.0762 242.902 29.9395 243.08C29.8073 243.258 29.7412 243.449 29.7412 243.654H28.4766C28.4766 243.39 28.5449 243.128 28.6816 242.868C28.8184 242.608 29.0143 242.374 29.2695 242.164C29.5293 241.95 29.8392 241.781 30.1992 241.658C30.5638 241.531 30.9694 241.467 31.416 241.467C31.9538 241.467 32.4277 241.558 32.8379 241.74C33.2526 241.923 33.5762 242.198 33.8086 242.567C34.0456 242.932 34.1641 243.39 34.1641 243.941V247.387C34.1641 247.633 34.1846 247.895 34.2256 248.173C34.2712 248.451 34.3372 248.69 34.4238 248.891V249H33.1045C33.0407 248.854 32.9906 248.66 32.9541 248.419C32.9176 248.173 32.8994 247.945 32.8994 247.735ZM33.1182 244.516L33.1318 245.404H31.8535C31.4935 245.404 31.1722 245.434 30.8896 245.493C30.6071 245.548 30.3701 245.632 30.1787 245.746C29.9873 245.86 29.8415 246.004 29.7412 246.177C29.641 246.345 29.5908 246.544 29.5908 246.771C29.5908 247.004 29.6432 247.216 29.748 247.407C29.8529 247.599 30.0101 247.751 30.2197 247.865C30.4339 247.975 30.696 248.029 31.0059 248.029C31.3932 248.029 31.735 247.947 32.0312 247.783C32.3275 247.619 32.5622 247.419 32.7354 247.182C32.9131 246.945 33.0088 246.715 33.0225 246.491L33.5625 247.1C33.5306 247.291 33.444 247.503 33.3027 247.735C33.1615 247.968 32.9723 248.191 32.7354 248.405C32.5029 248.615 32.2249 248.79 31.9014 248.932C31.5824 249.068 31.2223 249.137 30.8213 249.137C30.32 249.137 29.8802 249.039 29.502 248.843C29.1283 248.647 28.8366 248.385 28.627 248.057C28.4219 247.724 28.3193 247.353 28.3193 246.942C28.3193 246.546 28.3968 246.197 28.5518 245.896C28.7067 245.591 28.93 245.338 29.2217 245.138C29.5133 244.933 29.8643 244.778 30.2744 244.673C30.6846 244.568 31.1426 244.516 31.6484 244.516H33.1182ZM40.46 247.038C40.46 246.856 40.4189 246.687 40.3369 246.532C40.2594 246.373 40.0977 246.229 39.8516 246.102C39.61 245.969 39.2454 245.855 38.7578 245.76C38.3477 245.673 37.9762 245.571 37.6436 245.452C37.3154 245.334 37.0352 245.19 36.8027 245.021C36.5749 244.853 36.3994 244.655 36.2764 244.427C36.1533 244.199 36.0918 243.932 36.0918 243.627C36.0918 243.335 36.1556 243.06 36.2832 242.8C36.4154 242.54 36.5999 242.31 36.8369 242.109C37.0785 241.909 37.3678 241.752 37.7051 241.638C38.0423 241.524 38.4183 241.467 38.833 241.467C39.4255 241.467 39.9313 241.572 40.3506 241.781C40.7699 241.991 41.0911 242.271 41.3145 242.622C41.5378 242.968 41.6494 243.354 41.6494 243.777H40.3848C40.3848 243.572 40.3232 243.374 40.2002 243.183C40.0817 242.987 39.9062 242.825 39.6738 242.697C39.446 242.57 39.1657 242.506 38.833 242.506C38.4821 242.506 38.1973 242.561 37.9785 242.67C37.7643 242.775 37.6071 242.909 37.5068 243.073C37.4111 243.237 37.3633 243.41 37.3633 243.593C37.3633 243.729 37.3861 243.853 37.4316 243.962C37.4818 244.067 37.5684 244.165 37.6914 244.256C37.8145 244.342 37.9876 244.424 38.2109 244.502C38.4342 244.579 38.7191 244.657 39.0654 244.734C39.6715 244.871 40.1706 245.035 40.5625 245.227C40.9544 245.418 41.2461 245.653 41.4375 245.931C41.6289 246.209 41.7246 246.546 41.7246 246.942C41.7246 247.266 41.6562 247.562 41.5195 247.831C41.3874 248.1 41.1937 248.332 40.9385 248.528C40.6878 248.72 40.387 248.87 40.0361 248.979C39.6898 249.084 39.3001 249.137 38.8672 249.137C38.2155 249.137 37.6641 249.021 37.2129 248.788C36.7617 248.556 36.4199 248.255 36.1875 247.886C35.9551 247.517 35.8389 247.127 35.8389 246.717H37.1104C37.1286 247.063 37.2288 247.339 37.4111 247.544C37.5934 247.744 37.8167 247.888 38.0811 247.975C38.3454 248.057 38.6074 248.098 38.8672 248.098C39.2135 248.098 39.5029 248.052 39.7354 247.961C39.9723 247.87 40.1523 247.744 40.2754 247.585C40.3984 247.425 40.46 247.243 40.46 247.038ZM44.6572 238.5V249H43.3857V238.5H44.6572ZM49.1758 241.604L45.9492 245.056L44.1445 246.929L44.042 245.582L45.334 244.037L47.6309 241.604H49.1758ZM48.0205 249L45.3818 245.473L46.0381 244.345L49.5107 249H48.0205ZM56.8389 249H54.7607L54.7744 247.927H56.8389C57.5498 247.927 58.1423 247.779 58.6162 247.482C59.0902 247.182 59.4456 246.762 59.6826 246.225C59.9242 245.682 60.0449 245.049 60.0449 244.324V243.716C60.0449 243.146 59.9766 242.64 59.8398 242.198C59.7031 241.752 59.5026 241.376 59.2383 241.07C58.974 240.76 58.6504 240.526 58.2676 240.366C57.8893 240.207 57.4541 240.127 56.9619 240.127H54.7197V239.047H56.9619C57.6136 239.047 58.2083 239.156 58.7461 239.375C59.2839 239.589 59.7464 239.901 60.1338 240.312C60.5257 240.717 60.8265 241.209 61.0361 241.788C61.2458 242.362 61.3506 243.009 61.3506 243.729V244.324C61.3506 245.044 61.2458 245.694 61.0361 246.272C60.8265 246.847 60.5234 247.337 60.127 247.742C59.735 248.148 59.2611 248.46 58.7051 248.679C58.1536 248.893 57.5316 249 56.8389 249ZM55.4648 239.047V249H54.1455V239.047H55.4648ZM62.8066 245.384V245.227C62.8066 244.693 62.8841 244.199 63.0391 243.743C63.194 243.283 63.4173 242.884 63.709 242.547C64.0007 242.205 64.3538 241.941 64.7686 241.754C65.1833 241.562 65.6481 241.467 66.1631 241.467C66.6826 241.467 67.1497 241.562 67.5645 241.754C67.9837 241.941 68.3392 242.205 68.6309 242.547C68.9271 242.884 69.1527 243.283 69.3076 243.743C69.4626 244.199 69.54 244.693 69.54 245.227V245.384C69.54 245.917 69.4626 246.411 69.3076 246.867C69.1527 247.323 68.9271 247.722 68.6309 248.063C68.3392 248.401 67.986 248.665 67.5713 248.856C67.1611 249.043 66.6963 249.137 66.1768 249.137C65.6572 249.137 65.1901 249.043 64.7754 248.856C64.3607 248.665 64.0052 248.401 63.709 248.063C63.4173 247.722 63.194 247.323 63.0391 246.867C62.8841 246.411 62.8066 245.917 62.8066 245.384ZM64.0713 245.227V245.384C64.0713 245.753 64.1146 246.102 64.2012 246.43C64.2878 246.753 64.4176 247.04 64.5908 247.291C64.7686 247.542 64.9896 247.74 65.2539 247.886C65.5182 248.027 65.8258 248.098 66.1768 248.098C66.5231 248.098 66.8262 248.027 67.0859 247.886C67.3503 247.74 67.569 247.542 67.7422 247.291C67.9154 247.04 68.0452 246.753 68.1318 246.43C68.223 246.102 68.2686 245.753 68.2686 245.384V245.227C68.2686 244.862 68.223 244.518 68.1318 244.194C68.0452 243.866 67.9131 243.577 67.7354 243.326C67.5622 243.071 67.3434 242.87 67.0791 242.725C66.8193 242.579 66.514 242.506 66.1631 242.506C65.8167 242.506 65.5114 242.579 65.2471 242.725C64.9873 242.87 64.7686 243.071 64.5908 243.326C64.4176 243.577 64.2878 243.866 64.2012 244.194C64.1146 244.518 64.0713 244.862 64.0713 245.227ZM72.3906 243.183V249H71.126V241.604H72.3223L72.3906 243.183ZM72.0898 245.021L71.5635 245.001C71.568 244.495 71.6432 244.028 71.7891 243.6C71.9349 243.167 72.14 242.791 72.4043 242.472C72.6686 242.153 72.9831 241.907 73.3477 241.733C73.7168 241.556 74.1247 241.467 74.5713 241.467C74.9359 241.467 75.264 241.517 75.5557 241.617C75.8473 241.713 76.0957 241.868 76.3008 242.082C76.5104 242.296 76.6699 242.574 76.7793 242.916C76.8887 243.253 76.9434 243.666 76.9434 244.153V249H75.6719V244.14C75.6719 243.752 75.6149 243.442 75.501 243.21C75.387 242.973 75.2207 242.802 75.002 242.697C74.7832 242.588 74.5143 242.533 74.1953 242.533C73.8809 242.533 73.5938 242.599 73.334 242.731C73.0788 242.864 72.8577 243.046 72.6709 243.278C72.4886 243.511 72.3451 243.777 72.2402 244.078C72.14 244.374 72.0898 244.689 72.0898 245.021ZM81.9336 249.137C81.4186 249.137 80.9515 249.05 80.5322 248.877C80.1175 248.699 79.7598 248.451 79.459 248.132C79.1628 247.813 78.9349 247.435 78.7754 246.997C78.6159 246.56 78.5361 246.081 78.5361 245.562V245.274C78.5361 244.673 78.625 244.137 78.8027 243.668C78.9805 243.194 79.222 242.793 79.5273 242.465C79.8327 242.137 80.179 241.888 80.5664 241.72C80.9538 241.551 81.3548 241.467 81.7695 241.467C82.2982 241.467 82.7539 241.558 83.1367 241.74C83.5241 241.923 83.8408 242.178 84.0869 242.506C84.333 242.829 84.5153 243.212 84.6338 243.654C84.7523 244.092 84.8115 244.57 84.8115 245.09V245.657H79.2881V244.625H83.5469V244.529C83.5286 244.201 83.4603 243.882 83.3418 243.572C83.2279 243.262 83.0456 243.007 82.7949 242.807C82.5443 242.606 82.2025 242.506 81.7695 242.506C81.4824 242.506 81.2181 242.567 80.9766 242.69C80.735 242.809 80.5277 242.987 80.3545 243.224C80.1813 243.461 80.0469 243.75 79.9512 244.092C79.8555 244.434 79.8076 244.828 79.8076 245.274V245.562C79.8076 245.912 79.8555 246.243 79.9512 246.553C80.0514 246.858 80.195 247.127 80.3818 247.359C80.5732 247.592 80.8034 247.774 81.0723 247.906C81.3457 248.038 81.6556 248.104 82.002 248.104C82.4486 248.104 82.8268 248.013 83.1367 247.831C83.4466 247.649 83.7178 247.405 83.9502 247.1L84.7158 247.708C84.5563 247.95 84.3535 248.18 84.1074 248.398C83.8613 248.617 83.5583 248.795 83.1982 248.932C82.8428 249.068 82.4212 249.137 81.9336 249.137Z" fill="black"/>
<rect x="18" y="69" width="564" height="38" rx="3" fill="#E3E3E3"/>
<path d="M30.1641 89.835H31.4766C31.4082 90.4639 31.2282 91.0267 30.9365 91.5234C30.6449 92.0202 30.2324 92.4144 29.6992 92.7061C29.166 92.9932 28.5007 93.1367 27.7031 93.1367C27.1198 93.1367 26.5889 93.0273 26.1104 92.8086C25.6364 92.5898 25.2285 92.2799 24.8867 91.8789C24.5449 91.4733 24.2806 90.988 24.0938 90.4229C23.9115 89.8532 23.8203 89.2197 23.8203 88.5225V87.5312C23.8203 86.834 23.9115 86.2028 24.0938 85.6377C24.2806 85.068 24.5472 84.5804 24.8936 84.1748C25.2445 83.7692 25.666 83.457 26.1582 83.2383C26.6504 83.0195 27.2041 82.9102 27.8193 82.9102C28.5713 82.9102 29.207 83.0514 29.7266 83.334C30.2461 83.6165 30.6494 84.0085 30.9365 84.5098C31.2282 85.0065 31.4082 85.583 31.4766 86.2393H30.1641C30.1003 85.7744 29.9818 85.3757 29.8086 85.043C29.6354 84.7057 29.3893 84.446 29.0703 84.2637C28.7513 84.0814 28.3343 83.9902 27.8193 83.9902C27.3773 83.9902 26.9876 84.0745 26.6504 84.2432C26.3177 84.4118 26.0374 84.651 25.8096 84.9609C25.5863 85.2708 25.4176 85.6423 25.3037 86.0752C25.1898 86.5081 25.1328 86.9889 25.1328 87.5176V88.5225C25.1328 89.0101 25.1829 89.4681 25.2832 89.8965C25.388 90.3249 25.5452 90.7008 25.7549 91.0244C25.9645 91.348 26.2311 91.6032 26.5547 91.79C26.8783 91.9723 27.2611 92.0635 27.7031 92.0635C28.2637 92.0635 28.7103 91.9746 29.043 91.7969C29.3757 91.6191 29.6263 91.3639 29.7949 91.0312C29.9681 90.6986 30.0911 90.2998 30.1641 89.835ZM32.748 89.3838V89.2266C32.748 88.6934 32.8255 88.1989 32.9805 87.7432C33.1354 87.2829 33.3587 86.8841 33.6504 86.5469C33.9421 86.2051 34.2952 85.9408 34.71 85.7539C35.1247 85.5625 35.5895 85.4668 36.1045 85.4668C36.624 85.4668 37.0911 85.5625 37.5059 85.7539C37.9251 85.9408 38.2806 86.2051 38.5723 86.5469C38.8685 86.8841 39.0941 87.2829 39.249 87.7432C39.404 88.1989 39.4814 88.6934 39.4814 89.2266V89.3838C39.4814 89.917 39.404 90.4115 39.249 90.8672C39.0941 91.3229 38.8685 91.7217 38.5723 92.0635C38.2806 92.4007 37.9274 92.665 37.5127 92.8564C37.1025 93.0433 36.6377 93.1367 36.1182 93.1367C35.5986 93.1367 35.1315 93.0433 34.7168 92.8564C34.3021 92.665 33.9466 92.4007 33.6504 92.0635C33.3587 91.7217 33.1354 91.3229 32.9805 90.8672C32.8255 90.4115 32.748 89.917 32.748 89.3838ZM34.0127 89.2266V89.3838C34.0127 89.7529 34.056 90.1016 34.1426 90.4297C34.2292 90.7533 34.359 91.0404 34.5322 91.291C34.71 91.5417 34.931 91.7399 35.1953 91.8857C35.4596 92.027 35.7673 92.0977 36.1182 92.0977C36.4645 92.0977 36.7676 92.027 37.0273 91.8857C37.2917 91.7399 37.5104 91.5417 37.6836 91.291C37.8568 91.0404 37.9867 90.7533 38.0732 90.4297C38.1644 90.1016 38.21 89.7529 38.21 89.3838V89.2266C38.21 88.862 38.1644 88.5179 38.0732 88.1943C37.9867 87.8662 37.8545 87.5768 37.6768 87.3262C37.5036 87.071 37.2848 86.8704 37.0205 86.7246C36.7607 86.5788 36.4554 86.5059 36.1045 86.5059C35.7581 86.5059 35.4528 86.5788 35.1885 86.7246C34.9287 86.8704 34.71 87.071 34.5322 87.3262C34.359 87.5768 34.2292 87.8662 34.1426 88.1943C34.056 88.5179 34.0127 88.862 34.0127 89.2266ZM42.3252 87.0732V93H41.0537V85.6035H42.2568L42.3252 87.0732ZM42.0654 89.0215L41.4775 89.001C41.4821 88.4951 41.5482 88.028 41.6758 87.5996C41.8034 87.1667 41.9925 86.7907 42.2432 86.4717C42.4938 86.1527 42.806 85.9066 43.1797 85.7334C43.5534 85.5557 43.9863 85.4668 44.4785 85.4668C44.8249 85.4668 45.1439 85.5169 45.4355 85.6172C45.7272 85.7129 45.9801 85.8656 46.1943 86.0752C46.4085 86.2848 46.5749 86.5537 46.6934 86.8818C46.8118 87.21 46.8711 87.6064 46.8711 88.0713V93H45.6064V88.1328C45.6064 87.7454 45.5404 87.4355 45.4082 87.2031C45.2806 86.9707 45.0983 86.8021 44.8613 86.6973C44.6243 86.5879 44.3464 86.5332 44.0273 86.5332C43.6536 86.5332 43.3415 86.5993 43.0908 86.7314C42.8402 86.8636 42.6396 87.0459 42.4893 87.2783C42.3389 87.5107 42.2295 87.7773 42.1611 88.0781C42.0973 88.3743 42.0654 88.6888 42.0654 89.0215ZM46.8574 88.3242L46.0098 88.584C46.0143 88.1784 46.0804 87.7887 46.208 87.415C46.3402 87.0413 46.5293 86.7087 46.7754 86.417C47.026 86.1253 47.3337 85.8952 47.6982 85.7266C48.0628 85.5534 48.4798 85.4668 48.9492 85.4668C49.3457 85.4668 49.6966 85.5192 50.002 85.624C50.3118 85.7288 50.5716 85.8906 50.7812 86.1094C50.9954 86.3236 51.1572 86.5993 51.2666 86.9365C51.376 87.2738 51.4307 87.6748 51.4307 88.1396V93H50.1592V88.126C50.1592 87.7113 50.0931 87.39 49.9609 87.1621C49.8333 86.9297 49.651 86.7679 49.4141 86.6768C49.1816 86.5811 48.9036 86.5332 48.5801 86.5332C48.3021 86.5332 48.056 86.5811 47.8418 86.6768C47.6276 86.7725 47.4476 86.9046 47.3018 87.0732C47.1559 87.2373 47.0443 87.4264 46.9668 87.6406C46.8939 87.8548 46.8574 88.0827 46.8574 88.3242ZM54.6094 87.0254V95.8438H53.3379V85.6035H54.5L54.6094 87.0254ZM59.5928 89.2402V89.3838C59.5928 89.9215 59.529 90.4206 59.4014 90.8809C59.2738 91.3366 59.0869 91.7331 58.8408 92.0703C58.5993 92.4076 58.3008 92.6696 57.9453 92.8564C57.5898 93.0433 57.182 93.1367 56.7217 93.1367C56.2523 93.1367 55.8376 93.0592 55.4775 92.9043C55.1175 92.7493 54.8122 92.5238 54.5615 92.2275C54.3109 91.9313 54.1104 91.5758 53.96 91.1611C53.8141 90.7464 53.7139 90.2793 53.6592 89.7598V88.9941C53.7139 88.4473 53.8164 87.9574 53.9668 87.5244C54.1172 87.0915 54.3154 86.7223 54.5615 86.417C54.8122 86.1071 55.1152 85.8724 55.4707 85.7129C55.8262 85.5488 56.2363 85.4668 56.7012 85.4668C57.166 85.4668 57.5785 85.5579 57.9385 85.7402C58.2985 85.918 58.6016 86.1732 58.8477 86.5059C59.0938 86.8385 59.2783 87.2373 59.4014 87.7021C59.529 88.1624 59.5928 88.6751 59.5928 89.2402ZM58.3213 89.3838V89.2402C58.3213 88.8711 58.2826 88.5247 58.2051 88.2012C58.1276 87.873 58.0068 87.5859 57.8428 87.3398C57.6833 87.0892 57.4782 86.8932 57.2275 86.752C56.9769 86.6061 56.6784 86.5332 56.332 86.5332C56.013 86.5332 55.735 86.5879 55.498 86.6973C55.2656 86.8066 55.0674 86.9548 54.9033 87.1416C54.7393 87.3239 54.6048 87.5335 54.5 87.7705C54.3997 88.0029 54.3245 88.2445 54.2744 88.4951V90.2656C54.3656 90.5846 54.4932 90.8854 54.6572 91.168C54.8213 91.446 55.04 91.6715 55.3135 91.8447C55.5869 92.0133 55.931 92.0977 56.3457 92.0977C56.6875 92.0977 56.9814 92.027 57.2275 91.8857C57.4782 91.7399 57.6833 91.5417 57.8428 91.291C58.0068 91.0404 58.1276 90.7533 58.2051 90.4297C58.2826 90.1016 58.3213 89.7529 58.3213 89.3838ZM65.5674 91.7354V87.9277C65.5674 87.6361 65.5081 87.3831 65.3896 87.1689C65.2757 86.9502 65.1025 86.7816 64.8701 86.6631C64.6377 86.5446 64.3506 86.4854 64.0088 86.4854C63.6898 86.4854 63.4095 86.54 63.168 86.6494C62.931 86.7588 62.7441 86.9023 62.6074 87.0801C62.4753 87.2578 62.4092 87.4492 62.4092 87.6543H61.1445C61.1445 87.39 61.2129 87.1279 61.3496 86.8682C61.4863 86.6084 61.6823 86.3737 61.9375 86.1641C62.1973 85.9499 62.5072 85.7812 62.8672 85.6582C63.2318 85.5306 63.6374 85.4668 64.084 85.4668C64.6217 85.4668 65.0957 85.5579 65.5059 85.7402C65.9206 85.9225 66.2441 86.1982 66.4766 86.5674C66.7135 86.932 66.832 87.39 66.832 87.9414V91.3867C66.832 91.6328 66.8525 91.8949 66.8936 92.1729C66.9391 92.4508 67.0052 92.6901 67.0918 92.8906V93H65.7725C65.7087 92.8542 65.6585 92.6605 65.6221 92.4189C65.5856 92.1729 65.5674 91.945 65.5674 91.7354ZM65.7861 88.5156L65.7998 89.4043H64.5215C64.1615 89.4043 63.8402 89.4339 63.5576 89.4932C63.2751 89.5479 63.0381 89.6322 62.8467 89.7461C62.6553 89.86 62.5094 90.0036 62.4092 90.1768C62.3089 90.3454 62.2588 90.5436 62.2588 90.7715C62.2588 91.0039 62.3112 91.2158 62.416 91.4072C62.5208 91.5986 62.6781 91.7513 62.8877 91.8652C63.1019 91.9746 63.3639 92.0293 63.6738 92.0293C64.0612 92.0293 64.403 91.9473 64.6992 91.7832C64.9954 91.6191 65.2301 91.4186 65.4033 91.1816C65.5811 90.9447 65.6768 90.7145 65.6904 90.4912L66.2305 91.0996C66.1986 91.291 66.112 91.5029 65.9707 91.7354C65.8294 91.9678 65.6403 92.1911 65.4033 92.4053C65.1709 92.6149 64.8929 92.7904 64.5693 92.9316C64.2503 93.0684 63.8903 93.1367 63.4893 93.1367C62.988 93.1367 62.5482 93.0387 62.1699 92.8428C61.7962 92.6468 61.5046 92.3848 61.2949 92.0566C61.0898 91.724 60.9873 91.3525 60.9873 90.9424C60.9873 90.5459 61.0648 90.1973 61.2197 89.8965C61.3747 89.5911 61.598 89.3382 61.8896 89.1377C62.1813 88.9326 62.5322 88.7777 62.9424 88.6729C63.3525 88.568 63.8105 88.5156 64.3164 88.5156H65.7861ZM70.0859 87.1826V93H68.8213V85.6035H70.0176L70.0859 87.1826ZM69.7852 89.0215L69.2588 89.001C69.2633 88.4951 69.3385 88.028 69.4844 87.5996C69.6302 87.1667 69.8353 86.7907 70.0996 86.4717C70.3639 86.1527 70.6784 85.9066 71.043 85.7334C71.4121 85.5557 71.82 85.4668 72.2666 85.4668C72.6312 85.4668 72.9593 85.5169 73.251 85.6172C73.5426 85.7129 73.791 85.8678 73.9961 86.082C74.2057 86.2962 74.3652 86.5742 74.4746 86.916C74.584 87.2533 74.6387 87.6657 74.6387 88.1533V93H73.3672V88.1396C73.3672 87.7523 73.3102 87.4424 73.1963 87.21C73.0824 86.973 72.916 86.8021 72.6973 86.6973C72.4785 86.5879 72.2096 86.5332 71.8906 86.5332C71.5762 86.5332 71.2891 86.5993 71.0293 86.7314C70.7741 86.8636 70.5531 87.0459 70.3662 87.2783C70.1839 87.5107 70.0404 87.7773 69.9355 88.0781C69.8353 88.3743 69.7852 88.6888 69.7852 89.0215ZM78.6377 92.2344L80.6953 85.6035H82.0488L79.082 94.1416C79.0137 94.3239 78.9225 94.5199 78.8086 94.7295C78.6992 94.9437 78.5579 95.1465 78.3848 95.3379C78.2116 95.5293 78.002 95.6842 77.7559 95.8027C77.5143 95.9258 77.2249 95.9873 76.8877 95.9873C76.7874 95.9873 76.6598 95.9736 76.5049 95.9463C76.3499 95.9189 76.2406 95.8962 76.1768 95.8779L76.1699 94.8525C76.2064 94.8571 76.2633 94.8617 76.3408 94.8662C76.4229 94.8753 76.4798 94.8799 76.5117 94.8799C76.7988 94.8799 77.0426 94.8411 77.2432 94.7637C77.4437 94.6908 77.6123 94.5654 77.749 94.3877C77.8903 94.2145 78.0111 93.9753 78.1113 93.6699L78.6377 92.2344ZM77.127 85.6035L79.0479 91.3457L79.376 92.6787L78.4668 93.1436L75.7461 85.6035H77.127ZM94.5107 83.0469V93H93.1846L88.1738 85.3232V93H86.8545V83.0469H88.1738L93.2051 90.7441V83.0469H94.5107ZM101.019 91.7354V87.9277C101.019 87.6361 100.959 87.3831 100.841 87.1689C100.727 86.9502 100.554 86.7816 100.321 86.6631C100.089 86.5446 99.8018 86.4854 99.46 86.4854C99.141 86.4854 98.8607 86.54 98.6191 86.6494C98.3822 86.7588 98.1953 86.9023 98.0586 87.0801C97.9264 87.2578 97.8604 87.4492 97.8604 87.6543H96.5957C96.5957 87.39 96.6641 87.1279 96.8008 86.8682C96.9375 86.6084 97.1335 86.3737 97.3887 86.1641C97.6484 85.9499 97.9583 85.7812 98.3184 85.6582C98.6829 85.5306 99.0885 85.4668 99.5352 85.4668C100.073 85.4668 100.547 85.5579 100.957 85.7402C101.372 85.9225 101.695 86.1982 101.928 86.5674C102.165 86.932 102.283 87.39 102.283 87.9414V91.3867C102.283 91.6328 102.304 91.8949 102.345 92.1729C102.39 92.4508 102.456 92.6901 102.543 92.8906V93H101.224C101.16 92.8542 101.11 92.6605 101.073 92.4189C101.037 92.1729 101.019 91.945 101.019 91.7354ZM101.237 88.5156L101.251 89.4043H99.9727C99.6126 89.4043 99.2913 89.4339 99.0088 89.4932C98.7262 89.5479 98.4893 89.6322 98.2979 89.7461C98.1064 89.86 97.9606 90.0036 97.8604 90.1768C97.7601 90.3454 97.71 90.5436 97.71 90.7715C97.71 91.0039 97.7624 91.2158 97.8672 91.4072C97.972 91.5986 98.1292 91.7513 98.3389 91.8652C98.5531 91.9746 98.8151 92.0293 99.125 92.0293C99.5124 92.0293 99.8542 91.9473 100.15 91.7832C100.447 91.6191 100.681 91.4186 100.854 91.1816C101.032 90.9447 101.128 90.7145 101.142 90.4912L101.682 91.0996C101.65 91.291 101.563 91.5029 101.422 91.7354C101.281 91.9678 101.091 92.1911 100.854 92.4053C100.622 92.6149 100.344 92.7904 100.021 92.9316C99.7015 93.0684 99.3415 93.1367 98.9404 93.1367C98.4391 93.1367 97.9993 93.0387 97.6211 92.8428C97.2474 92.6468 96.9557 92.3848 96.7461 92.0566C96.541 91.724 96.4385 91.3525 96.4385 90.9424C96.4385 90.5459 96.516 90.1973 96.6709 89.8965C96.8258 89.5911 97.0492 89.3382 97.3408 89.1377C97.6325 88.9326 97.9834 88.7777 98.3936 88.6729C98.8037 88.568 99.2617 88.5156 99.7676 88.5156H101.237ZM105.53 87.0732V93H104.259V85.6035H105.462L105.53 87.0732ZM105.271 89.0215L104.683 89.001C104.687 88.4951 104.753 88.028 104.881 87.5996C105.008 87.1667 105.198 86.7907 105.448 86.4717C105.699 86.1527 106.011 85.9066 106.385 85.7334C106.758 85.5557 107.191 85.4668 107.684 85.4668C108.03 85.4668 108.349 85.5169 108.641 85.6172C108.932 85.7129 109.185 85.8656 109.399 86.0752C109.614 86.2848 109.78 86.5537 109.898 86.8818C110.017 87.21 110.076 87.6064 110.076 88.0713V93H108.812V88.1328C108.812 87.7454 108.745 87.4355 108.613 87.2031C108.486 86.9707 108.303 86.8021 108.066 86.6973C107.829 86.5879 107.551 86.5332 107.232 86.5332C106.859 86.5332 106.547 86.5993 106.296 86.7314C106.045 86.8636 105.845 87.0459 105.694 87.2783C105.544 87.5107 105.435 87.7773 105.366 88.0781C105.302 88.3743 105.271 88.6888 105.271 89.0215ZM110.062 88.3242L109.215 88.584C109.219 88.1784 109.285 87.7887 109.413 87.415C109.545 87.0413 109.734 86.7087 109.98 86.417C110.231 86.1253 110.539 85.8952 110.903 85.7266C111.268 85.5534 111.685 85.4668 112.154 85.4668C112.551 85.4668 112.902 85.5192 113.207 85.624C113.517 85.7288 113.777 85.8906 113.986 86.1094C114.201 86.3236 114.362 86.5993 114.472 86.9365C114.581 87.2738 114.636 87.6748 114.636 88.1396V93H113.364V88.126C113.364 87.7113 113.298 87.39 113.166 87.1621C113.038 86.9297 112.856 86.7679 112.619 86.6768C112.387 86.5811 112.109 86.5332 111.785 86.5332C111.507 86.5332 111.261 86.5811 111.047 86.6768C110.833 86.7725 110.653 86.9046 110.507 87.0732C110.361 87.2373 110.249 87.4264 110.172 87.6406C110.099 87.8548 110.062 88.0827 110.062 88.3242ZM119.619 93.1367C119.104 93.1367 118.637 93.0501 118.218 92.877C117.803 92.6992 117.445 92.4508 117.145 92.1318C116.848 91.8128 116.62 91.4346 116.461 90.9971C116.301 90.5596 116.222 90.0811 116.222 89.5615V89.2744C116.222 88.6729 116.311 88.1374 116.488 87.668C116.666 87.194 116.908 86.793 117.213 86.4648C117.518 86.1367 117.865 85.8883 118.252 85.7197C118.639 85.5511 119.04 85.4668 119.455 85.4668C119.984 85.4668 120.439 85.5579 120.822 85.7402C121.21 85.9225 121.526 86.1777 121.772 86.5059C122.019 86.8294 122.201 87.2122 122.319 87.6543C122.438 88.0918 122.497 88.5703 122.497 89.0898V89.6572H116.974V88.625H121.232V88.5293C121.214 88.2012 121.146 87.8822 121.027 87.5723C120.913 87.2624 120.731 87.0072 120.48 86.8066C120.23 86.6061 119.888 86.5059 119.455 86.5059C119.168 86.5059 118.904 86.5674 118.662 86.6904C118.421 86.8089 118.213 86.9867 118.04 87.2236C117.867 87.4606 117.732 87.75 117.637 88.0918C117.541 88.4336 117.493 88.8278 117.493 89.2744V89.5615C117.493 89.9124 117.541 90.2428 117.637 90.5527C117.737 90.8581 117.881 91.127 118.067 91.3594C118.259 91.5918 118.489 91.7741 118.758 91.9062C119.031 92.0384 119.341 92.1045 119.688 92.1045C120.134 92.1045 120.512 92.0133 120.822 91.8311C121.132 91.6488 121.403 91.4049 121.636 91.0996L122.401 91.708C122.242 91.9495 122.039 92.1797 121.793 92.3984C121.547 92.6172 121.244 92.7949 120.884 92.9316C120.528 93.0684 120.107 93.1367 119.619 93.1367Z" fill="black"/>
<rect x="303" y="121" width="279" height="104" rx="3" fill="#E3E3E3"/>
<path d="M314.84 135.929L311.545 145H310.198L313.992 135.047H314.86L314.84 135.929ZM317.602 145L314.3 135.929L314.279 135.047H315.147L318.955 145H317.602ZM317.431 141.315V142.396H311.839V141.315H317.431ZM320.09 134.5H321.361V143.564L321.252 145H320.09V134.5ZM326.358 141.24V141.384C326.358 141.922 326.295 142.421 326.167 142.881C326.039 143.337 325.853 143.733 325.606 144.07C325.36 144.408 325.06 144.67 324.704 144.856C324.349 145.043 323.941 145.137 323.48 145.137C323.011 145.137 322.599 145.057 322.243 144.897C321.892 144.733 321.596 144.499 321.354 144.193C321.113 143.888 320.919 143.519 320.773 143.086C320.632 142.653 320.534 142.165 320.479 141.623V140.994C320.534 140.447 320.632 139.957 320.773 139.524C320.919 139.091 321.113 138.722 321.354 138.417C321.596 138.107 321.892 137.872 322.243 137.713C322.594 137.549 323.002 137.467 323.467 137.467C323.932 137.467 324.344 137.558 324.704 137.74C325.064 137.918 325.365 138.173 325.606 138.506C325.853 138.839 326.039 139.237 326.167 139.702C326.295 140.162 326.358 140.675 326.358 141.24ZM325.087 141.384V141.24C325.087 140.871 325.053 140.525 324.984 140.201C324.916 139.873 324.807 139.586 324.656 139.34C324.506 139.089 324.308 138.893 324.062 138.752C323.815 138.606 323.512 138.533 323.152 138.533C322.833 138.533 322.555 138.588 322.318 138.697C322.086 138.807 321.888 138.955 321.724 139.142C321.56 139.324 321.425 139.534 321.32 139.771C321.22 140.003 321.145 140.244 321.095 140.495V142.143C321.168 142.462 321.286 142.769 321.45 143.065C321.619 143.357 321.842 143.596 322.12 143.783C322.403 143.97 322.751 144.063 323.166 144.063C323.508 144.063 323.799 143.995 324.041 143.858C324.287 143.717 324.485 143.523 324.636 143.277C324.791 143.031 324.905 142.746 324.978 142.423C325.05 142.099 325.087 141.753 325.087 141.384ZM327.623 141.384V141.227C327.623 140.693 327.701 140.199 327.855 139.743C328.01 139.283 328.234 138.884 328.525 138.547C328.817 138.205 329.17 137.941 329.585 137.754C330 137.562 330.465 137.467 330.979 137.467C331.499 137.467 331.966 137.562 332.381 137.754C332.8 137.941 333.156 138.205 333.447 138.547C333.743 138.884 333.969 139.283 334.124 139.743C334.279 140.199 334.356 140.693 334.356 141.227V141.384C334.356 141.917 334.279 142.411 334.124 142.867C333.969 143.323 333.743 143.722 333.447 144.063C333.156 144.401 332.802 144.665 332.388 144.856C331.978 145.043 331.513 145.137 330.993 145.137C330.474 145.137 330.007 145.043 329.592 144.856C329.177 144.665 328.822 144.401 328.525 144.063C328.234 143.722 328.01 143.323 327.855 142.867C327.701 142.411 327.623 141.917 327.623 141.384ZM328.888 141.227V141.384C328.888 141.753 328.931 142.102 329.018 142.43C329.104 142.753 329.234 143.04 329.407 143.291C329.585 143.542 329.806 143.74 330.07 143.886C330.335 144.027 330.642 144.098 330.993 144.098C331.34 144.098 331.643 144.027 331.902 143.886C332.167 143.74 332.385 143.542 332.559 143.291C332.732 143.04 332.862 142.753 332.948 142.43C333.039 142.102 333.085 141.753 333.085 141.384V141.227C333.085 140.862 333.039 140.518 332.948 140.194C332.862 139.866 332.729 139.577 332.552 139.326C332.379 139.071 332.16 138.87 331.896 138.725C331.636 138.579 331.33 138.506 330.979 138.506C330.633 138.506 330.328 138.579 330.063 138.725C329.804 138.87 329.585 139.071 329.407 139.326C329.234 139.577 329.104 139.866 329.018 140.194C328.931 140.518 328.888 140.862 328.888 141.227ZM340.468 143.291V137.604H341.739V145H340.529L340.468 143.291ZM340.707 141.732L341.233 141.719C341.233 142.211 341.181 142.667 341.076 143.086C340.976 143.501 340.812 143.861 340.584 144.166C340.356 144.471 340.058 144.711 339.688 144.884C339.319 145.052 338.87 145.137 338.342 145.137C337.982 145.137 337.651 145.084 337.351 144.979C337.054 144.875 336.799 144.713 336.585 144.494C336.371 144.275 336.204 143.991 336.086 143.64C335.972 143.289 335.915 142.867 335.915 142.375V137.604H337.18V142.389C337.18 142.721 337.216 142.997 337.289 143.216C337.367 143.43 337.469 143.601 337.597 143.729C337.729 143.852 337.875 143.938 338.034 143.988C338.198 144.038 338.367 144.063 338.54 144.063C339.078 144.063 339.504 143.961 339.818 143.756C340.133 143.546 340.358 143.266 340.495 142.915C340.636 142.56 340.707 142.165 340.707 141.732ZM346.764 137.604V138.574H342.765V137.604H346.764ZM344.118 135.806H345.383V143.168C345.383 143.419 345.422 143.608 345.499 143.735C345.576 143.863 345.677 143.947 345.8 143.988C345.923 144.029 346.055 144.05 346.196 144.05C346.301 144.05 346.41 144.041 346.524 144.022C346.643 144 346.732 143.981 346.791 143.968L346.798 145C346.698 145.032 346.565 145.062 346.401 145.089C346.242 145.121 346.048 145.137 345.82 145.137C345.51 145.137 345.226 145.075 344.966 144.952C344.706 144.829 344.499 144.624 344.344 144.337C344.193 144.045 344.118 143.653 344.118 143.161V135.806ZM357.92 141.835H359.232C359.164 142.464 358.984 143.027 358.692 143.523C358.401 144.02 357.988 144.414 357.455 144.706C356.922 144.993 356.257 145.137 355.459 145.137C354.876 145.137 354.345 145.027 353.866 144.809C353.392 144.59 352.984 144.28 352.643 143.879C352.301 143.473 352.036 142.988 351.85 142.423C351.667 141.853 351.576 141.22 351.576 140.522V139.531C351.576 138.834 351.667 138.203 351.85 137.638C352.036 137.068 352.303 136.58 352.649 136.175C353 135.769 353.422 135.457 353.914 135.238C354.406 135.02 354.96 134.91 355.575 134.91C356.327 134.91 356.963 135.051 357.482 135.334C358.002 135.617 358.405 136.008 358.692 136.51C358.984 137.007 359.164 137.583 359.232 138.239H357.92C357.856 137.774 357.738 137.376 357.564 137.043C357.391 136.706 357.145 136.446 356.826 136.264C356.507 136.081 356.09 135.99 355.575 135.99C355.133 135.99 354.743 136.075 354.406 136.243C354.074 136.412 353.793 136.651 353.565 136.961C353.342 137.271 353.174 137.642 353.06 138.075C352.946 138.508 352.889 138.989 352.889 139.518V140.522C352.889 141.01 352.939 141.468 353.039 141.896C353.144 142.325 353.301 142.701 353.511 143.024C353.72 143.348 353.987 143.603 354.311 143.79C354.634 143.972 355.017 144.063 355.459 144.063C356.02 144.063 356.466 143.975 356.799 143.797C357.132 143.619 357.382 143.364 357.551 143.031C357.724 142.699 357.847 142.3 357.92 141.835ZM360.504 141.384V141.227C360.504 140.693 360.581 140.199 360.736 139.743C360.891 139.283 361.115 138.884 361.406 138.547C361.698 138.205 362.051 137.941 362.466 137.754C362.881 137.562 363.345 137.467 363.86 137.467C364.38 137.467 364.847 137.562 365.262 137.754C365.681 137.941 366.036 138.205 366.328 138.547C366.624 138.884 366.85 139.283 367.005 139.743C367.16 140.199 367.237 140.693 367.237 141.227V141.384C367.237 141.917 367.16 142.411 367.005 142.867C366.85 143.323 366.624 143.722 366.328 144.063C366.036 144.401 365.683 144.665 365.269 144.856C364.858 145.043 364.394 145.137 363.874 145.137C363.354 145.137 362.887 145.043 362.473 144.856C362.058 144.665 361.702 144.401 361.406 144.063C361.115 143.722 360.891 143.323 360.736 142.867C360.581 142.411 360.504 141.917 360.504 141.384ZM361.769 141.227V141.384C361.769 141.753 361.812 142.102 361.898 142.43C361.985 142.753 362.115 143.04 362.288 143.291C362.466 143.542 362.687 143.74 362.951 143.886C363.215 144.027 363.523 144.098 363.874 144.098C364.22 144.098 364.523 144.027 364.783 143.886C365.048 143.74 365.266 143.542 365.439 143.291C365.613 143.04 365.743 142.753 365.829 142.43C365.92 142.102 365.966 141.753 365.966 141.384V141.227C365.966 140.862 365.92 140.518 365.829 140.194C365.743 139.866 365.61 139.577 365.433 139.326C365.259 139.071 365.041 138.87 364.776 138.725C364.517 138.579 364.211 138.506 363.86 138.506C363.514 138.506 363.209 138.579 362.944 138.725C362.685 138.87 362.466 139.071 362.288 139.326C362.115 139.577 361.985 139.866 361.898 140.194C361.812 140.518 361.769 140.862 361.769 141.227ZM370.081 139.073V145H368.81V137.604H370.013L370.081 139.073ZM369.821 141.021L369.233 141.001C369.238 140.495 369.304 140.028 369.432 139.6C369.559 139.167 369.748 138.791 369.999 138.472C370.25 138.153 370.562 137.907 370.936 137.733C371.309 137.556 371.742 137.467 372.234 137.467C372.581 137.467 372.9 137.517 373.191 137.617C373.483 137.713 373.736 137.866 373.95 138.075C374.164 138.285 374.331 138.554 374.449 138.882C374.568 139.21 374.627 139.606 374.627 140.071V145H373.362V140.133C373.362 139.745 373.296 139.436 373.164 139.203C373.036 138.971 372.854 138.802 372.617 138.697C372.38 138.588 372.102 138.533 371.783 138.533C371.41 138.533 371.097 138.599 370.847 138.731C370.596 138.864 370.396 139.046 370.245 139.278C370.095 139.511 369.985 139.777 369.917 140.078C369.853 140.374 369.821 140.689 369.821 141.021ZM374.613 140.324L373.766 140.584C373.77 140.178 373.836 139.789 373.964 139.415C374.096 139.041 374.285 138.709 374.531 138.417C374.782 138.125 375.09 137.895 375.454 137.727C375.819 137.553 376.236 137.467 376.705 137.467C377.102 137.467 377.452 137.519 377.758 137.624C378.068 137.729 378.327 137.891 378.537 138.109C378.751 138.324 378.913 138.599 379.022 138.937C379.132 139.274 379.187 139.675 379.187 140.14V145H377.915V140.126C377.915 139.711 377.849 139.39 377.717 139.162C377.589 138.93 377.407 138.768 377.17 138.677C376.938 138.581 376.66 138.533 376.336 138.533C376.058 138.533 375.812 138.581 375.598 138.677C375.383 138.772 375.203 138.905 375.058 139.073C374.912 139.237 374.8 139.426 374.723 139.641C374.65 139.855 374.613 140.083 374.613 140.324ZM382.365 139.025V147.844H381.094V137.604H382.256L382.365 139.025ZM387.349 141.24V141.384C387.349 141.922 387.285 142.421 387.157 142.881C387.03 143.337 386.843 143.733 386.597 144.07C386.355 144.408 386.057 144.67 385.701 144.856C385.346 145.043 384.938 145.137 384.478 145.137C384.008 145.137 383.593 145.059 383.233 144.904C382.873 144.749 382.568 144.524 382.317 144.228C382.067 143.931 381.866 143.576 381.716 143.161C381.57 142.746 381.47 142.279 381.415 141.76V140.994C381.47 140.447 381.572 139.957 381.723 139.524C381.873 139.091 382.071 138.722 382.317 138.417C382.568 138.107 382.871 137.872 383.227 137.713C383.582 137.549 383.992 137.467 384.457 137.467C384.922 137.467 385.334 137.558 385.694 137.74C386.054 137.918 386.357 138.173 386.604 138.506C386.85 138.839 387.034 139.237 387.157 139.702C387.285 140.162 387.349 140.675 387.349 141.24ZM386.077 141.384V141.24C386.077 140.871 386.038 140.525 385.961 140.201C385.883 139.873 385.763 139.586 385.599 139.34C385.439 139.089 385.234 138.893 384.983 138.752C384.733 138.606 384.434 138.533 384.088 138.533C383.769 138.533 383.491 138.588 383.254 138.697C383.021 138.807 382.823 138.955 382.659 139.142C382.495 139.324 382.361 139.534 382.256 139.771C382.156 140.003 382.08 140.244 382.03 140.495V142.266C382.121 142.585 382.249 142.885 382.413 143.168C382.577 143.446 382.796 143.672 383.069 143.845C383.343 144.013 383.687 144.098 384.102 144.098C384.443 144.098 384.737 144.027 384.983 143.886C385.234 143.74 385.439 143.542 385.599 143.291C385.763 143.04 385.883 142.753 385.961 142.43C386.038 142.102 386.077 141.753 386.077 141.384ZM393.323 143.735V139.928C393.323 139.636 393.264 139.383 393.146 139.169C393.032 138.95 392.858 138.782 392.626 138.663C392.394 138.545 392.106 138.485 391.765 138.485C391.446 138.485 391.165 138.54 390.924 138.649C390.687 138.759 390.5 138.902 390.363 139.08C390.231 139.258 390.165 139.449 390.165 139.654H388.9C388.9 139.39 388.969 139.128 389.105 138.868C389.242 138.608 389.438 138.374 389.693 138.164C389.953 137.95 390.263 137.781 390.623 137.658C390.988 137.531 391.393 137.467 391.84 137.467C392.378 137.467 392.852 137.558 393.262 137.74C393.676 137.923 394 138.198 394.232 138.567C394.469 138.932 394.588 139.39 394.588 139.941V143.387C394.588 143.633 394.608 143.895 394.649 144.173C394.695 144.451 394.761 144.69 394.848 144.891V145H393.528C393.465 144.854 393.414 144.66 393.378 144.419C393.341 144.173 393.323 143.945 393.323 143.735ZM393.542 140.516L393.556 141.404H392.277C391.917 141.404 391.596 141.434 391.313 141.493C391.031 141.548 390.794 141.632 390.603 141.746C390.411 141.86 390.265 142.004 390.165 142.177C390.065 142.345 390.015 142.544 390.015 142.771C390.015 143.004 390.067 143.216 390.172 143.407C390.277 143.599 390.434 143.751 390.644 143.865C390.858 143.975 391.12 144.029 391.43 144.029C391.817 144.029 392.159 143.947 392.455 143.783C392.751 143.619 392.986 143.419 393.159 143.182C393.337 142.945 393.433 142.715 393.446 142.491L393.986 143.1C393.954 143.291 393.868 143.503 393.727 143.735C393.585 143.968 393.396 144.191 393.159 144.405C392.927 144.615 392.649 144.79 392.325 144.932C392.006 145.068 391.646 145.137 391.245 145.137C390.744 145.137 390.304 145.039 389.926 144.843C389.552 144.647 389.26 144.385 389.051 144.057C388.846 143.724 388.743 143.353 388.743 142.942C388.743 142.546 388.821 142.197 388.976 141.896C389.131 141.591 389.354 141.338 389.646 141.138C389.937 140.933 390.288 140.778 390.698 140.673C391.108 140.568 391.566 140.516 392.072 140.516H393.542ZM397.842 139.183V145H396.577V137.604H397.773L397.842 139.183ZM397.541 141.021L397.015 141.001C397.019 140.495 397.094 140.028 397.24 139.6C397.386 139.167 397.591 138.791 397.855 138.472C398.12 138.153 398.434 137.907 398.799 137.733C399.168 137.556 399.576 137.467 400.022 137.467C400.387 137.467 400.715 137.517 401.007 137.617C401.299 137.713 401.547 137.868 401.752 138.082C401.962 138.296 402.121 138.574 402.23 138.916C402.34 139.253 402.395 139.666 402.395 140.153V145H401.123V140.14C401.123 139.752 401.066 139.442 400.952 139.21C400.838 138.973 400.672 138.802 400.453 138.697C400.234 138.588 399.965 138.533 399.646 138.533C399.332 138.533 399.045 138.599 398.785 138.731C398.53 138.864 398.309 139.046 398.122 139.278C397.94 139.511 397.796 139.777 397.691 140.078C397.591 140.374 397.541 140.689 397.541 141.021ZM406.394 144.234L408.451 137.604H409.805L406.838 146.142C406.77 146.324 406.678 146.52 406.564 146.729C406.455 146.944 406.314 147.146 406.141 147.338C405.967 147.529 405.758 147.684 405.512 147.803C405.27 147.926 404.981 147.987 404.644 147.987C404.543 147.987 404.416 147.974 404.261 147.946C404.106 147.919 403.996 147.896 403.933 147.878L403.926 146.853C403.962 146.857 404.019 146.862 404.097 146.866C404.179 146.875 404.236 146.88 404.268 146.88C404.555 146.88 404.799 146.841 404.999 146.764C405.2 146.691 405.368 146.565 405.505 146.388C405.646 146.215 405.767 145.975 405.867 145.67L406.394 144.234ZM404.883 137.604L406.804 143.346L407.132 144.679L406.223 145.144L403.502 137.604H404.883Z" fill="black"/>
<rect x="18" y="264" width="564" height="38" rx="3" fill="#E3E3E3"/>
<path d="M31.833 280.047V290H30.5342V280.047H31.833ZM35.0322 280.047V281.127H27.3418V280.047H35.0322ZM39.8994 288.735V284.928C39.8994 284.636 39.8402 284.383 39.7217 284.169C39.6077 283.95 39.4346 283.782 39.2021 283.663C38.9697 283.545 38.6826 283.485 38.3408 283.485C38.0218 283.485 37.7415 283.54 37.5 283.649C37.263 283.759 37.0762 283.902 36.9395 284.08C36.8073 284.258 36.7412 284.449 36.7412 284.654H35.4766C35.4766 284.39 35.5449 284.128 35.6816 283.868C35.8184 283.608 36.0143 283.374 36.2695 283.164C36.5293 282.95 36.8392 282.781 37.1992 282.658C37.5638 282.531 37.9694 282.467 38.416 282.467C38.9538 282.467 39.4277 282.558 39.8379 282.74C40.2526 282.923 40.5762 283.198 40.8086 283.567C41.0456 283.932 41.1641 284.39 41.1641 284.941V288.387C41.1641 288.633 41.1846 288.895 41.2256 289.173C41.2712 289.451 41.3372 289.69 41.4238 289.891V290H40.1045C40.0407 289.854 39.9906 289.66 39.9541 289.419C39.9176 289.173 39.8994 288.945 39.8994 288.735ZM40.1182 285.516L40.1318 286.404H38.8535C38.4935 286.404 38.1722 286.434 37.8896 286.493C37.6071 286.548 37.3701 286.632 37.1787 286.746C36.9873 286.86 36.8415 287.004 36.7412 287.177C36.641 287.345 36.5908 287.544 36.5908 287.771C36.5908 288.004 36.6432 288.216 36.748 288.407C36.8529 288.599 37.0101 288.751 37.2197 288.865C37.4339 288.975 37.696 289.029 38.0059 289.029C38.3932 289.029 38.735 288.947 39.0312 288.783C39.3275 288.619 39.5622 288.419 39.7354 288.182C39.9131 287.945 40.0088 287.715 40.0225 287.491L40.5625 288.1C40.5306 288.291 40.444 288.503 40.3027 288.735C40.1615 288.968 39.9723 289.191 39.7354 289.405C39.5029 289.615 39.2249 289.79 38.9014 289.932C38.5824 290.068 38.2223 290.137 37.8213 290.137C37.32 290.137 36.8802 290.039 36.502 289.843C36.1283 289.647 35.8366 289.385 35.627 289.057C35.4219 288.724 35.3193 288.353 35.3193 287.942C35.3193 287.546 35.3968 287.197 35.5518 286.896C35.7067 286.591 35.93 286.338 36.2217 286.138C36.5133 285.933 36.8643 285.778 37.2744 285.673C37.6846 285.568 38.1426 285.516 38.6484 285.516H40.1182ZM47.46 288.038C47.46 287.856 47.4189 287.687 47.3369 287.532C47.2594 287.373 47.0977 287.229 46.8516 287.102C46.61 286.969 46.2454 286.855 45.7578 286.76C45.3477 286.673 44.9762 286.571 44.6436 286.452C44.3154 286.334 44.0352 286.19 43.8027 286.021C43.5749 285.853 43.3994 285.655 43.2764 285.427C43.1533 285.199 43.0918 284.932 43.0918 284.627C43.0918 284.335 43.1556 284.06 43.2832 283.8C43.4154 283.54 43.5999 283.31 43.8369 283.109C44.0785 282.909 44.3678 282.752 44.7051 282.638C45.0423 282.524 45.4183 282.467 45.833 282.467C46.4255 282.467 46.9313 282.572 47.3506 282.781C47.7699 282.991 48.0911 283.271 48.3145 283.622C48.5378 283.968 48.6494 284.354 48.6494 284.777H47.3848C47.3848 284.572 47.3232 284.374 47.2002 284.183C47.0817 283.987 46.9062 283.825 46.6738 283.697C46.446 283.57 46.1657 283.506 45.833 283.506C45.4821 283.506 45.1973 283.561 44.9785 283.67C44.7643 283.775 44.6071 283.909 44.5068 284.073C44.4111 284.237 44.3633 284.41 44.3633 284.593C44.3633 284.729 44.3861 284.853 44.4316 284.962C44.4818 285.067 44.5684 285.165 44.6914 285.256C44.8145 285.342 44.9876 285.424 45.2109 285.502C45.4342 285.579 45.7191 285.657 46.0654 285.734C46.6715 285.871 47.1706 286.035 47.5625 286.227C47.9544 286.418 48.2461 286.653 48.4375 286.931C48.6289 287.209 48.7246 287.546 48.7246 287.942C48.7246 288.266 48.6562 288.562 48.5195 288.831C48.3874 289.1 48.1937 289.332 47.9385 289.528C47.6878 289.72 47.387 289.87 47.0361 289.979C46.6898 290.084 46.3001 290.137 45.8672 290.137C45.2155 290.137 44.6641 290.021 44.2129 289.788C43.7617 289.556 43.4199 289.255 43.1875 288.886C42.9551 288.517 42.8389 288.127 42.8389 287.717H44.1104C44.1286 288.063 44.2288 288.339 44.4111 288.544C44.5934 288.744 44.8167 288.888 45.0811 288.975C45.3454 289.057 45.6074 289.098 45.8672 289.098C46.2135 289.098 46.5029 289.052 46.7354 288.961C46.9723 288.87 47.1523 288.744 47.2754 288.585C47.3984 288.425 47.46 288.243 47.46 288.038ZM51.6572 279.5V290H50.3857V279.5H51.6572ZM56.1758 282.604L52.9492 286.056L51.1445 287.929L51.042 286.582L52.334 285.037L54.6309 282.604H56.1758ZM55.0205 290L52.3818 286.473L53.0381 285.345L56.5107 290H55.0205ZM63.8389 290H61.7607L61.7744 288.927H63.8389C64.5498 288.927 65.1423 288.779 65.6162 288.482C66.0902 288.182 66.4456 287.762 66.6826 287.225C66.9242 286.682 67.0449 286.049 67.0449 285.324V284.716C67.0449 284.146 66.9766 283.64 66.8398 283.198C66.7031 282.752 66.5026 282.376 66.2383 282.07C65.974 281.76 65.6504 281.526 65.2676 281.366C64.8893 281.207 64.4541 281.127 63.9619 281.127H61.7197V280.047H63.9619C64.6136 280.047 65.2083 280.156 65.7461 280.375C66.2839 280.589 66.7464 280.901 67.1338 281.312C67.5257 281.717 67.8265 282.209 68.0361 282.788C68.2458 283.362 68.3506 284.009 68.3506 284.729V285.324C68.3506 286.044 68.2458 286.694 68.0361 287.272C67.8265 287.847 67.5234 288.337 67.127 288.742C66.735 289.148 66.2611 289.46 65.7051 289.679C65.1536 289.893 64.5316 290 63.8389 290ZM62.4648 280.047V290H61.1455V280.047H62.4648ZM69.8066 286.384V286.227C69.8066 285.693 69.8841 285.199 70.0391 284.743C70.194 284.283 70.4173 283.884 70.709 283.547C71.0007 283.205 71.3538 282.941 71.7686 282.754C72.1833 282.562 72.6481 282.467 73.1631 282.467C73.6826 282.467 74.1497 282.562 74.5645 282.754C74.9837 282.941 75.3392 283.205 75.6309 283.547C75.9271 283.884 76.1527 284.283 76.3076 284.743C76.4626 285.199 76.54 285.693 76.54 286.227V286.384C76.54 286.917 76.4626 287.411 76.3076 287.867C76.1527 288.323 75.9271 288.722 75.6309 289.063C75.3392 289.401 74.986 289.665 74.5713 289.856C74.1611 290.043 73.6963 290.137 73.1768 290.137C72.6572 290.137 72.1901 290.043 71.7754 289.856C71.3607 289.665 71.0052 289.401 70.709 289.063C70.4173 288.722 70.194 288.323 70.0391 287.867C69.8841 287.411 69.8066 286.917 69.8066 286.384ZM71.0713 286.227V286.384C71.0713 286.753 71.1146 287.102 71.2012 287.43C71.2878 287.753 71.4176 288.04 71.5908 288.291C71.7686 288.542 71.9896 288.74 72.2539 288.886C72.5182 289.027 72.8258 289.098 73.1768 289.098C73.5231 289.098 73.8262 289.027 74.0859 288.886C74.3503 288.74 74.569 288.542 74.7422 288.291C74.9154 288.04 75.0452 287.753 75.1318 287.43C75.223 287.102 75.2686 286.753 75.2686 286.384V286.227C75.2686 285.862 75.223 285.518 75.1318 285.194C75.0452 284.866 74.9131 284.577 74.7354 284.326C74.5622 284.071 74.3434 283.87 74.0791 283.725C73.8193 283.579 73.514 283.506 73.1631 283.506C72.8167 283.506 72.5114 283.579 72.2471 283.725C71.9873 283.87 71.7686 284.071 71.5908 284.326C71.4176 284.577 71.2878 284.866 71.2012 285.194C71.1146 285.518 71.0713 285.862 71.0713 286.227ZM79.3906 284.183V290H78.126V282.604H79.3223L79.3906 284.183ZM79.0898 286.021L78.5635 286.001C78.568 285.495 78.6432 285.028 78.7891 284.6C78.9349 284.167 79.14 283.791 79.4043 283.472C79.6686 283.153 79.9831 282.907 80.3477 282.733C80.7168 282.556 81.1247 282.467 81.5713 282.467C81.9359 282.467 82.264 282.517 82.5557 282.617C82.8473 282.713 83.0957 282.868 83.3008 283.082C83.5104 283.296 83.6699 283.574 83.7793 283.916C83.8887 284.253 83.9434 284.666 83.9434 285.153V290H82.6719V285.14C82.6719 284.752 82.6149 284.442 82.501 284.21C82.387 283.973 82.2207 283.802 82.002 283.697C81.7832 283.588 81.5143 283.533 81.1953 283.533C80.8809 283.533 80.5938 283.599 80.334 283.731C80.0788 283.864 79.8577 284.046 79.6709 284.278C79.4886 284.511 79.3451 284.777 79.2402 285.078C79.14 285.374 79.0898 285.689 79.0898 286.021ZM88.9336 290.137C88.4186 290.137 87.9515 290.05 87.5322 289.877C87.1175 289.699 86.7598 289.451 86.459 289.132C86.1628 288.813 85.9349 288.435 85.7754 287.997C85.6159 287.56 85.5361 287.081 85.5361 286.562V286.274C85.5361 285.673 85.625 285.137 85.8027 284.668C85.9805 284.194 86.222 283.793 86.5273 283.465C86.8327 283.137 87.179 282.888 87.5664 282.72C87.9538 282.551 88.3548 282.467 88.7695 282.467C89.2982 282.467 89.7539 282.558 90.1367 282.74C90.5241 282.923 90.8408 283.178 91.0869 283.506C91.333 283.829 91.5153 284.212 91.6338 284.654C91.7523 285.092 91.8115 285.57 91.8115 286.09V286.657H86.2881V285.625H90.5469V285.529C90.5286 285.201 90.4603 284.882 90.3418 284.572C90.2279 284.262 90.0456 284.007 89.7949 283.807C89.5443 283.606 89.2025 283.506 88.7695 283.506C88.4824 283.506 88.2181 283.567 87.9766 283.69C87.735 283.809 87.5277 283.987 87.3545 284.224C87.1813 284.461 87.0469 284.75 86.9512 285.092C86.8555 285.434 86.8076 285.828 86.8076 286.274V286.562C86.8076 286.912 86.8555 287.243 86.9512 287.553C87.0514 287.858 87.195 288.127 87.3818 288.359C87.5732 288.592 87.8034 288.774 88.0723 288.906C88.3457 289.038 88.6556 289.104 89.002 289.104C89.4486 289.104 89.8268 289.013 90.1367 288.831C90.4466 288.649 90.7178 288.405 90.9502 288.1L91.7158 288.708C91.5563 288.95 91.3535 289.18 91.1074 289.398C90.8613 289.617 90.5583 289.795 90.1982 289.932C89.8428 290.068 89.4212 290.137 88.9336 290.137ZM100.78 279.992V290H99.5156V281.571L96.9658 282.501V281.359L100.582 279.992H100.78Z" fill="black"/>
<rect x="18" y="17" width="564" height="38" rx="3" fill="#E3E3E3"/>
<path d="M31.8262 37.0967H29.167V36.0234H31.8262C32.3411 36.0234 32.7581 35.9414 33.0771 35.7773C33.3962 35.6133 33.6286 35.3854 33.7744 35.0938C33.9248 34.8021 34 34.4694 34 34.0957C34 33.7539 33.9248 33.4326 33.7744 33.1318C33.6286 32.8311 33.3962 32.5895 33.0771 32.4072C32.7581 32.2204 32.3411 32.127 31.8262 32.127H29.4746V41H28.1553V31.0469H31.8262C32.5781 31.0469 33.2139 31.1768 33.7334 31.4365C34.2529 31.6963 34.6471 32.0563 34.916 32.5166C35.1849 32.9723 35.3193 33.4941 35.3193 34.082C35.3193 34.7201 35.1849 35.2646 34.916 35.7158C34.6471 36.167 34.2529 36.5111 33.7334 36.748C33.2139 36.9805 32.5781 37.0967 31.8262 37.0967ZM36.3652 37.3838V37.2266C36.3652 36.6934 36.4427 36.1989 36.5977 35.7432C36.7526 35.2829 36.9759 34.8841 37.2676 34.5469C37.5592 34.2051 37.9124 33.9408 38.3271 33.7539C38.7419 33.5625 39.2067 33.4668 39.7217 33.4668C40.2412 33.4668 40.7083 33.5625 41.123 33.7539C41.5423 33.9408 41.8978 34.2051 42.1895 34.5469C42.4857 34.8841 42.7113 35.2829 42.8662 35.7432C43.0212 36.1989 43.0986 36.6934 43.0986 37.2266V37.3838C43.0986 37.917 43.0212 38.4115 42.8662 38.8672C42.7113 39.3229 42.4857 39.7217 42.1895 40.0635C41.8978 40.4007 41.5446 40.665 41.1299 40.8564C40.7197 41.0433 40.2549 41.1367 39.7354 41.1367C39.2158 41.1367 38.7487 41.0433 38.334 40.8564C37.9193 40.665 37.5638 40.4007 37.2676 40.0635C36.9759 39.7217 36.7526 39.3229 36.5977 38.8672C36.4427 38.4115 36.3652 37.917 36.3652 37.3838ZM37.6299 37.2266V37.3838C37.6299 37.7529 37.6732 38.1016 37.7598 38.4297C37.8464 38.7533 37.9762 39.0404 38.1494 39.291C38.3271 39.5417 38.5482 39.7399 38.8125 39.8857C39.0768 40.027 39.3844 40.0977 39.7354 40.0977C40.0817 40.0977 40.3848 40.027 40.6445 39.8857C40.9089 39.7399 41.1276 39.5417 41.3008 39.291C41.474 39.0404 41.6038 38.7533 41.6904 38.4297C41.7816 38.1016 41.8271 37.7529 41.8271 37.3838V37.2266C41.8271 36.862 41.7816 36.5179 41.6904 36.1943C41.6038 35.8662 41.4717 35.5768 41.2939 35.3262C41.1208 35.071 40.902 34.8704 40.6377 34.7246C40.3779 34.5788 40.0726 34.5059 39.7217 34.5059C39.3753 34.5059 39.07 34.5788 38.8057 34.7246C38.5459 34.8704 38.3271 35.071 38.1494 35.3262C37.9762 35.5768 37.8464 35.8662 37.7598 36.1943C37.6732 36.5179 37.6299 36.862 37.6299 37.2266ZM48.9912 39.0381C48.9912 38.8558 48.9502 38.6872 48.8682 38.5322C48.7907 38.3727 48.6289 38.2292 48.3828 38.1016C48.1413 37.9694 47.7767 37.8555 47.2891 37.7598C46.8789 37.6732 46.5075 37.5706 46.1748 37.4521C45.8467 37.3337 45.5664 37.1901 45.334 37.0215C45.1061 36.8529 44.9307 36.6546 44.8076 36.4268C44.6846 36.1989 44.623 35.9323 44.623 35.627C44.623 35.3353 44.6868 35.0596 44.8145 34.7998C44.9466 34.54 45.1312 34.3099 45.3682 34.1094C45.6097 33.9089 45.8991 33.7516 46.2363 33.6377C46.5736 33.5238 46.9495 33.4668 47.3643 33.4668C47.9567 33.4668 48.4626 33.5716 48.8818 33.7812C49.3011 33.9909 49.6224 34.2712 49.8457 34.6221C50.069 34.9684 50.1807 35.3535 50.1807 35.7773H48.916C48.916 35.5723 48.8545 35.374 48.7314 35.1826C48.613 34.9867 48.4375 34.8249 48.2051 34.6973C47.9772 34.5697 47.6969 34.5059 47.3643 34.5059C47.0133 34.5059 46.7285 34.5605 46.5098 34.6699C46.2956 34.7747 46.1383 34.9092 46.0381 35.0732C45.9424 35.2373 45.8945 35.4105 45.8945 35.5928C45.8945 35.7295 45.9173 35.8525 45.9629 35.9619C46.013 36.0667 46.0996 36.1647 46.2227 36.2559C46.3457 36.3424 46.5189 36.4245 46.7422 36.502C46.9655 36.5794 47.2503 36.6569 47.5967 36.7344C48.2028 36.8711 48.7018 37.0352 49.0938 37.2266C49.4857 37.418 49.7773 37.6527 49.9688 37.9307C50.1602 38.2087 50.2559 38.5459 50.2559 38.9424C50.2559 39.266 50.1875 39.5622 50.0508 39.8311C49.9186 40.0999 49.7249 40.3324 49.4697 40.5283C49.2191 40.7197 48.9183 40.8701 48.5674 40.9795C48.221 41.0843 47.8314 41.1367 47.3984 41.1367C46.7467 41.1367 46.1953 41.0205 45.7441 40.7881C45.293 40.5557 44.9512 40.2549 44.7188 39.8857C44.4863 39.5166 44.3701 39.127 44.3701 38.7168H45.6416C45.6598 39.0632 45.7601 39.3389 45.9424 39.5439C46.1247 39.7445 46.348 39.888 46.6123 39.9746C46.8766 40.0566 47.1387 40.0977 47.3984 40.0977C47.7448 40.0977 48.0342 40.0521 48.2666 39.9609C48.5036 39.8698 48.6836 39.7445 48.8066 39.585C48.9297 39.4255 48.9912 39.2432 48.9912 39.0381ZM53.291 33.6035V41H52.0195V33.6035H53.291ZM51.9238 31.6416C51.9238 31.4365 51.9854 31.2633 52.1084 31.1221C52.236 30.9808 52.4229 30.9102 52.6689 30.9102C52.9105 30.9102 53.0951 30.9808 53.2227 31.1221C53.3548 31.2633 53.4209 31.4365 53.4209 31.6416C53.4209 31.8376 53.3548 32.0062 53.2227 32.1475C53.0951 32.2842 52.9105 32.3525 52.6689 32.3525C52.4229 32.3525 52.236 32.2842 52.1084 32.1475C51.9854 32.0062 51.9238 31.8376 51.9238 31.6416ZM58.418 33.6035V34.5742H54.4189V33.6035H58.418ZM55.7725 31.8057H57.0371V39.168C57.0371 39.4186 57.0758 39.6077 57.1533 39.7354C57.2308 39.863 57.3311 39.9473 57.4541 39.9883C57.5771 40.0293 57.7093 40.0498 57.8506 40.0498C57.9554 40.0498 58.0648 40.0407 58.1787 40.0225C58.2972 39.9997 58.3861 39.9814 58.4453 39.9678L58.4521 41C58.3519 41.0319 58.2197 41.0615 58.0557 41.0889C57.8962 41.1208 57.7025 41.1367 57.4746 41.1367C57.1647 41.1367 56.8799 41.0752 56.6201 40.9521C56.3604 40.8291 56.153 40.624 55.998 40.3369C55.8477 40.0452 55.7725 39.6533 55.7725 39.1611V31.8057ZM61.2754 33.6035V41H60.0039V33.6035H61.2754ZM59.9082 31.6416C59.9082 31.4365 59.9697 31.2633 60.0928 31.1221C60.2204 30.9808 60.4072 30.9102 60.6533 30.9102C60.8949 30.9102 61.0794 30.9808 61.207 31.1221C61.3392 31.2633 61.4053 31.4365 61.4053 31.6416C61.4053 31.8376 61.3392 32.0062 61.207 32.1475C61.0794 32.2842 60.8949 32.3525 60.6533 32.3525C60.4072 32.3525 60.2204 32.2842 60.0928 32.1475C59.9697 32.0062 59.9082 31.8376 59.9082 31.6416ZM62.9707 37.3838V37.2266C62.9707 36.6934 63.0482 36.1989 63.2031 35.7432C63.3581 35.2829 63.5814 34.8841 63.873 34.5469C64.1647 34.2051 64.5179 33.9408 64.9326 33.7539C65.3473 33.5625 65.8122 33.4668 66.3271 33.4668C66.8467 33.4668 67.3138 33.5625 67.7285 33.7539C68.1478 33.9408 68.5033 34.2051 68.7949 34.5469C69.0911 34.8841 69.3167 35.2829 69.4717 35.7432C69.6266 36.1989 69.7041 36.6934 69.7041 37.2266V37.3838C69.7041 37.917 69.6266 38.4115 69.4717 38.8672C69.3167 39.3229 69.0911 39.7217 68.7949 40.0635C68.5033 40.4007 68.1501 40.665 67.7354 40.8564C67.3252 41.0433 66.8604 41.1367 66.3408 41.1367C65.8213 41.1367 65.3542 41.0433 64.9395 40.8564C64.5247 40.665 64.1693 40.4007 63.873 40.0635C63.5814 39.7217 63.3581 39.3229 63.2031 38.8672C63.0482 38.4115 62.9707 37.917 62.9707 37.3838ZM64.2354 37.2266V37.3838C64.2354 37.7529 64.2786 38.1016 64.3652 38.4297C64.4518 38.7533 64.5817 39.0404 64.7549 39.291C64.9326 39.5417 65.1536 39.7399 65.418 39.8857C65.6823 40.027 65.9899 40.0977 66.3408 40.0977C66.6872 40.0977 66.9902 40.027 67.25 39.8857C67.5143 39.7399 67.7331 39.5417 67.9062 39.291C68.0794 39.0404 68.2093 38.7533 68.2959 38.4297C68.387 38.1016 68.4326 37.7529 68.4326 37.3838V37.2266C68.4326 36.862 68.387 36.5179 68.2959 36.1943C68.2093 35.8662 68.0771 35.5768 67.8994 35.3262C67.7262 35.071 67.5075 34.8704 67.2432 34.7246C66.9834 34.5788 66.6781 34.5059 66.3271 34.5059C65.9808 34.5059 65.6755 34.5788 65.4111 34.7246C65.1514 34.8704 64.9326 35.071 64.7549 35.3262C64.5817 35.5768 64.4518 35.8662 64.3652 36.1943C64.2786 36.5179 64.2354 36.862 64.2354 37.2266ZM72.5547 35.1826V41H71.29V33.6035H72.4863L72.5547 35.1826ZM72.2539 37.0215L71.7275 37.001C71.7321 36.4951 71.8073 36.028 71.9531 35.5996C72.099 35.1667 72.304 34.7907 72.5684 34.4717C72.8327 34.1527 73.1471 33.9066 73.5117 33.7334C73.8809 33.5557 74.2887 33.4668 74.7354 33.4668C75.0999 33.4668 75.4281 33.5169 75.7197 33.6172C76.0114 33.7129 76.2598 33.8678 76.4648 34.082C76.6745 34.2962 76.834 34.5742 76.9434 34.916C77.0527 35.2533 77.1074 35.6657 77.1074 36.1533V41H75.8359V36.1396C75.8359 35.7523 75.779 35.4424 75.665 35.21C75.5511 34.973 75.3848 34.8021 75.166 34.6973C74.9473 34.5879 74.6784 34.5332 74.3594 34.5332C74.0449 34.5332 73.7578 34.5993 73.498 34.7314C73.2428 34.8636 73.0218 35.0459 72.835 35.2783C72.6527 35.5107 72.5091 35.7773 72.4043 36.0781C72.304 36.3743 72.2539 36.6888 72.2539 37.0215Z" fill="black"/>
<rect x="18" y="121" width="121" height="38" rx="3" fill="#E3E3E3"/>
<path d="M29.46 142.484C29.46 142.252 29.4235 142.047 29.3506 141.869C29.2822 141.687 29.1592 141.523 28.9814 141.377C28.8083 141.231 28.5667 141.092 28.2568 140.96C27.9515 140.828 27.5641 140.693 27.0947 140.557C26.6025 140.411 26.1582 140.249 25.7617 140.071C25.3652 139.889 25.0257 139.682 24.7432 139.449C24.4606 139.217 24.2441 138.95 24.0938 138.649C23.9434 138.349 23.8682 138.005 23.8682 137.617C23.8682 137.23 23.9479 136.872 24.1074 136.544C24.2669 136.216 24.4948 135.931 24.791 135.689C25.0918 135.443 25.4495 135.252 25.8643 135.115C26.279 134.979 26.7415 134.91 27.252 134.91C27.9993 134.91 28.6328 135.054 29.1523 135.341C29.6764 135.623 30.0752 135.995 30.3486 136.455C30.6221 136.911 30.7588 137.398 30.7588 137.918H29.4463C29.4463 137.544 29.3665 137.214 29.207 136.927C29.0475 136.635 28.806 136.407 28.4824 136.243C28.1589 136.075 27.7487 135.99 27.252 135.99C26.7826 135.99 26.3952 136.061 26.0898 136.202C25.7845 136.343 25.5566 136.535 25.4062 136.776C25.2604 137.018 25.1875 137.294 25.1875 137.604C25.1875 137.813 25.2308 138.005 25.3174 138.178C25.4085 138.346 25.5475 138.504 25.7344 138.649C25.9258 138.795 26.1673 138.93 26.459 139.053C26.7552 139.176 27.1084 139.294 27.5186 139.408C28.0837 139.568 28.5713 139.745 28.9814 139.941C29.3916 140.137 29.7288 140.358 29.9932 140.604C30.262 140.846 30.4603 141.122 30.5879 141.432C30.7201 141.737 30.7861 142.083 30.7861 142.471C30.7861 142.876 30.7041 143.243 30.54 143.571C30.376 143.899 30.1413 144.18 29.8359 144.412C29.5306 144.645 29.1637 144.825 28.7354 144.952C28.3115 145.075 27.8376 145.137 27.3135 145.137C26.8532 145.137 26.3997 145.073 25.9531 144.945C25.5111 144.818 25.1077 144.626 24.7432 144.371C24.3831 144.116 24.0938 143.801 23.875 143.428C23.6608 143.049 23.5537 142.612 23.5537 142.115H24.8662C24.8662 142.457 24.9323 142.751 25.0645 142.997C25.1966 143.239 25.3766 143.439 25.6045 143.599C25.8369 143.758 26.099 143.877 26.3906 143.954C26.6868 144.027 26.9945 144.063 27.3135 144.063C27.7738 144.063 28.1634 144 28.4824 143.872C28.8014 143.744 29.043 143.562 29.207 143.325C29.3757 143.088 29.46 142.808 29.46 142.484ZM35.373 137.604V138.574H31.374V137.604H35.373ZM32.7275 135.806H33.9922V143.168C33.9922 143.419 34.0309 143.608 34.1084 143.735C34.1859 143.863 34.2861 143.947 34.4092 143.988C34.5322 144.029 34.6644 144.05 34.8057 144.05C34.9105 144.05 35.0199 144.041 35.1338 144.022C35.2523 144 35.3411 143.981 35.4004 143.968L35.4072 145C35.307 145.032 35.1748 145.062 35.0107 145.089C34.8512 145.121 34.6576 145.137 34.4297 145.137C34.1198 145.137 33.835 145.075 33.5752 144.952C33.3154 144.829 33.1081 144.624 32.9531 144.337C32.8027 144.045 32.7275 143.653 32.7275 143.161V135.806ZM41.2178 143.735V139.928C41.2178 139.636 41.1585 139.383 41.04 139.169C40.9261 138.95 40.7529 138.782 40.5205 138.663C40.2881 138.545 40.001 138.485 39.6592 138.485C39.3402 138.485 39.0599 138.54 38.8184 138.649C38.5814 138.759 38.3945 138.902 38.2578 139.08C38.1257 139.258 38.0596 139.449 38.0596 139.654H36.7949C36.7949 139.39 36.8633 139.128 37 138.868C37.1367 138.608 37.3327 138.374 37.5879 138.164C37.8477 137.95 38.1576 137.781 38.5176 137.658C38.8822 137.531 39.2878 137.467 39.7344 137.467C40.2721 137.467 40.7461 137.558 41.1562 137.74C41.571 137.923 41.8945 138.198 42.127 138.567C42.3639 138.932 42.4824 139.39 42.4824 139.941V143.387C42.4824 143.633 42.5029 143.895 42.5439 144.173C42.5895 144.451 42.6556 144.69 42.7422 144.891V145H41.4229C41.359 144.854 41.3089 144.66 41.2725 144.419C41.236 144.173 41.2178 143.945 41.2178 143.735ZM41.4365 140.516L41.4502 141.404H40.1719C39.8118 141.404 39.4906 141.434 39.208 141.493C38.9255 141.548 38.6885 141.632 38.4971 141.746C38.3057 141.86 38.1598 142.004 38.0596 142.177C37.9593 142.345 37.9092 142.544 37.9092 142.771C37.9092 143.004 37.9616 143.216 38.0664 143.407C38.1712 143.599 38.3285 143.751 38.5381 143.865C38.7523 143.975 39.0143 144.029 39.3242 144.029C39.7116 144.029 40.0534 143.947 40.3496 143.783C40.6458 143.619 40.8805 143.419 41.0537 143.182C41.2314 142.945 41.3271 142.715 41.3408 142.491L41.8809 143.1C41.849 143.291 41.7624 143.503 41.6211 143.735C41.4798 143.968 41.2907 144.191 41.0537 144.405C40.8213 144.615 40.5433 144.79 40.2197 144.932C39.9007 145.068 39.5407 145.137 39.1396 145.137C38.6383 145.137 38.1986 145.039 37.8203 144.843C37.4466 144.647 37.1549 144.385 36.9453 144.057C36.7402 143.724 36.6377 143.353 36.6377 142.942C36.6377 142.546 36.7152 142.197 36.8701 141.896C37.0251 141.591 37.2484 141.338 37.54 141.138C37.8317 140.933 38.1826 140.778 38.5928 140.673C39.0029 140.568 39.4609 140.516 39.9668 140.516H41.4365ZM45.7363 138.766V145H44.4717V137.604H45.7021L45.7363 138.766ZM48.0469 137.562L48.04 138.738C47.9352 138.715 47.835 138.702 47.7393 138.697C47.6481 138.688 47.5433 138.684 47.4248 138.684C47.1331 138.684 46.8757 138.729 46.6523 138.82C46.429 138.911 46.2399 139.039 46.085 139.203C45.93 139.367 45.807 139.563 45.7158 139.791C45.6292 140.014 45.5723 140.26 45.5449 140.529L45.1895 140.734C45.1895 140.288 45.2327 139.868 45.3193 139.477C45.4105 139.085 45.5495 138.738 45.7363 138.438C45.9232 138.132 46.1602 137.895 46.4473 137.727C46.7389 137.553 47.0853 137.467 47.4863 137.467C47.5775 137.467 47.6823 137.478 47.8008 137.501C47.9193 137.519 48.0013 137.54 48.0469 137.562ZM52.6543 137.604V138.574H48.6553V137.604H52.6543ZM50.0088 135.806H51.2734V143.168C51.2734 143.419 51.3122 143.608 51.3896 143.735C51.4671 143.863 51.5674 143.947 51.6904 143.988C51.8135 144.029 51.9456 144.05 52.0869 144.05C52.1917 144.05 52.3011 144.041 52.415 144.022C52.5335 144 52.6224 143.981 52.6816 143.968L52.6885 145C52.5882 145.032 52.4561 145.062 52.292 145.089C52.1325 145.121 51.9388 145.137 51.7109 145.137C51.401 145.137 51.1162 145.075 50.8564 144.952C50.5967 144.829 50.3893 144.624 50.2344 144.337C50.084 144.045 50.0088 143.653 50.0088 143.161V135.806ZM57.0225 145H54.9443L54.958 143.927H57.0225C57.7334 143.927 58.3258 143.779 58.7998 143.482C59.2738 143.182 59.6292 142.762 59.8662 142.225C60.1077 141.682 60.2285 141.049 60.2285 140.324V139.716C60.2285 139.146 60.1602 138.64 60.0234 138.198C59.8867 137.752 59.6862 137.376 59.4219 137.07C59.1576 136.76 58.834 136.526 58.4512 136.366C58.0729 136.207 57.6377 136.127 57.1455 136.127H54.9033V135.047H57.1455C57.7972 135.047 58.3919 135.156 58.9297 135.375C59.4674 135.589 59.93 135.901 60.3174 136.312C60.7093 136.717 61.0101 137.209 61.2197 137.788C61.4294 138.362 61.5342 139.009 61.5342 139.729V140.324C61.5342 141.044 61.4294 141.694 61.2197 142.272C61.0101 142.847 60.707 143.337 60.3105 143.742C59.9186 144.148 59.4447 144.46 58.8887 144.679C58.3372 144.893 57.7152 145 57.0225 145ZM55.6484 135.047V145H54.3291V135.047H55.6484ZM67.6865 143.735V139.928C67.6865 139.636 67.6273 139.383 67.5088 139.169C67.3949 138.95 67.2217 138.782 66.9893 138.663C66.7568 138.545 66.4697 138.485 66.1279 138.485C65.8089 138.485 65.5286 138.54 65.2871 138.649C65.0501 138.759 64.8633 138.902 64.7266 139.08C64.5944 139.258 64.5283 139.449 64.5283 139.654H63.2637C63.2637 139.39 63.332 139.128 63.4688 138.868C63.6055 138.608 63.8014 138.374 64.0566 138.164C64.3164 137.95 64.6263 137.781 64.9863 137.658C65.3509 137.531 65.7565 137.467 66.2031 137.467C66.7409 137.467 67.2148 137.558 67.625 137.74C68.0397 137.923 68.3633 138.198 68.5957 138.567C68.8327 138.932 68.9512 139.39 68.9512 139.941V143.387C68.9512 143.633 68.9717 143.895 69.0127 144.173C69.0583 144.451 69.1243 144.69 69.2109 144.891V145H67.8916C67.8278 144.854 67.7777 144.66 67.7412 144.419C67.7048 144.173 67.6865 143.945 67.6865 143.735ZM67.9053 140.516L67.9189 141.404H66.6406C66.2806 141.404 65.9593 141.434 65.6768 141.493C65.3942 141.548 65.1572 141.632 64.9658 141.746C64.7744 141.86 64.6286 142.004 64.5283 142.177C64.4281 142.345 64.3779 142.544 64.3779 142.771C64.3779 143.004 64.4303 143.216 64.5352 143.407C64.64 143.599 64.7972 143.751 65.0068 143.865C65.221 143.975 65.4831 144.029 65.793 144.029C66.1803 144.029 66.5221 143.947 66.8184 143.783C67.1146 143.619 67.3493 143.419 67.5225 143.182C67.7002 142.945 67.7959 142.715 67.8096 142.491L68.3496 143.1C68.3177 143.291 68.2311 143.503 68.0898 143.735C67.9486 143.968 67.7594 144.191 67.5225 144.405C67.29 144.615 67.012 144.79 66.6885 144.932C66.3695 145.068 66.0094 145.137 65.6084 145.137C65.1071 145.137 64.6673 145.039 64.2891 144.843C63.9154 144.647 63.6237 144.385 63.4141 144.057C63.209 143.724 63.1064 143.353 63.1064 142.942C63.1064 142.546 63.1839 142.197 63.3389 141.896C63.4938 141.591 63.7171 141.338 64.0088 141.138C64.3005 140.933 64.6514 140.778 65.0615 140.673C65.4717 140.568 65.9297 140.516 66.4355 140.516H67.9053ZM74.0371 137.604V138.574H70.0381V137.604H74.0371ZM71.3916 135.806H72.6562V143.168C72.6562 143.419 72.695 143.608 72.7725 143.735C72.8499 143.863 72.9502 143.947 73.0732 143.988C73.1963 144.029 73.3285 144.05 73.4697 144.05C73.5745 144.05 73.6839 144.041 73.7979 144.022C73.9163 144 74.0052 143.981 74.0645 143.968L74.0713 145C73.971 145.032 73.8389 145.062 73.6748 145.089C73.5153 145.121 73.3216 145.137 73.0938 145.137C72.7839 145.137 72.499 145.075 72.2393 144.952C71.9795 144.829 71.7721 144.624 71.6172 144.337C71.4668 144.045 71.3916 143.653 71.3916 143.161V135.806ZM78.5898 145.137C78.0749 145.137 77.6077 145.05 77.1885 144.877C76.7738 144.699 76.416 144.451 76.1152 144.132C75.819 143.813 75.5911 143.435 75.4316 142.997C75.2721 142.56 75.1924 142.081 75.1924 141.562V141.274C75.1924 140.673 75.2812 140.137 75.459 139.668C75.6367 139.194 75.8783 138.793 76.1836 138.465C76.4889 138.137 76.8353 137.888 77.2227 137.72C77.61 137.551 78.0111 137.467 78.4258 137.467C78.9544 137.467 79.4102 137.558 79.793 137.74C80.1803 137.923 80.4971 138.178 80.7432 138.506C80.9893 138.829 81.1715 139.212 81.29 139.654C81.4085 140.092 81.4678 140.57 81.4678 141.09V141.657H75.9443V140.625H80.2031V140.529C80.1849 140.201 80.1165 139.882 79.998 139.572C79.8841 139.262 79.7018 139.007 79.4512 138.807C79.2005 138.606 78.8587 138.506 78.4258 138.506C78.1387 138.506 77.8743 138.567 77.6328 138.69C77.3913 138.809 77.1839 138.987 77.0107 139.224C76.8376 139.461 76.7031 139.75 76.6074 140.092C76.5117 140.434 76.4639 140.828 76.4639 141.274V141.562C76.4639 141.912 76.5117 142.243 76.6074 142.553C76.7077 142.858 76.8512 143.127 77.0381 143.359C77.2295 143.592 77.4596 143.774 77.7285 143.906C78.002 144.038 78.3118 144.104 78.6582 144.104C79.1048 144.104 79.4831 144.013 79.793 143.831C80.1029 143.649 80.374 143.405 80.6064 143.1L81.3721 143.708C81.2126 143.95 81.0098 144.18 80.7637 144.398C80.5176 144.617 80.2145 144.795 79.8545 144.932C79.499 145.068 79.0775 145.137 78.5898 145.137Z" fill="black"/>
<rect x="18" y="173" width="121" height="38" rx="3" fill="#E3E3E3"/>
<path d="M30.1914 195.927V197H25.2148V195.927H30.1914ZM25.4746 187.047V197H24.1553V187.047H25.4746ZM31.1758 193.384V193.227C31.1758 192.693 31.2533 192.199 31.4082 191.743C31.5632 191.283 31.7865 190.884 32.0781 190.547C32.3698 190.205 32.723 189.941 33.1377 189.754C33.5524 189.562 34.0173 189.467 34.5322 189.467C35.0518 189.467 35.5189 189.562 35.9336 189.754C36.3529 189.941 36.7083 190.205 37 190.547C37.2962 190.884 37.5218 191.283 37.6768 191.743C37.8317 192.199 37.9092 192.693 37.9092 193.227V193.384C37.9092 193.917 37.8317 194.411 37.6768 194.867C37.5218 195.323 37.2962 195.722 37 196.063C36.7083 196.401 36.3551 196.665 35.9404 196.856C35.5303 197.043 35.0654 197.137 34.5459 197.137C34.0264 197.137 33.5592 197.043 33.1445 196.856C32.7298 196.665 32.3743 196.401 32.0781 196.063C31.7865 195.722 31.5632 195.323 31.4082 194.867C31.2533 194.411 31.1758 193.917 31.1758 193.384ZM32.4404 193.227V193.384C32.4404 193.753 32.4837 194.102 32.5703 194.43C32.6569 194.753 32.7868 195.04 32.96 195.291C33.1377 195.542 33.3587 195.74 33.623 195.886C33.8874 196.027 34.195 196.098 34.5459 196.098C34.8923 196.098 35.1953 196.027 35.4551 195.886C35.7194 195.74 35.9382 195.542 36.1113 195.291C36.2845 195.04 36.4144 194.753 36.501 194.43C36.5921 194.102 36.6377 193.753 36.6377 193.384V193.227C36.6377 192.862 36.5921 192.518 36.501 192.194C36.4144 191.866 36.2822 191.577 36.1045 191.326C35.9313 191.071 35.7126 190.87 35.4482 190.725C35.1885 190.579 34.8831 190.506 34.5322 190.506C34.1859 190.506 33.8805 190.579 33.6162 190.725C33.3564 190.87 33.1377 191.071 32.96 191.326C32.7868 191.577 32.6569 191.866 32.5703 192.194C32.4837 192.518 32.4404 192.862 32.4404 193.227ZM42.4551 196.098C42.7559 196.098 43.0339 196.036 43.2891 195.913C43.5443 195.79 43.7539 195.621 43.918 195.407C44.082 195.188 44.1755 194.94 44.1982 194.662H45.4014C45.3786 195.1 45.2305 195.507 44.957 195.886C44.6882 196.259 44.335 196.562 43.8975 196.795C43.46 197.023 42.9792 197.137 42.4551 197.137C41.8991 197.137 41.4137 197.039 40.999 196.843C40.5889 196.647 40.2471 196.378 39.9736 196.036C39.7048 195.694 39.502 195.302 39.3652 194.86C39.2331 194.414 39.167 193.942 39.167 193.445V193.158C39.167 192.661 39.2331 192.192 39.3652 191.75C39.502 191.303 39.7048 190.909 39.9736 190.567C40.2471 190.226 40.5889 189.957 40.999 189.761C41.4137 189.565 41.8991 189.467 42.4551 189.467C43.0339 189.467 43.5397 189.585 43.9727 189.822C44.4056 190.055 44.7451 190.374 44.9912 190.779C45.2419 191.18 45.3786 191.636 45.4014 192.146H44.1982C44.1755 191.841 44.0889 191.565 43.9385 191.319C43.7926 191.073 43.5921 190.877 43.3369 190.731C43.0863 190.581 42.7923 190.506 42.4551 190.506C42.0677 190.506 41.7419 190.583 41.4775 190.738C41.2178 190.889 41.0104 191.094 40.8555 191.354C40.7051 191.609 40.5957 191.894 40.5273 192.208C40.4635 192.518 40.4316 192.835 40.4316 193.158V193.445C40.4316 193.769 40.4635 194.088 40.5273 194.402C40.5911 194.717 40.6982 195.002 40.8486 195.257C41.0036 195.512 41.2109 195.717 41.4707 195.872C41.735 196.022 42.0632 196.098 42.4551 196.098ZM51.1846 195.735V191.928C51.1846 191.636 51.1253 191.383 51.0068 191.169C50.8929 190.95 50.7197 190.782 50.4873 190.663C50.2549 190.545 49.9678 190.485 49.626 190.485C49.307 190.485 49.0267 190.54 48.7852 190.649C48.5482 190.759 48.3613 190.902 48.2246 191.08C48.0924 191.258 48.0264 191.449 48.0264 191.654H46.7617C46.7617 191.39 46.8301 191.128 46.9668 190.868C47.1035 190.608 47.2995 190.374 47.5547 190.164C47.8145 189.95 48.1243 189.781 48.4844 189.658C48.849 189.531 49.2546 189.467 49.7012 189.467C50.2389 189.467 50.7129 189.558 51.123 189.74C51.5378 189.923 51.8613 190.198 52.0938 190.567C52.3307 190.932 52.4492 191.39 52.4492 191.941V195.387C52.4492 195.633 52.4697 195.895 52.5107 196.173C52.5563 196.451 52.6224 196.69 52.709 196.891V197H51.3896C51.3258 196.854 51.2757 196.66 51.2393 196.419C51.2028 196.173 51.1846 195.945 51.1846 195.735ZM51.4033 192.516L51.417 193.404H50.1387C49.7786 193.404 49.4574 193.434 49.1748 193.493C48.8923 193.548 48.6553 193.632 48.4639 193.746C48.2725 193.86 48.1266 194.004 48.0264 194.177C47.9261 194.345 47.876 194.544 47.876 194.771C47.876 195.004 47.9284 195.216 48.0332 195.407C48.138 195.599 48.2952 195.751 48.5049 195.865C48.7191 195.975 48.9811 196.029 49.291 196.029C49.6784 196.029 50.0202 195.947 50.3164 195.783C50.6126 195.619 50.8473 195.419 51.0205 195.182C51.1982 194.945 51.2939 194.715 51.3076 194.491L51.8477 195.1C51.8158 195.291 51.7292 195.503 51.5879 195.735C51.4466 195.968 51.2575 196.191 51.0205 196.405C50.7881 196.615 50.5101 196.79 50.1865 196.932C49.8675 197.068 49.5075 197.137 49.1064 197.137C48.6051 197.137 48.1654 197.039 47.7871 196.843C47.4134 196.647 47.1217 196.385 46.9121 196.057C46.707 195.724 46.6045 195.353 46.6045 194.942C46.6045 194.546 46.682 194.197 46.8369 193.896C46.9919 193.591 47.2152 193.338 47.5068 193.138C47.7985 192.933 48.1494 192.778 48.5596 192.673C48.9697 192.568 49.4277 192.516 49.9336 192.516H51.4033ZM57.5352 189.604V190.574H53.5361V189.604H57.5352ZM54.8896 187.806H56.1543V195.168C56.1543 195.419 56.193 195.608 56.2705 195.735C56.348 195.863 56.4482 195.947 56.5713 195.988C56.6943 196.029 56.8265 196.05 56.9678 196.05C57.0726 196.05 57.182 196.041 57.2959 196.022C57.4144 196 57.5033 195.981 57.5625 195.968L57.5693 197C57.4691 197.032 57.3369 197.062 57.1729 197.089C57.0133 197.121 56.8197 197.137 56.5918 197.137C56.2819 197.137 55.9971 197.075 55.7373 196.952C55.4775 196.829 55.2702 196.624 55.1152 196.337C54.9648 196.045 54.8896 195.653 54.8896 195.161V187.806ZM60.3926 189.604V197H59.1211V189.604H60.3926ZM59.0254 187.642C59.0254 187.437 59.0869 187.263 59.21 187.122C59.3376 186.981 59.5244 186.91 59.7705 186.91C60.012 186.91 60.1966 186.981 60.3242 187.122C60.4564 187.263 60.5225 187.437 60.5225 187.642C60.5225 187.838 60.4564 188.006 60.3242 188.147C60.1966 188.284 60.012 188.353 59.7705 188.353C59.5244 188.353 59.3376 188.284 59.21 188.147C59.0869 188.006 59.0254 187.838 59.0254 187.642ZM62.0879 193.384V193.227C62.0879 192.693 62.1654 192.199 62.3203 191.743C62.4753 191.283 62.6986 190.884 62.9902 190.547C63.2819 190.205 63.6351 189.941 64.0498 189.754C64.4645 189.562 64.9294 189.467 65.4443 189.467C65.9639 189.467 66.431 189.562 66.8457 189.754C67.265 189.941 67.6204 190.205 67.9121 190.547C68.2083 190.884 68.4339 191.283 68.5889 191.743C68.7438 192.199 68.8213 192.693 68.8213 193.227V193.384C68.8213 193.917 68.7438 194.411 68.5889 194.867C68.4339 195.323 68.2083 195.722 67.9121 196.063C67.6204 196.401 67.2673 196.665 66.8525 196.856C66.4424 197.043 65.9775 197.137 65.458 197.137C64.9385 197.137 64.4714 197.043 64.0566 196.856C63.6419 196.665 63.2865 196.401 62.9902 196.063C62.6986 195.722 62.4753 195.323 62.3203 194.867C62.1654 194.411 62.0879 193.917 62.0879 193.384ZM63.3525 193.227V193.384C63.3525 193.753 63.3958 194.102 63.4824 194.43C63.569 194.753 63.6989 195.04 63.8721 195.291C64.0498 195.542 64.2708 195.74 64.5352 195.886C64.7995 196.027 65.1071 196.098 65.458 196.098C65.8044 196.098 66.1074 196.027 66.3672 195.886C66.6315 195.74 66.8503 195.542 67.0234 195.291C67.1966 195.04 67.3265 194.753 67.4131 194.43C67.5042 194.102 67.5498 193.753 67.5498 193.384V193.227C67.5498 192.862 67.5042 192.518 67.4131 192.194C67.3265 191.866 67.1943 191.577 67.0166 191.326C66.8434 191.071 66.6247 190.87 66.3604 190.725C66.1006 190.579 65.7952 190.506 65.4443 190.506C65.098 190.506 64.7926 190.579 64.5283 190.725C64.2686 190.87 64.0498 191.071 63.8721 191.326C63.6989 191.577 63.569 191.866 63.4824 192.194C63.3958 192.518 63.3525 192.862 63.3525 193.227ZM71.6719 191.183V197H70.4072V189.604H71.6035L71.6719 191.183ZM71.3711 193.021L70.8447 193.001C70.8493 192.495 70.9245 192.028 71.0703 191.6C71.2161 191.167 71.4212 190.791 71.6855 190.472C71.9499 190.153 72.2643 189.907 72.6289 189.733C72.998 189.556 73.4059 189.467 73.8525 189.467C74.2171 189.467 74.5452 189.517 74.8369 189.617C75.1286 189.713 75.377 189.868 75.582 190.082C75.7917 190.296 75.9512 190.574 76.0605 190.916C76.1699 191.253 76.2246 191.666 76.2246 192.153V197H74.9531V192.14C74.9531 191.752 74.8962 191.442 74.7822 191.21C74.6683 190.973 74.502 190.802 74.2832 190.697C74.0645 190.588 73.7956 190.533 73.4766 190.533C73.1621 190.533 72.875 190.599 72.6152 190.731C72.36 190.864 72.139 191.046 71.9521 191.278C71.7699 191.511 71.6263 191.777 71.5215 192.078C71.4212 192.374 71.3711 192.689 71.3711 193.021Z" fill="black"/>
<rect x="160" y="121" width="126" height="38" rx="3" fill="#E3E3E3"/>
<path d="M175.479 143.927V145H170.208V143.927H175.479ZM170.475 135.047V145H169.155V135.047H170.475ZM174.781 139.326V140.399H170.208V139.326H174.781ZM175.41 135.047V136.127H170.208V135.047H175.41ZM178.186 139.183V145H176.921V137.604H178.117L178.186 139.183ZM177.885 141.021L177.358 141.001C177.363 140.495 177.438 140.028 177.584 139.6C177.73 139.167 177.935 138.791 178.199 138.472C178.464 138.153 178.778 137.907 179.143 137.733C179.512 137.556 179.92 137.467 180.366 137.467C180.731 137.467 181.059 137.517 181.351 137.617C181.642 137.713 181.891 137.868 182.096 138.082C182.305 138.296 182.465 138.574 182.574 138.916C182.684 139.253 182.738 139.666 182.738 140.153V145H181.467V140.14C181.467 139.752 181.41 139.442 181.296 139.21C181.182 138.973 181.016 138.802 180.797 138.697C180.578 138.588 180.309 138.533 179.99 138.533C179.676 138.533 179.389 138.599 179.129 138.731C178.874 138.864 178.653 139.046 178.466 139.278C178.284 139.511 178.14 139.777 178.035 140.078C177.935 140.374 177.885 140.689 177.885 141.021ZM189.321 143.564V134.5H190.593V145H189.431L189.321 143.564ZM184.345 141.384V141.24C184.345 140.675 184.413 140.162 184.55 139.702C184.691 139.237 184.889 138.839 185.145 138.506C185.404 138.173 185.712 137.918 186.067 137.74C186.427 137.558 186.828 137.467 187.271 137.467C187.735 137.467 188.141 137.549 188.487 137.713C188.838 137.872 189.134 138.107 189.376 138.417C189.622 138.722 189.816 139.091 189.957 139.524C190.098 139.957 190.196 140.447 190.251 140.994V141.623C190.201 142.165 190.103 142.653 189.957 143.086C189.816 143.519 189.622 143.888 189.376 144.193C189.134 144.499 188.838 144.733 188.487 144.897C188.136 145.057 187.726 145.137 187.257 145.137C186.824 145.137 186.427 145.043 186.067 144.856C185.712 144.67 185.404 144.408 185.145 144.07C184.889 143.733 184.691 143.337 184.55 142.881C184.413 142.421 184.345 141.922 184.345 141.384ZM185.616 141.24V141.384C185.616 141.753 185.653 142.099 185.726 142.423C185.803 142.746 185.922 143.031 186.081 143.277C186.241 143.523 186.443 143.717 186.689 143.858C186.936 143.995 187.229 144.063 187.571 144.063C187.991 144.063 188.335 143.975 188.604 143.797C188.877 143.619 189.096 143.384 189.26 143.093C189.424 142.801 189.551 142.484 189.643 142.143V140.495C189.588 140.244 189.508 140.003 189.403 139.771C189.303 139.534 189.171 139.324 189.007 139.142C188.847 138.955 188.649 138.807 188.412 138.697C188.18 138.588 187.904 138.533 187.585 138.533C187.239 138.533 186.94 138.606 186.689 138.752C186.443 138.893 186.241 139.089 186.081 139.34C185.922 139.586 185.803 139.873 185.726 140.201C185.653 140.525 185.616 140.871 185.616 141.24ZM195.446 145H193.368L193.382 143.927H195.446C196.157 143.927 196.75 143.779 197.224 143.482C197.698 143.182 198.053 142.762 198.29 142.225C198.532 141.682 198.652 141.049 198.652 140.324V139.716C198.652 139.146 198.584 138.64 198.447 138.198C198.311 137.752 198.11 137.376 197.846 137.07C197.581 136.76 197.258 136.526 196.875 136.366C196.497 136.207 196.062 136.127 195.569 136.127H193.327V135.047H195.569C196.221 135.047 196.816 135.156 197.354 135.375C197.891 135.589 198.354 135.901 198.741 136.312C199.133 136.717 199.434 137.209 199.644 137.788C199.853 138.362 199.958 139.009 199.958 139.729V140.324C199.958 141.044 199.853 141.694 199.644 142.272C199.434 142.847 199.131 143.337 198.734 143.742C198.342 144.148 197.868 144.46 197.312 144.679C196.761 144.893 196.139 145 195.446 145ZM194.072 135.047V145H192.753V135.047H194.072ZM206.11 143.735V139.928C206.11 139.636 206.051 139.383 205.933 139.169C205.819 138.95 205.646 138.782 205.413 138.663C205.181 138.545 204.894 138.485 204.552 138.485C204.233 138.485 203.952 138.54 203.711 138.649C203.474 138.759 203.287 138.902 203.15 139.08C203.018 139.258 202.952 139.449 202.952 139.654H201.688C201.688 139.39 201.756 139.128 201.893 138.868C202.029 138.608 202.225 138.374 202.48 138.164C202.74 137.95 203.05 137.781 203.41 137.658C203.775 137.531 204.18 137.467 204.627 137.467C205.165 137.467 205.639 137.558 206.049 137.74C206.464 137.923 206.787 138.198 207.02 138.567C207.257 138.932 207.375 139.39 207.375 139.941V143.387C207.375 143.633 207.396 143.895 207.437 144.173C207.482 144.451 207.548 144.69 207.635 144.891V145H206.315C206.252 144.854 206.201 144.66 206.165 144.419C206.129 144.173 206.11 143.945 206.11 143.735ZM206.329 140.516L206.343 141.404H205.064C204.704 141.404 204.383 141.434 204.101 141.493C203.818 141.548 203.581 141.632 203.39 141.746C203.198 141.86 203.052 142.004 202.952 142.177C202.852 142.345 202.802 142.544 202.802 142.771C202.802 143.004 202.854 143.216 202.959 143.407C203.064 143.599 203.221 143.751 203.431 143.865C203.645 143.975 203.907 144.029 204.217 144.029C204.604 144.029 204.946 143.947 205.242 143.783C205.538 143.619 205.773 143.419 205.946 143.182C206.124 142.945 206.22 142.715 206.233 142.491L206.773 143.1C206.742 143.291 206.655 143.503 206.514 143.735C206.372 143.968 206.183 144.191 205.946 144.405C205.714 144.615 205.436 144.79 205.112 144.932C204.793 145.068 204.433 145.137 204.032 145.137C203.531 145.137 203.091 145.039 202.713 144.843C202.339 144.647 202.048 144.385 201.838 144.057C201.633 143.724 201.53 143.353 201.53 142.942C201.53 142.546 201.608 142.197 201.763 141.896C201.918 141.591 202.141 141.338 202.433 141.138C202.724 140.933 203.075 140.778 203.485 140.673C203.896 140.568 204.354 140.516 204.859 140.516H206.329ZM212.461 137.604V138.574H208.462V137.604H212.461ZM209.815 135.806H211.08V143.168C211.08 143.419 211.119 143.608 211.196 143.735C211.274 143.863 211.374 143.947 211.497 143.988C211.62 144.029 211.752 144.05 211.894 144.05C211.998 144.05 212.108 144.041 212.222 144.022C212.34 144 212.429 143.981 212.488 143.968L212.495 145C212.395 145.032 212.263 145.062 212.099 145.089C211.939 145.121 211.745 145.137 211.518 145.137C211.208 145.137 210.923 145.075 210.663 144.952C210.403 144.829 210.196 144.624 210.041 144.337C209.891 144.045 209.815 143.653 209.815 143.161V135.806ZM217.014 145.137C216.499 145.137 216.032 145.05 215.612 144.877C215.198 144.699 214.84 144.451 214.539 144.132C214.243 143.813 214.015 143.435 213.855 142.997C213.696 142.56 213.616 142.081 213.616 141.562V141.274C213.616 140.673 213.705 140.137 213.883 139.668C214.061 139.194 214.302 138.793 214.607 138.465C214.913 138.137 215.259 137.888 215.646 137.72C216.034 137.551 216.435 137.467 216.85 137.467C217.378 137.467 217.834 137.558 218.217 137.74C218.604 137.923 218.921 138.178 219.167 138.506C219.413 138.829 219.595 139.212 219.714 139.654C219.832 140.092 219.892 140.57 219.892 141.09V141.657H214.368V140.625H218.627V140.529C218.609 140.201 218.54 139.882 218.422 139.572C218.308 139.262 218.126 139.007 217.875 138.807C217.624 138.606 217.283 138.506 216.85 138.506C216.562 138.506 216.298 138.567 216.057 138.69C215.815 138.809 215.608 138.987 215.435 139.224C215.261 139.461 215.127 139.75 215.031 140.092C214.936 140.434 214.888 140.828 214.888 141.274V141.562C214.888 141.912 214.936 142.243 215.031 142.553C215.132 142.858 215.275 143.127 215.462 143.359C215.653 143.592 215.883 143.774 216.152 143.906C216.426 144.038 216.736 144.104 217.082 144.104C217.529 144.104 217.907 144.013 218.217 143.831C218.527 143.649 218.798 143.405 219.03 143.1L219.796 143.708C219.636 143.95 219.434 144.18 219.188 144.398C218.941 144.617 218.638 144.795 218.278 144.932C217.923 145.068 217.501 145.137 217.014 145.137Z" fill="black"/>
</g>
<defs>
<filter id="filter0_d_16_147" x="0" y="0" width="610" height="328" filterUnits="userSpaceOnUse" color-interpolation-filters="sRGB">
<feFlood flood-opacity="0" result="BackgroundImageFix"/>
<feColorMatrix in="SourceAlpha" type="matrix" values="0 0 0 0 0 0 0 0 0 0 0 0 0 0 0 0 0 0 127 0" result="hardAlpha"/>
<feOffset dy="4"/>
<feGaussianBlur stdDeviation="2"/>
<feComposite in2="hardAlpha" operator="out"/>
<feColorMatrix type="matrix" values="0 0 0 0 0 0 0 0 0 0 0 0 0 0 0 0 0 0 0.25 0"/>
<feBlend mode="normal" in2="BackgroundImageFix" result="effect1_dropShadow_16_147"/>
<feBlend mode="normal" in="SourceGraphic" in2="effect1_dropShadow_16_147" result="shape"/>
</filter>
</defs>
</svg>
