<svg width="602" height="320" viewBox="0 0 602 320" fill="none" xmlns="http://www.w3.org/2000/svg">
<rect width="602" height="320" rx="5" fill="white"/>
<path d="M20.833 239.047V249H19.5342V239.047H20.833ZM24.0322 239.047V240.127H16.3418V239.047H24.0322ZM28.8994 247.735V243.928C28.8994 243.636 28.8402 243.383 28.7217 243.169C28.6077 242.95 28.4346 242.782 28.2021 242.663C27.9697 242.545 27.6826 242.485 27.3408 242.485C27.0218 242.485 26.7415 242.54 26.5 242.649C26.263 242.759 26.0762 242.902 25.9395 243.08C25.8073 243.258 25.7412 243.449 25.7412 243.654H24.4766C24.4766 243.39 24.5449 243.128 24.6816 242.868C24.8184 242.608 25.0143 242.374 25.2695 242.164C25.5293 241.95 25.8392 241.781 26.1992 241.658C26.5638 241.531 26.9694 241.467 27.416 241.467C27.9538 241.467 28.4277 241.558 28.8379 241.74C29.2526 241.923 29.5762 242.198 29.8086 242.567C30.0456 242.932 30.1641 243.39 30.1641 243.941V247.387C30.1641 247.633 30.1846 247.895 30.2256 248.173C30.2712 248.451 30.3372 248.69 30.4238 248.891V249H29.1045C29.0407 248.854 28.9906 248.66 28.9541 248.419C28.9176 248.173 28.8994 247.945 28.8994 247.735ZM29.1182 244.516L29.1318 245.404H27.8535C27.4935 245.404 27.1722 245.434 26.8896 245.493C26.6071 245.548 26.3701 245.632 26.1787 245.746C25.9873 245.86 25.8415 246.004 25.7412 246.177C25.641 246.345 25.5908 246.544 25.5908 246.771C25.5908 247.004 25.6432 247.216 25.748 247.407C25.8529 247.599 26.0101 247.751 26.2197 247.865C26.4339 247.975 26.696 248.029 27.0059 248.029C27.3932 248.029 27.735 247.947 28.0312 247.783C28.3275 247.619 28.5622 247.419 28.7354 247.182C28.9131 246.945 29.0088 246.715 29.0225 246.491L29.5625 247.1C29.5306 247.291 29.444 247.503 29.3027 247.735C29.1615 247.968 28.9723 248.191 28.7354 248.405C28.5029 248.615 28.2249 248.79 27.9014 248.932C27.5824 249.068 27.2223 249.137 26.8213 249.137C26.32 249.137 25.8802 249.039 25.502 248.843C25.1283 248.647 24.8366 248.385 24.627 248.057C24.4219 247.724 24.3193 247.353 24.3193 246.942C24.3193 246.546 24.3968 246.197 24.5518 245.896C24.7067 245.591 24.93 245.338 25.2217 245.138C25.5133 244.933 25.8643 244.778 26.2744 244.673C26.6846 244.568 27.1426 244.516 27.6484 244.516H29.1182ZM36.46 247.038C36.46 246.856 36.4189 246.687 36.3369 246.532C36.2594 246.373 36.0977 246.229 35.8516 246.102C35.61 245.969 35.2454 245.855 34.7578 245.76C34.3477 245.673 33.9762 245.571 33.6436 245.452C33.3154 245.334 33.0352 245.19 32.8027 245.021C32.5749 244.853 32.3994 244.655 32.2764 244.427C32.1533 244.199 32.0918 243.932 32.0918 243.627C32.0918 243.335 32.1556 243.06 32.2832 242.8C32.4154 242.54 32.5999 242.31 32.8369 242.109C33.0785 241.909 33.3678 241.752 33.7051 241.638C34.0423 241.524 34.4183 241.467 34.833 241.467C35.4255 241.467 35.9313 241.572 36.3506 241.781C36.7699 241.991 37.0911 242.271 37.3145 242.622C37.5378 242.968 37.6494 243.354 37.6494 243.777H36.3848C36.3848 243.572 36.3232 243.374 36.2002 243.183C36.0817 242.987 35.9062 242.825 35.6738 242.697C35.446 242.57 35.1657 242.506 34.833 242.506C34.4821 242.506 34.1973 242.561 33.9785 242.67C33.7643 242.775 33.6071 242.909 33.5068 243.073C33.4111 243.237 33.3633 243.41 33.3633 243.593C33.3633 243.729 33.3861 243.853 33.4316 243.962C33.4818 244.067 33.5684 244.165 33.6914 244.256C33.8145 244.342 33.9876 244.424 34.2109 244.502C34.4342 244.579 34.7191 244.657 35.0654 244.734C35.6715 244.871 36.1706 245.035 36.5625 245.227C36.9544 245.418 37.2461 245.653 37.4375 245.931C37.6289 246.209 37.7246 246.546 37.7246 246.942C37.7246 247.266 37.6562 247.562 37.5195 247.831C37.3874 248.1 37.1937 248.332 36.9385 248.528C36.6878 248.72 36.387 248.87 36.0361 248.979C35.6898 249.084 35.3001 249.137 34.8672 249.137C34.2155 249.137 33.6641 249.021 33.2129 248.788C32.7617 248.556 32.4199 248.255 32.1875 247.886C31.9551 247.517 31.8389 247.127 31.8389 246.717H33.1104C33.1286 247.063 33.2288 247.339 33.4111 247.544C33.5934 247.744 33.8167 247.888 34.0811 247.975C34.3454 248.057 34.6074 248.098 34.8672 248.098C35.2135 248.098 35.5029 248.052 35.7354 247.961C35.9723 247.87 36.1523 247.744 36.2754 247.585C36.3984 247.425 36.46 247.243 36.46 247.038ZM40.6572 238.5V249H39.3857V238.5H40.6572ZM45.1758 241.604L41.9492 245.056L40.1445 246.929L40.042 245.582L41.334 244.037L43.6309 241.604H45.1758ZM44.0205 249L41.3818 245.473L42.0381 244.345L45.5107 249H44.0205ZM52.8389 249H50.7607L50.7744 247.927H52.8389C53.5498 247.927 54.1423 247.779 54.6162 247.482C55.0902 247.182 55.4456 246.762 55.6826 246.225C55.9242 245.682 56.0449 245.049 56.0449 244.324V243.716C56.0449 243.146 55.9766 242.64 55.8398 242.198C55.7031 241.752 55.5026 241.376 55.2383 241.07C54.974 240.76 54.6504 240.526 54.2676 240.366C53.8893 240.207 53.4541 240.127 52.9619 240.127H50.7197V239.047H52.9619C53.6136 239.047 54.2083 239.156 54.7461 239.375C55.2839 239.589 55.7464 239.901 56.1338 240.312C56.5257 240.717 56.8265 241.209 57.0361 241.788C57.2458 242.362 57.3506 243.009 57.3506 243.729V244.324C57.3506 245.044 57.2458 245.694 57.0361 246.272C56.8265 246.847 56.5234 247.337 56.127 247.742C55.735 248.148 55.2611 248.46 54.7051 248.679C54.1536 248.893 53.5316 249 52.8389 249ZM51.4648 239.047V249H50.1455V239.047H51.4648ZM58.8066 245.384V245.227C58.8066 244.693 58.8841 244.199 59.0391 243.743C59.194 243.283 59.4173 242.884 59.709 242.547C60.0007 242.205 60.3538 241.941 60.7686 241.754C61.1833 241.562 61.6481 241.467 62.1631 241.467C62.6826 241.467 63.1497 241.562 63.5645 241.754C63.9837 241.941 64.3392 242.205 64.6309 242.547C64.9271 242.884 65.1527 243.283 65.3076 243.743C65.4626 244.199 65.54 244.693 65.54 245.227V245.384C65.54 245.917 65.4626 246.411 65.3076 246.867C65.1527 247.323 64.9271 247.722 64.6309 248.063C64.3392 248.401 63.986 248.665 63.5713 248.856C63.1611 249.043 62.6963 249.137 62.1768 249.137C61.6572 249.137 61.1901 249.043 60.7754 248.856C60.3607 248.665 60.0052 248.401 59.709 248.063C59.4173 247.722 59.194 247.323 59.0391 246.867C58.8841 246.411 58.8066 245.917 58.8066 245.384ZM60.0713 245.227V245.384C60.0713 245.753 60.1146 246.102 60.2012 246.43C60.2878 246.753 60.4176 247.04 60.5908 247.291C60.7686 247.542 60.9896 247.74 61.2539 247.886C61.5182 248.027 61.8258 248.098 62.1768 248.098C62.5231 248.098 62.8262 248.027 63.0859 247.886C63.3503 247.74 63.569 247.542 63.7422 247.291C63.9154 247.04 64.0452 246.753 64.1318 246.43C64.223 246.102 64.2686 245.753 64.2686 245.384V245.227C64.2686 244.862 64.223 244.518 64.1318 244.194C64.0452 243.866 63.9131 243.577 63.7354 243.326C63.5622 243.071 63.3434 242.87 63.0791 242.725C62.8193 242.579 62.514 242.506 62.1631 242.506C61.8167 242.506 61.5114 242.579 61.2471 242.725C60.9873 242.87 60.7686 243.071 60.5908 243.326C60.4176 243.577 60.2878 243.866 60.2012 244.194C60.1146 244.518 60.0713 244.862 60.0713 245.227ZM68.3906 243.183V249H67.126V241.604H68.3223L68.3906 243.183ZM68.0898 245.021L67.5635 245.001C67.568 244.495 67.6432 244.028 67.7891 243.6C67.9349 243.167 68.14 242.791 68.4043 242.472C68.6686 242.153 68.9831 241.907 69.3477 241.733C69.7168 241.556 70.1247 241.467 70.5713 241.467C70.9359 241.467 71.264 241.517 71.5557 241.617C71.8473 241.713 72.0957 241.868 72.3008 242.082C72.5104 242.296 72.6699 242.574 72.7793 242.916C72.8887 243.253 72.9434 243.666 72.9434 244.153V249H71.6719V244.14C71.6719 243.752 71.6149 243.442 71.501 243.21C71.387 242.973 71.2207 242.802 71.002 242.697C70.7832 242.588 70.5143 242.533 70.1953 242.533C69.8809 242.533 69.5938 242.599 69.334 242.731C69.0788 242.864 68.8577 243.046 68.6709 243.278C68.4886 243.511 68.3451 243.777 68.2402 244.078C68.14 244.374 68.0898 244.689 68.0898 245.021ZM77.9336 249.137C77.4186 249.137 76.9515 249.05 76.5322 248.877C76.1175 248.699 75.7598 248.451 75.459 248.132C75.1628 247.813 74.9349 247.435 74.7754 246.997C74.6159 246.56 74.5361 246.081 74.5361 245.562V245.274C74.5361 244.673 74.625 244.137 74.8027 243.668C74.9805 243.194 75.222 242.793 75.5273 242.465C75.8327 242.137 76.179 241.888 76.5664 241.72C76.9538 241.551 77.3548 241.467 77.7695 241.467C78.2982 241.467 78.7539 241.558 79.1367 241.74C79.5241 241.923 79.8408 242.178 80.0869 242.506C80.333 242.829 80.5153 243.212 80.6338 243.654C80.7523 244.092 80.8115 244.57 80.8115 245.09V245.657H75.2881V244.625H79.5469V244.529C79.5286 244.201 79.4603 243.882 79.3418 243.572C79.2279 243.262 79.0456 243.007 78.7949 242.807C78.5443 242.606 78.2025 242.506 77.7695 242.506C77.4824 242.506 77.2181 242.567 76.9766 242.69C76.735 242.809 76.5277 242.987 76.3545 243.224C76.1813 243.461 76.0469 243.75 75.9512 244.092C75.8555 244.434 75.8076 244.828 75.8076 245.274V245.562C75.8076 245.912 75.8555 246.243 75.9512 246.553C76.0514 246.858 76.195 247.127 76.3818 247.359C76.5732 247.592 76.8034 247.774 77.0723 247.906C77.3457 248.038 77.6556 248.104 78.002 248.104C78.4486 248.104 78.8268 248.013 79.1367 247.831C79.4466 247.649 79.7178 247.405 79.9502 247.1L80.7158 247.708C80.5563 247.95 80.3535 248.18 80.1074 248.398C79.8613 248.617 79.5583 248.795 79.1982 248.932C78.8428 249.068 78.4212 249.137 77.9336 249.137Z" fill="black"/>
<rect x="14" y="69" width="564" height="38" rx="3" fill="#E3E3E3"/>
<path d="M26.1641 89.835H27.4766C27.4082 90.4639 27.2282 91.0267 26.9365 91.5234C26.6449 92.0202 26.2324 92.4144 25.6992 92.7061C25.166 92.9932 24.5007 93.1367 23.7031 93.1367C23.1198 93.1367 22.5889 93.0273 22.1104 92.8086C21.6364 92.5898 21.2285 92.2799 20.8867 91.8789C20.5449 91.4733 20.2806 90.988 20.0938 90.4229C19.9115 89.8532 19.8203 89.2197 19.8203 88.5225V87.5312C19.8203 86.834 19.9115 86.2028 20.0938 85.6377C20.2806 85.068 20.5472 84.5804 20.8936 84.1748C21.2445 83.7692 21.666 83.457 22.1582 83.2383C22.6504 83.0195 23.2041 82.9102 23.8193 82.9102C24.5713 82.9102 25.207 83.0514 25.7266 83.334C26.2461 83.6165 26.6494 84.0085 26.9365 84.5098C27.2282 85.0065 27.4082 85.583 27.4766 86.2393H26.1641C26.1003 85.7744 25.9818 85.3757 25.8086 85.043C25.6354 84.7057 25.3893 84.446 25.0703 84.2637C24.7513 84.0814 24.3343 83.9902 23.8193 83.9902C23.3773 83.9902 22.9876 84.0745 22.6504 84.2432C22.3177 84.4118 22.0374 84.651 21.8096 84.9609C21.5863 85.2708 21.4176 85.6423 21.3037 86.0752C21.1898 86.5081 21.1328 86.9889 21.1328 87.5176V88.5225C21.1328 89.0101 21.1829 89.4681 21.2832 89.8965C21.388 90.3249 21.5452 90.7008 21.7549 91.0244C21.9645 91.348 22.2311 91.6032 22.5547 91.79C22.8783 91.9723 23.2611 92.0635 23.7031 92.0635C24.2637 92.0635 24.7103 91.9746 25.043 91.7969C25.3757 91.6191 25.6263 91.3639 25.7949 91.0312C25.9681 90.6986 26.0911 90.2998 26.1641 89.835ZM28.748 89.3838V89.2266C28.748 88.6934 28.8255 88.1989 28.9805 87.7432C29.1354 87.2829 29.3587 86.8841 29.6504 86.5469C29.9421 86.2051 30.2952 85.9408 30.71 85.7539C31.1247 85.5625 31.5895 85.4668 32.1045 85.4668C32.624 85.4668 33.0911 85.5625 33.5059 85.7539C33.9251 85.9408 34.2806 86.2051 34.5723 86.5469C34.8685 86.8841 35.0941 87.2829 35.249 87.7432C35.404 88.1989 35.4814 88.6934 35.4814 89.2266V89.3838C35.4814 89.917 35.404 90.4115 35.249 90.8672C35.0941 91.3229 34.8685 91.7217 34.5723 92.0635C34.2806 92.4007 33.9274 92.665 33.5127 92.8564C33.1025 93.0433 32.6377 93.1367 32.1182 93.1367C31.5986 93.1367 31.1315 93.0433 30.7168 92.8564C30.3021 92.665 29.9466 92.4007 29.6504 92.0635C29.3587 91.7217 29.1354 91.3229 28.9805 90.8672C28.8255 90.4115 28.748 89.917 28.748 89.3838ZM30.0127 89.2266V89.3838C30.0127 89.7529 30.056 90.1016 30.1426 90.4297C30.2292 90.7533 30.359 91.0404 30.5322 91.291C30.71 91.5417 30.931 91.7399 31.1953 91.8857C31.4596 92.027 31.7673 92.0977 32.1182 92.0977C32.4645 92.0977 32.7676 92.027 33.0273 91.8857C33.2917 91.7399 33.5104 91.5417 33.6836 91.291C33.8568 91.0404 33.9867 90.7533 34.0732 90.4297C34.1644 90.1016 34.21 89.7529 34.21 89.3838V89.2266C34.21 88.862 34.1644 88.5179 34.0732 88.1943C33.9867 87.8662 33.8545 87.5768 33.6768 87.3262C33.5036 87.071 33.2848 86.8704 33.0205 86.7246C32.7607 86.5788 32.4554 86.5059 32.1045 86.5059C31.7581 86.5059 31.4528 86.5788 31.1885 86.7246C30.9287 86.8704 30.71 87.071 30.5322 87.3262C30.359 87.5768 30.2292 87.8662 30.1426 88.1943C30.056 88.5179 30.0127 88.862 30.0127 89.2266ZM38.3252 87.0732V93H37.0537V85.6035H38.2568L38.3252 87.0732ZM38.0654 89.0215L37.4775 89.001C37.4821 88.4951 37.5482 88.028 37.6758 87.5996C37.8034 87.1667 37.9925 86.7907 38.2432 86.4717C38.4938 86.1527 38.806 85.9066 39.1797 85.7334C39.5534 85.5557 39.9863 85.4668 40.4785 85.4668C40.8249 85.4668 41.1439 85.5169 41.4355 85.6172C41.7272 85.7129 41.9801 85.8656 42.1943 86.0752C42.4085 86.2848 42.5749 86.5537 42.6934 86.8818C42.8118 87.21 42.8711 87.6064 42.8711 88.0713V93H41.6064V88.1328C41.6064 87.7454 41.5404 87.4355 41.4082 87.2031C41.2806 86.9707 41.0983 86.8021 40.8613 86.6973C40.6243 86.5879 40.3464 86.5332 40.0273 86.5332C39.6536 86.5332 39.3415 86.5993 39.0908 86.7314C38.8402 86.8636 38.6396 87.0459 38.4893 87.2783C38.3389 87.5107 38.2295 87.7773 38.1611 88.0781C38.0973 88.3743 38.0654 88.6888 38.0654 89.0215ZM42.8574 88.3242L42.0098 88.584C42.0143 88.1784 42.0804 87.7887 42.208 87.415C42.3402 87.0413 42.5293 86.7087 42.7754 86.417C43.026 86.1253 43.3337 85.8952 43.6982 85.7266C44.0628 85.5534 44.4798 85.4668 44.9492 85.4668C45.3457 85.4668 45.6966 85.5192 46.002 85.624C46.3118 85.7288 46.5716 85.8906 46.7812 86.1094C46.9954 86.3236 47.1572 86.5993 47.2666 86.9365C47.376 87.2738 47.4307 87.6748 47.4307 88.1396V93H46.1592V88.126C46.1592 87.7113 46.0931 87.39 45.9609 87.1621C45.8333 86.9297 45.651 86.7679 45.4141 86.6768C45.1816 86.5811 44.9036 86.5332 44.5801 86.5332C44.3021 86.5332 44.056 86.5811 43.8418 86.6768C43.6276 86.7725 43.4476 86.9046 43.3018 87.0732C43.1559 87.2373 43.0443 87.4264 42.9668 87.6406C42.8939 87.8548 42.8574 88.0827 42.8574 88.3242ZM50.6094 87.0254V95.8438H49.3379V85.6035H50.5L50.6094 87.0254ZM55.5928 89.2402V89.3838C55.5928 89.9215 55.529 90.4206 55.4014 90.8809C55.2738 91.3366 55.0869 91.7331 54.8408 92.0703C54.5993 92.4076 54.3008 92.6696 53.9453 92.8564C53.5898 93.0433 53.182 93.1367 52.7217 93.1367C52.2523 93.1367 51.8376 93.0592 51.4775 92.9043C51.1175 92.7493 50.8122 92.5238 50.5615 92.2275C50.3109 91.9313 50.1104 91.5758 49.96 91.1611C49.8141 90.7464 49.7139 90.2793 49.6592 89.7598V88.9941C49.7139 88.4473 49.8164 87.9574 49.9668 87.5244C50.1172 87.0915 50.3154 86.7223 50.5615 86.417C50.8122 86.1071 51.1152 85.8724 51.4707 85.7129C51.8262 85.5488 52.2363 85.4668 52.7012 85.4668C53.166 85.4668 53.5785 85.5579 53.9385 85.7402C54.2985 85.918 54.6016 86.1732 54.8477 86.5059C55.0938 86.8385 55.2783 87.2373 55.4014 87.7021C55.529 88.1624 55.5928 88.6751 55.5928 89.2402ZM54.3213 89.3838V89.2402C54.3213 88.8711 54.2826 88.5247 54.2051 88.2012C54.1276 87.873 54.0068 87.5859 53.8428 87.3398C53.6833 87.0892 53.4782 86.8932 53.2275 86.752C52.9769 86.6061 52.6784 86.5332 52.332 86.5332C52.013 86.5332 51.735 86.5879 51.498 86.6973C51.2656 86.8066 51.0674 86.9548 50.9033 87.1416C50.7393 87.3239 50.6048 87.5335 50.5 87.7705C50.3997 88.0029 50.3245 88.2445 50.2744 88.4951V90.2656C50.3656 90.5846 50.4932 90.8854 50.6572 91.168C50.8213 91.446 51.04 91.6715 51.3135 91.8447C51.5869 92.0133 51.931 92.0977 52.3457 92.0977C52.6875 92.0977 52.9814 92.027 53.2275 91.8857C53.4782 91.7399 53.6833 91.5417 53.8428 91.291C54.0068 91.0404 54.1276 90.7533 54.2051 90.4297C54.2826 90.1016 54.3213 89.7529 54.3213 89.3838ZM61.5674 91.7354V87.9277C61.5674 87.6361 61.5081 87.3831 61.3896 87.1689C61.2757 86.9502 61.1025 86.7816 60.8701 86.6631C60.6377 86.5446 60.3506 86.4854 60.0088 86.4854C59.6898 86.4854 59.4095 86.54 59.168 86.6494C58.931 86.7588 58.7441 86.9023 58.6074 87.0801C58.4753 87.2578 58.4092 87.4492 58.4092 87.6543H57.1445C57.1445 87.39 57.2129 87.1279 57.3496 86.8682C57.4863 86.6084 57.6823 86.3737 57.9375 86.1641C58.1973 85.9499 58.5072 85.7812 58.8672 85.6582C59.2318 85.5306 59.6374 85.4668 60.084 85.4668C60.6217 85.4668 61.0957 85.5579 61.5059 85.7402C61.9206 85.9225 62.2441 86.1982 62.4766 86.5674C62.7135 86.932 62.832 87.39 62.832 87.9414V91.3867C62.832 91.6328 62.8525 91.8949 62.8936 92.1729C62.9391 92.4508 63.0052 92.6901 63.0918 92.8906V93H61.7725C61.7087 92.8542 61.6585 92.6605 61.6221 92.4189C61.5856 92.1729 61.5674 91.945 61.5674 91.7354ZM61.7861 88.5156L61.7998 89.4043H60.5215C60.1615 89.4043 59.8402 89.4339 59.5576 89.4932C59.2751 89.5479 59.0381 89.6322 58.8467 89.7461C58.6553 89.86 58.5094 90.0036 58.4092 90.1768C58.3089 90.3454 58.2588 90.5436 58.2588 90.7715C58.2588 91.0039 58.3112 91.2158 58.416 91.4072C58.5208 91.5986 58.6781 91.7513 58.8877 91.8652C59.1019 91.9746 59.3639 92.0293 59.6738 92.0293C60.0612 92.0293 60.403 91.9473 60.6992 91.7832C60.9954 91.6191 61.2301 91.4186 61.4033 91.1816C61.5811 90.9447 61.6768 90.7145 61.6904 90.4912L62.2305 91.0996C62.1986 91.291 62.112 91.5029 61.9707 91.7354C61.8294 91.9678 61.6403 92.1911 61.4033 92.4053C61.1709 92.6149 60.8929 92.7904 60.5693 92.9316C60.2503 93.0684 59.8903 93.1367 59.4893 93.1367C58.988 93.1367 58.5482 93.0387 58.1699 92.8428C57.7962 92.6468 57.5046 92.3848 57.2949 92.0566C57.0898 91.724 56.9873 91.3525 56.9873 90.9424C56.9873 90.5459 57.0648 90.1973 57.2197 89.8965C57.3747 89.5911 57.598 89.3382 57.8896 89.1377C58.1813 88.9326 58.5322 88.7777 58.9424 88.6729C59.3525 88.568 59.8105 88.5156 60.3164 88.5156H61.7861ZM66.0859 87.1826V93H64.8213V85.6035H66.0176L66.0859 87.1826ZM65.7852 89.0215L65.2588 89.001C65.2633 88.4951 65.3385 88.028 65.4844 87.5996C65.6302 87.1667 65.8353 86.7907 66.0996 86.4717C66.3639 86.1527 66.6784 85.9066 67.043 85.7334C67.4121 85.5557 67.82 85.4668 68.2666 85.4668C68.6312 85.4668 68.9593 85.5169 69.251 85.6172C69.5426 85.7129 69.791 85.8678 69.9961 86.082C70.2057 86.2962 70.3652 86.5742 70.4746 86.916C70.584 87.2533 70.6387 87.6657 70.6387 88.1533V93H69.3672V88.1396C69.3672 87.7523 69.3102 87.4424 69.1963 87.21C69.0824 86.973 68.916 86.8021 68.6973 86.6973C68.4785 86.5879 68.2096 86.5332 67.8906 86.5332C67.5762 86.5332 67.2891 86.5993 67.0293 86.7314C66.7741 86.8636 66.5531 87.0459 66.3662 87.2783C66.1839 87.5107 66.0404 87.7773 65.9355 88.0781C65.8353 88.3743 65.7852 88.6888 65.7852 89.0215ZM74.6377 92.2344L76.6953 85.6035H78.0488L75.082 94.1416C75.0137 94.3239 74.9225 94.5199 74.8086 94.7295C74.6992 94.9437 74.5579 95.1465 74.3848 95.3379C74.2116 95.5293 74.002 95.6842 73.7559 95.8027C73.5143 95.9258 73.2249 95.9873 72.8877 95.9873C72.7874 95.9873 72.6598 95.9736 72.5049 95.9463C72.3499 95.9189 72.2406 95.8962 72.1768 95.8779L72.1699 94.8525C72.2064 94.8571 72.2633 94.8617 72.3408 94.8662C72.4229 94.8753 72.4798 94.8799 72.5117 94.8799C72.7988 94.8799 73.0426 94.8411 73.2432 94.7637C73.4437 94.6908 73.6123 94.5654 73.749 94.3877C73.8903 94.2145 74.0111 93.9753 74.1113 93.6699L74.6377 92.2344ZM73.127 85.6035L75.0479 91.3457L75.376 92.6787L74.4668 93.1436L71.7461 85.6035H73.127ZM90.5107 83.0469V93H89.1846L84.1738 85.3232V93H82.8545V83.0469H84.1738L89.2051 90.7441V83.0469H90.5107ZM97.0186 91.7354V87.9277C97.0186 87.6361 96.9593 87.3831 96.8408 87.1689C96.7269 86.9502 96.5537 86.7816 96.3213 86.6631C96.0889 86.5446 95.8018 86.4854 95.46 86.4854C95.141 86.4854 94.8607 86.54 94.6191 86.6494C94.3822 86.7588 94.1953 86.9023 94.0586 87.0801C93.9264 87.2578 93.8604 87.4492 93.8604 87.6543H92.5957C92.5957 87.39 92.6641 87.1279 92.8008 86.8682C92.9375 86.6084 93.1335 86.3737 93.3887 86.1641C93.6484 85.9499 93.9583 85.7812 94.3184 85.6582C94.6829 85.5306 95.0885 85.4668 95.5352 85.4668C96.0729 85.4668 96.5469 85.5579 96.957 85.7402C97.3717 85.9225 97.6953 86.1982 97.9277 86.5674C98.1647 86.932 98.2832 87.39 98.2832 87.9414V91.3867C98.2832 91.6328 98.3037 91.8949 98.3447 92.1729C98.3903 92.4508 98.4564 92.6901 98.543 92.8906V93H97.2236C97.1598 92.8542 97.1097 92.6605 97.0732 92.4189C97.0368 92.1729 97.0186 91.945 97.0186 91.7354ZM97.2373 88.5156L97.251 89.4043H95.9727C95.6126 89.4043 95.2913 89.4339 95.0088 89.4932C94.7262 89.5479 94.4893 89.6322 94.2979 89.7461C94.1064 89.86 93.9606 90.0036 93.8604 90.1768C93.7601 90.3454 93.71 90.5436 93.71 90.7715C93.71 91.0039 93.7624 91.2158 93.8672 91.4072C93.972 91.5986 94.1292 91.7513 94.3389 91.8652C94.5531 91.9746 94.8151 92.0293 95.125 92.0293C95.5124 92.0293 95.8542 91.9473 96.1504 91.7832C96.4466 91.6191 96.6813 91.4186 96.8545 91.1816C97.0322 90.9447 97.1279 90.7145 97.1416 90.4912L97.6816 91.0996C97.6497 91.291 97.5632 91.5029 97.4219 91.7354C97.2806 91.9678 97.0915 92.1911 96.8545 92.4053C96.6221 92.6149 96.3441 92.7904 96.0205 92.9316C95.7015 93.0684 95.3415 93.1367 94.9404 93.1367C94.4391 93.1367 93.9993 93.0387 93.6211 92.8428C93.2474 92.6468 92.9557 92.3848 92.7461 92.0566C92.541 91.724 92.4385 91.3525 92.4385 90.9424C92.4385 90.5459 92.516 90.1973 92.6709 89.8965C92.8258 89.5911 93.0492 89.3382 93.3408 89.1377C93.6325 88.9326 93.9834 88.7777 94.3936 88.6729C94.8037 88.568 95.2617 88.5156 95.7676 88.5156H97.2373ZM101.53 87.0732V93H100.259V85.6035H101.462L101.53 87.0732ZM101.271 89.0215L100.683 89.001C100.687 88.4951 100.753 88.028 100.881 87.5996C101.008 87.1667 101.198 86.7907 101.448 86.4717C101.699 86.1527 102.011 85.9066 102.385 85.7334C102.758 85.5557 103.191 85.4668 103.684 85.4668C104.03 85.4668 104.349 85.5169 104.641 85.6172C104.932 85.7129 105.185 85.8656 105.399 86.0752C105.614 86.2848 105.78 86.5537 105.898 86.8818C106.017 87.21 106.076 87.6064 106.076 88.0713V93H104.812V88.1328C104.812 87.7454 104.745 87.4355 104.613 87.2031C104.486 86.9707 104.303 86.8021 104.066 86.6973C103.829 86.5879 103.551 86.5332 103.232 86.5332C102.859 86.5332 102.547 86.5993 102.296 86.7314C102.045 86.8636 101.845 87.0459 101.694 87.2783C101.544 87.5107 101.435 87.7773 101.366 88.0781C101.302 88.3743 101.271 88.6888 101.271 89.0215ZM106.062 88.3242L105.215 88.584C105.219 88.1784 105.285 87.7887 105.413 87.415C105.545 87.0413 105.734 86.7087 105.98 86.417C106.231 86.1253 106.539 85.8952 106.903 85.7266C107.268 85.5534 107.685 85.4668 108.154 85.4668C108.551 85.4668 108.902 85.5192 109.207 85.624C109.517 85.7288 109.777 85.8906 109.986 86.1094C110.201 86.3236 110.362 86.5993 110.472 86.9365C110.581 87.2738 110.636 87.6748 110.636 88.1396V93H109.364V88.126C109.364 87.7113 109.298 87.39 109.166 87.1621C109.038 86.9297 108.856 86.7679 108.619 86.6768C108.387 86.5811 108.109 86.5332 107.785 86.5332C107.507 86.5332 107.261 86.5811 107.047 86.6768C106.833 86.7725 106.653 86.9046 106.507 87.0732C106.361 87.2373 106.249 87.4264 106.172 87.6406C106.099 87.8548 106.062 88.0827 106.062 88.3242ZM115.619 93.1367C115.104 93.1367 114.637 93.0501 114.218 92.877C113.803 92.6992 113.445 92.4508 113.145 92.1318C112.848 91.8128 112.62 91.4346 112.461 90.9971C112.301 90.5596 112.222 90.0811 112.222 89.5615V89.2744C112.222 88.6729 112.311 88.1374 112.488 87.668C112.666 87.194 112.908 86.793 113.213 86.4648C113.518 86.1367 113.865 85.8883 114.252 85.7197C114.639 85.5511 115.04 85.4668 115.455 85.4668C115.984 85.4668 116.439 85.5579 116.822 85.7402C117.21 85.9225 117.526 86.1777 117.772 86.5059C118.019 86.8294 118.201 87.2122 118.319 87.6543C118.438 88.0918 118.497 88.5703 118.497 89.0898V89.6572H112.974V88.625H117.232V88.5293C117.214 88.2012 117.146 87.8822 117.027 87.5723C116.913 87.2624 116.731 87.0072 116.48 86.8066C116.23 86.6061 115.888 86.5059 115.455 86.5059C115.168 86.5059 114.904 86.5674 114.662 86.6904C114.421 86.8089 114.213 86.9867 114.04 87.2236C113.867 87.4606 113.732 87.75 113.637 88.0918C113.541 88.4336 113.493 88.8278 113.493 89.2744V89.5615C113.493 89.9124 113.541 90.2428 113.637 90.5527C113.737 90.8581 113.881 91.127 114.067 91.3594C114.259 91.5918 114.489 91.7741 114.758 91.9062C115.031 92.0384 115.341 92.1045 115.688 92.1045C116.134 92.1045 116.512 92.0133 116.822 91.8311C117.132 91.6488 117.403 91.4049 117.636 91.0996L118.401 91.708C118.242 91.9495 118.039 92.1797 117.793 92.3984C117.547 92.6172 117.244 92.7949 116.884 92.9316C116.528 93.0684 116.107 93.1367 115.619 93.1367Z" fill="black"/>
<rect x="299" y="121" width="279" height="104" rx="3" fill="#E3E3E3"/>
<path d="M310.84 135.929L307.545 145H306.198L309.992 135.047H310.86L310.84 135.929ZM313.602 145L310.3 135.929L310.279 135.047H311.147L314.955 145H313.602ZM313.431 141.315V142.396H307.839V141.315H313.431ZM316.09 134.5H317.361V143.564L317.252 145H316.09V134.5ZM322.358 141.24V141.384C322.358 141.922 322.295 142.421 322.167 142.881C322.039 143.337 321.853 143.733 321.606 144.07C321.36 144.408 321.06 144.67 320.704 144.856C320.349 145.043 319.941 145.137 319.48 145.137C319.011 145.137 318.599 145.057 318.243 144.897C317.892 144.733 317.596 144.499 317.354 144.193C317.113 143.888 316.919 143.519 316.773 143.086C316.632 142.653 316.534 142.165 316.479 141.623V140.994C316.534 140.447 316.632 139.957 316.773 139.524C316.919 139.091 317.113 138.722 317.354 138.417C317.596 138.107 317.892 137.872 318.243 137.713C318.594 137.549 319.002 137.467 319.467 137.467C319.932 137.467 320.344 137.558 320.704 137.74C321.064 137.918 321.365 138.173 321.606 138.506C321.853 138.839 322.039 139.237 322.167 139.702C322.295 140.162 322.358 140.675 322.358 141.24ZM321.087 141.384V141.24C321.087 140.871 321.053 140.525 320.984 140.201C320.916 139.873 320.807 139.586 320.656 139.34C320.506 139.089 320.308 138.893 320.062 138.752C319.815 138.606 319.512 138.533 319.152 138.533C318.833 138.533 318.555 138.588 318.318 138.697C318.086 138.807 317.888 138.955 317.724 139.142C317.56 139.324 317.425 139.534 317.32 139.771C317.22 140.003 317.145 140.244 317.095 140.495V142.143C317.168 142.462 317.286 142.769 317.45 143.065C317.619 143.357 317.842 143.596 318.12 143.783C318.403 143.97 318.751 144.063 319.166 144.063C319.508 144.063 319.799 143.995 320.041 143.858C320.287 143.717 320.485 143.523 320.636 143.277C320.791 143.031 320.905 142.746 320.978 142.423C321.05 142.099 321.087 141.753 321.087 141.384ZM323.623 141.384V141.227C323.623 140.693 323.701 140.199 323.855 139.743C324.01 139.283 324.234 138.884 324.525 138.547C324.817 138.205 325.17 137.941 325.585 137.754C326 137.562 326.465 137.467 326.979 137.467C327.499 137.467 327.966 137.562 328.381 137.754C328.8 137.941 329.156 138.205 329.447 138.547C329.743 138.884 329.969 139.283 330.124 139.743C330.279 140.199 330.356 140.693 330.356 141.227V141.384C330.356 141.917 330.279 142.411 330.124 142.867C329.969 143.323 329.743 143.722 329.447 144.063C329.156 144.401 328.802 144.665 328.388 144.856C327.978 145.043 327.513 145.137 326.993 145.137C326.474 145.137 326.007 145.043 325.592 144.856C325.177 144.665 324.822 144.401 324.525 144.063C324.234 143.722 324.01 143.323 323.855 142.867C323.701 142.411 323.623 141.917 323.623 141.384ZM324.888 141.227V141.384C324.888 141.753 324.931 142.102 325.018 142.43C325.104 142.753 325.234 143.04 325.407 143.291C325.585 143.542 325.806 143.74 326.07 143.886C326.335 144.027 326.642 144.098 326.993 144.098C327.34 144.098 327.643 144.027 327.902 143.886C328.167 143.74 328.385 143.542 328.559 143.291C328.732 143.04 328.862 142.753 328.948 142.43C329.039 142.102 329.085 141.753 329.085 141.384V141.227C329.085 140.862 329.039 140.518 328.948 140.194C328.862 139.866 328.729 139.577 328.552 139.326C328.379 139.071 328.16 138.87 327.896 138.725C327.636 138.579 327.33 138.506 326.979 138.506C326.633 138.506 326.328 138.579 326.063 138.725C325.804 138.87 325.585 139.071 325.407 139.326C325.234 139.577 325.104 139.866 325.018 140.194C324.931 140.518 324.888 140.862 324.888 141.227ZM336.468 143.291V137.604H337.739V145H336.529L336.468 143.291ZM336.707 141.732L337.233 141.719C337.233 142.211 337.181 142.667 337.076 143.086C336.976 143.501 336.812 143.861 336.584 144.166C336.356 144.471 336.058 144.711 335.688 144.884C335.319 145.052 334.87 145.137 334.342 145.137C333.982 145.137 333.651 145.084 333.351 144.979C333.054 144.875 332.799 144.713 332.585 144.494C332.371 144.275 332.204 143.991 332.086 143.64C331.972 143.289 331.915 142.867 331.915 142.375V137.604H333.18V142.389C333.18 142.721 333.216 142.997 333.289 143.216C333.367 143.43 333.469 143.601 333.597 143.729C333.729 143.852 333.875 143.938 334.034 143.988C334.198 144.038 334.367 144.063 334.54 144.063C335.078 144.063 335.504 143.961 335.818 143.756C336.133 143.546 336.358 143.266 336.495 142.915C336.636 142.56 336.707 142.165 336.707 141.732ZM342.764 137.604V138.574H338.765V137.604H342.764ZM340.118 135.806H341.383V143.168C341.383 143.419 341.422 143.608 341.499 143.735C341.576 143.863 341.677 143.947 341.8 143.988C341.923 144.029 342.055 144.05 342.196 144.05C342.301 144.05 342.41 144.041 342.524 144.022C342.643 144 342.732 143.981 342.791 143.968L342.798 145C342.698 145.032 342.565 145.062 342.401 145.089C342.242 145.121 342.048 145.137 341.82 145.137C341.51 145.137 341.226 145.075 340.966 144.952C340.706 144.829 340.499 144.624 340.344 144.337C340.193 144.045 340.118 143.653 340.118 143.161V135.806ZM353.92 141.835H355.232C355.164 142.464 354.984 143.027 354.692 143.523C354.401 144.02 353.988 144.414 353.455 144.706C352.922 144.993 352.257 145.137 351.459 145.137C350.876 145.137 350.345 145.027 349.866 144.809C349.392 144.59 348.984 144.28 348.643 143.879C348.301 143.473 348.036 142.988 347.85 142.423C347.667 141.853 347.576 141.22 347.576 140.522V139.531C347.576 138.834 347.667 138.203 347.85 137.638C348.036 137.068 348.303 136.58 348.649 136.175C349 135.769 349.422 135.457 349.914 135.238C350.406 135.02 350.96 134.91 351.575 134.91C352.327 134.91 352.963 135.051 353.482 135.334C354.002 135.617 354.405 136.008 354.692 136.51C354.984 137.007 355.164 137.583 355.232 138.239H353.92C353.856 137.774 353.738 137.376 353.564 137.043C353.391 136.706 353.145 136.446 352.826 136.264C352.507 136.081 352.09 135.99 351.575 135.99C351.133 135.99 350.743 136.075 350.406 136.243C350.074 136.412 349.793 136.651 349.565 136.961C349.342 137.271 349.174 137.642 349.06 138.075C348.946 138.508 348.889 138.989 348.889 139.518V140.522C348.889 141.01 348.939 141.468 349.039 141.896C349.144 142.325 349.301 142.701 349.511 143.024C349.72 143.348 349.987 143.603 350.311 143.79C350.634 143.972 351.017 144.063 351.459 144.063C352.02 144.063 352.466 143.975 352.799 143.797C353.132 143.619 353.382 143.364 353.551 143.031C353.724 142.699 353.847 142.3 353.92 141.835ZM356.504 141.384V141.227C356.504 140.693 356.581 140.199 356.736 139.743C356.891 139.283 357.115 138.884 357.406 138.547C357.698 138.205 358.051 137.941 358.466 137.754C358.881 137.562 359.345 137.467 359.86 137.467C360.38 137.467 360.847 137.562 361.262 137.754C361.681 137.941 362.036 138.205 362.328 138.547C362.624 138.884 362.85 139.283 363.005 139.743C363.16 140.199 363.237 140.693 363.237 141.227V141.384C363.237 141.917 363.16 142.411 363.005 142.867C362.85 143.323 362.624 143.722 362.328 144.063C362.036 144.401 361.683 144.665 361.269 144.856C360.858 145.043 360.394 145.137 359.874 145.137C359.354 145.137 358.887 145.043 358.473 144.856C358.058 144.665 357.702 144.401 357.406 144.063C357.115 143.722 356.891 143.323 356.736 142.867C356.581 142.411 356.504 141.917 356.504 141.384ZM357.769 141.227V141.384C357.769 141.753 357.812 142.102 357.898 142.43C357.985 142.753 358.115 143.04 358.288 143.291C358.466 143.542 358.687 143.74 358.951 143.886C359.215 144.027 359.523 144.098 359.874 144.098C360.22 144.098 360.523 144.027 360.783 143.886C361.048 143.74 361.266 143.542 361.439 143.291C361.613 143.04 361.743 142.753 361.829 142.43C361.92 142.102 361.966 141.753 361.966 141.384V141.227C361.966 140.862 361.92 140.518 361.829 140.194C361.743 139.866 361.61 139.577 361.433 139.326C361.259 139.071 361.041 138.87 360.776 138.725C360.517 138.579 360.211 138.506 359.86 138.506C359.514 138.506 359.209 138.579 358.944 138.725C358.685 138.87 358.466 139.071 358.288 139.326C358.115 139.577 357.985 139.866 357.898 140.194C357.812 140.518 357.769 140.862 357.769 141.227ZM366.081 139.073V145H364.81V137.604H366.013L366.081 139.073ZM365.821 141.021L365.233 141.001C365.238 140.495 365.304 140.028 365.432 139.6C365.559 139.167 365.748 138.791 365.999 138.472C366.25 138.153 366.562 137.907 366.936 137.733C367.309 137.556 367.742 137.467 368.234 137.467C368.581 137.467 368.9 137.517 369.191 137.617C369.483 137.713 369.736 137.866 369.95 138.075C370.164 138.285 370.331 138.554 370.449 138.882C370.568 139.21 370.627 139.606 370.627 140.071V145H369.362V140.133C369.362 139.745 369.296 139.436 369.164 139.203C369.036 138.971 368.854 138.802 368.617 138.697C368.38 138.588 368.102 138.533 367.783 138.533C367.41 138.533 367.097 138.599 366.847 138.731C366.596 138.864 366.396 139.046 366.245 139.278C366.095 139.511 365.985 139.777 365.917 140.078C365.853 140.374 365.821 140.689 365.821 141.021ZM370.613 140.324L369.766 140.584C369.77 140.178 369.836 139.789 369.964 139.415C370.096 139.041 370.285 138.709 370.531 138.417C370.782 138.125 371.09 137.895 371.454 137.727C371.819 137.553 372.236 137.467 372.705 137.467C373.102 137.467 373.452 137.519 373.758 137.624C374.068 137.729 374.327 137.891 374.537 138.109C374.751 138.324 374.913 138.599 375.022 138.937C375.132 139.274 375.187 139.675 375.187 140.14V145H373.915V140.126C373.915 139.711 373.849 139.39 373.717 139.162C373.589 138.93 373.407 138.768 373.17 138.677C372.938 138.581 372.66 138.533 372.336 138.533C372.058 138.533 371.812 138.581 371.598 138.677C371.383 138.772 371.203 138.905 371.058 139.073C370.912 139.237 370.8 139.426 370.723 139.641C370.65 139.855 370.613 140.083 370.613 140.324ZM378.365 139.025V147.844H377.094V137.604H378.256L378.365 139.025ZM383.349 141.24V141.384C383.349 141.922 383.285 142.421 383.157 142.881C383.03 143.337 382.843 143.733 382.597 144.07C382.355 144.408 382.057 144.67 381.701 144.856C381.346 145.043 380.938 145.137 380.478 145.137C380.008 145.137 379.593 145.059 379.233 144.904C378.873 144.749 378.568 144.524 378.317 144.228C378.067 143.931 377.866 143.576 377.716 143.161C377.57 142.746 377.47 142.279 377.415 141.76V140.994C377.47 140.447 377.572 139.957 377.723 139.524C377.873 139.091 378.071 138.722 378.317 138.417C378.568 138.107 378.871 137.872 379.227 137.713C379.582 137.549 379.992 137.467 380.457 137.467C380.922 137.467 381.334 137.558 381.694 137.74C382.054 137.918 382.357 138.173 382.604 138.506C382.85 138.839 383.034 139.237 383.157 139.702C383.285 140.162 383.349 140.675 383.349 141.24ZM382.077 141.384V141.24C382.077 140.871 382.038 140.525 381.961 140.201C381.883 139.873 381.763 139.586 381.599 139.34C381.439 139.089 381.234 138.893 380.983 138.752C380.733 138.606 380.434 138.533 380.088 138.533C379.769 138.533 379.491 138.588 379.254 138.697C379.021 138.807 378.823 138.955 378.659 139.142C378.495 139.324 378.361 139.534 378.256 139.771C378.156 140.003 378.08 140.244 378.03 140.495V142.266C378.121 142.585 378.249 142.885 378.413 143.168C378.577 143.446 378.796 143.672 379.069 143.845C379.343 144.013 379.687 144.098 380.102 144.098C380.443 144.098 380.737 144.027 380.983 143.886C381.234 143.74 381.439 143.542 381.599 143.291C381.763 143.04 381.883 142.753 381.961 142.43C382.038 142.102 382.077 141.753 382.077 141.384ZM389.323 143.735V139.928C389.323 139.636 389.264 139.383 389.146 139.169C389.032 138.95 388.858 138.782 388.626 138.663C388.394 138.545 388.106 138.485 387.765 138.485C387.446 138.485 387.165 138.54 386.924 138.649C386.687 138.759 386.5 138.902 386.363 139.08C386.231 139.258 386.165 139.449 386.165 139.654H384.9C384.9 139.39 384.969 139.128 385.105 138.868C385.242 138.608 385.438 138.374 385.693 138.164C385.953 137.95 386.263 137.781 386.623 137.658C386.988 137.531 387.393 137.467 387.84 137.467C388.378 137.467 388.852 137.558 389.262 137.74C389.676 137.923 390 138.198 390.232 138.567C390.469 138.932 390.588 139.39 390.588 139.941V143.387C390.588 143.633 390.608 143.895 390.649 144.173C390.695 144.451 390.761 144.69 390.848 144.891V145H389.528C389.465 144.854 389.414 144.66 389.378 144.419C389.341 144.173 389.323 143.945 389.323 143.735ZM389.542 140.516L389.556 141.404H388.277C387.917 141.404 387.596 141.434 387.313 141.493C387.031 141.548 386.794 141.632 386.603 141.746C386.411 141.86 386.265 142.004 386.165 142.177C386.065 142.345 386.015 142.544 386.015 142.771C386.015 143.004 386.067 143.216 386.172 143.407C386.277 143.599 386.434 143.751 386.644 143.865C386.858 143.975 387.12 144.029 387.43 144.029C387.817 144.029 388.159 143.947 388.455 143.783C388.751 143.619 388.986 143.419 389.159 143.182C389.337 142.945 389.433 142.715 389.446 142.491L389.986 143.1C389.954 143.291 389.868 143.503 389.727 143.735C389.585 143.968 389.396 144.191 389.159 144.405C388.927 144.615 388.649 144.79 388.325 144.932C388.006 145.068 387.646 145.137 387.245 145.137C386.744 145.137 386.304 145.039 385.926 144.843C385.552 144.647 385.26 144.385 385.051 144.057C384.846 143.724 384.743 143.353 384.743 142.942C384.743 142.546 384.821 142.197 384.976 141.896C385.131 141.591 385.354 141.338 385.646 141.138C385.937 140.933 386.288 140.778 386.698 140.673C387.108 140.568 387.566 140.516 388.072 140.516H389.542ZM393.842 139.183V145H392.577V137.604H393.773L393.842 139.183ZM393.541 141.021L393.015 141.001C393.019 140.495 393.094 140.028 393.24 139.6C393.386 139.167 393.591 138.791 393.855 138.472C394.12 138.153 394.434 137.907 394.799 137.733C395.168 137.556 395.576 137.467 396.022 137.467C396.387 137.467 396.715 137.517 397.007 137.617C397.299 137.713 397.547 137.868 397.752 138.082C397.962 138.296 398.121 138.574 398.23 138.916C398.34 139.253 398.395 139.666 398.395 140.153V145H397.123V140.14C397.123 139.752 397.066 139.442 396.952 139.21C396.838 138.973 396.672 138.802 396.453 138.697C396.234 138.588 395.965 138.533 395.646 138.533C395.332 138.533 395.045 138.599 394.785 138.731C394.53 138.864 394.309 139.046 394.122 139.278C393.94 139.511 393.796 139.777 393.691 140.078C393.591 140.374 393.541 140.689 393.541 141.021ZM402.394 144.234L404.451 137.604H405.805L402.838 146.142C402.77 146.324 402.678 146.52 402.564 146.729C402.455 146.944 402.314 147.146 402.141 147.338C401.967 147.529 401.758 147.684 401.512 147.803C401.27 147.926 400.981 147.987 400.644 147.987C400.543 147.987 400.416 147.974 400.261 147.946C400.106 147.919 399.996 147.896 399.933 147.878L399.926 146.853C399.962 146.857 400.019 146.862 400.097 146.866C400.179 146.875 400.236 146.88 400.268 146.88C400.555 146.88 400.799 146.841 400.999 146.764C401.2 146.691 401.368 146.565 401.505 146.388C401.646 146.215 401.767 145.975 401.867 145.67L402.394 144.234ZM400.883 137.604L402.804 143.346L403.132 144.679L402.223 145.144L399.502 137.604H400.883Z" fill="black"/>
<rect x="14" y="264" width="564" height="38" rx="3" fill="#E3E3E3"/>
<path d="M27.833 280.047V290H26.5342V280.047H27.833ZM31.0322 280.047V281.127H23.3418V280.047H31.0322ZM35.8994 288.735V284.928C35.8994 284.636 35.8402 284.383 35.7217 284.169C35.6077 283.95 35.4346 283.782 35.2021 283.663C34.9697 283.545 34.6826 283.485 34.3408 283.485C34.0218 283.485 33.7415 283.54 33.5 283.649C33.263 283.759 33.0762 283.902 32.9395 284.08C32.8073 284.258 32.7412 284.449 32.7412 284.654H31.4766C31.4766 284.39 31.5449 284.128 31.6816 283.868C31.8184 283.608 32.0143 283.374 32.2695 283.164C32.5293 282.95 32.8392 282.781 33.1992 282.658C33.5638 282.531 33.9694 282.467 34.416 282.467C34.9538 282.467 35.4277 282.558 35.8379 282.74C36.2526 282.923 36.5762 283.198 36.8086 283.567C37.0456 283.932 37.1641 284.39 37.1641 284.941V288.387C37.1641 288.633 37.1846 288.895 37.2256 289.173C37.2712 289.451 37.3372 289.69 37.4238 289.891V290H36.1045C36.0407 289.854 35.9906 289.66 35.9541 289.419C35.9176 289.173 35.8994 288.945 35.8994 288.735ZM36.1182 285.516L36.1318 286.404H34.8535C34.4935 286.404 34.1722 286.434 33.8896 286.493C33.6071 286.548 33.3701 286.632 33.1787 286.746C32.9873 286.86 32.8415 287.004 32.7412 287.177C32.641 287.345 32.5908 287.544 32.5908 287.771C32.5908 288.004 32.6432 288.216 32.748 288.407C32.8529 288.599 33.0101 288.751 33.2197 288.865C33.4339 288.975 33.696 289.029 34.0059 289.029C34.3932 289.029 34.735 288.947 35.0312 288.783C35.3275 288.619 35.5622 288.419 35.7354 288.182C35.9131 287.945 36.0088 287.715 36.0225 287.491L36.5625 288.1C36.5306 288.291 36.444 288.503 36.3027 288.735C36.1615 288.968 35.9723 289.191 35.7354 289.405C35.5029 289.615 35.2249 289.79 34.9014 289.932C34.5824 290.068 34.2223 290.137 33.8213 290.137C33.32 290.137 32.8802 290.039 32.502 289.843C32.1283 289.647 31.8366 289.385 31.627 289.057C31.4219 288.724 31.3193 288.353 31.3193 287.942C31.3193 287.546 31.3968 287.197 31.5518 286.896C31.7067 286.591 31.93 286.338 32.2217 286.138C32.5133 285.933 32.8643 285.778 33.2744 285.673C33.6846 285.568 34.1426 285.516 34.6484 285.516H36.1182ZM43.46 288.038C43.46 287.856 43.4189 287.687 43.3369 287.532C43.2594 287.373 43.0977 287.229 42.8516 287.102C42.61 286.969 42.2454 286.855 41.7578 286.76C41.3477 286.673 40.9762 286.571 40.6436 286.452C40.3154 286.334 40.0352 286.19 39.8027 286.021C39.5749 285.853 39.3994 285.655 39.2764 285.427C39.1533 285.199 39.0918 284.932 39.0918 284.627C39.0918 284.335 39.1556 284.06 39.2832 283.8C39.4154 283.54 39.5999 283.31 39.8369 283.109C40.0785 282.909 40.3678 282.752 40.7051 282.638C41.0423 282.524 41.4183 282.467 41.833 282.467C42.4255 282.467 42.9313 282.572 43.3506 282.781C43.7699 282.991 44.0911 283.271 44.3145 283.622C44.5378 283.968 44.6494 284.354 44.6494 284.777H43.3848C43.3848 284.572 43.3232 284.374 43.2002 284.183C43.0817 283.987 42.9062 283.825 42.6738 283.697C42.446 283.57 42.1657 283.506 41.833 283.506C41.4821 283.506 41.1973 283.561 40.9785 283.67C40.7643 283.775 40.6071 283.909 40.5068 284.073C40.4111 284.237 40.3633 284.41 40.3633 284.593C40.3633 284.729 40.3861 284.853 40.4316 284.962C40.4818 285.067 40.5684 285.165 40.6914 285.256C40.8145 285.342 40.9876 285.424 41.2109 285.502C41.4342 285.579 41.7191 285.657 42.0654 285.734C42.6715 285.871 43.1706 286.035 43.5625 286.227C43.9544 286.418 44.2461 286.653 44.4375 286.931C44.6289 287.209 44.7246 287.546 44.7246 287.942C44.7246 288.266 44.6562 288.562 44.5195 288.831C44.3874 289.1 44.1937 289.332 43.9385 289.528C43.6878 289.72 43.387 289.87 43.0361 289.979C42.6898 290.084 42.3001 290.137 41.8672 290.137C41.2155 290.137 40.6641 290.021 40.2129 289.788C39.7617 289.556 39.4199 289.255 39.1875 288.886C38.9551 288.517 38.8389 288.127 38.8389 287.717H40.1104C40.1286 288.063 40.2288 288.339 40.4111 288.544C40.5934 288.744 40.8167 288.888 41.0811 288.975C41.3454 289.057 41.6074 289.098 41.8672 289.098C42.2135 289.098 42.5029 289.052 42.7354 288.961C42.9723 288.87 43.1523 288.744 43.2754 288.585C43.3984 288.425 43.46 288.243 43.46 288.038ZM47.6572 279.5V290H46.3857V279.5H47.6572ZM52.1758 282.604L48.9492 286.056L47.1445 287.929L47.042 286.582L48.334 285.037L50.6309 282.604H52.1758ZM51.0205 290L48.3818 286.473L49.0381 285.345L52.5107 290H51.0205ZM59.8389 290H57.7607L57.7744 288.927H59.8389C60.5498 288.927 61.1423 288.779 61.6162 288.482C62.0902 288.182 62.4456 287.762 62.6826 287.225C62.9242 286.682 63.0449 286.049 63.0449 285.324V284.716C63.0449 284.146 62.9766 283.64 62.8398 283.198C62.7031 282.752 62.5026 282.376 62.2383 282.07C61.974 281.76 61.6504 281.526 61.2676 281.366C60.8893 281.207 60.4541 281.127 59.9619 281.127H57.7197V280.047H59.9619C60.6136 280.047 61.2083 280.156 61.7461 280.375C62.2839 280.589 62.7464 280.901 63.1338 281.312C63.5257 281.717 63.8265 282.209 64.0361 282.788C64.2458 283.362 64.3506 284.009 64.3506 284.729V285.324C64.3506 286.044 64.2458 286.694 64.0361 287.272C63.8265 287.847 63.5234 288.337 63.127 288.742C62.735 289.148 62.2611 289.46 61.7051 289.679C61.1536 289.893 60.5316 290 59.8389 290ZM58.4648 280.047V290H57.1455V280.047H58.4648ZM65.8066 286.384V286.227C65.8066 285.693 65.8841 285.199 66.0391 284.743C66.194 284.283 66.4173 283.884 66.709 283.547C67.0007 283.205 67.3538 282.941 67.7686 282.754C68.1833 282.562 68.6481 282.467 69.1631 282.467C69.6826 282.467 70.1497 282.562 70.5645 282.754C70.9837 282.941 71.3392 283.205 71.6309 283.547C71.9271 283.884 72.1527 284.283 72.3076 284.743C72.4626 285.199 72.54 285.693 72.54 286.227V286.384C72.54 286.917 72.4626 287.411 72.3076 287.867C72.1527 288.323 71.9271 288.722 71.6309 289.063C71.3392 289.401 70.986 289.665 70.5713 289.856C70.1611 290.043 69.6963 290.137 69.1768 290.137C68.6572 290.137 68.1901 290.043 67.7754 289.856C67.3607 289.665 67.0052 289.401 66.709 289.063C66.4173 288.722 66.194 288.323 66.0391 287.867C65.8841 287.411 65.8066 286.917 65.8066 286.384ZM67.0713 286.227V286.384C67.0713 286.753 67.1146 287.102 67.2012 287.43C67.2878 287.753 67.4176 288.04 67.5908 288.291C67.7686 288.542 67.9896 288.74 68.2539 288.886C68.5182 289.027 68.8258 289.098 69.1768 289.098C69.5231 289.098 69.8262 289.027 70.0859 288.886C70.3503 288.74 70.569 288.542 70.7422 288.291C70.9154 288.04 71.0452 287.753 71.1318 287.43C71.223 287.102 71.2686 286.753 71.2686 286.384V286.227C71.2686 285.862 71.223 285.518 71.1318 285.194C71.0452 284.866 70.9131 284.577 70.7354 284.326C70.5622 284.071 70.3434 283.87 70.0791 283.725C69.8193 283.579 69.514 283.506 69.1631 283.506C68.8167 283.506 68.5114 283.579 68.2471 283.725C67.9873 283.87 67.7686 284.071 67.5908 284.326C67.4176 284.577 67.2878 284.866 67.2012 285.194C67.1146 285.518 67.0713 285.862 67.0713 286.227ZM75.3906 284.183V290H74.126V282.604H75.3223L75.3906 284.183ZM75.0898 286.021L74.5635 286.001C74.568 285.495 74.6432 285.028 74.7891 284.6C74.9349 284.167 75.14 283.791 75.4043 283.472C75.6686 283.153 75.9831 282.907 76.3477 282.733C76.7168 282.556 77.1247 282.467 77.5713 282.467C77.9359 282.467 78.264 282.517 78.5557 282.617C78.8473 282.713 79.0957 282.868 79.3008 283.082C79.5104 283.296 79.6699 283.574 79.7793 283.916C79.8887 284.253 79.9434 284.666 79.9434 285.153V290H78.6719V285.14C78.6719 284.752 78.6149 284.442 78.501 284.21C78.387 283.973 78.2207 283.802 78.002 283.697C77.7832 283.588 77.5143 283.533 77.1953 283.533C76.8809 283.533 76.5938 283.599 76.334 283.731C76.0788 283.864 75.8577 284.046 75.6709 284.278C75.4886 284.511 75.3451 284.777 75.2402 285.078C75.14 285.374 75.0898 285.689 75.0898 286.021ZM84.9336 290.137C84.4186 290.137 83.9515 290.05 83.5322 289.877C83.1175 289.699 82.7598 289.451 82.459 289.132C82.1628 288.813 81.9349 288.435 81.7754 287.997C81.6159 287.56 81.5361 287.081 81.5361 286.562V286.274C81.5361 285.673 81.625 285.137 81.8027 284.668C81.9805 284.194 82.222 283.793 82.5273 283.465C82.8327 283.137 83.179 282.888 83.5664 282.72C83.9538 282.551 84.3548 282.467 84.7695 282.467C85.2982 282.467 85.7539 282.558 86.1367 282.74C86.5241 282.923 86.8408 283.178 87.0869 283.506C87.333 283.829 87.5153 284.212 87.6338 284.654C87.7523 285.092 87.8115 285.57 87.8115 286.09V286.657H82.2881V285.625H86.5469V285.529C86.5286 285.201 86.4603 284.882 86.3418 284.572C86.2279 284.262 86.0456 284.007 85.7949 283.807C85.5443 283.606 85.2025 283.506 84.7695 283.506C84.4824 283.506 84.2181 283.567 83.9766 283.69C83.735 283.809 83.5277 283.987 83.3545 284.224C83.1813 284.461 83.0469 284.75 82.9512 285.092C82.8555 285.434 82.8076 285.828 82.8076 286.274V286.562C82.8076 286.912 82.8555 287.243 82.9512 287.553C83.0514 287.858 83.195 288.127 83.3818 288.359C83.5732 288.592 83.8034 288.774 84.0723 288.906C84.3457 289.038 84.6556 289.104 85.002 289.104C85.4486 289.104 85.8268 289.013 86.1367 288.831C86.4466 288.649 86.7178 288.405 86.9502 288.1L87.7158 288.708C87.5563 288.95 87.3535 289.18 87.1074 289.398C86.8613 289.617 86.5583 289.795 86.1982 289.932C85.8428 290.068 85.4212 290.137 84.9336 290.137ZM96.7803 279.992V290H95.5156V281.571L92.9658 282.501V281.359L96.582 279.992H96.7803Z" fill="black"/>
<rect x="14" y="17" width="564" height="38" rx="3" fill="#E3E3E3"/>
<path d="M27.8262 37.0967H25.167V36.0234H27.8262C28.3411 36.0234 28.7581 35.9414 29.0771 35.7773C29.3962 35.6133 29.6286 35.3854 29.7744 35.0938C29.9248 34.8021 30 34.4694 30 34.0957C30 33.7539 29.9248 33.4326 29.7744 33.1318C29.6286 32.8311 29.3962 32.5895 29.0771 32.4072C28.7581 32.2204 28.3411 32.127 27.8262 32.127H25.4746V41H24.1553V31.0469H27.8262C28.5781 31.0469 29.2139 31.1768 29.7334 31.4365C30.2529 31.6963 30.6471 32.0563 30.916 32.5166C31.1849 32.9723 31.3193 33.4941 31.3193 34.082C31.3193 34.7201 31.1849 35.2646 30.916 35.7158C30.6471 36.167 30.2529 36.5111 29.7334 36.748C29.2139 36.9805 28.5781 37.0967 27.8262 37.0967ZM32.3652 37.3838V37.2266C32.3652 36.6934 32.4427 36.1989 32.5977 35.7432C32.7526 35.2829 32.9759 34.8841 33.2676 34.5469C33.5592 34.2051 33.9124 33.9408 34.3271 33.7539C34.7419 33.5625 35.2067 33.4668 35.7217 33.4668C36.2412 33.4668 36.7083 33.5625 37.123 33.7539C37.5423 33.9408 37.8978 34.2051 38.1895 34.5469C38.4857 34.8841 38.7113 35.2829 38.8662 35.7432C39.0212 36.1989 39.0986 36.6934 39.0986 37.2266V37.3838C39.0986 37.917 39.0212 38.4115 38.8662 38.8672C38.7113 39.3229 38.4857 39.7217 38.1895 40.0635C37.8978 40.4007 37.5446 40.665 37.1299 40.8564C36.7197 41.0433 36.2549 41.1367 35.7354 41.1367C35.2158 41.1367 34.7487 41.0433 34.334 40.8564C33.9193 40.665 33.5638 40.4007 33.2676 40.0635C32.9759 39.7217 32.7526 39.3229 32.5977 38.8672C32.4427 38.4115 32.3652 37.917 32.3652 37.3838ZM33.6299 37.2266V37.3838C33.6299 37.7529 33.6732 38.1016 33.7598 38.4297C33.8464 38.7533 33.9762 39.0404 34.1494 39.291C34.3271 39.5417 34.5482 39.7399 34.8125 39.8857C35.0768 40.027 35.3844 40.0977 35.7354 40.0977C36.0817 40.0977 36.3848 40.027 36.6445 39.8857C36.9089 39.7399 37.1276 39.5417 37.3008 39.291C37.474 39.0404 37.6038 38.7533 37.6904 38.4297C37.7816 38.1016 37.8271 37.7529 37.8271 37.3838V37.2266C37.8271 36.862 37.7816 36.5179 37.6904 36.1943C37.6038 35.8662 37.4717 35.5768 37.2939 35.3262C37.1208 35.071 36.902 34.8704 36.6377 34.7246C36.3779 34.5788 36.0726 34.5059 35.7217 34.5059C35.3753 34.5059 35.07 34.5788 34.8057 34.7246C34.5459 34.8704 34.3271 35.071 34.1494 35.3262C33.9762 35.5768 33.8464 35.8662 33.7598 36.1943C33.6732 36.5179 33.6299 36.862 33.6299 37.2266ZM44.9912 39.0381C44.9912 38.8558 44.9502 38.6872 44.8682 38.5322C44.7907 38.3727 44.6289 38.2292 44.3828 38.1016C44.1413 37.9694 43.7767 37.8555 43.2891 37.7598C42.8789 37.6732 42.5075 37.5706 42.1748 37.4521C41.8467 37.3337 41.5664 37.1901 41.334 37.0215C41.1061 36.8529 40.9307 36.6546 40.8076 36.4268C40.6846 36.1989 40.623 35.9323 40.623 35.627C40.623 35.3353 40.6868 35.0596 40.8145 34.7998C40.9466 34.54 41.1312 34.3099 41.3682 34.1094C41.6097 33.9089 41.8991 33.7516 42.2363 33.6377C42.5736 33.5238 42.9495 33.4668 43.3643 33.4668C43.9567 33.4668 44.4626 33.5716 44.8818 33.7812C45.3011 33.9909 45.6224 34.2712 45.8457 34.6221C46.069 34.9684 46.1807 35.3535 46.1807 35.7773H44.916C44.916 35.5723 44.8545 35.374 44.7314 35.1826C44.613 34.9867 44.4375 34.8249 44.2051 34.6973C43.9772 34.5697 43.6969 34.5059 43.3643 34.5059C43.0133 34.5059 42.7285 34.5605 42.5098 34.6699C42.2956 34.7747 42.1383 34.9092 42.0381 35.0732C41.9424 35.2373 41.8945 35.4105 41.8945 35.5928C41.8945 35.7295 41.9173 35.8525 41.9629 35.9619C42.013 36.0667 42.0996 36.1647 42.2227 36.2559C42.3457 36.3424 42.5189 36.4245 42.7422 36.502C42.9655 36.5794 43.2503 36.6569 43.5967 36.7344C44.2028 36.8711 44.7018 37.0352 45.0938 37.2266C45.4857 37.418 45.7773 37.6527 45.9688 37.9307C46.1602 38.2087 46.2559 38.5459 46.2559 38.9424C46.2559 39.266 46.1875 39.5622 46.0508 39.8311C45.9186 40.0999 45.7249 40.3324 45.4697 40.5283C45.2191 40.7197 44.9183 40.8701 44.5674 40.9795C44.221 41.0843 43.8314 41.1367 43.3984 41.1367C42.7467 41.1367 42.1953 41.0205 41.7441 40.7881C41.293 40.5557 40.9512 40.2549 40.7188 39.8857C40.4863 39.5166 40.3701 39.127 40.3701 38.7168H41.6416C41.6598 39.0632 41.7601 39.3389 41.9424 39.5439C42.1247 39.7445 42.348 39.888 42.6123 39.9746C42.8766 40.0566 43.1387 40.0977 43.3984 40.0977C43.7448 40.0977 44.0342 40.0521 44.2666 39.9609C44.5036 39.8698 44.6836 39.7445 44.8066 39.585C44.9297 39.4255 44.9912 39.2432 44.9912 39.0381ZM49.291 33.6035V41H48.0195V33.6035H49.291ZM47.9238 31.6416C47.9238 31.4365 47.9854 31.2633 48.1084 31.1221C48.236 30.9808 48.4229 30.9102 48.6689 30.9102C48.9105 30.9102 49.0951 30.9808 49.2227 31.1221C49.3548 31.2633 49.4209 31.4365 49.4209 31.6416C49.4209 31.8376 49.3548 32.0062 49.2227 32.1475C49.0951 32.2842 48.9105 32.3525 48.6689 32.3525C48.4229 32.3525 48.236 32.2842 48.1084 32.1475C47.9854 32.0062 47.9238 31.8376 47.9238 31.6416ZM54.418 33.6035V34.5742H50.4189V33.6035H54.418ZM51.7725 31.8057H53.0371V39.168C53.0371 39.4186 53.0758 39.6077 53.1533 39.7354C53.2308 39.863 53.3311 39.9473 53.4541 39.9883C53.5771 40.0293 53.7093 40.0498 53.8506 40.0498C53.9554 40.0498 54.0648 40.0407 54.1787 40.0225C54.2972 39.9997 54.3861 39.9814 54.4453 39.9678L54.4521 41C54.3519 41.0319 54.2197 41.0615 54.0557 41.0889C53.8962 41.1208 53.7025 41.1367 53.4746 41.1367C53.1647 41.1367 52.8799 41.0752 52.6201 40.9521C52.3604 40.8291 52.153 40.624 51.998 40.3369C51.8477 40.0452 51.7725 39.6533 51.7725 39.1611V31.8057ZM57.2754 33.6035V41H56.0039V33.6035H57.2754ZM55.9082 31.6416C55.9082 31.4365 55.9697 31.2633 56.0928 31.1221C56.2204 30.9808 56.4072 30.9102 56.6533 30.9102C56.8949 30.9102 57.0794 30.9808 57.207 31.1221C57.3392 31.2633 57.4053 31.4365 57.4053 31.6416C57.4053 31.8376 57.3392 32.0062 57.207 32.1475C57.0794 32.2842 56.8949 32.3525 56.6533 32.3525C56.4072 32.3525 56.2204 32.2842 56.0928 32.1475C55.9697 32.0062 55.9082 31.8376 55.9082 31.6416ZM58.9707 37.3838V37.2266C58.9707 36.6934 59.0482 36.1989 59.2031 35.7432C59.3581 35.2829 59.5814 34.8841 59.873 34.5469C60.1647 34.2051 60.5179 33.9408 60.9326 33.7539C61.3473 33.5625 61.8122 33.4668 62.3271 33.4668C62.8467 33.4668 63.3138 33.5625 63.7285 33.7539C64.1478 33.9408 64.5033 34.2051 64.7949 34.5469C65.0911 34.8841 65.3167 35.2829 65.4717 35.7432C65.6266 36.1989 65.7041 36.6934 65.7041 37.2266V37.3838C65.7041 37.917 65.6266 38.4115 65.4717 38.8672C65.3167 39.3229 65.0911 39.7217 64.7949 40.0635C64.5033 40.4007 64.1501 40.665 63.7354 40.8564C63.3252 41.0433 62.8604 41.1367 62.3408 41.1367C61.8213 41.1367 61.3542 41.0433 60.9395 40.8564C60.5247 40.665 60.1693 40.4007 59.873 40.0635C59.5814 39.7217 59.3581 39.3229 59.2031 38.8672C59.0482 38.4115 58.9707 37.917 58.9707 37.3838ZM60.2354 37.2266V37.3838C60.2354 37.7529 60.2786 38.1016 60.3652 38.4297C60.4518 38.7533 60.5817 39.0404 60.7549 39.291C60.9326 39.5417 61.1536 39.7399 61.418 39.8857C61.6823 40.027 61.9899 40.0977 62.3408 40.0977C62.6872 40.0977 62.9902 40.027 63.25 39.8857C63.5143 39.7399 63.7331 39.5417 63.9062 39.291C64.0794 39.0404 64.2093 38.7533 64.2959 38.4297C64.387 38.1016 64.4326 37.7529 64.4326 37.3838V37.2266C64.4326 36.862 64.387 36.5179 64.2959 36.1943C64.2093 35.8662 64.0771 35.5768 63.8994 35.3262C63.7262 35.071 63.5075 34.8704 63.2432 34.7246C62.9834 34.5788 62.6781 34.5059 62.3271 34.5059C61.9808 34.5059 61.6755 34.5788 61.4111 34.7246C61.1514 34.8704 60.9326 35.071 60.7549 35.3262C60.5817 35.5768 60.4518 35.8662 60.3652 36.1943C60.2786 36.5179 60.2354 36.862 60.2354 37.2266ZM68.5547 35.1826V41H67.29V33.6035H68.4863L68.5547 35.1826ZM68.2539 37.0215L67.7275 37.001C67.7321 36.4951 67.8073 36.028 67.9531 35.5996C68.099 35.1667 68.304 34.7907 68.5684 34.4717C68.8327 34.1527 69.1471 33.9066 69.5117 33.7334C69.8809 33.5557 70.2887 33.4668 70.7354 33.4668C71.0999 33.4668 71.4281 33.5169 71.7197 33.6172C72.0114 33.7129 72.2598 33.8678 72.4648 34.082C72.6745 34.2962 72.834 34.5742 72.9434 34.916C73.0527 35.2533 73.1074 35.6657 73.1074 36.1533V41H71.8359V36.1396C71.8359 35.7523 71.779 35.4424 71.665 35.21C71.5511 34.973 71.3848 34.8021 71.166 34.6973C70.9473 34.5879 70.6784 34.5332 70.3594 34.5332C70.0449 34.5332 69.7578 34.5993 69.498 34.7314C69.2428 34.8636 69.0218 35.0459 68.835 35.2783C68.6527 35.5107 68.5091 35.7773 68.4043 36.0781C68.304 36.3743 68.2539 36.6888 68.2539 37.0215Z" fill="black"/>
<rect x="14" y="121" width="121" height="38" rx="3" fill="#E3E3E3"/>
<path d="M25.46 142.484C25.46 142.252 25.4235 142.047 25.3506 141.869C25.2822 141.687 25.1592 141.523 24.9814 141.377C24.8083 141.231 24.5667 141.092 24.2568 140.96C23.9515 140.828 23.5641 140.693 23.0947 140.557C22.6025 140.411 22.1582 140.249 21.7617 140.071C21.3652 139.889 21.0257 139.682 20.7432 139.449C20.4606 139.217 20.2441 138.95 20.0938 138.649C19.9434 138.349 19.8682 138.005 19.8682 137.617C19.8682 137.23 19.9479 136.872 20.1074 136.544C20.2669 136.216 20.4948 135.931 20.791 135.689C21.0918 135.443 21.4495 135.252 21.8643 135.115C22.279 134.979 22.7415 134.91 23.252 134.91C23.9993 134.91 24.6328 135.054 25.1523 135.341C25.6764 135.623 26.0752 135.995 26.3486 136.455C26.6221 136.911 26.7588 137.398 26.7588 137.918H25.4463C25.4463 137.544 25.3665 137.214 25.207 136.927C25.0475 136.635 24.806 136.407 24.4824 136.243C24.1589 136.075 23.7487 135.99 23.252 135.99C22.7826 135.99 22.3952 136.061 22.0898 136.202C21.7845 136.343 21.5566 136.535 21.4062 136.776C21.2604 137.018 21.1875 137.294 21.1875 137.604C21.1875 137.813 21.2308 138.005 21.3174 138.178C21.4085 138.346 21.5475 138.504 21.7344 138.649C21.9258 138.795 22.1673 138.93 22.459 139.053C22.7552 139.176 23.1084 139.294 23.5186 139.408C24.0837 139.568 24.5713 139.745 24.9814 139.941C25.3916 140.137 25.7288 140.358 25.9932 140.604C26.262 140.846 26.4603 141.122 26.5879 141.432C26.7201 141.737 26.7861 142.083 26.7861 142.471C26.7861 142.876 26.7041 143.243 26.54 143.571C26.376 143.899 26.1413 144.18 25.8359 144.412C25.5306 144.645 25.1637 144.825 24.7354 144.952C24.3115 145.075 23.8376 145.137 23.3135 145.137C22.8532 145.137 22.3997 145.073 21.9531 144.945C21.5111 144.818 21.1077 144.626 20.7432 144.371C20.3831 144.116 20.0938 143.801 19.875 143.428C19.6608 143.049 19.5537 142.612 19.5537 142.115H20.8662C20.8662 142.457 20.9323 142.751 21.0645 142.997C21.1966 143.239 21.3766 143.439 21.6045 143.599C21.8369 143.758 22.099 143.877 22.3906 143.954C22.6868 144.027 22.9945 144.063 23.3135 144.063C23.7738 144.063 24.1634 144 24.4824 143.872C24.8014 143.744 25.043 143.562 25.207 143.325C25.3757 143.088 25.46 142.808 25.46 142.484ZM31.373 137.604V138.574H27.374V137.604H31.373ZM28.7275 135.806H29.9922V143.168C29.9922 143.419 30.0309 143.608 30.1084 143.735C30.1859 143.863 30.2861 143.947 30.4092 143.988C30.5322 144.029 30.6644 144.05 30.8057 144.05C30.9105 144.05 31.0199 144.041 31.1338 144.022C31.2523 144 31.3411 143.981 31.4004 143.968L31.4072 145C31.307 145.032 31.1748 145.062 31.0107 145.089C30.8512 145.121 30.6576 145.137 30.4297 145.137C30.1198 145.137 29.835 145.075 29.5752 144.952C29.3154 144.829 29.1081 144.624 28.9531 144.337C28.8027 144.045 28.7275 143.653 28.7275 143.161V135.806ZM37.2178 143.735V139.928C37.2178 139.636 37.1585 139.383 37.04 139.169C36.9261 138.95 36.7529 138.782 36.5205 138.663C36.2881 138.545 36.001 138.485 35.6592 138.485C35.3402 138.485 35.0599 138.54 34.8184 138.649C34.5814 138.759 34.3945 138.902 34.2578 139.08C34.1257 139.258 34.0596 139.449 34.0596 139.654H32.7949C32.7949 139.39 32.8633 139.128 33 138.868C33.1367 138.608 33.3327 138.374 33.5879 138.164C33.8477 137.95 34.1576 137.781 34.5176 137.658C34.8822 137.531 35.2878 137.467 35.7344 137.467C36.2721 137.467 36.7461 137.558 37.1562 137.74C37.571 137.923 37.8945 138.198 38.127 138.567C38.3639 138.932 38.4824 139.39 38.4824 139.941V143.387C38.4824 143.633 38.5029 143.895 38.5439 144.173C38.5895 144.451 38.6556 144.69 38.7422 144.891V145H37.4229C37.359 144.854 37.3089 144.66 37.2725 144.419C37.236 144.173 37.2178 143.945 37.2178 143.735ZM37.4365 140.516L37.4502 141.404H36.1719C35.8118 141.404 35.4906 141.434 35.208 141.493C34.9255 141.548 34.6885 141.632 34.4971 141.746C34.3057 141.86 34.1598 142.004 34.0596 142.177C33.9593 142.345 33.9092 142.544 33.9092 142.771C33.9092 143.004 33.9616 143.216 34.0664 143.407C34.1712 143.599 34.3285 143.751 34.5381 143.865C34.7523 143.975 35.0143 144.029 35.3242 144.029C35.7116 144.029 36.0534 143.947 36.3496 143.783C36.6458 143.619 36.8805 143.419 37.0537 143.182C37.2314 142.945 37.3271 142.715 37.3408 142.491L37.8809 143.1C37.849 143.291 37.7624 143.503 37.6211 143.735C37.4798 143.968 37.2907 144.191 37.0537 144.405C36.8213 144.615 36.5433 144.79 36.2197 144.932C35.9007 145.068 35.5407 145.137 35.1396 145.137C34.6383 145.137 34.1986 145.039 33.8203 144.843C33.4466 144.647 33.1549 144.385 32.9453 144.057C32.7402 143.724 32.6377 143.353 32.6377 142.942C32.6377 142.546 32.7152 142.197 32.8701 141.896C33.0251 141.591 33.2484 141.338 33.54 141.138C33.8317 140.933 34.1826 140.778 34.5928 140.673C35.0029 140.568 35.4609 140.516 35.9668 140.516H37.4365ZM41.7363 138.766V145H40.4717V137.604H41.7021L41.7363 138.766ZM44.0469 137.562L44.04 138.738C43.9352 138.715 43.835 138.702 43.7393 138.697C43.6481 138.688 43.5433 138.684 43.4248 138.684C43.1331 138.684 42.8757 138.729 42.6523 138.82C42.429 138.911 42.2399 139.039 42.085 139.203C41.93 139.367 41.807 139.563 41.7158 139.791C41.6292 140.014 41.5723 140.26 41.5449 140.529L41.1895 140.734C41.1895 140.288 41.2327 139.868 41.3193 139.477C41.4105 139.085 41.5495 138.738 41.7363 138.438C41.9232 138.132 42.1602 137.895 42.4473 137.727C42.7389 137.553 43.0853 137.467 43.4863 137.467C43.5775 137.467 43.6823 137.478 43.8008 137.501C43.9193 137.519 44.0013 137.54 44.0469 137.562ZM48.6543 137.604V138.574H44.6553V137.604H48.6543ZM46.0088 135.806H47.2734V143.168C47.2734 143.419 47.3122 143.608 47.3896 143.735C47.4671 143.863 47.5674 143.947 47.6904 143.988C47.8135 144.029 47.9456 144.05 48.0869 144.05C48.1917 144.05 48.3011 144.041 48.415 144.022C48.5335 144 48.6224 143.981 48.6816 143.968L48.6885 145C48.5882 145.032 48.4561 145.062 48.292 145.089C48.1325 145.121 47.9388 145.137 47.7109 145.137C47.401 145.137 47.1162 145.075 46.8564 144.952C46.5967 144.829 46.3893 144.624 46.2344 144.337C46.084 144.045 46.0088 143.653 46.0088 143.161V135.806ZM53.0225 145H50.9443L50.958 143.927H53.0225C53.7334 143.927 54.3258 143.779 54.7998 143.482C55.2738 143.182 55.6292 142.762 55.8662 142.225C56.1077 141.682 56.2285 141.049 56.2285 140.324V139.716C56.2285 139.146 56.1602 138.64 56.0234 138.198C55.8867 137.752 55.6862 137.376 55.4219 137.07C55.1576 136.76 54.834 136.526 54.4512 136.366C54.0729 136.207 53.6377 136.127 53.1455 136.127H50.9033V135.047H53.1455C53.7972 135.047 54.3919 135.156 54.9297 135.375C55.4674 135.589 55.93 135.901 56.3174 136.312C56.7093 136.717 57.0101 137.209 57.2197 137.788C57.4294 138.362 57.5342 139.009 57.5342 139.729V140.324C57.5342 141.044 57.4294 141.694 57.2197 142.272C57.0101 142.847 56.707 143.337 56.3105 143.742C55.9186 144.148 55.4447 144.46 54.8887 144.679C54.3372 144.893 53.7152 145 53.0225 145ZM51.6484 135.047V145H50.3291V135.047H51.6484ZM63.6865 143.735V139.928C63.6865 139.636 63.6273 139.383 63.5088 139.169C63.3949 138.95 63.2217 138.782 62.9893 138.663C62.7568 138.545 62.4697 138.485 62.1279 138.485C61.8089 138.485 61.5286 138.54 61.2871 138.649C61.0501 138.759 60.8633 138.902 60.7266 139.08C60.5944 139.258 60.5283 139.449 60.5283 139.654H59.2637C59.2637 139.39 59.332 139.128 59.4688 138.868C59.6055 138.608 59.8014 138.374 60.0566 138.164C60.3164 137.95 60.6263 137.781 60.9863 137.658C61.3509 137.531 61.7565 137.467 62.2031 137.467C62.7409 137.467 63.2148 137.558 63.625 137.74C64.0397 137.923 64.3633 138.198 64.5957 138.567C64.8327 138.932 64.9512 139.39 64.9512 139.941V143.387C64.9512 143.633 64.9717 143.895 65.0127 144.173C65.0583 144.451 65.1243 144.69 65.2109 144.891V145H63.8916C63.8278 144.854 63.7777 144.66 63.7412 144.419C63.7048 144.173 63.6865 143.945 63.6865 143.735ZM63.9053 140.516L63.9189 141.404H62.6406C62.2806 141.404 61.9593 141.434 61.6768 141.493C61.3942 141.548 61.1572 141.632 60.9658 141.746C60.7744 141.86 60.6286 142.004 60.5283 142.177C60.4281 142.345 60.3779 142.544 60.3779 142.771C60.3779 143.004 60.4303 143.216 60.5352 143.407C60.64 143.599 60.7972 143.751 61.0068 143.865C61.221 143.975 61.4831 144.029 61.793 144.029C62.1803 144.029 62.5221 143.947 62.8184 143.783C63.1146 143.619 63.3493 143.419 63.5225 143.182C63.7002 142.945 63.7959 142.715 63.8096 142.491L64.3496 143.1C64.3177 143.291 64.2311 143.503 64.0898 143.735C63.9486 143.968 63.7594 144.191 63.5225 144.405C63.29 144.615 63.012 144.79 62.6885 144.932C62.3695 145.068 62.0094 145.137 61.6084 145.137C61.1071 145.137 60.6673 145.039 60.2891 144.843C59.9154 144.647 59.6237 144.385 59.4141 144.057C59.209 143.724 59.1064 143.353 59.1064 142.942C59.1064 142.546 59.1839 142.197 59.3389 141.896C59.4938 141.591 59.7171 141.338 60.0088 141.138C60.3005 140.933 60.6514 140.778 61.0615 140.673C61.4717 140.568 61.9297 140.516 62.4355 140.516H63.9053ZM70.0371 137.604V138.574H66.0381V137.604H70.0371ZM67.3916 135.806H68.6562V143.168C68.6562 143.419 68.695 143.608 68.7725 143.735C68.8499 143.863 68.9502 143.947 69.0732 143.988C69.1963 144.029 69.3285 144.05 69.4697 144.05C69.5745 144.05 69.6839 144.041 69.7979 144.022C69.9163 144 70.0052 143.981 70.0645 143.968L70.0713 145C69.971 145.032 69.8389 145.062 69.6748 145.089C69.5153 145.121 69.3216 145.137 69.0938 145.137C68.7839 145.137 68.499 145.075 68.2393 144.952C67.9795 144.829 67.7721 144.624 67.6172 144.337C67.4668 144.045 67.3916 143.653 67.3916 143.161V135.806ZM74.5898 145.137C74.0749 145.137 73.6077 145.05 73.1885 144.877C72.7738 144.699 72.416 144.451 72.1152 144.132C71.819 143.813 71.5911 143.435 71.4316 142.997C71.2721 142.56 71.1924 142.081 71.1924 141.562V141.274C71.1924 140.673 71.2812 140.137 71.459 139.668C71.6367 139.194 71.8783 138.793 72.1836 138.465C72.4889 138.137 72.8353 137.888 73.2227 137.72C73.61 137.551 74.0111 137.467 74.4258 137.467C74.9544 137.467 75.4102 137.558 75.793 137.74C76.1803 137.923 76.4971 138.178 76.7432 138.506C76.9893 138.829 77.1715 139.212 77.29 139.654C77.4085 140.092 77.4678 140.57 77.4678 141.09V141.657H71.9443V140.625H76.2031V140.529C76.1849 140.201 76.1165 139.882 75.998 139.572C75.8841 139.262 75.7018 139.007 75.4512 138.807C75.2005 138.606 74.8587 138.506 74.4258 138.506C74.1387 138.506 73.8743 138.567 73.6328 138.69C73.3913 138.809 73.1839 138.987 73.0107 139.224C72.8376 139.461 72.7031 139.75 72.6074 140.092C72.5117 140.434 72.4639 140.828 72.4639 141.274V141.562C72.4639 141.912 72.5117 142.243 72.6074 142.553C72.7077 142.858 72.8512 143.127 73.0381 143.359C73.2295 143.592 73.4596 143.774 73.7285 143.906C74.002 144.038 74.3118 144.104 74.6582 144.104C75.1048 144.104 75.4831 144.013 75.793 143.831C76.1029 143.649 76.374 143.405 76.6064 143.1L77.3721 143.708C77.2126 143.95 77.0098 144.18 76.7637 144.398C76.5176 144.617 76.2145 144.795 75.8545 144.932C75.499 145.068 75.0775 145.137 74.5898 145.137Z" fill="black"/>
<rect x="14" y="173" width="121" height="38" rx="3" fill="#E3E3E3"/>
<path d="M26.1914 195.927V197H21.2148V195.927H26.1914ZM21.4746 187.047V197H20.1553V187.047H21.4746ZM27.1758 193.384V193.227C27.1758 192.693 27.2533 192.199 27.4082 191.743C27.5632 191.283 27.7865 190.884 28.0781 190.547C28.3698 190.205 28.723 189.941 29.1377 189.754C29.5524 189.562 30.0173 189.467 30.5322 189.467C31.0518 189.467 31.5189 189.562 31.9336 189.754C32.3529 189.941 32.7083 190.205 33 190.547C33.2962 190.884 33.5218 191.283 33.6768 191.743C33.8317 192.199 33.9092 192.693 33.9092 193.227V193.384C33.9092 193.917 33.8317 194.411 33.6768 194.867C33.5218 195.323 33.2962 195.722 33 196.063C32.7083 196.401 32.3551 196.665 31.9404 196.856C31.5303 197.043 31.0654 197.137 30.5459 197.137C30.0264 197.137 29.5592 197.043 29.1445 196.856C28.7298 196.665 28.3743 196.401 28.0781 196.063C27.7865 195.722 27.5632 195.323 27.4082 194.867C27.2533 194.411 27.1758 193.917 27.1758 193.384ZM28.4404 193.227V193.384C28.4404 193.753 28.4837 194.102 28.5703 194.43C28.6569 194.753 28.7868 195.04 28.96 195.291C29.1377 195.542 29.3587 195.74 29.623 195.886C29.8874 196.027 30.195 196.098 30.5459 196.098C30.8923 196.098 31.1953 196.027 31.4551 195.886C31.7194 195.74 31.9382 195.542 32.1113 195.291C32.2845 195.04 32.4144 194.753 32.501 194.43C32.5921 194.102 32.6377 193.753 32.6377 193.384V193.227C32.6377 192.862 32.5921 192.518 32.501 192.194C32.4144 191.866 32.2822 191.577 32.1045 191.326C31.9313 191.071 31.7126 190.87 31.4482 190.725C31.1885 190.579 30.8831 190.506 30.5322 190.506C30.1859 190.506 29.8805 190.579 29.6162 190.725C29.3564 190.87 29.1377 191.071 28.96 191.326C28.7868 191.577 28.6569 191.866 28.5703 192.194C28.4837 192.518 28.4404 192.862 28.4404 193.227ZM38.4551 196.098C38.7559 196.098 39.0339 196.036 39.2891 195.913C39.5443 195.79 39.7539 195.621 39.918 195.407C40.082 195.188 40.1755 194.94 40.1982 194.662H41.4014C41.3786 195.1 41.2305 195.507 40.957 195.886C40.6882 196.259 40.335 196.562 39.8975 196.795C39.46 197.023 38.9792 197.137 38.4551 197.137C37.8991 197.137 37.4137 197.039 36.999 196.843C36.5889 196.647 36.2471 196.378 35.9736 196.036C35.7048 195.694 35.502 195.302 35.3652 194.86C35.2331 194.414 35.167 193.942 35.167 193.445V193.158C35.167 192.661 35.2331 192.192 35.3652 191.75C35.502 191.303 35.7048 190.909 35.9736 190.567C36.2471 190.226 36.5889 189.957 36.999 189.761C37.4137 189.565 37.8991 189.467 38.4551 189.467C39.0339 189.467 39.5397 189.585 39.9727 189.822C40.4056 190.055 40.7451 190.374 40.9912 190.779C41.2419 191.18 41.3786 191.636 41.4014 192.146H40.1982C40.1755 191.841 40.0889 191.565 39.9385 191.319C39.7926 191.073 39.5921 190.877 39.3369 190.731C39.0863 190.581 38.7923 190.506 38.4551 190.506C38.0677 190.506 37.7419 190.583 37.4775 190.738C37.2178 190.889 37.0104 191.094 36.8555 191.354C36.7051 191.609 36.5957 191.894 36.5273 192.208C36.4635 192.518 36.4316 192.835 36.4316 193.158V193.445C36.4316 193.769 36.4635 194.088 36.5273 194.402C36.5911 194.717 36.6982 195.002 36.8486 195.257C37.0036 195.512 37.2109 195.717 37.4707 195.872C37.735 196.022 38.0632 196.098 38.4551 196.098ZM47.1846 195.735V191.928C47.1846 191.636 47.1253 191.383 47.0068 191.169C46.8929 190.95 46.7197 190.782 46.4873 190.663C46.2549 190.545 45.9678 190.485 45.626 190.485C45.307 190.485 45.0267 190.54 44.7852 190.649C44.5482 190.759 44.3613 190.902 44.2246 191.08C44.0924 191.258 44.0264 191.449 44.0264 191.654H42.7617C42.7617 191.39 42.8301 191.128 42.9668 190.868C43.1035 190.608 43.2995 190.374 43.5547 190.164C43.8145 189.95 44.1243 189.781 44.4844 189.658C44.849 189.531 45.2546 189.467 45.7012 189.467C46.2389 189.467 46.7129 189.558 47.123 189.74C47.5378 189.923 47.8613 190.198 48.0938 190.567C48.3307 190.932 48.4492 191.39 48.4492 191.941V195.387C48.4492 195.633 48.4697 195.895 48.5107 196.173C48.5563 196.451 48.6224 196.69 48.709 196.891V197H47.3896C47.3258 196.854 47.2757 196.66 47.2393 196.419C47.2028 196.173 47.1846 195.945 47.1846 195.735ZM47.4033 192.516L47.417 193.404H46.1387C45.7786 193.404 45.4574 193.434 45.1748 193.493C44.8923 193.548 44.6553 193.632 44.4639 193.746C44.2725 193.86 44.1266 194.004 44.0264 194.177C43.9261 194.345 43.876 194.544 43.876 194.771C43.876 195.004 43.9284 195.216 44.0332 195.407C44.138 195.599 44.2952 195.751 44.5049 195.865C44.7191 195.975 44.9811 196.029 45.291 196.029C45.6784 196.029 46.0202 195.947 46.3164 195.783C46.6126 195.619 46.8473 195.419 47.0205 195.182C47.1982 194.945 47.2939 194.715 47.3076 194.491L47.8477 195.1C47.8158 195.291 47.7292 195.503 47.5879 195.735C47.4466 195.968 47.2575 196.191 47.0205 196.405C46.7881 196.615 46.5101 196.79 46.1865 196.932C45.8675 197.068 45.5075 197.137 45.1064 197.137C44.6051 197.137 44.1654 197.039 43.7871 196.843C43.4134 196.647 43.1217 196.385 42.9121 196.057C42.707 195.724 42.6045 195.353 42.6045 194.942C42.6045 194.546 42.682 194.197 42.8369 193.896C42.9919 193.591 43.2152 193.338 43.5068 193.138C43.7985 192.933 44.1494 192.778 44.5596 192.673C44.9697 192.568 45.4277 192.516 45.9336 192.516H47.4033ZM53.5352 189.604V190.574H49.5361V189.604H53.5352ZM50.8896 187.806H52.1543V195.168C52.1543 195.419 52.193 195.608 52.2705 195.735C52.348 195.863 52.4482 195.947 52.5713 195.988C52.6943 196.029 52.8265 196.05 52.9678 196.05C53.0726 196.05 53.182 196.041 53.2959 196.022C53.4144 196 53.5033 195.981 53.5625 195.968L53.5693 197C53.4691 197.032 53.3369 197.062 53.1729 197.089C53.0133 197.121 52.8197 197.137 52.5918 197.137C52.2819 197.137 51.9971 197.075 51.7373 196.952C51.4775 196.829 51.2702 196.624 51.1152 196.337C50.9648 196.045 50.8896 195.653 50.8896 195.161V187.806ZM56.3926 189.604V197H55.1211V189.604H56.3926ZM55.0254 187.642C55.0254 187.437 55.0869 187.263 55.21 187.122C55.3376 186.981 55.5244 186.91 55.7705 186.91C56.012 186.91 56.1966 186.981 56.3242 187.122C56.4564 187.263 56.5225 187.437 56.5225 187.642C56.5225 187.838 56.4564 188.006 56.3242 188.147C56.1966 188.284 56.012 188.353 55.7705 188.353C55.5244 188.353 55.3376 188.284 55.21 188.147C55.0869 188.006 55.0254 187.838 55.0254 187.642ZM58.0879 193.384V193.227C58.0879 192.693 58.1654 192.199 58.3203 191.743C58.4753 191.283 58.6986 190.884 58.9902 190.547C59.2819 190.205 59.6351 189.941 60.0498 189.754C60.4645 189.562 60.9294 189.467 61.4443 189.467C61.9639 189.467 62.431 189.562 62.8457 189.754C63.265 189.941 63.6204 190.205 63.9121 190.547C64.2083 190.884 64.4339 191.283 64.5889 191.743C64.7438 192.199 64.8213 192.693 64.8213 193.227V193.384C64.8213 193.917 64.7438 194.411 64.5889 194.867C64.4339 195.323 64.2083 195.722 63.9121 196.063C63.6204 196.401 63.2673 196.665 62.8525 196.856C62.4424 197.043 61.9775 197.137 61.458 197.137C60.9385 197.137 60.4714 197.043 60.0566 196.856C59.6419 196.665 59.2865 196.401 58.9902 196.063C58.6986 195.722 58.4753 195.323 58.3203 194.867C58.1654 194.411 58.0879 193.917 58.0879 193.384ZM59.3525 193.227V193.384C59.3525 193.753 59.3958 194.102 59.4824 194.43C59.569 194.753 59.6989 195.04 59.8721 195.291C60.0498 195.542 60.2708 195.74 60.5352 195.886C60.7995 196.027 61.1071 196.098 61.458 196.098C61.8044 196.098 62.1074 196.027 62.3672 195.886C62.6315 195.74 62.8503 195.542 63.0234 195.291C63.1966 195.04 63.3265 194.753 63.4131 194.43C63.5042 194.102 63.5498 193.753 63.5498 193.384V193.227C63.5498 192.862 63.5042 192.518 63.4131 192.194C63.3265 191.866 63.1943 191.577 63.0166 191.326C62.8434 191.071 62.6247 190.87 62.3604 190.725C62.1006 190.579 61.7952 190.506 61.4443 190.506C61.098 190.506 60.7926 190.579 60.5283 190.725C60.2686 190.87 60.0498 191.071 59.8721 191.326C59.6989 191.577 59.569 191.866 59.4824 192.194C59.3958 192.518 59.3525 192.862 59.3525 193.227ZM67.6719 191.183V197H66.4072V189.604H67.6035L67.6719 191.183ZM67.3711 193.021L66.8447 193.001C66.8493 192.495 66.9245 192.028 67.0703 191.6C67.2161 191.167 67.4212 190.791 67.6855 190.472C67.9499 190.153 68.2643 189.907 68.6289 189.733C68.998 189.556 69.4059 189.467 69.8525 189.467C70.2171 189.467 70.5452 189.517 70.8369 189.617C71.1286 189.713 71.377 189.868 71.582 190.082C71.7917 190.296 71.9512 190.574 72.0605 190.916C72.1699 191.253 72.2246 191.666 72.2246 192.153V197H70.9531V192.14C70.9531 191.752 70.8962 191.442 70.7822 191.21C70.6683 190.973 70.502 190.802 70.2832 190.697C70.0645 190.588 69.7956 190.533 69.4766 190.533C69.1621 190.533 68.875 190.599 68.6152 190.731C68.36 190.864 68.139 191.046 67.9521 191.278C67.7699 191.511 67.6263 191.777 67.5215 192.078C67.4212 192.374 67.3711 192.689 67.3711 193.021Z" fill="black"/>
<rect x="156" y="121" width="126" height="38" rx="3" fill="#E3E3E3"/>
<path d="M171.479 143.927V145H166.208V143.927H171.479ZM166.475 135.047V145H165.155V135.047H166.475ZM170.781 139.326V140.399H166.208V139.326H170.781ZM171.41 135.047V136.127H166.208V135.047H171.41ZM174.186 139.183V145H172.921V137.604H174.117L174.186 139.183ZM173.885 141.021L173.358 141.001C173.363 140.495 173.438 140.028 173.584 139.6C173.73 139.167 173.935 138.791 174.199 138.472C174.464 138.153 174.778 137.907 175.143 137.733C175.512 137.556 175.92 137.467 176.366 137.467C176.731 137.467 177.059 137.517 177.351 137.617C177.642 137.713 177.891 137.868 178.096 138.082C178.305 138.296 178.465 138.574 178.574 138.916C178.684 139.253 178.738 139.666 178.738 140.153V145H177.467V140.14C177.467 139.752 177.41 139.442 177.296 139.21C177.182 138.973 177.016 138.802 176.797 138.697C176.578 138.588 176.309 138.533 175.99 138.533C175.676 138.533 175.389 138.599 175.129 138.731C174.874 138.864 174.653 139.046 174.466 139.278C174.284 139.511 174.14 139.777 174.035 140.078C173.935 140.374 173.885 140.689 173.885 141.021ZM185.321 143.564V134.5H186.593V145H185.431L185.321 143.564ZM180.345 141.384V141.24C180.345 140.675 180.413 140.162 180.55 139.702C180.691 139.237 180.889 138.839 181.145 138.506C181.404 138.173 181.712 137.918 182.067 137.74C182.427 137.558 182.828 137.467 183.271 137.467C183.735 137.467 184.141 137.549 184.487 137.713C184.838 137.872 185.134 138.107 185.376 138.417C185.622 138.722 185.816 139.091 185.957 139.524C186.098 139.957 186.196 140.447 186.251 140.994V141.623C186.201 142.165 186.103 142.653 185.957 143.086C185.816 143.519 185.622 143.888 185.376 144.193C185.134 144.499 184.838 144.733 184.487 144.897C184.136 145.057 183.726 145.137 183.257 145.137C182.824 145.137 182.427 145.043 182.067 144.856C181.712 144.67 181.404 144.408 181.145 144.07C180.889 143.733 180.691 143.337 180.55 142.881C180.413 142.421 180.345 141.922 180.345 141.384ZM181.616 141.24V141.384C181.616 141.753 181.653 142.099 181.726 142.423C181.803 142.746 181.922 143.031 182.081 143.277C182.241 143.523 182.443 143.717 182.689 143.858C182.936 143.995 183.229 144.063 183.571 144.063C183.991 144.063 184.335 143.975 184.604 143.797C184.877 143.619 185.096 143.384 185.26 143.093C185.424 142.801 185.551 142.484 185.643 142.143V140.495C185.588 140.244 185.508 140.003 185.403 139.771C185.303 139.534 185.171 139.324 185.007 139.142C184.847 138.955 184.649 138.807 184.412 138.697C184.18 138.588 183.904 138.533 183.585 138.533C183.239 138.533 182.94 138.606 182.689 138.752C182.443 138.893 182.241 139.089 182.081 139.34C181.922 139.586 181.803 139.873 181.726 140.201C181.653 140.525 181.616 140.871 181.616 141.24ZM191.446 145H189.368L189.382 143.927H191.446C192.157 143.927 192.75 143.779 193.224 143.482C193.698 143.182 194.053 142.762 194.29 142.225C194.532 141.682 194.652 141.049 194.652 140.324V139.716C194.652 139.146 194.584 138.64 194.447 138.198C194.311 137.752 194.11 137.376 193.846 137.07C193.581 136.76 193.258 136.526 192.875 136.366C192.497 136.207 192.062 136.127 191.569 136.127H189.327V135.047H191.569C192.221 135.047 192.816 135.156 193.354 135.375C193.891 135.589 194.354 135.901 194.741 136.312C195.133 136.717 195.434 137.209 195.644 137.788C195.853 138.362 195.958 139.009 195.958 139.729V140.324C195.958 141.044 195.853 141.694 195.644 142.272C195.434 142.847 195.131 143.337 194.734 143.742C194.342 144.148 193.868 144.46 193.312 144.679C192.761 144.893 192.139 145 191.446 145ZM190.072 135.047V145H188.753V135.047H190.072ZM202.11 143.735V139.928C202.11 139.636 202.051 139.383 201.933 139.169C201.819 138.95 201.646 138.782 201.413 138.663C201.181 138.545 200.894 138.485 200.552 138.485C200.233 138.485 199.952 138.54 199.711 138.649C199.474 138.759 199.287 138.902 199.15 139.08C199.018 139.258 198.952 139.449 198.952 139.654H197.688C197.688 139.39 197.756 139.128 197.893 138.868C198.029 138.608 198.225 138.374 198.48 138.164C198.74 137.95 199.05 137.781 199.41 137.658C199.775 137.531 200.18 137.467 200.627 137.467C201.165 137.467 201.639 137.558 202.049 137.74C202.464 137.923 202.787 138.198 203.02 138.567C203.257 138.932 203.375 139.39 203.375 139.941V143.387C203.375 143.633 203.396 143.895 203.437 144.173C203.482 144.451 203.548 144.69 203.635 144.891V145H202.315C202.252 144.854 202.201 144.66 202.165 144.419C202.129 144.173 202.11 143.945 202.11 143.735ZM202.329 140.516L202.343 141.404H201.064C200.704 141.404 200.383 141.434 200.101 141.493C199.818 141.548 199.581 141.632 199.39 141.746C199.198 141.86 199.052 142.004 198.952 142.177C198.852 142.345 198.802 142.544 198.802 142.771C198.802 143.004 198.854 143.216 198.959 143.407C199.064 143.599 199.221 143.751 199.431 143.865C199.645 143.975 199.907 144.029 200.217 144.029C200.604 144.029 200.946 143.947 201.242 143.783C201.538 143.619 201.773 143.419 201.946 143.182C202.124 142.945 202.22 142.715 202.233 142.491L202.773 143.1C202.742 143.291 202.655 143.503 202.514 143.735C202.372 143.968 202.183 144.191 201.946 144.405C201.714 144.615 201.436 144.79 201.112 144.932C200.793 145.068 200.433 145.137 200.032 145.137C199.531 145.137 199.091 145.039 198.713 144.843C198.339 144.647 198.048 144.385 197.838 144.057C197.633 143.724 197.53 143.353 197.53 142.942C197.53 142.546 197.608 142.197 197.763 141.896C197.918 141.591 198.141 141.338 198.433 141.138C198.724 140.933 199.075 140.778 199.485 140.673C199.896 140.568 200.354 140.516 200.859 140.516H202.329ZM208.461 137.604V138.574H204.462V137.604H208.461ZM205.815 135.806H207.08V143.168C207.08 143.419 207.119 143.608 207.196 143.735C207.274 143.863 207.374 143.947 207.497 143.988C207.62 144.029 207.752 144.05 207.894 144.05C207.998 144.05 208.108 144.041 208.222 144.022C208.34 144 208.429 143.981 208.488 143.968L208.495 145C208.395 145.032 208.263 145.062 208.099 145.089C207.939 145.121 207.745 145.137 207.518 145.137C207.208 145.137 206.923 145.075 206.663 144.952C206.403 144.829 206.196 144.624 206.041 144.337C205.891 144.045 205.815 143.653 205.815 143.161V135.806ZM213.014 145.137C212.499 145.137 212.032 145.05 211.612 144.877C211.198 144.699 210.84 144.451 210.539 144.132C210.243 143.813 210.015 143.435 209.855 142.997C209.696 142.56 209.616 142.081 209.616 141.562V141.274C209.616 140.673 209.705 140.137 209.883 139.668C210.061 139.194 210.302 138.793 210.607 138.465C210.913 138.137 211.259 137.888 211.646 137.72C212.034 137.551 212.435 137.467 212.85 137.467C213.378 137.467 213.834 137.558 214.217 137.74C214.604 137.923 214.921 138.178 215.167 138.506C215.413 138.829 215.595 139.212 215.714 139.654C215.832 140.092 215.892 140.57 215.892 141.09V141.657H210.368V140.625H214.627V140.529C214.609 140.201 214.54 139.882 214.422 139.572C214.308 139.262 214.126 139.007 213.875 138.807C213.624 138.606 213.283 138.506 212.85 138.506C212.562 138.506 212.298 138.567 212.057 138.69C211.815 138.809 211.608 138.987 211.435 139.224C211.261 139.461 211.127 139.75 211.031 140.092C210.936 140.434 210.888 140.828 210.888 141.274V141.562C210.888 141.912 210.936 142.243 211.031 142.553C211.132 142.858 211.275 143.127 211.462 143.359C211.653 143.592 211.883 143.774 212.152 143.906C212.426 144.038 212.736 144.104 213.082 144.104C213.529 144.104 213.907 144.013 214.217 143.831C214.527 143.649 214.798 143.405 215.03 143.1L215.796 143.708C215.636 143.95 215.434 144.18 215.188 144.398C214.941 144.617 214.638 144.795 214.278 144.932C213.923 145.068 213.501 145.137 213.014 145.137Z" fill="black"/>
</svg>
