<svg width="617" height="194" viewBox="0 0 617 194" fill="none" xmlns="http://www.w3.org/2000/svg">
<path d="M0 4.99999C0 2.23857 2.23858 0 5 0H612C614.761 0 617 2.23858 617 5V189C617 191.761 614.761 194 612 194H5C2.23858 194 0 191.761 0 189V4.99999Z" fill="white"/>
<rect x="20" y="23" width="578" height="40" rx="3" fill="#E3E3E3"/>
<path d="M42.1709 43.8179H39.3218V42.668H42.1709C42.7227 42.668 43.1694 42.5801 43.5112 42.4043C43.853 42.2285 44.1021 41.9844 44.2583 41.6719C44.4194 41.3594 44.5 41.0029 44.5 40.6025C44.5 40.2363 44.4194 39.8921 44.2583 39.5698C44.1021 39.2476 43.853 38.9888 43.5112 38.7935C43.1694 38.5933 42.7227 38.4932 42.1709 38.4932H39.6514V48H38.2378V37.3359H42.1709C42.9766 37.3359 43.6577 37.4751 44.2144 37.7534C44.771 38.0317 45.1934 38.4175 45.4814 38.9106C45.7695 39.3989 45.9136 39.958 45.9136 40.5879C45.9136 41.2715 45.7695 41.855 45.4814 42.3384C45.1934 42.8218 44.771 43.1904 44.2144 43.4443C43.6577 43.6934 42.9766 43.8179 42.1709 43.8179ZM48.8506 41.3203V48H47.4956V40.0752H48.814L48.8506 41.3203ZM51.3262 40.0312L51.3188 41.291C51.2065 41.2666 51.0991 41.252 50.9966 41.2471C50.8989 41.2373 50.7866 41.2324 50.6597 41.2324C50.3472 41.2324 50.0713 41.2812 49.832 41.3789C49.5928 41.4766 49.3901 41.6133 49.2241 41.7891C49.0581 41.9648 48.9263 42.1748 48.8286 42.4189C48.7358 42.6582 48.6748 42.9219 48.6455 43.21L48.2646 43.4297C48.2646 42.9512 48.311 42.502 48.4038 42.082C48.5015 41.6621 48.6504 41.291 48.8506 40.9688C49.0508 40.6416 49.3047 40.3877 49.6123 40.207C49.9248 40.0215 50.2959 39.9287 50.7256 39.9287C50.8232 39.9287 50.9355 39.9409 51.0625 39.9653C51.1895 39.9849 51.2773 40.0068 51.3262 40.0312ZM52.0732 44.1255V43.957C52.0732 43.3857 52.1562 42.856 52.3223 42.3677C52.4883 41.8745 52.7275 41.4473 53.04 41.0859C53.3525 40.7197 53.731 40.4365 54.1753 40.2363C54.6196 40.0312 55.1177 39.9287 55.6694 39.9287C56.2261 39.9287 56.7266 40.0312 57.1709 40.2363C57.6201 40.4365 58.001 40.7197 58.3135 41.0859C58.6309 41.4473 58.8726 41.8745 59.0386 42.3677C59.2046 42.856 59.2876 43.3857 59.2876 43.957V44.1255C59.2876 44.6968 59.2046 45.2266 59.0386 45.7148C58.8726 46.2031 58.6309 46.6304 58.3135 46.9966C58.001 47.3579 57.6226 47.6411 57.1782 47.8462C56.7388 48.0464 56.2407 48.1465 55.6841 48.1465C55.1274 48.1465 54.627 48.0464 54.1826 47.8462C53.7383 47.6411 53.3574 47.3579 53.04 46.9966C52.7275 46.6304 52.4883 46.2031 52.3223 45.7148C52.1562 45.2266 52.0732 44.6968 52.0732 44.1255ZM53.4282 43.957V44.1255C53.4282 44.521 53.4746 44.8945 53.5674 45.2461C53.6602 45.5928 53.7993 45.9004 53.9849 46.1689C54.1753 46.4375 54.4121 46.6499 54.6953 46.8062C54.9785 46.9575 55.3081 47.0332 55.6841 47.0332C56.0552 47.0332 56.3799 46.9575 56.6582 46.8062C56.9414 46.6499 57.1758 46.4375 57.3613 46.1689C57.5469 45.9004 57.686 45.5928 57.7788 45.2461C57.8765 44.8945 57.9253 44.521 57.9253 44.1255V43.957C57.9253 43.5664 57.8765 43.1978 57.7788 42.8511C57.686 42.4995 57.5444 42.1895 57.354 41.9209C57.1685 41.6475 56.9341 41.4326 56.6509 41.2764C56.3726 41.1201 56.0454 41.042 55.6694 41.042C55.2983 41.042 54.9712 41.1201 54.688 41.2764C54.4097 41.4326 54.1753 41.6475 53.9849 41.9209C53.7993 42.1895 53.6602 42.4995 53.5674 42.8511C53.4746 43.1978 53.4282 43.5664 53.4282 43.957ZM61.0234 40.0752H62.3857V48.9448C62.3857 49.4282 62.3076 49.8384 62.1514 50.1753C62 50.5122 61.7705 50.7661 61.4629 50.937C61.1602 51.1128 60.7769 51.2007 60.313 51.2007C60.1909 51.2007 60.0493 51.1885 59.8882 51.1641C59.7222 51.1396 59.583 51.1104 59.4707 51.0762L59.478 49.9849C59.5708 50.0044 59.6758 50.019 59.793 50.0288C59.9102 50.0435 60.0127 50.0508 60.1006 50.0508C60.3008 50.0508 60.4692 50.0142 60.606 49.9409C60.7427 49.8677 60.8452 49.7505 60.9136 49.5894C60.9868 49.4282 61.0234 49.2134 61.0234 48.9448V40.0752ZM60.8843 37.9731C60.8843 37.7534 60.9526 37.5679 61.0894 37.4165C61.2261 37.2651 61.4238 37.1895 61.6826 37.1895C61.9463 37.1895 62.1465 37.2651 62.2832 37.4165C62.4199 37.5679 62.4883 37.7534 62.4883 37.9731C62.4883 38.1831 62.4199 38.3638 62.2832 38.5151C62.1465 38.6616 61.9463 38.7349 61.6826 38.7349C61.4238 38.7349 61.2261 38.6616 61.0894 38.5151C60.9526 38.3638 60.8843 38.1831 60.8843 37.9731ZM67.8643 48.1465C67.3125 48.1465 66.812 48.0537 66.3628 47.8682C65.9185 47.6777 65.5352 47.4116 65.2129 47.0698C64.8955 46.728 64.6514 46.3228 64.4805 45.854C64.3096 45.3853 64.2241 44.8726 64.2241 44.3159V44.0083C64.2241 43.3638 64.3193 42.79 64.5098 42.2871C64.7002 41.7793 64.959 41.3496 65.2861 40.998C65.6133 40.6465 65.9844 40.3804 66.3994 40.1997C66.8145 40.019 67.2441 39.9287 67.6885 39.9287C68.2549 39.9287 68.7432 40.0264 69.1533 40.2217C69.5684 40.417 69.9077 40.6904 70.1714 41.042C70.4351 41.3887 70.6304 41.7988 70.7573 42.2725C70.8843 42.7412 70.9478 43.2539 70.9478 43.8105V44.4185H65.0298V43.3125H69.5928V43.21C69.5732 42.8584 69.5 42.5166 69.373 42.1846C69.251 41.8525 69.0557 41.5791 68.7871 41.3643C68.5186 41.1494 68.1523 41.042 67.6885 41.042C67.3809 41.042 67.0977 41.1079 66.8389 41.2397C66.5801 41.3667 66.3579 41.5571 66.1724 41.811C65.9868 42.0649 65.8428 42.375 65.7402 42.7412C65.6377 43.1074 65.5864 43.5298 65.5864 44.0083V44.3159C65.5864 44.6919 65.6377 45.0459 65.7402 45.3779C65.8477 45.7051 66.0015 45.9932 66.2017 46.2422C66.4067 46.4912 66.6533 46.6865 66.9414 46.8281C67.2344 46.9697 67.5664 47.0405 67.9375 47.0405C68.416 47.0405 68.8213 46.9429 69.1533 46.7476C69.4854 46.5522 69.7759 46.291 70.0249 45.9639L70.8452 46.6157C70.6743 46.8745 70.457 47.1211 70.1934 47.3555C69.9297 47.5898 69.605 47.7803 69.2192 47.9268C68.8384 48.0732 68.3867 48.1465 67.8643 48.1465ZM75.7012 47.0332C76.0234 47.0332 76.3213 46.9673 76.5947 46.8354C76.8682 46.7036 77.0928 46.5229 77.2686 46.2935C77.4443 46.0591 77.5444 45.793 77.5688 45.4951H78.8579C78.8335 45.9639 78.6748 46.4009 78.3818 46.8062C78.0938 47.2065 77.7153 47.5312 77.2466 47.7803C76.7778 48.0244 76.2627 48.1465 75.7012 48.1465C75.1055 48.1465 74.5854 48.0415 74.1411 47.8315C73.7017 47.6216 73.3354 47.3335 73.0425 46.9673C72.7544 46.6011 72.5371 46.1812 72.3906 45.7075C72.249 45.229 72.1782 44.7236 72.1782 44.1914V43.8838C72.1782 43.3516 72.249 42.8486 72.3906 42.375C72.5371 41.8965 72.7544 41.4741 73.0425 41.1079C73.3354 40.7417 73.7017 40.4536 74.1411 40.2437C74.5854 40.0337 75.1055 39.9287 75.7012 39.9287C76.3213 39.9287 76.8633 40.0557 77.3271 40.3096C77.791 40.5586 78.1548 40.9004 78.4185 41.335C78.687 41.7646 78.8335 42.2529 78.8579 42.7998H77.5688C77.5444 42.4727 77.4517 42.1772 77.2905 41.9136C77.1343 41.6499 76.9194 41.4399 76.646 41.2837C76.3774 41.1226 76.0625 41.042 75.7012 41.042C75.2861 41.042 74.937 41.125 74.6538 41.291C74.3755 41.4521 74.1533 41.6719 73.9873 41.9502C73.8262 42.2236 73.709 42.5288 73.6357 42.8657C73.5674 43.1978 73.5332 43.5371 73.5332 43.8838V44.1914C73.5332 44.5381 73.5674 44.8799 73.6357 45.2168C73.7041 45.5537 73.8188 45.8589 73.98 46.1323C74.146 46.4058 74.3682 46.6255 74.6465 46.7915C74.9297 46.9526 75.2812 47.0332 75.7012 47.0332ZM83.6992 40.0752V41.1152H79.4146V40.0752H83.6992ZM80.8647 38.1489H82.2197V46.0371C82.2197 46.3057 82.2612 46.5083 82.3442 46.645C82.4272 46.7817 82.5347 46.8721 82.6665 46.916C82.7983 46.96 82.9399 46.9819 83.0913 46.9819C83.2036 46.9819 83.3208 46.9722 83.4429 46.9526C83.5698 46.9282 83.665 46.9087 83.7285 46.894L83.7358 48C83.6284 48.0342 83.4868 48.0659 83.311 48.0952C83.1401 48.1294 82.9326 48.1465 82.6885 48.1465C82.3564 48.1465 82.0513 48.0806 81.7729 47.9487C81.4946 47.8169 81.2725 47.5972 81.1064 47.2896C80.9453 46.9771 80.8647 46.5571 80.8647 46.0298V38.1489ZM92.8618 37.3359V48H91.4702V37.3359H92.8618ZM96.2896 37.3359V38.4932H88.0498V37.3359H96.2896ZM99.1387 40.0752V48H97.7764V40.0752H99.1387ZM97.6738 37.9731C97.6738 37.7534 97.7397 37.5679 97.8716 37.4165C98.0083 37.2651 98.2085 37.1895 98.4722 37.1895C98.731 37.1895 98.9287 37.2651 99.0654 37.4165C99.207 37.5679 99.2778 37.7534 99.2778 37.9731C99.2778 38.1831 99.207 38.3638 99.0654 38.5151C98.9287 38.6616 98.731 38.7349 98.4722 38.7349C98.2085 38.7349 98.0083 38.6616 97.8716 38.5151C97.7397 38.3638 97.6738 38.1831 97.6738 37.9731ZM104.632 40.0752V41.1152H100.347V40.0752H104.632ZM101.797 38.1489H103.152V46.0371C103.152 46.3057 103.194 46.5083 103.277 46.645C103.36 46.7817 103.467 46.8721 103.599 46.916C103.731 46.96 103.873 46.9819 104.024 46.9819C104.136 46.9819 104.253 46.9722 104.375 46.9526C104.502 46.9282 104.598 46.9087 104.661 46.894L104.668 48C104.561 48.0342 104.419 48.0659 104.244 48.0952C104.073 48.1294 103.865 48.1465 103.621 48.1465C103.289 48.1465 102.984 48.0806 102.706 47.9487C102.427 47.8169 102.205 47.5972 102.039 47.2896C101.878 46.9771 101.797 46.5571 101.797 46.0298V38.1489ZM107.693 36.75V48H106.331V36.75H107.693ZM113.157 48.1465C112.605 48.1465 112.105 48.0537 111.656 47.8682C111.211 47.6777 110.828 47.4116 110.506 47.0698C110.188 46.728 109.944 46.3228 109.773 45.854C109.603 45.3853 109.517 44.8726 109.517 44.3159V44.0083C109.517 43.3638 109.612 42.79 109.803 42.2871C109.993 41.7793 110.252 41.3496 110.579 40.998C110.906 40.6465 111.277 40.3804 111.692 40.1997C112.107 40.019 112.537 39.9287 112.981 39.9287C113.548 39.9287 114.036 40.0264 114.446 40.2217C114.861 40.417 115.201 40.6904 115.464 41.042C115.728 41.3887 115.923 41.7988 116.05 42.2725C116.177 42.7412 116.241 43.2539 116.241 43.8105V44.4185H110.323V43.3125H114.886V43.21C114.866 42.8584 114.793 42.5166 114.666 42.1846C114.544 41.8525 114.349 41.5791 114.08 41.3643C113.812 41.1494 113.445 41.042 112.981 41.042C112.674 41.042 112.391 41.1079 112.132 41.2397C111.873 41.3667 111.651 41.5571 111.465 41.811C111.28 42.0649 111.136 42.375 111.033 42.7412C110.931 43.1074 110.879 43.5298 110.879 44.0083V44.3159C110.879 44.6919 110.931 45.0459 111.033 45.3779C111.141 45.7051 111.294 45.9932 111.495 46.2422C111.7 46.4912 111.946 46.6865 112.234 46.8281C112.527 46.9697 112.859 47.0405 113.23 47.0405C113.709 47.0405 114.114 46.9429 114.446 46.7476C114.778 46.5522 115.069 46.291 115.318 45.9639L116.138 46.6157C115.967 46.8745 115.75 47.1211 115.486 47.3555C115.223 47.5898 114.898 47.7803 114.512 47.9268C114.131 48.0732 113.68 48.1465 113.157 48.1465Z" fill="black"/>
<rect x="20" y="78" width="578" height="40" rx="3" fill="#E3E3E3"/>
<path d="M42.1709 98.8179H39.3218V97.668H42.1709C42.7227 97.668 43.1694 97.5801 43.5112 97.4043C43.853 97.2285 44.1021 96.9844 44.2583 96.6719C44.4194 96.3594 44.5 96.0029 44.5 95.6025C44.5 95.2363 44.4194 94.8921 44.2583 94.5698C44.1021 94.2476 43.853 93.9888 43.5112 93.7935C43.1694 93.5933 42.7227 93.4932 42.1709 93.4932H39.6514V103H38.2378V92.3359H42.1709C42.9766 92.3359 43.6577 92.4751 44.2144 92.7534C44.771 93.0317 45.1934 93.4175 45.4814 93.9106C45.7695 94.3989 45.9136 94.958 45.9136 95.5879C45.9136 96.2715 45.7695 96.855 45.4814 97.3384C45.1934 97.8218 44.771 98.1904 44.2144 98.4443C43.6577 98.6934 42.9766 98.8179 42.1709 98.8179ZM48.8506 96.3203V103H47.4956V95.0752H48.814L48.8506 96.3203ZM51.3262 95.0312L51.3188 96.291C51.2065 96.2666 51.0991 96.252 50.9966 96.2471C50.8989 96.2373 50.7866 96.2324 50.6597 96.2324C50.3472 96.2324 50.0713 96.2812 49.832 96.3789C49.5928 96.4766 49.3901 96.6133 49.2241 96.7891C49.0581 96.9648 48.9263 97.1748 48.8286 97.4189C48.7358 97.6582 48.6748 97.9219 48.6455 98.21L48.2646 98.4297C48.2646 97.9512 48.311 97.502 48.4038 97.082C48.5015 96.6621 48.6504 96.291 48.8506 95.9688C49.0508 95.6416 49.3047 95.3877 49.6123 95.207C49.9248 95.0215 50.2959 94.9287 50.7256 94.9287C50.8232 94.9287 50.9355 94.9409 51.0625 94.9653C51.1895 94.9849 51.2773 95.0068 51.3262 95.0312ZM52.0732 99.1255V98.957C52.0732 98.3857 52.1562 97.856 52.3223 97.3677C52.4883 96.8745 52.7275 96.4473 53.04 96.0859C53.3525 95.7197 53.731 95.4365 54.1753 95.2363C54.6196 95.0312 55.1177 94.9287 55.6694 94.9287C56.2261 94.9287 56.7266 95.0312 57.1709 95.2363C57.6201 95.4365 58.001 95.7197 58.3135 96.0859C58.6309 96.4473 58.8726 96.8745 59.0386 97.3677C59.2046 97.856 59.2876 98.3857 59.2876 98.957V99.1255C59.2876 99.6968 59.2046 100.227 59.0386 100.715C58.8726 101.203 58.6309 101.63 58.3135 101.997C58.001 102.358 57.6226 102.641 57.1782 102.846C56.7388 103.046 56.2407 103.146 55.6841 103.146C55.1274 103.146 54.627 103.046 54.1826 102.846C53.7383 102.641 53.3574 102.358 53.04 101.997C52.7275 101.63 52.4883 101.203 52.3223 100.715C52.1562 100.227 52.0732 99.6968 52.0732 99.1255ZM53.4282 98.957V99.1255C53.4282 99.521 53.4746 99.8945 53.5674 100.246C53.6602 100.593 53.7993 100.9 53.9849 101.169C54.1753 101.438 54.4121 101.65 54.6953 101.806C54.9785 101.958 55.3081 102.033 55.6841 102.033C56.0552 102.033 56.3799 101.958 56.6582 101.806C56.9414 101.65 57.1758 101.438 57.3613 101.169C57.5469 100.9 57.686 100.593 57.7788 100.246C57.8765 99.8945 57.9253 99.521 57.9253 99.1255V98.957C57.9253 98.5664 57.8765 98.1978 57.7788 97.8511C57.686 97.4995 57.5444 97.1895 57.354 96.9209C57.1685 96.6475 56.9341 96.4326 56.6509 96.2764C56.3726 96.1201 56.0454 96.042 55.6694 96.042C55.2983 96.042 54.9712 96.1201 54.688 96.2764C54.4097 96.4326 54.1753 96.6475 53.9849 96.9209C53.7993 97.1895 53.6602 97.4995 53.5674 97.8511C53.4746 98.1978 53.4282 98.5664 53.4282 98.957ZM61.0234 95.0752H62.3857V103.945C62.3857 104.428 62.3076 104.838 62.1514 105.175C62 105.512 61.7705 105.766 61.4629 105.937C61.1602 106.113 60.7769 106.201 60.313 106.201C60.1909 106.201 60.0493 106.188 59.8882 106.164C59.7222 106.14 59.583 106.11 59.4707 106.076L59.478 104.985C59.5708 105.004 59.6758 105.019 59.793 105.029C59.9102 105.043 60.0127 105.051 60.1006 105.051C60.3008 105.051 60.4692 105.014 60.606 104.941C60.7427 104.868 60.8452 104.75 60.9136 104.589C60.9868 104.428 61.0234 104.213 61.0234 103.945V95.0752ZM60.8843 92.9731C60.8843 92.7534 60.9526 92.5679 61.0894 92.4165C61.2261 92.2651 61.4238 92.1895 61.6826 92.1895C61.9463 92.1895 62.1465 92.2651 62.2832 92.4165C62.4199 92.5679 62.4883 92.7534 62.4883 92.9731C62.4883 93.1831 62.4199 93.3638 62.2832 93.5151C62.1465 93.6616 61.9463 93.7349 61.6826 93.7349C61.4238 93.7349 61.2261 93.6616 61.0894 93.5151C60.9526 93.3638 60.8843 93.1831 60.8843 92.9731ZM67.8643 103.146C67.3125 103.146 66.812 103.054 66.3628 102.868C65.9185 102.678 65.5352 102.412 65.2129 102.07C64.8955 101.728 64.6514 101.323 64.4805 100.854C64.3096 100.385 64.2241 99.8726 64.2241 99.3159V99.0083C64.2241 98.3638 64.3193 97.79 64.5098 97.2871C64.7002 96.7793 64.959 96.3496 65.2861 95.998C65.6133 95.6465 65.9844 95.3804 66.3994 95.1997C66.8145 95.019 67.2441 94.9287 67.6885 94.9287C68.2549 94.9287 68.7432 95.0264 69.1533 95.2217C69.5684 95.417 69.9077 95.6904 70.1714 96.042C70.4351 96.3887 70.6304 96.7988 70.7573 97.2725C70.8843 97.7412 70.9478 98.2539 70.9478 98.8105V99.4185H65.0298V98.3125H69.5928V98.21C69.5732 97.8584 69.5 97.5166 69.373 97.1846C69.251 96.8525 69.0557 96.5791 68.7871 96.3643C68.5186 96.1494 68.1523 96.042 67.6885 96.042C67.3809 96.042 67.0977 96.1079 66.8389 96.2397C66.5801 96.3667 66.3579 96.5571 66.1724 96.811C65.9868 97.0649 65.8428 97.375 65.7402 97.7412C65.6377 98.1074 65.5864 98.5298 65.5864 99.0083V99.3159C65.5864 99.6919 65.6377 100.046 65.7402 100.378C65.8477 100.705 66.0015 100.993 66.2017 101.242C66.4067 101.491 66.6533 101.687 66.9414 101.828C67.2344 101.97 67.5664 102.041 67.9375 102.041C68.416 102.041 68.8213 101.943 69.1533 101.748C69.4854 101.552 69.7759 101.291 70.0249 100.964L70.8452 101.616C70.6743 101.875 70.457 102.121 70.1934 102.355C69.9297 102.59 69.605 102.78 69.2192 102.927C68.8384 103.073 68.3867 103.146 67.8643 103.146ZM75.7012 102.033C76.0234 102.033 76.3213 101.967 76.5947 101.835C76.8682 101.704 77.0928 101.523 77.2686 101.293C77.4443 101.059 77.5444 100.793 77.5688 100.495H78.8579C78.8335 100.964 78.6748 101.401 78.3818 101.806C78.0938 102.207 77.7153 102.531 77.2466 102.78C76.7778 103.024 76.2627 103.146 75.7012 103.146C75.1055 103.146 74.5854 103.042 74.1411 102.832C73.7017 102.622 73.3354 102.333 73.0425 101.967C72.7544 101.601 72.5371 101.181 72.3906 100.708C72.249 100.229 72.1782 99.7236 72.1782 99.1914V98.8838C72.1782 98.3516 72.249 97.8486 72.3906 97.375C72.5371 96.8965 72.7544 96.4741 73.0425 96.1079C73.3354 95.7417 73.7017 95.4536 74.1411 95.2437C74.5854 95.0337 75.1055 94.9287 75.7012 94.9287C76.3213 94.9287 76.8633 95.0557 77.3271 95.3096C77.791 95.5586 78.1548 95.9004 78.4185 96.335C78.687 96.7646 78.8335 97.2529 78.8579 97.7998H77.5688C77.5444 97.4727 77.4517 97.1772 77.2905 96.9136C77.1343 96.6499 76.9194 96.4399 76.646 96.2837C76.3774 96.1226 76.0625 96.042 75.7012 96.042C75.2861 96.042 74.937 96.125 74.6538 96.291C74.3755 96.4521 74.1533 96.6719 73.9873 96.9502C73.8262 97.2236 73.709 97.5288 73.6357 97.8657C73.5674 98.1978 73.5332 98.5371 73.5332 98.8838V99.1914C73.5332 99.5381 73.5674 99.8799 73.6357 100.217C73.7041 100.554 73.8188 100.859 73.98 101.132C74.146 101.406 74.3682 101.625 74.6465 101.792C74.9297 101.953 75.2812 102.033 75.7012 102.033ZM83.6992 95.0752V96.1152H79.4146V95.0752H83.6992ZM80.8647 93.1489H82.2197V101.037C82.2197 101.306 82.2612 101.508 82.3442 101.645C82.4272 101.782 82.5347 101.872 82.6665 101.916C82.7983 101.96 82.9399 101.982 83.0913 101.982C83.2036 101.982 83.3208 101.972 83.4429 101.953C83.5698 101.928 83.665 101.909 83.7285 101.894L83.7358 103C83.6284 103.034 83.4868 103.066 83.311 103.095C83.1401 103.129 82.9326 103.146 82.6885 103.146C82.3564 103.146 82.0513 103.081 81.7729 102.949C81.4946 102.817 81.2725 102.597 81.1064 102.29C80.9453 101.977 80.8647 101.557 80.8647 101.03V93.1489ZM92.1001 103H89.8735L89.8882 101.85H92.1001C92.8618 101.85 93.4966 101.691 94.0044 101.374C94.5122 101.052 94.8931 100.603 95.147 100.026C95.4058 99.4453 95.5352 98.7666 95.5352 97.9902V97.3384C95.5352 96.728 95.4619 96.186 95.3154 95.7124C95.1689 95.2339 94.9541 94.8311 94.6709 94.5039C94.3877 94.1719 94.041 93.9204 93.6309 93.7495C93.2256 93.5786 92.7593 93.4932 92.2319 93.4932H89.8296V92.3359H92.2319C92.9302 92.3359 93.5674 92.4531 94.1436 92.6875C94.7197 92.917 95.2153 93.2515 95.6304 93.6909C96.0503 94.1255 96.3726 94.6528 96.5972 95.2729C96.8218 95.8882 96.9341 96.5815 96.9341 97.353V97.9902C96.9341 98.7617 96.8218 99.4575 96.5972 100.078C96.3726 100.693 96.0479 101.218 95.623 101.652C95.2031 102.087 94.6953 102.421 94.0996 102.656C93.5088 102.885 92.8423 103 92.1001 103ZM90.6279 92.3359V103H89.2144V92.3359H90.6279ZM102.142 103.146C101.59 103.146 101.089 103.054 100.64 102.868C100.196 102.678 99.8125 102.412 99.4902 102.07C99.1729 101.728 98.9287 101.323 98.7578 100.854C98.5869 100.385 98.5015 99.8726 98.5015 99.3159V99.0083C98.5015 98.3638 98.5967 97.79 98.7871 97.2871C98.9775 96.7793 99.2363 96.3496 99.5635 95.998C99.8906 95.6465 100.262 95.3804 100.677 95.1997C101.092 95.019 101.521 94.9287 101.966 94.9287C102.532 94.9287 103.021 95.0264 103.431 95.2217C103.846 95.417 104.185 95.6904 104.449 96.042C104.712 96.3887 104.908 96.7988 105.035 97.2725C105.162 97.7412 105.225 98.2539 105.225 98.8105V99.4185H99.3071V98.3125H103.87V98.21C103.851 97.8584 103.777 97.5166 103.65 97.1846C103.528 96.8525 103.333 96.5791 103.064 96.3643C102.796 96.1494 102.43 96.042 101.966 96.042C101.658 96.042 101.375 96.1079 101.116 96.2397C100.857 96.3667 100.635 96.5571 100.45 96.811C100.264 97.0649 100.12 97.375 100.018 97.7412C99.915 98.1074 99.8638 98.5298 99.8638 99.0083V99.3159C99.8638 99.6919 99.915 100.046 100.018 100.378C100.125 100.705 100.279 100.993 100.479 101.242C100.684 101.491 100.931 101.687 101.219 101.828C101.512 101.97 101.844 102.041 102.215 102.041C102.693 102.041 103.099 101.943 103.431 101.748C103.763 101.552 104.053 101.291 104.302 100.964L105.123 101.616C104.952 101.875 104.734 102.121 104.471 102.355C104.207 102.59 103.882 102.78 103.497 102.927C103.116 103.073 102.664 103.146 102.142 103.146ZM111.421 100.898C111.421 100.703 111.377 100.522 111.29 100.356C111.207 100.185 111.033 100.031 110.77 99.8945C110.511 99.7529 110.12 99.6309 109.598 99.5283C109.158 99.4355 108.76 99.3257 108.404 99.1987C108.052 99.0718 107.752 98.918 107.503 98.7373C107.259 98.5566 107.071 98.3442 106.939 98.1001C106.807 97.856 106.741 97.5703 106.741 97.2432C106.741 96.9307 106.81 96.6353 106.946 96.3569C107.088 96.0786 107.286 95.832 107.54 95.6172C107.798 95.4023 108.108 95.2339 108.47 95.1118C108.831 94.9897 109.234 94.9287 109.678 94.9287C110.313 94.9287 110.855 95.041 111.304 95.2656C111.753 95.4902 112.098 95.7905 112.337 96.1665C112.576 96.5376 112.696 96.9502 112.696 97.4043H111.341C111.341 97.1846 111.275 96.9722 111.143 96.7671C111.016 96.5571 110.828 96.3838 110.579 96.2471C110.335 96.1104 110.035 96.042 109.678 96.042C109.302 96.042 108.997 96.1006 108.763 96.2178C108.533 96.3301 108.365 96.4741 108.257 96.6499C108.155 96.8257 108.104 97.0112 108.104 97.2065C108.104 97.353 108.128 97.4849 108.177 97.6021C108.23 97.7144 108.323 97.8193 108.455 97.917C108.587 98.0098 108.772 98.0977 109.012 98.1807C109.251 98.2637 109.556 98.3467 109.927 98.4297C110.577 98.5762 111.111 98.752 111.531 98.957C111.951 99.1621 112.264 99.4136 112.469 99.7114C112.674 100.009 112.776 100.371 112.776 100.795C112.776 101.142 112.703 101.459 112.557 101.748C112.415 102.036 112.208 102.285 111.934 102.495C111.666 102.7 111.343 102.861 110.967 102.978C110.596 103.09 110.179 103.146 109.715 103.146C109.017 103.146 108.426 103.022 107.942 102.773C107.459 102.524 107.093 102.202 106.844 101.806C106.595 101.411 106.47 100.993 106.47 100.554H107.833C107.852 100.925 107.959 101.22 108.155 101.44C108.35 101.655 108.589 101.809 108.873 101.901C109.156 101.989 109.437 102.033 109.715 102.033C110.086 102.033 110.396 101.984 110.645 101.887C110.899 101.789 111.092 101.655 111.224 101.484C111.355 101.313 111.421 101.118 111.421 100.898ZM117.728 102.033C118.05 102.033 118.348 101.967 118.621 101.835C118.895 101.704 119.119 101.523 119.295 101.293C119.471 101.059 119.571 100.793 119.595 100.495H120.884C120.86 100.964 120.701 101.401 120.408 101.806C120.12 102.207 119.742 102.531 119.273 102.78C118.804 103.024 118.289 103.146 117.728 103.146C117.132 103.146 116.612 103.042 116.167 102.832C115.728 102.622 115.362 102.333 115.069 101.967C114.781 101.601 114.563 101.181 114.417 100.708C114.275 100.229 114.205 99.7236 114.205 99.1914V98.8838C114.205 98.3516 114.275 97.8486 114.417 97.375C114.563 96.8965 114.781 96.4741 115.069 96.1079C115.362 95.7417 115.728 95.4536 116.167 95.2437C116.612 95.0337 117.132 94.9287 117.728 94.9287C118.348 94.9287 118.89 95.0557 119.354 95.3096C119.817 95.5586 120.181 95.9004 120.445 96.335C120.713 96.7646 120.86 97.2529 120.884 97.7998H119.595C119.571 97.4727 119.478 97.1772 119.317 96.9136C119.161 96.6499 118.946 96.4399 118.672 96.2837C118.404 96.1226 118.089 96.042 117.728 96.042C117.312 96.042 116.963 96.125 116.68 96.291C116.402 96.4521 116.18 96.6719 116.014 96.9502C115.853 97.2236 115.735 97.5288 115.662 97.8657C115.594 98.1978 115.56 98.5371 115.56 98.8838V99.1914C115.56 99.5381 115.594 99.8799 115.662 100.217C115.73 100.554 115.845 100.859 116.006 101.132C116.172 101.406 116.395 101.625 116.673 101.792C116.956 101.953 117.308 102.033 117.728 102.033ZM123.763 96.3203V103H122.408V95.0752H123.726L123.763 96.3203ZM126.238 95.0312L126.231 96.291C126.119 96.2666 126.011 96.252 125.909 96.2471C125.811 96.2373 125.699 96.2324 125.572 96.2324C125.259 96.2324 124.983 96.2812 124.744 96.3789C124.505 96.4766 124.302 96.6133 124.136 96.7891C123.97 96.9648 123.838 97.1748 123.741 97.4189C123.648 97.6582 123.587 97.9219 123.558 98.21L123.177 98.4297C123.177 97.9512 123.223 97.502 123.316 97.082C123.414 96.6621 123.562 96.291 123.763 95.9688C123.963 95.6416 124.217 95.3877 124.524 95.207C124.837 95.0215 125.208 94.9287 125.638 94.9287C125.735 94.9287 125.848 94.9409 125.975 94.9653C126.102 94.9849 126.189 95.0068 126.238 95.0312ZM128.963 95.0752V103H127.601V95.0752H128.963ZM127.498 92.9731C127.498 92.7534 127.564 92.5679 127.696 92.4165C127.833 92.2651 128.033 92.1895 128.296 92.1895C128.555 92.1895 128.753 92.2651 128.89 92.4165C129.031 92.5679 129.102 92.7534 129.102 92.9731C129.102 93.1831 129.031 93.3638 128.89 93.5151C128.753 93.6616 128.555 93.7349 128.296 93.7349C128.033 93.7349 127.833 93.6616 127.696 93.5151C127.564 93.3638 127.498 93.1831 127.498 92.9731ZM132.493 96.5986V106.047H131.131V95.0752H132.376L132.493 96.5986ZM137.833 98.9717V99.1255C137.833 99.7017 137.764 100.236 137.627 100.729C137.491 101.218 137.291 101.643 137.027 102.004C136.768 102.365 136.448 102.646 136.067 102.846C135.687 103.046 135.25 103.146 134.756 103.146C134.253 103.146 133.809 103.063 133.423 102.897C133.038 102.731 132.71 102.49 132.442 102.172C132.173 101.855 131.958 101.474 131.797 101.03C131.641 100.585 131.534 100.085 131.475 99.5283V98.708C131.534 98.1221 131.644 97.5972 131.805 97.1333C131.966 96.6694 132.178 96.2739 132.442 95.9468C132.71 95.6147 133.035 95.3633 133.416 95.1924C133.797 95.0166 134.236 94.9287 134.734 94.9287C135.232 94.9287 135.674 95.0264 136.06 95.2217C136.446 95.4121 136.771 95.6855 137.034 96.042C137.298 96.3984 137.496 96.8257 137.627 97.3237C137.764 97.8169 137.833 98.3662 137.833 98.9717ZM136.47 99.1255V98.9717C136.47 98.5762 136.429 98.2051 136.346 97.8584C136.263 97.5068 136.133 97.1992 135.958 96.9355C135.787 96.667 135.567 96.457 135.298 96.3057C135.03 96.1494 134.71 96.0713 134.339 96.0713C133.997 96.0713 133.699 96.1299 133.445 96.2471C133.196 96.3643 132.984 96.5229 132.808 96.7231C132.632 96.9185 132.488 97.1431 132.376 97.397C132.269 97.646 132.188 97.9048 132.134 98.1733V100.07C132.232 100.412 132.369 100.734 132.544 101.037C132.72 101.335 132.955 101.577 133.248 101.762C133.541 101.943 133.909 102.033 134.354 102.033C134.72 102.033 135.035 101.958 135.298 101.806C135.567 101.65 135.787 101.438 135.958 101.169C136.133 100.9 136.263 100.593 136.346 100.246C136.429 99.8945 136.47 99.521 136.47 99.1255ZM142.879 95.0752V96.1152H138.594V95.0752H142.879ZM140.044 93.1489H141.399V101.037C141.399 101.306 141.441 101.508 141.524 101.645C141.607 101.782 141.714 101.872 141.846 101.916C141.978 101.96 142.12 101.982 142.271 101.982C142.383 101.982 142.5 101.972 142.623 101.953C142.75 101.928 142.845 101.909 142.908 101.894L142.916 103C142.808 103.034 142.667 103.066 142.491 103.095C142.32 103.129 142.112 103.146 141.868 103.146C141.536 103.146 141.231 103.081 140.953 102.949C140.674 102.817 140.452 102.597 140.286 102.29C140.125 101.977 140.044 101.557 140.044 101.03V93.1489ZM145.94 95.0752V103H144.578V95.0752H145.94ZM144.476 92.9731C144.476 92.7534 144.542 92.5679 144.673 92.4165C144.81 92.2651 145.01 92.1895 145.274 92.1895C145.533 92.1895 145.73 92.2651 145.867 92.4165C146.009 92.5679 146.08 92.7534 146.08 92.9731C146.08 93.1831 146.009 93.3638 145.867 93.5151C145.73 93.6616 145.533 93.7349 145.274 93.7349C145.01 93.7349 144.81 93.6616 144.673 93.5151C144.542 93.3638 144.476 93.1831 144.476 92.9731ZM147.757 99.1255V98.957C147.757 98.3857 147.84 97.856 148.006 97.3677C148.172 96.8745 148.411 96.4473 148.724 96.0859C149.036 95.7197 149.415 95.4365 149.859 95.2363C150.303 95.0312 150.801 94.9287 151.353 94.9287C151.91 94.9287 152.41 95.0312 152.854 95.2363C153.304 95.4365 153.685 95.7197 153.997 96.0859C154.314 96.4473 154.556 96.8745 154.722 97.3677C154.888 97.856 154.971 98.3857 154.971 98.957V99.1255C154.971 99.6968 154.888 100.227 154.722 100.715C154.556 101.203 154.314 101.63 153.997 101.997C153.685 102.358 153.306 102.641 152.862 102.846C152.422 103.046 151.924 103.146 151.368 103.146C150.811 103.146 150.311 103.046 149.866 102.846C149.422 102.641 149.041 102.358 148.724 101.997C148.411 101.63 148.172 101.203 148.006 100.715C147.84 100.227 147.757 99.6968 147.757 99.1255ZM149.112 98.957V99.1255C149.112 99.521 149.158 99.8945 149.251 100.246C149.344 100.593 149.483 100.9 149.668 101.169C149.859 101.438 150.096 101.65 150.379 101.806C150.662 101.958 150.992 102.033 151.368 102.033C151.739 102.033 152.063 101.958 152.342 101.806C152.625 101.65 152.859 101.438 153.045 101.169C153.23 100.9 153.37 100.593 153.462 100.246C153.56 99.8945 153.609 99.521 153.609 99.1255V98.957C153.609 98.5664 153.56 98.1978 153.462 97.8511C153.37 97.4995 153.228 97.1895 153.038 96.9209C152.852 96.6475 152.618 96.4326 152.334 96.2764C152.056 96.1201 151.729 96.042 151.353 96.042C150.982 96.042 150.655 96.1201 150.372 96.2764C150.093 96.4326 149.859 96.6475 149.668 96.9209C149.483 97.1895 149.344 97.4995 149.251 97.8511C149.158 98.1978 149.112 98.5664 149.112 98.957ZM158.025 96.7671V103H156.67V95.0752H157.952L158.025 96.7671ZM157.703 98.7373L157.139 98.7153C157.144 98.1733 157.225 97.6729 157.381 97.2139C157.537 96.75 157.757 96.3472 158.04 96.0054C158.323 95.6636 158.66 95.3999 159.051 95.2144C159.446 95.0239 159.883 94.9287 160.362 94.9287C160.752 94.9287 161.104 94.9824 161.417 95.0898C161.729 95.1924 161.995 95.3584 162.215 95.5879C162.439 95.8174 162.61 96.1152 162.728 96.4814C162.845 96.8428 162.903 97.2847 162.903 97.8071V103H161.541V97.7925C161.541 97.3774 161.48 97.0454 161.358 96.7964C161.236 96.5425 161.058 96.3594 160.823 96.2471C160.589 96.1299 160.301 96.0713 159.959 96.0713C159.622 96.0713 159.314 96.1421 159.036 96.2837C158.763 96.4253 158.526 96.6206 158.326 96.8696C158.13 97.1187 157.977 97.4043 157.864 97.7266C157.757 98.0439 157.703 98.3809 157.703 98.7373Z" fill="black"/>
<rect x="20" y="133" width="281" height="40" rx="3" fill="#E3E3E3"/>
<path d="M46.1187 152.69V156.594C45.9868 156.789 45.7769 157.009 45.4888 157.253C45.2007 157.492 44.8027 157.702 44.2949 157.883C43.792 158.059 43.1426 158.146 42.3467 158.146C41.6973 158.146 41.0991 158.034 40.5522 157.81C40.0103 157.58 39.5391 157.248 39.1387 156.813C38.7432 156.374 38.4355 155.842 38.2158 155.217C38.001 154.587 37.8936 153.874 37.8936 153.078V152.25C37.8936 151.455 37.9863 150.744 38.1719 150.119C38.3623 149.494 38.6406 148.964 39.0068 148.53C39.373 148.09 39.8223 147.758 40.3545 147.534C40.8867 147.304 41.4971 147.189 42.1855 147.189C43.001 147.189 43.6821 147.331 44.229 147.614C44.7808 147.893 45.2104 148.278 45.5181 148.771C45.8306 149.265 46.0308 149.826 46.1187 150.456H44.7051C44.6416 150.07 44.5146 149.719 44.3242 149.401C44.1387 149.084 43.8726 148.83 43.5259 148.64C43.1792 148.444 42.7324 148.347 42.1855 148.347C41.6924 148.347 41.2651 148.437 40.9038 148.618C40.5425 148.798 40.2446 149.057 40.0103 149.394C39.7759 149.731 39.6001 150.139 39.4829 150.617C39.3706 151.096 39.3145 151.635 39.3145 152.236V153.078C39.3145 153.693 39.3853 154.243 39.5269 154.726C39.6733 155.209 39.8809 155.622 40.1494 155.964C40.418 156.301 40.7378 156.557 41.1089 156.733C41.4849 156.909 41.8999 156.997 42.354 156.997C42.8569 156.997 43.2646 156.955 43.5771 156.872C43.8896 156.784 44.1338 156.682 44.3096 156.564C44.4854 156.442 44.6196 156.328 44.7124 156.22V153.833H42.2441V152.69H46.1187ZM49.7295 150.075V158H48.3672V150.075H49.7295ZM48.2646 147.973C48.2646 147.753 48.3306 147.568 48.4624 147.417C48.5991 147.265 48.7993 147.189 49.063 147.189C49.3218 147.189 49.5195 147.265 49.6562 147.417C49.7979 147.568 49.8687 147.753 49.8687 147.973C49.8687 148.183 49.7979 148.364 49.6562 148.515C49.5195 148.662 49.3218 148.735 49.063 148.735C48.7993 148.735 48.5991 148.662 48.4624 148.515C48.3306 148.364 48.2646 148.183 48.2646 147.973ZM55.2227 150.075V151.115H50.938V150.075H55.2227ZM52.3882 148.149H53.7432V156.037C53.7432 156.306 53.7847 156.508 53.8677 156.645C53.9507 156.782 54.0581 156.872 54.1899 156.916C54.3218 156.96 54.4634 156.982 54.6147 156.982C54.7271 156.982 54.8442 156.972 54.9663 156.953C55.0933 156.928 55.1885 156.909 55.252 156.894L55.2593 158C55.1519 158.034 55.0103 158.066 54.8345 158.095C54.6636 158.129 54.4561 158.146 54.2119 158.146C53.8799 158.146 53.5747 158.081 53.2964 157.949C53.0181 157.817 52.7959 157.597 52.6299 157.29C52.4688 156.977 52.3882 156.557 52.3882 156.03V148.149ZM58.167 146.75V158H56.812V146.75H58.167ZM57.8447 153.737L57.2808 153.715C57.2856 153.173 57.3662 152.673 57.5225 152.214C57.6787 151.75 57.8984 151.347 58.1816 151.005C58.4648 150.664 58.8018 150.4 59.1924 150.214C59.5879 150.024 60.0249 149.929 60.5034 149.929C60.894 149.929 61.2456 149.982 61.5581 150.09C61.8706 150.192 62.1367 150.358 62.3564 150.588C62.5811 150.817 62.752 151.115 62.8691 151.481C62.9863 151.843 63.0449 152.285 63.0449 152.807V158H61.6826V152.792C61.6826 152.377 61.6216 152.045 61.4995 151.796C61.3774 151.542 61.1992 151.359 60.9648 151.247C60.7305 151.13 60.4424 151.071 60.1006 151.071C59.7637 151.071 59.4561 151.142 59.1777 151.284C58.9043 151.425 58.6675 151.621 58.4673 151.87C58.272 152.119 58.1182 152.404 58.0059 152.727C57.8984 153.044 57.8447 153.381 57.8447 153.737ZM69.9224 156.169V150.075H71.2847V158H69.9883L69.9224 156.169ZM70.1787 154.499L70.7427 154.484C70.7427 155.012 70.6865 155.5 70.5742 155.949C70.4668 156.394 70.291 156.779 70.0469 157.106C69.8027 157.434 69.4829 157.69 69.0874 157.875C68.6919 158.056 68.2109 158.146 67.6445 158.146C67.2588 158.146 66.9048 158.09 66.5825 157.978C66.2651 157.866 65.9917 157.692 65.7622 157.458C65.5327 157.224 65.3545 156.918 65.2275 156.542C65.1055 156.167 65.0444 155.715 65.0444 155.188V150.075H66.3994V155.202C66.3994 155.559 66.4385 155.854 66.5166 156.088C66.5996 156.318 66.7095 156.501 66.8462 156.638C66.9878 156.77 67.144 156.862 67.3149 156.916C67.4907 156.97 67.6714 156.997 67.8569 156.997C68.4331 156.997 68.8896 156.887 69.2266 156.667C69.5635 156.442 69.8052 156.142 69.9517 155.766C70.103 155.385 70.1787 154.963 70.1787 154.499ZM73.3428 146.75H74.7051V156.462L74.5879 158H73.3428V146.75ZM80.0591 153.972V154.125C80.0591 154.702 79.9907 155.236 79.854 155.729C79.7173 156.218 79.5171 156.643 79.2534 157.004C78.9897 157.365 78.6675 157.646 78.2866 157.846C77.9058 158.046 77.4688 158.146 76.9756 158.146C76.4727 158.146 76.0308 158.061 75.6499 157.89C75.2739 157.714 74.9565 157.463 74.6978 157.136C74.439 156.809 74.2314 156.413 74.0752 155.949C73.9238 155.485 73.8188 154.963 73.7603 154.382V153.708C73.8188 153.122 73.9238 152.597 74.0752 152.133C74.2314 151.669 74.439 151.274 74.6978 150.947C74.9565 150.615 75.2739 150.363 75.6499 150.192C76.0259 150.017 76.4629 149.929 76.9609 149.929C77.459 149.929 77.9009 150.026 78.2866 150.222C78.6724 150.412 78.9946 150.686 79.2534 151.042C79.5171 151.398 79.7173 151.826 79.854 152.324C79.9907 152.817 80.0591 153.366 80.0591 153.972ZM78.6968 154.125V153.972C78.6968 153.576 78.6602 153.205 78.5869 152.858C78.5137 152.507 78.3965 152.199 78.2354 151.936C78.0742 151.667 77.8618 151.457 77.5981 151.306C77.3345 151.149 77.0098 151.071 76.624 151.071C76.2822 151.071 75.9844 151.13 75.7305 151.247C75.4814 151.364 75.269 151.523 75.0933 151.723C74.9175 151.918 74.7734 152.143 74.6611 152.397C74.5537 152.646 74.4731 152.905 74.4194 153.173V154.938C74.4976 155.28 74.6245 155.61 74.8003 155.927C74.981 156.24 75.2202 156.496 75.5181 156.696C75.8208 156.896 76.1943 156.997 76.6387 156.997C77.0049 156.997 77.3174 156.923 77.5762 156.777C77.8398 156.625 78.0522 156.418 78.2134 156.154C78.3794 155.891 78.5015 155.585 78.5796 155.239C78.6577 154.892 78.6968 154.521 78.6968 154.125ZM92.166 156.85V158H86.834V156.85H92.166ZM87.1123 147.336V158H85.6987V147.336H87.1123ZM95.0518 150.075V158H93.6895V150.075H95.0518ZM93.5869 147.973C93.5869 147.753 93.6528 147.568 93.7847 147.417C93.9214 147.265 94.1216 147.189 94.3853 147.189C94.644 147.189 94.8418 147.265 94.9785 147.417C95.1201 147.568 95.1909 147.753 95.1909 147.973C95.1909 148.183 95.1201 148.364 94.9785 148.515C94.8418 148.662 94.644 148.735 94.3853 148.735C94.1216 148.735 93.9214 148.662 93.7847 148.515C93.6528 148.364 93.5869 148.183 93.5869 147.973ZM98.582 151.767V158H97.2271V150.075H98.5088L98.582 151.767ZM98.2598 153.737L97.6958 153.715C97.7007 153.173 97.7812 152.673 97.9375 152.214C98.0938 151.75 98.3135 151.347 98.5967 151.005C98.8799 150.664 99.2168 150.4 99.6074 150.214C100.003 150.024 100.44 149.929 100.918 149.929C101.309 149.929 101.661 149.982 101.973 150.09C102.286 150.192 102.552 150.358 102.771 150.588C102.996 150.817 103.167 151.115 103.284 151.481C103.401 151.843 103.46 152.285 103.46 152.807V158H102.098V152.792C102.098 152.377 102.037 152.045 101.915 151.796C101.792 151.542 101.614 151.359 101.38 151.247C101.146 151.13 100.857 151.071 100.516 151.071C100.179 151.071 99.8711 151.142 99.5928 151.284C99.3193 151.425 99.0825 151.621 98.8823 151.87C98.687 152.119 98.5332 152.404 98.4209 152.727C98.3135 153.044 98.2598 153.381 98.2598 153.737ZM106.88 146.75V158H105.518V146.75H106.88ZM111.722 150.075L108.265 153.774L106.331 155.781L106.221 154.338L107.605 152.683L110.066 150.075H111.722ZM110.484 158L107.657 154.221L108.36 153.012L112.081 158H110.484Z" fill="black"/>
<rect x="317" y="133" width="281" height="40" rx="3" fill="#E3E3E3"/>
<path d="M333.043 154.777L335.16 147.336H336.185L335.592 150.229L333.314 158H332.296L333.043 154.777ZM330.853 147.336L332.538 154.631L333.043 158H332.032L329.447 147.336H330.853ZM338.924 154.624L340.572 147.336H341.986L339.408 158H338.397L338.924 154.624ZM336.339 147.336L338.397 154.777L339.144 158H338.126L335.929 150.229L335.328 147.336H336.339ZM346.402 158.146C345.851 158.146 345.35 158.054 344.901 157.868C344.457 157.678 344.073 157.412 343.751 157.07C343.434 156.728 343.189 156.323 343.019 155.854C342.848 155.385 342.762 154.873 342.762 154.316V154.008C342.762 153.364 342.857 152.79 343.048 152.287C343.238 151.779 343.497 151.35 343.824 150.998C344.151 150.646 344.522 150.38 344.938 150.2C345.353 150.019 345.782 149.929 346.227 149.929C346.793 149.929 347.281 150.026 347.691 150.222C348.106 150.417 348.446 150.69 348.709 151.042C348.973 151.389 349.168 151.799 349.295 152.272C349.422 152.741 349.486 153.254 349.486 153.811V154.418H343.568V153.312H348.131V153.21C348.111 152.858 348.038 152.517 347.911 152.185C347.789 151.853 347.594 151.579 347.325 151.364C347.057 151.149 346.69 151.042 346.227 151.042C345.919 151.042 345.636 151.108 345.377 151.24C345.118 151.367 344.896 151.557 344.71 151.811C344.525 152.065 344.381 152.375 344.278 152.741C344.176 153.107 344.125 153.53 344.125 154.008V154.316C344.125 154.692 344.176 155.046 344.278 155.378C344.386 155.705 344.54 155.993 344.74 156.242C344.945 156.491 345.191 156.687 345.479 156.828C345.772 156.97 346.104 157.041 346.476 157.041C346.954 157.041 347.359 156.943 347.691 156.748C348.023 156.552 348.314 156.291 348.563 155.964L349.383 156.616C349.212 156.875 348.995 157.121 348.731 157.355C348.468 157.59 348.143 157.78 347.757 157.927C347.376 158.073 346.925 158.146 346.402 158.146ZM351.061 146.75H352.423V156.462L352.306 158H351.061V146.75ZM357.777 153.972V154.125C357.777 154.702 357.708 155.236 357.572 155.729C357.435 156.218 357.235 156.643 356.971 157.004C356.708 157.365 356.385 157.646 356.004 157.846C355.624 158.046 355.187 158.146 354.693 158.146C354.19 158.146 353.749 158.061 353.368 157.89C352.992 157.714 352.674 157.463 352.416 157.136C352.157 156.809 351.949 156.413 351.793 155.949C351.642 155.485 351.537 154.963 351.478 154.382V153.708C351.537 153.122 351.642 152.597 351.793 152.133C351.949 151.669 352.157 151.274 352.416 150.947C352.674 150.615 352.992 150.363 353.368 150.192C353.744 150.017 354.181 149.929 354.679 149.929C355.177 149.929 355.619 150.026 356.004 150.222C356.39 150.412 356.712 150.686 356.971 151.042C357.235 151.398 357.435 151.826 357.572 152.324C357.708 152.817 357.777 153.366 357.777 153.972ZM356.415 154.125V153.972C356.415 153.576 356.378 153.205 356.305 152.858C356.231 152.507 356.114 152.199 355.953 151.936C355.792 151.667 355.58 151.457 355.316 151.306C355.052 151.149 354.728 151.071 354.342 151.071C354 151.071 353.702 151.13 353.448 151.247C353.199 151.364 352.987 151.523 352.811 151.723C352.635 151.918 352.491 152.143 352.379 152.397C352.271 152.646 352.191 152.905 352.137 153.173V154.938C352.215 155.28 352.342 155.61 352.518 155.927C352.699 156.24 352.938 156.496 353.236 156.696C353.539 156.896 353.912 156.997 354.356 156.997C354.723 156.997 355.035 156.923 355.294 156.777C355.558 156.625 355.77 156.418 355.931 156.154C356.097 155.891 356.219 155.585 356.297 155.239C356.375 154.892 356.415 154.521 356.415 154.125ZM364.105 155.898C364.105 155.703 364.061 155.522 363.973 155.356C363.89 155.185 363.717 155.031 363.453 154.895C363.194 154.753 362.804 154.631 362.281 154.528C361.842 154.436 361.444 154.326 361.087 154.199C360.736 154.072 360.436 153.918 360.187 153.737C359.942 153.557 359.754 153.344 359.623 153.1C359.491 152.856 359.425 152.57 359.425 152.243C359.425 151.931 359.493 151.635 359.63 151.357C359.771 151.079 359.969 150.832 360.223 150.617C360.482 150.402 360.792 150.234 361.153 150.112C361.515 149.99 361.917 149.929 362.362 149.929C362.997 149.929 363.539 150.041 363.988 150.266C364.437 150.49 364.781 150.791 365.021 151.167C365.26 151.538 365.379 151.95 365.379 152.404H364.024C364.024 152.185 363.958 151.972 363.827 151.767C363.7 151.557 363.512 151.384 363.263 151.247C363.019 151.11 362.718 151.042 362.362 151.042C361.986 151.042 361.681 151.101 361.446 151.218C361.217 151.33 361.048 151.474 360.941 151.65C360.838 151.826 360.787 152.011 360.787 152.207C360.787 152.353 360.812 152.485 360.86 152.602C360.914 152.714 361.007 152.819 361.139 152.917C361.271 153.01 361.456 153.098 361.695 153.181C361.935 153.264 362.24 153.347 362.611 153.43C363.26 153.576 363.795 153.752 364.215 153.957C364.635 154.162 364.947 154.414 365.152 154.711C365.357 155.009 365.46 155.371 365.46 155.795C365.46 156.142 365.387 156.459 365.24 156.748C365.099 157.036 364.891 157.285 364.618 157.495C364.349 157.7 364.027 157.861 363.651 157.978C363.28 158.09 362.862 158.146 362.398 158.146C361.7 158.146 361.109 158.022 360.626 157.773C360.143 157.524 359.776 157.202 359.527 156.806C359.278 156.411 359.154 155.993 359.154 155.554H360.516C360.536 155.925 360.643 156.22 360.838 156.44C361.034 156.655 361.273 156.809 361.556 156.901C361.839 156.989 362.12 157.033 362.398 157.033C362.77 157.033 363.08 156.984 363.329 156.887C363.583 156.789 363.775 156.655 363.907 156.484C364.039 156.313 364.105 156.118 364.105 155.898ZM368.712 150.075V158H367.35V150.075H368.712ZM367.247 147.973C367.247 147.753 367.313 147.568 367.445 147.417C367.582 147.265 367.782 147.189 368.045 147.189C368.304 147.189 368.502 147.265 368.639 147.417C368.78 147.568 368.851 147.753 368.851 147.973C368.851 148.183 368.78 148.364 368.639 148.515C368.502 148.662 368.304 148.735 368.045 148.735C367.782 148.735 367.582 148.662 367.445 148.515C367.313 148.364 367.247 148.183 367.247 147.973ZM374.205 150.075V151.115H369.92V150.075H374.205ZM371.371 148.149H372.726V156.037C372.726 156.306 372.767 156.508 372.85 156.645C372.933 156.782 373.041 156.872 373.172 156.916C373.304 156.96 373.446 156.982 373.597 156.982C373.709 156.982 373.827 156.972 373.949 156.953C374.076 156.928 374.171 156.909 374.234 156.894L374.242 158C374.134 158.034 373.993 158.066 373.817 158.095C373.646 158.129 373.438 158.146 373.194 158.146C372.862 158.146 372.557 158.081 372.279 157.949C372 157.817 371.778 157.597 371.612 157.29C371.451 156.977 371.371 156.557 371.371 156.03V148.149ZM379.083 158.146C378.531 158.146 378.031 158.054 377.582 157.868C377.137 157.678 376.754 157.412 376.432 157.07C376.114 156.728 375.87 156.323 375.699 155.854C375.528 155.385 375.443 154.873 375.443 154.316V154.008C375.443 153.364 375.538 152.79 375.729 152.287C375.919 151.779 376.178 151.35 376.505 150.998C376.832 150.646 377.203 150.38 377.618 150.2C378.033 150.019 378.463 149.929 378.907 149.929C379.474 149.929 379.962 150.026 380.372 150.222C380.787 150.417 381.126 150.69 381.39 151.042C381.654 151.389 381.849 151.799 381.976 152.272C382.103 152.741 382.167 153.254 382.167 153.811V154.418H376.249V153.312H380.812V153.21C380.792 152.858 380.719 152.517 380.592 152.185C380.47 151.853 380.274 151.579 380.006 151.364C379.737 151.149 379.371 151.042 378.907 151.042C378.6 151.042 378.316 151.108 378.058 151.24C377.799 151.367 377.577 151.557 377.391 151.811C377.206 152.065 377.062 152.375 376.959 152.741C376.856 153.107 376.805 153.53 376.805 154.008V154.316C376.805 154.692 376.856 155.046 376.959 155.378C377.066 155.705 377.22 155.993 377.42 156.242C377.625 156.491 377.872 156.687 378.16 156.828C378.453 156.97 378.785 157.041 379.156 157.041C379.635 157.041 380.04 156.943 380.372 156.748C380.704 156.552 380.995 156.291 381.244 155.964L382.064 156.616C381.893 156.875 381.676 157.121 381.412 157.355C381.148 157.59 380.824 157.78 380.438 157.927C380.057 158.073 379.605 158.146 379.083 158.146ZM394.142 156.85V158H388.81V156.85H394.142ZM389.088 147.336V158H387.674V147.336H389.088ZM397.027 150.075V158H395.665V150.075H397.027ZM395.562 147.973C395.562 147.753 395.628 147.568 395.76 147.417C395.897 147.265 396.097 147.189 396.361 147.189C396.62 147.189 396.817 147.265 396.954 147.417C397.096 147.568 397.167 147.753 397.167 147.973C397.167 148.183 397.096 148.364 396.954 148.515C396.817 148.662 396.62 148.735 396.361 148.735C396.097 148.735 395.897 148.662 395.76 148.515C395.628 148.364 395.562 148.183 395.562 147.973ZM400.558 151.767V158H399.203V150.075H400.484L400.558 151.767ZM400.235 153.737L399.671 153.715C399.676 153.173 399.757 152.673 399.913 152.214C400.069 151.75 400.289 151.347 400.572 151.005C400.855 150.664 401.192 150.4 401.583 150.214C401.979 150.024 402.416 149.929 402.894 149.929C403.285 149.929 403.636 149.982 403.949 150.09C404.261 150.192 404.527 150.358 404.747 150.588C404.972 150.817 405.143 151.115 405.26 151.481C405.377 151.843 405.436 152.285 405.436 152.807V158H404.073V152.792C404.073 152.377 404.012 152.045 403.89 151.796C403.768 151.542 403.59 151.359 403.355 151.247C403.121 151.13 402.833 151.071 402.491 151.071C402.154 151.071 401.847 151.142 401.568 151.284C401.295 151.425 401.058 151.621 400.858 151.87C400.663 152.119 400.509 152.404 400.396 152.727C400.289 153.044 400.235 153.381 400.235 153.737ZM408.856 146.75V158H407.494V146.75H408.856ZM413.697 150.075L410.24 153.774L408.307 155.781L408.197 154.338L409.581 152.683L412.042 150.075H413.697ZM412.459 158L409.632 154.221L410.335 153.012L414.056 158H412.459Z" fill="black"/>
</svg>
