<svg width="625" height="202" viewBox="0 0 625 202" fill="none" xmlns="http://www.w3.org/2000/svg">
<g filter="url(#filter0_d_16_128)">
<path d="M9 0.5H616C618.485 0.5 620.5 2.51472 620.5 5V189C620.5 191.485 618.485 193.5 616 193.5H9C6.51472 193.5 4.5 191.485 4.5 189V4.99999C4.5 2.51471 6.51472 0.5 9 0.5Z" fill="white" stroke="#B2B0B0"/>
<rect x="24" y="23" width="578" height="40" rx="3" fill="#E3E3E3"/>
<path d="M46.1709 43.8179H43.3218V42.668H46.1709C46.7227 42.668 47.1694 42.5801 47.5112 42.4043C47.853 42.2285 48.1021 41.9844 48.2583 41.6719C48.4194 41.3594 48.5 41.0029 48.5 40.6025C48.5 40.2363 48.4194 39.8921 48.2583 39.5698C48.1021 39.2476 47.853 38.9888 47.5112 38.7935C47.1694 38.5933 46.7227 38.4932 46.1709 38.4932H43.6514V48H42.2378V37.3359H46.1709C46.9766 37.3359 47.6577 37.4751 48.2144 37.7534C48.771 38.0317 49.1934 38.4175 49.4814 38.9106C49.7695 39.3989 49.9136 39.958 49.9136 40.5879C49.9136 41.2715 49.7695 41.855 49.4814 42.3384C49.1934 42.8218 48.771 43.1904 48.2144 43.4443C47.6577 43.6934 46.9766 43.8179 46.1709 43.8179ZM52.8506 41.3203V48H51.4956V40.0752H52.814L52.8506 41.3203ZM55.3262 40.0312L55.3188 41.291C55.2065 41.2666 55.0991 41.252 54.9966 41.2471C54.8989 41.2373 54.7866 41.2324 54.6597 41.2324C54.3472 41.2324 54.0713 41.2812 53.832 41.3789C53.5928 41.4766 53.3901 41.6133 53.2241 41.7891C53.0581 41.9648 52.9263 42.1748 52.8286 42.4189C52.7358 42.6582 52.6748 42.9219 52.6455 43.21L52.2646 43.4297C52.2646 42.9512 52.311 42.502 52.4038 42.082C52.5015 41.6621 52.6504 41.291 52.8506 40.9688C53.0508 40.6416 53.3047 40.3877 53.6123 40.207C53.9248 40.0215 54.2959 39.9287 54.7256 39.9287C54.8232 39.9287 54.9355 39.9409 55.0625 39.9653C55.1895 39.9849 55.2773 40.0068 55.3262 40.0312ZM56.0732 44.1255V43.957C56.0732 43.3857 56.1562 42.856 56.3223 42.3677C56.4883 41.8745 56.7275 41.4473 57.04 41.0859C57.3525 40.7197 57.731 40.4365 58.1753 40.2363C58.6196 40.0312 59.1177 39.9287 59.6694 39.9287C60.2261 39.9287 60.7266 40.0312 61.1709 40.2363C61.6201 40.4365 62.001 40.7197 62.3135 41.0859C62.6309 41.4473 62.8726 41.8745 63.0386 42.3677C63.2046 42.856 63.2876 43.3857 63.2876 43.957V44.1255C63.2876 44.6968 63.2046 45.2266 63.0386 45.7148C62.8726 46.2031 62.6309 46.6304 62.3135 46.9966C62.001 47.3579 61.6226 47.6411 61.1782 47.8462C60.7388 48.0464 60.2407 48.1465 59.6841 48.1465C59.1274 48.1465 58.627 48.0464 58.1826 47.8462C57.7383 47.6411 57.3574 47.3579 57.04 46.9966C56.7275 46.6304 56.4883 46.2031 56.3223 45.7148C56.1562 45.2266 56.0732 44.6968 56.0732 44.1255ZM57.4282 43.957V44.1255C57.4282 44.521 57.4746 44.8945 57.5674 45.2461C57.6602 45.5928 57.7993 45.9004 57.9849 46.1689C58.1753 46.4375 58.4121 46.6499 58.6953 46.8062C58.9785 46.9575 59.3081 47.0332 59.6841 47.0332C60.0552 47.0332 60.3799 46.9575 60.6582 46.8062C60.9414 46.6499 61.1758 46.4375 61.3613 46.1689C61.5469 45.9004 61.686 45.5928 61.7788 45.2461C61.8765 44.8945 61.9253 44.521 61.9253 44.1255V43.957C61.9253 43.5664 61.8765 43.1978 61.7788 42.8511C61.686 42.4995 61.5444 42.1895 61.354 41.9209C61.1685 41.6475 60.9341 41.4326 60.6509 41.2764C60.3726 41.1201 60.0454 41.042 59.6694 41.042C59.2983 41.042 58.9712 41.1201 58.688 41.2764C58.4097 41.4326 58.1753 41.6475 57.9849 41.9209C57.7993 42.1895 57.6602 42.4995 57.5674 42.8511C57.4746 43.1978 57.4282 43.5664 57.4282 43.957ZM65.0234 40.0752H66.3857V48.9448C66.3857 49.4282 66.3076 49.8384 66.1514 50.1753C66 50.5122 65.7705 50.7661 65.4629 50.937C65.1602 51.1128 64.7769 51.2007 64.313 51.2007C64.1909 51.2007 64.0493 51.1885 63.8882 51.1641C63.7222 51.1396 63.583 51.1104 63.4707 51.0762L63.478 49.9849C63.5708 50.0044 63.6758 50.019 63.793 50.0288C63.9102 50.0435 64.0127 50.0508 64.1006 50.0508C64.3008 50.0508 64.4692 50.0142 64.606 49.9409C64.7427 49.8677 64.8452 49.7505 64.9136 49.5894C64.9868 49.4282 65.0234 49.2134 65.0234 48.9448V40.0752ZM64.8843 37.9731C64.8843 37.7534 64.9526 37.5679 65.0894 37.4165C65.2261 37.2651 65.4238 37.1895 65.6826 37.1895C65.9463 37.1895 66.1465 37.2651 66.2832 37.4165C66.4199 37.5679 66.4883 37.7534 66.4883 37.9731C66.4883 38.1831 66.4199 38.3638 66.2832 38.5151C66.1465 38.6616 65.9463 38.7349 65.6826 38.7349C65.4238 38.7349 65.2261 38.6616 65.0894 38.5151C64.9526 38.3638 64.8843 38.1831 64.8843 37.9731ZM71.8643 48.1465C71.3125 48.1465 70.812 48.0537 70.3628 47.8682C69.9185 47.6777 69.5352 47.4116 69.2129 47.0698C68.8955 46.728 68.6514 46.3228 68.4805 45.854C68.3096 45.3853 68.2241 44.8726 68.2241 44.3159V44.0083C68.2241 43.3638 68.3193 42.79 68.5098 42.2871C68.7002 41.7793 68.959 41.3496 69.2861 40.998C69.6133 40.6465 69.9844 40.3804 70.3994 40.1997C70.8145 40.019 71.2441 39.9287 71.6885 39.9287C72.2549 39.9287 72.7432 40.0264 73.1533 40.2217C73.5684 40.417 73.9077 40.6904 74.1714 41.042C74.4351 41.3887 74.6304 41.7988 74.7573 42.2725C74.8843 42.7412 74.9478 43.2539 74.9478 43.8105V44.4185H69.0298V43.3125H73.5928V43.21C73.5732 42.8584 73.5 42.5166 73.373 42.1846C73.251 41.8525 73.0557 41.5791 72.7871 41.3643C72.5186 41.1494 72.1523 41.042 71.6885 41.042C71.3809 41.042 71.0977 41.1079 70.8389 41.2397C70.5801 41.3667 70.3579 41.5571 70.1724 41.811C69.9868 42.0649 69.8428 42.375 69.7402 42.7412C69.6377 43.1074 69.5864 43.5298 69.5864 44.0083V44.3159C69.5864 44.6919 69.6377 45.0459 69.7402 45.3779C69.8477 45.7051 70.0015 45.9932 70.2017 46.2422C70.4067 46.4912 70.6533 46.6865 70.9414 46.8281C71.2344 46.9697 71.5664 47.0405 71.9375 47.0405C72.416 47.0405 72.8213 46.9429 73.1533 46.7476C73.4854 46.5522 73.7759 46.291 74.0249 45.9639L74.8452 46.6157C74.6743 46.8745 74.457 47.1211 74.1934 47.3555C73.9297 47.5898 73.605 47.7803 73.2192 47.9268C72.8384 48.0732 72.3867 48.1465 71.8643 48.1465ZM79.7012 47.0332C80.0234 47.0332 80.3213 46.9673 80.5947 46.8354C80.8682 46.7036 81.0928 46.5229 81.2686 46.2935C81.4443 46.0591 81.5444 45.793 81.5688 45.4951H82.8579C82.8335 45.9639 82.6748 46.4009 82.3818 46.8062C82.0938 47.2065 81.7153 47.5312 81.2466 47.7803C80.7778 48.0244 80.2627 48.1465 79.7012 48.1465C79.1055 48.1465 78.5854 48.0415 78.1411 47.8315C77.7017 47.6216 77.3354 47.3335 77.0425 46.9673C76.7544 46.6011 76.5371 46.1812 76.3906 45.7075C76.249 45.229 76.1782 44.7236 76.1782 44.1914V43.8838C76.1782 43.3516 76.249 42.8486 76.3906 42.375C76.5371 41.8965 76.7544 41.4741 77.0425 41.1079C77.3354 40.7417 77.7017 40.4536 78.1411 40.2437C78.5854 40.0337 79.1055 39.9287 79.7012 39.9287C80.3213 39.9287 80.8633 40.0557 81.3271 40.3096C81.791 40.5586 82.1548 40.9004 82.4185 41.335C82.687 41.7646 82.8335 42.2529 82.8579 42.7998H81.5688C81.5444 42.4727 81.4517 42.1772 81.2905 41.9136C81.1343 41.6499 80.9194 41.4399 80.646 41.2837C80.3774 41.1226 80.0625 41.042 79.7012 41.042C79.2861 41.042 78.937 41.125 78.6538 41.291C78.3755 41.4521 78.1533 41.6719 77.9873 41.9502C77.8262 42.2236 77.709 42.5288 77.6357 42.8657C77.5674 43.1978 77.5332 43.5371 77.5332 43.8838V44.1914C77.5332 44.5381 77.5674 44.8799 77.6357 45.2168C77.7041 45.5537 77.8188 45.8589 77.98 46.1323C78.146 46.4058 78.3682 46.6255 78.6465 46.7915C78.9297 46.9526 79.2812 47.0332 79.7012 47.0332ZM87.6992 40.0752V41.1152H83.4146V40.0752H87.6992ZM84.8647 38.1489H86.2197V46.0371C86.2197 46.3057 86.2612 46.5083 86.3442 46.645C86.4272 46.7817 86.5347 46.8721 86.6665 46.916C86.7983 46.96 86.9399 46.9819 87.0913 46.9819C87.2036 46.9819 87.3208 46.9722 87.4429 46.9526C87.5698 46.9282 87.665 46.9087 87.7285 46.894L87.7358 48C87.6284 48.0342 87.4868 48.0659 87.311 48.0952C87.1401 48.1294 86.9326 48.1465 86.6885 48.1465C86.3564 48.1465 86.0513 48.0806 85.7729 47.9487C85.4946 47.8169 85.2725 47.5972 85.1064 47.2896C84.9453 46.9771 84.8647 46.5571 84.8647 46.0298V38.1489ZM96.8618 37.3359V48H95.4702V37.3359H96.8618ZM100.29 37.3359V38.4932H92.0498V37.3359H100.29ZM103.139 40.0752V48H101.776V40.0752H103.139ZM101.674 37.9731C101.674 37.7534 101.74 37.5679 101.872 37.4165C102.008 37.2651 102.208 37.1895 102.472 37.1895C102.731 37.1895 102.929 37.2651 103.065 37.4165C103.207 37.5679 103.278 37.7534 103.278 37.9731C103.278 38.1831 103.207 38.3638 103.065 38.5151C102.929 38.6616 102.731 38.7349 102.472 38.7349C102.208 38.7349 102.008 38.6616 101.872 38.5151C101.74 38.3638 101.674 38.1831 101.674 37.9731ZM108.632 40.0752V41.1152H104.347V40.0752H108.632ZM105.797 38.1489H107.152V46.0371C107.152 46.3057 107.194 46.5083 107.277 46.645C107.36 46.7817 107.467 46.8721 107.599 46.916C107.731 46.96 107.873 46.9819 108.024 46.9819C108.136 46.9819 108.253 46.9722 108.375 46.9526C108.502 46.9282 108.598 46.9087 108.661 46.894L108.668 48C108.561 48.0342 108.419 48.0659 108.244 48.0952C108.073 48.1294 107.865 48.1465 107.621 48.1465C107.289 48.1465 106.984 48.0806 106.706 47.9487C106.427 47.8169 106.205 47.5972 106.039 47.2896C105.878 46.9771 105.797 46.5571 105.797 46.0298V38.1489ZM111.693 36.75V48H110.331V36.75H111.693ZM117.157 48.1465C116.605 48.1465 116.105 48.0537 115.656 47.8682C115.211 47.6777 114.828 47.4116 114.506 47.0698C114.188 46.728 113.944 46.3228 113.773 45.854C113.603 45.3853 113.517 44.8726 113.517 44.3159V44.0083C113.517 43.3638 113.612 42.79 113.803 42.2871C113.993 41.7793 114.252 41.3496 114.579 40.998C114.906 40.6465 115.277 40.3804 115.692 40.1997C116.107 40.019 116.537 39.9287 116.981 39.9287C117.548 39.9287 118.036 40.0264 118.446 40.2217C118.861 40.417 119.201 40.6904 119.464 41.042C119.728 41.3887 119.923 41.7988 120.05 42.2725C120.177 42.7412 120.241 43.2539 120.241 43.8105V44.4185H114.323V43.3125H118.886V43.21C118.866 42.8584 118.793 42.5166 118.666 42.1846C118.544 41.8525 118.349 41.5791 118.08 41.3643C117.812 41.1494 117.445 41.042 116.981 41.042C116.674 41.042 116.391 41.1079 116.132 41.2397C115.873 41.3667 115.651 41.5571 115.465 41.811C115.28 42.0649 115.136 42.375 115.033 42.7412C114.931 43.1074 114.879 43.5298 114.879 44.0083V44.3159C114.879 44.6919 114.931 45.0459 115.033 45.3779C115.141 45.7051 115.294 45.9932 115.495 46.2422C115.7 46.4912 115.946 46.6865 116.234 46.8281C116.527 46.9697 116.859 47.0405 117.23 47.0405C117.709 47.0405 118.114 46.9429 118.446 46.7476C118.778 46.5522 119.069 46.291 119.318 45.9639L120.138 46.6157C119.967 46.8745 119.75 47.1211 119.486 47.3555C119.223 47.5898 118.898 47.7803 118.512 47.9268C118.131 48.0732 117.68 48.1465 117.157 48.1465Z" fill="black"/>
<rect x="24" y="78" width="578" height="40" rx="3" fill="#E3E3E3"/>
<path d="M46.1709 98.8179H43.3218V97.668H46.1709C46.7227 97.668 47.1694 97.5801 47.5112 97.4043C47.853 97.2285 48.1021 96.9844 48.2583 96.6719C48.4194 96.3594 48.5 96.0029 48.5 95.6025C48.5 95.2363 48.4194 94.8921 48.2583 94.5698C48.1021 94.2476 47.853 93.9888 47.5112 93.7935C47.1694 93.5933 46.7227 93.4932 46.1709 93.4932H43.6514V103H42.2378V92.3359H46.1709C46.9766 92.3359 47.6577 92.4751 48.2144 92.7534C48.771 93.0317 49.1934 93.4175 49.4814 93.9106C49.7695 94.3989 49.9136 94.958 49.9136 95.5879C49.9136 96.2715 49.7695 96.855 49.4814 97.3384C49.1934 97.8218 48.771 98.1904 48.2144 98.4443C47.6577 98.6934 46.9766 98.8179 46.1709 98.8179ZM52.8506 96.3203V103H51.4956V95.0752H52.814L52.8506 96.3203ZM55.3262 95.0312L55.3188 96.291C55.2065 96.2666 55.0991 96.252 54.9966 96.2471C54.8989 96.2373 54.7866 96.2324 54.6597 96.2324C54.3472 96.2324 54.0713 96.2812 53.832 96.3789C53.5928 96.4766 53.3901 96.6133 53.2241 96.7891C53.0581 96.9648 52.9263 97.1748 52.8286 97.4189C52.7358 97.6582 52.6748 97.9219 52.6455 98.21L52.2646 98.4297C52.2646 97.9512 52.311 97.502 52.4038 97.082C52.5015 96.6621 52.6504 96.291 52.8506 95.9688C53.0508 95.6416 53.3047 95.3877 53.6123 95.207C53.9248 95.0215 54.2959 94.9287 54.7256 94.9287C54.8232 94.9287 54.9355 94.9409 55.0625 94.9653C55.1895 94.9849 55.2773 95.0068 55.3262 95.0312ZM56.0732 99.1255V98.957C56.0732 98.3857 56.1562 97.856 56.3223 97.3677C56.4883 96.8745 56.7275 96.4473 57.04 96.0859C57.3525 95.7197 57.731 95.4365 58.1753 95.2363C58.6196 95.0312 59.1177 94.9287 59.6694 94.9287C60.2261 94.9287 60.7266 95.0312 61.1709 95.2363C61.6201 95.4365 62.001 95.7197 62.3135 96.0859C62.6309 96.4473 62.8726 96.8745 63.0386 97.3677C63.2046 97.856 63.2876 98.3857 63.2876 98.957V99.1255C63.2876 99.6968 63.2046 100.227 63.0386 100.715C62.8726 101.203 62.6309 101.63 62.3135 101.997C62.001 102.358 61.6226 102.641 61.1782 102.846C60.7388 103.046 60.2407 103.146 59.6841 103.146C59.1274 103.146 58.627 103.046 58.1826 102.846C57.7383 102.641 57.3574 102.358 57.04 101.997C56.7275 101.63 56.4883 101.203 56.3223 100.715C56.1562 100.227 56.0732 99.6968 56.0732 99.1255ZM57.4282 98.957V99.1255C57.4282 99.521 57.4746 99.8945 57.5674 100.246C57.6602 100.593 57.7993 100.9 57.9849 101.169C58.1753 101.438 58.4121 101.65 58.6953 101.806C58.9785 101.958 59.3081 102.033 59.6841 102.033C60.0552 102.033 60.3799 101.958 60.6582 101.806C60.9414 101.65 61.1758 101.438 61.3613 101.169C61.5469 100.9 61.686 100.593 61.7788 100.246C61.8765 99.8945 61.9253 99.521 61.9253 99.1255V98.957C61.9253 98.5664 61.8765 98.1978 61.7788 97.8511C61.686 97.4995 61.5444 97.1895 61.354 96.9209C61.1685 96.6475 60.9341 96.4326 60.6509 96.2764C60.3726 96.1201 60.0454 96.042 59.6694 96.042C59.2983 96.042 58.9712 96.1201 58.688 96.2764C58.4097 96.4326 58.1753 96.6475 57.9849 96.9209C57.7993 97.1895 57.6602 97.4995 57.5674 97.8511C57.4746 98.1978 57.4282 98.5664 57.4282 98.957ZM65.0234 95.0752H66.3857V103.945C66.3857 104.428 66.3076 104.838 66.1514 105.175C66 105.512 65.7705 105.766 65.4629 105.937C65.1602 106.113 64.7769 106.201 64.313 106.201C64.1909 106.201 64.0493 106.188 63.8882 106.164C63.7222 106.14 63.583 106.11 63.4707 106.076L63.478 104.985C63.5708 105.004 63.6758 105.019 63.793 105.029C63.9102 105.043 64.0127 105.051 64.1006 105.051C64.3008 105.051 64.4692 105.014 64.606 104.941C64.7427 104.868 64.8452 104.75 64.9136 104.589C64.9868 104.428 65.0234 104.213 65.0234 103.945V95.0752ZM64.8843 92.9731C64.8843 92.7534 64.9526 92.5679 65.0894 92.4165C65.2261 92.2651 65.4238 92.1895 65.6826 92.1895C65.9463 92.1895 66.1465 92.2651 66.2832 92.4165C66.4199 92.5679 66.4883 92.7534 66.4883 92.9731C66.4883 93.1831 66.4199 93.3638 66.2832 93.5151C66.1465 93.6616 65.9463 93.7349 65.6826 93.7349C65.4238 93.7349 65.2261 93.6616 65.0894 93.5151C64.9526 93.3638 64.8843 93.1831 64.8843 92.9731ZM71.8643 103.146C71.3125 103.146 70.812 103.054 70.3628 102.868C69.9185 102.678 69.5352 102.412 69.2129 102.07C68.8955 101.728 68.6514 101.323 68.4805 100.854C68.3096 100.385 68.2241 99.8726 68.2241 99.3159V99.0083C68.2241 98.3638 68.3193 97.79 68.5098 97.2871C68.7002 96.7793 68.959 96.3496 69.2861 95.998C69.6133 95.6465 69.9844 95.3804 70.3994 95.1997C70.8145 95.019 71.2441 94.9287 71.6885 94.9287C72.2549 94.9287 72.7432 95.0264 73.1533 95.2217C73.5684 95.417 73.9077 95.6904 74.1714 96.042C74.4351 96.3887 74.6304 96.7988 74.7573 97.2725C74.8843 97.7412 74.9478 98.2539 74.9478 98.8105V99.4185H69.0298V98.3125H73.5928V98.21C73.5732 97.8584 73.5 97.5166 73.373 97.1846C73.251 96.8525 73.0557 96.5791 72.7871 96.3643C72.5186 96.1494 72.1523 96.042 71.6885 96.042C71.3809 96.042 71.0977 96.1079 70.8389 96.2397C70.5801 96.3667 70.3579 96.5571 70.1724 96.811C69.9868 97.0649 69.8428 97.375 69.7402 97.7412C69.6377 98.1074 69.5864 98.5298 69.5864 99.0083V99.3159C69.5864 99.6919 69.6377 100.046 69.7402 100.378C69.8477 100.705 70.0015 100.993 70.2017 101.242C70.4067 101.491 70.6533 101.687 70.9414 101.828C71.2344 101.97 71.5664 102.041 71.9375 102.041C72.416 102.041 72.8213 101.943 73.1533 101.748C73.4854 101.552 73.7759 101.291 74.0249 100.964L74.8452 101.616C74.6743 101.875 74.457 102.121 74.1934 102.355C73.9297 102.59 73.605 102.78 73.2192 102.927C72.8384 103.073 72.3867 103.146 71.8643 103.146ZM79.7012 102.033C80.0234 102.033 80.3213 101.967 80.5947 101.835C80.8682 101.704 81.0928 101.523 81.2686 101.293C81.4443 101.059 81.5444 100.793 81.5688 100.495H82.8579C82.8335 100.964 82.6748 101.401 82.3818 101.806C82.0938 102.207 81.7153 102.531 81.2466 102.78C80.7778 103.024 80.2627 103.146 79.7012 103.146C79.1055 103.146 78.5854 103.042 78.1411 102.832C77.7017 102.622 77.3354 102.333 77.0425 101.967C76.7544 101.601 76.5371 101.181 76.3906 100.708C76.249 100.229 76.1782 99.7236 76.1782 99.1914V98.8838C76.1782 98.3516 76.249 97.8486 76.3906 97.375C76.5371 96.8965 76.7544 96.4741 77.0425 96.1079C77.3354 95.7417 77.7017 95.4536 78.1411 95.2437C78.5854 95.0337 79.1055 94.9287 79.7012 94.9287C80.3213 94.9287 80.8633 95.0557 81.3271 95.3096C81.791 95.5586 82.1548 95.9004 82.4185 96.335C82.687 96.7646 82.8335 97.2529 82.8579 97.7998H81.5688C81.5444 97.4727 81.4517 97.1772 81.2905 96.9136C81.1343 96.6499 80.9194 96.4399 80.646 96.2837C80.3774 96.1226 80.0625 96.042 79.7012 96.042C79.2861 96.042 78.937 96.125 78.6538 96.291C78.3755 96.4521 78.1533 96.6719 77.9873 96.9502C77.8262 97.2236 77.709 97.5288 77.6357 97.8657C77.5674 98.1978 77.5332 98.5371 77.5332 98.8838V99.1914C77.5332 99.5381 77.5674 99.8799 77.6357 100.217C77.7041 100.554 77.8188 100.859 77.98 101.132C78.146 101.406 78.3682 101.625 78.6465 101.792C78.9297 101.953 79.2812 102.033 79.7012 102.033ZM87.6992 95.0752V96.1152H83.4146V95.0752H87.6992ZM84.8647 93.1489H86.2197V101.037C86.2197 101.306 86.2612 101.508 86.3442 101.645C86.4272 101.782 86.5347 101.872 86.6665 101.916C86.7983 101.96 86.9399 101.982 87.0913 101.982C87.2036 101.982 87.3208 101.972 87.4429 101.953C87.5698 101.928 87.665 101.909 87.7285 101.894L87.7358 103C87.6284 103.034 87.4868 103.066 87.311 103.095C87.1401 103.129 86.9326 103.146 86.6885 103.146C86.3564 103.146 86.0513 103.081 85.7729 102.949C85.4946 102.817 85.2725 102.597 85.1064 102.29C84.9453 101.977 84.8647 101.557 84.8647 101.03V93.1489ZM96.1001 103H93.8735L93.8882 101.85H96.1001C96.8618 101.85 97.4966 101.691 98.0044 101.374C98.5122 101.052 98.8931 100.603 99.147 100.026C99.4058 99.4453 99.5352 98.7666 99.5352 97.9902V97.3384C99.5352 96.728 99.4619 96.186 99.3154 95.7124C99.1689 95.2339 98.9541 94.8311 98.6709 94.5039C98.3877 94.1719 98.041 93.9204 97.6309 93.7495C97.2256 93.5786 96.7593 93.4932 96.2319 93.4932H93.8296V92.3359H96.2319C96.9302 92.3359 97.5674 92.4531 98.1436 92.6875C98.7197 92.917 99.2153 93.2515 99.6304 93.6909C100.05 94.1255 100.373 94.6528 100.597 95.2729C100.822 95.8882 100.934 96.5815 100.934 97.353V97.9902C100.934 98.7617 100.822 99.4575 100.597 100.078C100.373 100.693 100.048 101.218 99.623 101.652C99.2031 102.087 98.6953 102.421 98.0996 102.656C97.5088 102.885 96.8423 103 96.1001 103ZM94.6279 92.3359V103H93.2144V92.3359H94.6279ZM106.142 103.146C105.59 103.146 105.089 103.054 104.64 102.868C104.196 102.678 103.812 102.412 103.49 102.07C103.173 101.728 102.929 101.323 102.758 100.854C102.587 100.385 102.501 99.8726 102.501 99.3159V99.0083C102.501 98.3638 102.597 97.79 102.787 97.2871C102.978 96.7793 103.236 96.3496 103.563 95.998C103.891 95.6465 104.262 95.3804 104.677 95.1997C105.092 95.019 105.521 94.9287 105.966 94.9287C106.532 94.9287 107.021 95.0264 107.431 95.2217C107.846 95.417 108.185 95.6904 108.449 96.042C108.712 96.3887 108.908 96.7988 109.035 97.2725C109.162 97.7412 109.225 98.2539 109.225 98.8105V99.4185H103.307V98.3125H107.87V98.21C107.851 97.8584 107.777 97.5166 107.65 97.1846C107.528 96.8525 107.333 96.5791 107.064 96.3643C106.796 96.1494 106.43 96.042 105.966 96.042C105.658 96.042 105.375 96.1079 105.116 96.2397C104.857 96.3667 104.635 96.5571 104.45 96.811C104.264 97.0649 104.12 97.375 104.018 97.7412C103.915 98.1074 103.864 98.5298 103.864 99.0083V99.3159C103.864 99.6919 103.915 100.046 104.018 100.378C104.125 100.705 104.279 100.993 104.479 101.242C104.684 101.491 104.931 101.687 105.219 101.828C105.512 101.97 105.844 102.041 106.215 102.041C106.693 102.041 107.099 101.943 107.431 101.748C107.763 101.552 108.053 101.291 108.302 100.964L109.123 101.616C108.952 101.875 108.734 102.121 108.471 102.355C108.207 102.59 107.882 102.78 107.497 102.927C107.116 103.073 106.664 103.146 106.142 103.146ZM115.421 100.898C115.421 100.703 115.377 100.522 115.29 100.356C115.207 100.185 115.033 100.031 114.77 99.8945C114.511 99.7529 114.12 99.6309 113.598 99.5283C113.158 99.4355 112.76 99.3257 112.404 99.1987C112.052 99.0718 111.752 98.918 111.503 98.7373C111.259 98.5566 111.071 98.3442 110.939 98.1001C110.807 97.856 110.741 97.5703 110.741 97.2432C110.741 96.9307 110.81 96.6353 110.946 96.3569C111.088 96.0786 111.286 95.832 111.54 95.6172C111.798 95.4023 112.108 95.2339 112.47 95.1118C112.831 94.9897 113.234 94.9287 113.678 94.9287C114.313 94.9287 114.855 95.041 115.304 95.2656C115.753 95.4902 116.098 95.7905 116.337 96.1665C116.576 96.5376 116.696 96.9502 116.696 97.4043H115.341C115.341 97.1846 115.275 96.9722 115.143 96.7671C115.016 96.5571 114.828 96.3838 114.579 96.2471C114.335 96.1104 114.035 96.042 113.678 96.042C113.302 96.042 112.997 96.1006 112.763 96.2178C112.533 96.3301 112.365 96.4741 112.257 96.6499C112.155 96.8257 112.104 97.0112 112.104 97.2065C112.104 97.353 112.128 97.4849 112.177 97.6021C112.23 97.7144 112.323 97.8193 112.455 97.917C112.587 98.0098 112.772 98.0977 113.012 98.1807C113.251 98.2637 113.556 98.3467 113.927 98.4297C114.577 98.5762 115.111 98.752 115.531 98.957C115.951 99.1621 116.264 99.4136 116.469 99.7114C116.674 100.009 116.776 100.371 116.776 100.795C116.776 101.142 116.703 101.459 116.557 101.748C116.415 102.036 116.208 102.285 115.934 102.495C115.666 102.7 115.343 102.861 114.967 102.978C114.596 103.09 114.179 103.146 113.715 103.146C113.017 103.146 112.426 103.022 111.942 102.773C111.459 102.524 111.093 102.202 110.844 101.806C110.595 101.411 110.47 100.993 110.47 100.554H111.833C111.852 100.925 111.959 101.22 112.155 101.44C112.35 101.655 112.589 101.809 112.873 101.901C113.156 101.989 113.437 102.033 113.715 102.033C114.086 102.033 114.396 101.984 114.645 101.887C114.899 101.789 115.092 101.655 115.224 101.484C115.355 101.313 115.421 101.118 115.421 100.898ZM121.728 102.033C122.05 102.033 122.348 101.967 122.621 101.835C122.895 101.704 123.119 101.523 123.295 101.293C123.471 101.059 123.571 100.793 123.595 100.495H124.884C124.86 100.964 124.701 101.401 124.408 101.806C124.12 102.207 123.742 102.531 123.273 102.78C122.804 103.024 122.289 103.146 121.728 103.146C121.132 103.146 120.612 103.042 120.167 102.832C119.728 102.622 119.362 102.333 119.069 101.967C118.781 101.601 118.563 101.181 118.417 100.708C118.275 100.229 118.205 99.7236 118.205 99.1914V98.8838C118.205 98.3516 118.275 97.8486 118.417 97.375C118.563 96.8965 118.781 96.4741 119.069 96.1079C119.362 95.7417 119.728 95.4536 120.167 95.2437C120.612 95.0337 121.132 94.9287 121.728 94.9287C122.348 94.9287 122.89 95.0557 123.354 95.3096C123.817 95.5586 124.181 95.9004 124.445 96.335C124.713 96.7646 124.86 97.2529 124.884 97.7998H123.595C123.571 97.4727 123.478 97.1772 123.317 96.9136C123.161 96.6499 122.946 96.4399 122.672 96.2837C122.404 96.1226 122.089 96.042 121.728 96.042C121.312 96.042 120.963 96.125 120.68 96.291C120.402 96.4521 120.18 96.6719 120.014 96.9502C119.853 97.2236 119.735 97.5288 119.662 97.8657C119.594 98.1978 119.56 98.5371 119.56 98.8838V99.1914C119.56 99.5381 119.594 99.8799 119.662 100.217C119.73 100.554 119.845 100.859 120.006 101.132C120.172 101.406 120.395 101.625 120.673 101.792C120.956 101.953 121.308 102.033 121.728 102.033ZM127.763 96.3203V103H126.408V95.0752H127.726L127.763 96.3203ZM130.238 95.0312L130.231 96.291C130.119 96.2666 130.011 96.252 129.909 96.2471C129.811 96.2373 129.699 96.2324 129.572 96.2324C129.259 96.2324 128.983 96.2812 128.744 96.3789C128.505 96.4766 128.302 96.6133 128.136 96.7891C127.97 96.9648 127.838 97.1748 127.741 97.4189C127.648 97.6582 127.587 97.9219 127.558 98.21L127.177 98.4297C127.177 97.9512 127.223 97.502 127.316 97.082C127.414 96.6621 127.562 96.291 127.763 95.9688C127.963 95.6416 128.217 95.3877 128.524 95.207C128.837 95.0215 129.208 94.9287 129.638 94.9287C129.735 94.9287 129.848 94.9409 129.975 94.9653C130.102 94.9849 130.189 95.0068 130.238 95.0312ZM132.963 95.0752V103H131.601V95.0752H132.963ZM131.498 92.9731C131.498 92.7534 131.564 92.5679 131.696 92.4165C131.833 92.2651 132.033 92.1895 132.296 92.1895C132.555 92.1895 132.753 92.2651 132.89 92.4165C133.031 92.5679 133.102 92.7534 133.102 92.9731C133.102 93.1831 133.031 93.3638 132.89 93.5151C132.753 93.6616 132.555 93.7349 132.296 93.7349C132.033 93.7349 131.833 93.6616 131.696 93.5151C131.564 93.3638 131.498 93.1831 131.498 92.9731ZM136.493 96.5986V106.047H135.131V95.0752H136.376L136.493 96.5986ZM141.833 98.9717V99.1255C141.833 99.7017 141.764 100.236 141.627 100.729C141.491 101.218 141.291 101.643 141.027 102.004C140.768 102.365 140.448 102.646 140.067 102.846C139.687 103.046 139.25 103.146 138.756 103.146C138.253 103.146 137.809 103.063 137.423 102.897C137.038 102.731 136.71 102.49 136.442 102.172C136.173 101.855 135.958 101.474 135.797 101.03C135.641 100.585 135.534 100.085 135.475 99.5283V98.708C135.534 98.1221 135.644 97.5972 135.805 97.1333C135.966 96.6694 136.178 96.2739 136.442 95.9468C136.71 95.6147 137.035 95.3633 137.416 95.1924C137.797 95.0166 138.236 94.9287 138.734 94.9287C139.232 94.9287 139.674 95.0264 140.06 95.2217C140.446 95.4121 140.771 95.6855 141.034 96.042C141.298 96.3984 141.496 96.8257 141.627 97.3237C141.764 97.8169 141.833 98.3662 141.833 98.9717ZM140.47 99.1255V98.9717C140.47 98.5762 140.429 98.2051 140.346 97.8584C140.263 97.5068 140.133 97.1992 139.958 96.9355C139.787 96.667 139.567 96.457 139.298 96.3057C139.03 96.1494 138.71 96.0713 138.339 96.0713C137.997 96.0713 137.699 96.1299 137.445 96.2471C137.196 96.3643 136.984 96.5229 136.808 96.7231C136.632 96.9185 136.488 97.1431 136.376 97.397C136.269 97.646 136.188 97.9048 136.134 98.1733V100.07C136.232 100.412 136.369 100.734 136.544 101.037C136.72 101.335 136.955 101.577 137.248 101.762C137.541 101.943 137.909 102.033 138.354 102.033C138.72 102.033 139.035 101.958 139.298 101.806C139.567 101.65 139.787 101.438 139.958 101.169C140.133 100.9 140.263 100.593 140.346 100.246C140.429 99.8945 140.47 99.521 140.47 99.1255ZM146.879 95.0752V96.1152H142.594V95.0752H146.879ZM144.044 93.1489H145.399V101.037C145.399 101.306 145.441 101.508 145.524 101.645C145.607 101.782 145.714 101.872 145.846 101.916C145.978 101.96 146.12 101.982 146.271 101.982C146.383 101.982 146.5 101.972 146.623 101.953C146.75 101.928 146.845 101.909 146.908 101.894L146.916 103C146.808 103.034 146.667 103.066 146.491 103.095C146.32 103.129 146.112 103.146 145.868 103.146C145.536 103.146 145.231 103.081 144.953 102.949C144.674 102.817 144.452 102.597 144.286 102.29C144.125 101.977 144.044 101.557 144.044 101.03V93.1489ZM149.94 95.0752V103H148.578V95.0752H149.94ZM148.476 92.9731C148.476 92.7534 148.542 92.5679 148.673 92.4165C148.81 92.2651 149.01 92.1895 149.274 92.1895C149.533 92.1895 149.73 92.2651 149.867 92.4165C150.009 92.5679 150.08 92.7534 150.08 92.9731C150.08 93.1831 150.009 93.3638 149.867 93.5151C149.73 93.6616 149.533 93.7349 149.274 93.7349C149.01 93.7349 148.81 93.6616 148.673 93.5151C148.542 93.3638 148.476 93.1831 148.476 92.9731ZM151.757 99.1255V98.957C151.757 98.3857 151.84 97.856 152.006 97.3677C152.172 96.8745 152.411 96.4473 152.724 96.0859C153.036 95.7197 153.415 95.4365 153.859 95.2363C154.303 95.0312 154.801 94.9287 155.353 94.9287C155.91 94.9287 156.41 95.0312 156.854 95.2363C157.304 95.4365 157.685 95.7197 157.997 96.0859C158.314 96.4473 158.556 96.8745 158.722 97.3677C158.888 97.856 158.971 98.3857 158.971 98.957V99.1255C158.971 99.6968 158.888 100.227 158.722 100.715C158.556 101.203 158.314 101.63 157.997 101.997C157.685 102.358 157.306 102.641 156.862 102.846C156.422 103.046 155.924 103.146 155.368 103.146C154.811 103.146 154.311 103.046 153.866 102.846C153.422 102.641 153.041 102.358 152.724 101.997C152.411 101.63 152.172 101.203 152.006 100.715C151.84 100.227 151.757 99.6968 151.757 99.1255ZM153.112 98.957V99.1255C153.112 99.521 153.158 99.8945 153.251 100.246C153.344 100.593 153.483 100.9 153.668 101.169C153.859 101.438 154.096 101.65 154.379 101.806C154.662 101.958 154.992 102.033 155.368 102.033C155.739 102.033 156.063 101.958 156.342 101.806C156.625 101.65 156.859 101.438 157.045 101.169C157.23 100.9 157.37 100.593 157.462 100.246C157.56 99.8945 157.609 99.521 157.609 99.1255V98.957C157.609 98.5664 157.56 98.1978 157.462 97.8511C157.37 97.4995 157.228 97.1895 157.038 96.9209C156.852 96.6475 156.618 96.4326 156.334 96.2764C156.056 96.1201 155.729 96.042 155.353 96.042C154.982 96.042 154.655 96.1201 154.372 96.2764C154.093 96.4326 153.859 96.6475 153.668 96.9209C153.483 97.1895 153.344 97.4995 153.251 97.8511C153.158 98.1978 153.112 98.5664 153.112 98.957ZM162.025 96.7671V103H160.67V95.0752H161.952L162.025 96.7671ZM161.703 98.7373L161.139 98.7153C161.144 98.1733 161.225 97.6729 161.381 97.2139C161.537 96.75 161.757 96.3472 162.04 96.0054C162.323 95.6636 162.66 95.3999 163.051 95.2144C163.446 95.0239 163.883 94.9287 164.362 94.9287C164.752 94.9287 165.104 94.9824 165.417 95.0898C165.729 95.1924 165.995 95.3584 166.215 95.5879C166.439 95.8174 166.61 96.1152 166.728 96.4814C166.845 96.8428 166.903 97.2847 166.903 97.8071V103H165.541V97.7925C165.541 97.3774 165.48 97.0454 165.358 96.7964C165.236 96.5425 165.058 96.3594 164.823 96.2471C164.589 96.1299 164.301 96.0713 163.959 96.0713C163.622 96.0713 163.314 96.1421 163.036 96.2837C162.763 96.4253 162.526 96.6206 162.326 96.8696C162.13 97.1187 161.977 97.4043 161.864 97.7266C161.757 98.0439 161.703 98.3809 161.703 98.7373Z" fill="black"/>
<rect x="24" y="133" width="281" height="40" rx="3" fill="#E3E3E3"/>
<path d="M50.1187 152.69V156.594C49.9868 156.789 49.7769 157.009 49.4888 157.253C49.2007 157.492 48.8027 157.702 48.2949 157.883C47.792 158.059 47.1426 158.146 46.3467 158.146C45.6973 158.146 45.0991 158.034 44.5522 157.81C44.0103 157.58 43.5391 157.248 43.1387 156.813C42.7432 156.374 42.4355 155.842 42.2158 155.217C42.001 154.587 41.8936 153.874 41.8936 153.078V152.25C41.8936 151.455 41.9863 150.744 42.1719 150.119C42.3623 149.494 42.6406 148.964 43.0068 148.53C43.373 148.09 43.8223 147.758 44.3545 147.534C44.8867 147.304 45.4971 147.189 46.1855 147.189C47.001 147.189 47.6821 147.331 48.229 147.614C48.7808 147.893 49.2104 148.278 49.5181 148.771C49.8306 149.265 50.0308 149.826 50.1187 150.456H48.7051C48.6416 150.07 48.5146 149.719 48.3242 149.401C48.1387 149.084 47.8726 148.83 47.5259 148.64C47.1792 148.444 46.7324 148.347 46.1855 148.347C45.6924 148.347 45.2651 148.437 44.9038 148.618C44.5425 148.798 44.2446 149.057 44.0103 149.394C43.7759 149.731 43.6001 150.139 43.4829 150.617C43.3706 151.096 43.3145 151.635 43.3145 152.236V153.078C43.3145 153.693 43.3853 154.243 43.5269 154.726C43.6733 155.209 43.8809 155.622 44.1494 155.964C44.418 156.301 44.7378 156.557 45.1089 156.733C45.4849 156.909 45.8999 156.997 46.354 156.997C46.8569 156.997 47.2646 156.955 47.5771 156.872C47.8896 156.784 48.1338 156.682 48.3096 156.564C48.4854 156.442 48.6196 156.328 48.7124 156.22V153.833H46.2441V152.69H50.1187ZM53.7295 150.075V158H52.3672V150.075H53.7295ZM52.2646 147.973C52.2646 147.753 52.3306 147.568 52.4624 147.417C52.5991 147.265 52.7993 147.189 53.063 147.189C53.3218 147.189 53.5195 147.265 53.6562 147.417C53.7979 147.568 53.8687 147.753 53.8687 147.973C53.8687 148.183 53.7979 148.364 53.6562 148.515C53.5195 148.662 53.3218 148.735 53.063 148.735C52.7993 148.735 52.5991 148.662 52.4624 148.515C52.3306 148.364 52.2646 148.183 52.2646 147.973ZM59.2227 150.075V151.115H54.938V150.075H59.2227ZM56.3882 148.149H57.7432V156.037C57.7432 156.306 57.7847 156.508 57.8677 156.645C57.9507 156.782 58.0581 156.872 58.1899 156.916C58.3218 156.96 58.4634 156.982 58.6147 156.982C58.7271 156.982 58.8442 156.972 58.9663 156.953C59.0933 156.928 59.1885 156.909 59.252 156.894L59.2593 158C59.1519 158.034 59.0103 158.066 58.8345 158.095C58.6636 158.129 58.4561 158.146 58.2119 158.146C57.8799 158.146 57.5747 158.081 57.2964 157.949C57.0181 157.817 56.7959 157.597 56.6299 157.29C56.4688 156.977 56.3882 156.557 56.3882 156.03V148.149ZM62.167 146.75V158H60.812V146.75H62.167ZM61.8447 153.737L61.2808 153.715C61.2856 153.173 61.3662 152.673 61.5225 152.214C61.6787 151.75 61.8984 151.347 62.1816 151.005C62.4648 150.664 62.8018 150.4 63.1924 150.214C63.5879 150.024 64.0249 149.929 64.5034 149.929C64.894 149.929 65.2456 149.982 65.5581 150.09C65.8706 150.192 66.1367 150.358 66.3564 150.588C66.5811 150.817 66.752 151.115 66.8691 151.481C66.9863 151.843 67.0449 152.285 67.0449 152.807V158H65.6826V152.792C65.6826 152.377 65.6216 152.045 65.4995 151.796C65.3774 151.542 65.1992 151.359 64.9648 151.247C64.7305 151.13 64.4424 151.071 64.1006 151.071C63.7637 151.071 63.4561 151.142 63.1777 151.284C62.9043 151.425 62.6675 151.621 62.4673 151.87C62.272 152.119 62.1182 152.404 62.0059 152.727C61.8984 153.044 61.8447 153.381 61.8447 153.737ZM73.9224 156.169V150.075H75.2847V158H73.9883L73.9224 156.169ZM74.1787 154.499L74.7427 154.484C74.7427 155.012 74.6865 155.5 74.5742 155.949C74.4668 156.394 74.291 156.779 74.0469 157.106C73.8027 157.434 73.4829 157.69 73.0874 157.875C72.6919 158.056 72.2109 158.146 71.6445 158.146C71.2588 158.146 70.9048 158.09 70.5825 157.978C70.2651 157.866 69.9917 157.692 69.7622 157.458C69.5327 157.224 69.3545 156.918 69.2275 156.542C69.1055 156.167 69.0444 155.715 69.0444 155.188V150.075H70.3994V155.202C70.3994 155.559 70.4385 155.854 70.5166 156.088C70.5996 156.318 70.7095 156.501 70.8462 156.638C70.9878 156.77 71.144 156.862 71.3149 156.916C71.4907 156.97 71.6714 156.997 71.8569 156.997C72.4331 156.997 72.8896 156.887 73.2266 156.667C73.5635 156.442 73.8052 156.142 73.9517 155.766C74.103 155.385 74.1787 154.963 74.1787 154.499ZM77.3428 146.75H78.7051V156.462L78.5879 158H77.3428V146.75ZM84.0591 153.972V154.125C84.0591 154.702 83.9907 155.236 83.854 155.729C83.7173 156.218 83.5171 156.643 83.2534 157.004C82.9897 157.365 82.6675 157.646 82.2866 157.846C81.9058 158.046 81.4688 158.146 80.9756 158.146C80.4727 158.146 80.0308 158.061 79.6499 157.89C79.2739 157.714 78.9565 157.463 78.6978 157.136C78.439 156.809 78.2314 156.413 78.0752 155.949C77.9238 155.485 77.8188 154.963 77.7603 154.382V153.708C77.8188 153.122 77.9238 152.597 78.0752 152.133C78.2314 151.669 78.439 151.274 78.6978 150.947C78.9565 150.615 79.2739 150.363 79.6499 150.192C80.0259 150.017 80.4629 149.929 80.9609 149.929C81.459 149.929 81.9009 150.026 82.2866 150.222C82.6724 150.412 82.9946 150.686 83.2534 151.042C83.5171 151.398 83.7173 151.826 83.854 152.324C83.9907 152.817 84.0591 153.366 84.0591 153.972ZM82.6968 154.125V153.972C82.6968 153.576 82.6602 153.205 82.5869 152.858C82.5137 152.507 82.3965 152.199 82.2354 151.936C82.0742 151.667 81.8618 151.457 81.5981 151.306C81.3345 151.149 81.0098 151.071 80.624 151.071C80.2822 151.071 79.9844 151.13 79.7305 151.247C79.4814 151.364 79.269 151.523 79.0933 151.723C78.9175 151.918 78.7734 152.143 78.6611 152.397C78.5537 152.646 78.4731 152.905 78.4194 153.173V154.938C78.4976 155.28 78.6245 155.61 78.8003 155.927C78.981 156.24 79.2202 156.496 79.5181 156.696C79.8208 156.896 80.1943 156.997 80.6387 156.997C81.0049 156.997 81.3174 156.923 81.5762 156.777C81.8398 156.625 82.0522 156.418 82.2134 156.154C82.3794 155.891 82.5015 155.585 82.5796 155.239C82.6577 154.892 82.6968 154.521 82.6968 154.125ZM96.166 156.85V158H90.834V156.85H96.166ZM91.1123 147.336V158H89.6987V147.336H91.1123ZM99.0518 150.075V158H97.6895V150.075H99.0518ZM97.5869 147.973C97.5869 147.753 97.6528 147.568 97.7847 147.417C97.9214 147.265 98.1216 147.189 98.3853 147.189C98.644 147.189 98.8418 147.265 98.9785 147.417C99.1201 147.568 99.1909 147.753 99.1909 147.973C99.1909 148.183 99.1201 148.364 98.9785 148.515C98.8418 148.662 98.644 148.735 98.3853 148.735C98.1216 148.735 97.9214 148.662 97.7847 148.515C97.6528 148.364 97.5869 148.183 97.5869 147.973ZM102.582 151.767V158H101.227V150.075H102.509L102.582 151.767ZM102.26 153.737L101.696 153.715C101.701 153.173 101.781 152.673 101.938 152.214C102.094 151.75 102.313 151.347 102.597 151.005C102.88 150.664 103.217 150.4 103.607 150.214C104.003 150.024 104.44 149.929 104.918 149.929C105.309 149.929 105.661 149.982 105.973 150.09C106.286 150.192 106.552 150.358 106.771 150.588C106.996 150.817 107.167 151.115 107.284 151.481C107.401 151.843 107.46 152.285 107.46 152.807V158H106.098V152.792C106.098 152.377 106.037 152.045 105.915 151.796C105.792 151.542 105.614 151.359 105.38 151.247C105.146 151.13 104.857 151.071 104.516 151.071C104.179 151.071 103.871 151.142 103.593 151.284C103.319 151.425 103.083 151.621 102.882 151.87C102.687 152.119 102.533 152.404 102.421 152.727C102.313 153.044 102.26 153.381 102.26 153.737ZM110.88 146.75V158H109.518V146.75H110.88ZM115.722 150.075L112.265 153.774L110.331 155.781L110.221 154.338L111.605 152.683L114.066 150.075H115.722ZM114.484 158L111.657 154.221L112.36 153.012L116.081 158H114.484Z" fill="black"/>
<rect x="321" y="133" width="281" height="40" rx="3" fill="#E3E3E3"/>
<path d="M337.043 154.777L339.16 147.336H340.185L339.592 150.229L337.314 158H336.296L337.043 154.777ZM334.853 147.336L336.538 154.631L337.043 158H336.032L333.447 147.336H334.853ZM342.924 154.624L344.572 147.336H345.986L343.408 158H342.397L342.924 154.624ZM340.339 147.336L342.397 154.777L343.144 158H342.126L339.929 150.229L339.328 147.336H340.339ZM350.402 158.146C349.851 158.146 349.35 158.054 348.901 157.868C348.457 157.678 348.073 157.412 347.751 157.07C347.434 156.728 347.189 156.323 347.019 155.854C346.848 155.385 346.762 154.873 346.762 154.316V154.008C346.762 153.364 346.857 152.79 347.048 152.287C347.238 151.779 347.497 151.35 347.824 150.998C348.151 150.646 348.522 150.38 348.938 150.2C349.353 150.019 349.782 149.929 350.227 149.929C350.793 149.929 351.281 150.026 351.691 150.222C352.106 150.417 352.446 150.69 352.709 151.042C352.973 151.389 353.168 151.799 353.295 152.272C353.422 152.741 353.486 153.254 353.486 153.811V154.418H347.568V153.312H352.131V153.21C352.111 152.858 352.038 152.517 351.911 152.185C351.789 151.853 351.594 151.579 351.325 151.364C351.057 151.149 350.69 151.042 350.227 151.042C349.919 151.042 349.636 151.108 349.377 151.24C349.118 151.367 348.896 151.557 348.71 151.811C348.525 152.065 348.381 152.375 348.278 152.741C348.176 153.107 348.125 153.53 348.125 154.008V154.316C348.125 154.692 348.176 155.046 348.278 155.378C348.386 155.705 348.54 155.993 348.74 156.242C348.945 156.491 349.191 156.687 349.479 156.828C349.772 156.97 350.104 157.041 350.476 157.041C350.954 157.041 351.359 156.943 351.691 156.748C352.023 156.552 352.314 156.291 352.563 155.964L353.383 156.616C353.212 156.875 352.995 157.121 352.731 157.355C352.468 157.59 352.143 157.78 351.757 157.927C351.376 158.073 350.925 158.146 350.402 158.146ZM355.061 146.75H356.423V156.462L356.306 158H355.061V146.75ZM361.777 153.972V154.125C361.777 154.702 361.708 155.236 361.572 155.729C361.435 156.218 361.235 156.643 360.971 157.004C360.708 157.365 360.385 157.646 360.004 157.846C359.624 158.046 359.187 158.146 358.693 158.146C358.19 158.146 357.749 158.061 357.368 157.89C356.992 157.714 356.674 157.463 356.416 157.136C356.157 156.809 355.949 156.413 355.793 155.949C355.642 155.485 355.537 154.963 355.478 154.382V153.708C355.537 153.122 355.642 152.597 355.793 152.133C355.949 151.669 356.157 151.274 356.416 150.947C356.674 150.615 356.992 150.363 357.368 150.192C357.744 150.017 358.181 149.929 358.679 149.929C359.177 149.929 359.619 150.026 360.004 150.222C360.39 150.412 360.712 150.686 360.971 151.042C361.235 151.398 361.435 151.826 361.572 152.324C361.708 152.817 361.777 153.366 361.777 153.972ZM360.415 154.125V153.972C360.415 153.576 360.378 153.205 360.305 152.858C360.231 152.507 360.114 152.199 359.953 151.936C359.792 151.667 359.58 151.457 359.316 151.306C359.052 151.149 358.728 151.071 358.342 151.071C358 151.071 357.702 151.13 357.448 151.247C357.199 151.364 356.987 151.523 356.811 151.723C356.635 151.918 356.491 152.143 356.379 152.397C356.271 152.646 356.191 152.905 356.137 153.173V154.938C356.215 155.28 356.342 155.61 356.518 155.927C356.699 156.24 356.938 156.496 357.236 156.696C357.539 156.896 357.912 156.997 358.356 156.997C358.723 156.997 359.035 156.923 359.294 156.777C359.558 156.625 359.77 156.418 359.931 156.154C360.097 155.891 360.219 155.585 360.297 155.239C360.375 154.892 360.415 154.521 360.415 154.125ZM368.105 155.898C368.105 155.703 368.061 155.522 367.973 155.356C367.89 155.185 367.717 155.031 367.453 154.895C367.194 154.753 366.804 154.631 366.281 154.528C365.842 154.436 365.444 154.326 365.087 154.199C364.736 154.072 364.436 153.918 364.187 153.737C363.942 153.557 363.754 153.344 363.623 153.1C363.491 152.856 363.425 152.57 363.425 152.243C363.425 151.931 363.493 151.635 363.63 151.357C363.771 151.079 363.969 150.832 364.223 150.617C364.482 150.402 364.792 150.234 365.153 150.112C365.515 149.99 365.917 149.929 366.362 149.929C366.997 149.929 367.539 150.041 367.988 150.266C368.437 150.49 368.781 150.791 369.021 151.167C369.26 151.538 369.379 151.95 369.379 152.404H368.024C368.024 152.185 367.958 151.972 367.827 151.767C367.7 151.557 367.512 151.384 367.263 151.247C367.019 151.11 366.718 151.042 366.362 151.042C365.986 151.042 365.681 151.101 365.446 151.218C365.217 151.33 365.048 151.474 364.941 151.65C364.838 151.826 364.787 152.011 364.787 152.207C364.787 152.353 364.812 152.485 364.86 152.602C364.914 152.714 365.007 152.819 365.139 152.917C365.271 153.01 365.456 153.098 365.695 153.181C365.935 153.264 366.24 153.347 366.611 153.43C367.26 153.576 367.795 153.752 368.215 153.957C368.635 154.162 368.947 154.414 369.152 154.711C369.357 155.009 369.46 155.371 369.46 155.795C369.46 156.142 369.387 156.459 369.24 156.748C369.099 157.036 368.891 157.285 368.618 157.495C368.349 157.7 368.027 157.861 367.651 157.978C367.28 158.09 366.862 158.146 366.398 158.146C365.7 158.146 365.109 158.022 364.626 157.773C364.143 157.524 363.776 157.202 363.527 156.806C363.278 156.411 363.154 155.993 363.154 155.554H364.516C364.536 155.925 364.643 156.22 364.838 156.44C365.034 156.655 365.273 156.809 365.556 156.901C365.839 156.989 366.12 157.033 366.398 157.033C366.77 157.033 367.08 156.984 367.329 156.887C367.583 156.789 367.775 156.655 367.907 156.484C368.039 156.313 368.105 156.118 368.105 155.898ZM372.712 150.075V158H371.35V150.075H372.712ZM371.247 147.973C371.247 147.753 371.313 147.568 371.445 147.417C371.582 147.265 371.782 147.189 372.045 147.189C372.304 147.189 372.502 147.265 372.639 147.417C372.78 147.568 372.851 147.753 372.851 147.973C372.851 148.183 372.78 148.364 372.639 148.515C372.502 148.662 372.304 148.735 372.045 148.735C371.782 148.735 371.582 148.662 371.445 148.515C371.313 148.364 371.247 148.183 371.247 147.973ZM378.205 150.075V151.115H373.92V150.075H378.205ZM375.371 148.149H376.726V156.037C376.726 156.306 376.767 156.508 376.85 156.645C376.933 156.782 377.041 156.872 377.172 156.916C377.304 156.96 377.446 156.982 377.597 156.982C377.709 156.982 377.827 156.972 377.949 156.953C378.076 156.928 378.171 156.909 378.234 156.894L378.242 158C378.134 158.034 377.993 158.066 377.817 158.095C377.646 158.129 377.438 158.146 377.194 158.146C376.862 158.146 376.557 158.081 376.279 157.949C376 157.817 375.778 157.597 375.612 157.29C375.451 156.977 375.371 156.557 375.371 156.03V148.149ZM383.083 158.146C382.531 158.146 382.031 158.054 381.582 157.868C381.137 157.678 380.754 157.412 380.432 157.07C380.114 156.728 379.87 156.323 379.699 155.854C379.528 155.385 379.443 154.873 379.443 154.316V154.008C379.443 153.364 379.538 152.79 379.729 152.287C379.919 151.779 380.178 151.35 380.505 150.998C380.832 150.646 381.203 150.38 381.618 150.2C382.033 150.019 382.463 149.929 382.907 149.929C383.474 149.929 383.962 150.026 384.372 150.222C384.787 150.417 385.126 150.69 385.39 151.042C385.654 151.389 385.849 151.799 385.976 152.272C386.103 152.741 386.167 153.254 386.167 153.811V154.418H380.249V153.312H384.812V153.21C384.792 152.858 384.719 152.517 384.592 152.185C384.47 151.853 384.274 151.579 384.006 151.364C383.737 151.149 383.371 151.042 382.907 151.042C382.6 151.042 382.316 151.108 382.058 151.24C381.799 151.367 381.577 151.557 381.391 151.811C381.206 152.065 381.062 152.375 380.959 152.741C380.856 153.107 380.805 153.53 380.805 154.008V154.316C380.805 154.692 380.856 155.046 380.959 155.378C381.066 155.705 381.22 155.993 381.42 156.242C381.625 156.491 381.872 156.687 382.16 156.828C382.453 156.97 382.785 157.041 383.156 157.041C383.635 157.041 384.04 156.943 384.372 156.748C384.704 156.552 384.995 156.291 385.244 155.964L386.064 156.616C385.893 156.875 385.676 157.121 385.412 157.355C385.148 157.59 384.824 157.78 384.438 157.927C384.057 158.073 383.605 158.146 383.083 158.146ZM398.142 156.85V158H392.81V156.85H398.142ZM393.088 147.336V158H391.674V147.336H393.088ZM401.027 150.075V158H399.665V150.075H401.027ZM399.562 147.973C399.562 147.753 399.628 147.568 399.76 147.417C399.897 147.265 400.097 147.189 400.361 147.189C400.62 147.189 400.817 147.265 400.954 147.417C401.096 147.568 401.167 147.753 401.167 147.973C401.167 148.183 401.096 148.364 400.954 148.515C400.817 148.662 400.62 148.735 400.361 148.735C400.097 148.735 399.897 148.662 399.76 148.515C399.628 148.364 399.562 148.183 399.562 147.973ZM404.558 151.767V158H403.203V150.075H404.484L404.558 151.767ZM404.235 153.737L403.671 153.715C403.676 153.173 403.757 152.673 403.913 152.214C404.069 151.75 404.289 151.347 404.572 151.005C404.855 150.664 405.192 150.4 405.583 150.214C405.979 150.024 406.416 149.929 406.894 149.929C407.285 149.929 407.636 149.982 407.949 150.09C408.261 150.192 408.527 150.358 408.747 150.588C408.972 150.817 409.143 151.115 409.26 151.481C409.377 151.843 409.436 152.285 409.436 152.807V158H408.073V152.792C408.073 152.377 408.012 152.045 407.89 151.796C407.768 151.542 407.59 151.359 407.355 151.247C407.121 151.13 406.833 151.071 406.491 151.071C406.154 151.071 405.847 151.142 405.568 151.284C405.295 151.425 405.058 151.621 404.858 151.87C404.663 152.119 404.509 152.404 404.396 152.727C404.289 153.044 404.235 153.381 404.235 153.737ZM412.856 146.75V158H411.494V146.75H412.856ZM417.697 150.075L414.24 153.774L412.307 155.781L412.197 154.338L413.581 152.683L416.042 150.075H417.697ZM416.459 158L413.632 154.221L414.335 153.012L418.056 158H416.459Z" fill="black"/>
</g>
<defs>
<filter id="filter0_d_16_128" x="0" y="0" width="625" height="202" filterUnits="userSpaceOnUse" color-interpolation-filters="sRGB">
<feFlood flood-opacity="0" result="BackgroundImageFix"/>
<feColorMatrix in="SourceAlpha" type="matrix" values="0 0 0 0 0 0 0 0 0 0 0 0 0 0 0 0 0 0 127 0" result="hardAlpha"/>
<feOffset dy="4"/>
<feGaussianBlur stdDeviation="2"/>
<feComposite in2="hardAlpha" operator="out"/>
<feColorMatrix type="matrix" values="0 0 0 0 0 0 0 0 0 0 0 0 0 0 0 0 0 0 0.25 0"/>
<feBlend mode="normal" in2="BackgroundImageFix" result="effect1_dropShadow_16_128"/>
<feBlend mode="normal" in="SourceGraphic" in2="effect1_dropShadow_16_128" result="shape"/>
</filter>
</defs>
</svg>
