<svg width="378" height="86" viewBox="0 0 378 86" fill="none" xmlns="http://www.w3.org/2000/svg">
<g filter="url(#filter0_d_16_71)">
<rect x="4" width="370" height="78" rx="5" fill="white"/>
</g>
<rect x="15" y="22" width="349" height="27" rx="3" fill="#E3E3E3"/>
<path d="M30.9214 37.3047C30.9214 37.0557 30.8823 36.8359 30.8042 36.6455C30.731 36.4502 30.5991 36.2744 30.4087 36.1182C30.2231 35.9619 29.9644 35.813 29.6323 35.6714C29.3052 35.5298 28.8901 35.3857 28.3872 35.2393C27.8599 35.083 27.3838 34.9097 26.959 34.7192C26.5342 34.5239 26.1704 34.3018 25.8677 34.0527C25.5649 33.8037 25.333 33.5181 25.1719 33.1958C25.0107 32.8735 24.9302 32.5049 24.9302 32.0898C24.9302 31.6748 25.0156 31.2915 25.1865 30.9399C25.3574 30.5884 25.6016 30.2832 25.9189 30.0244C26.2412 29.7607 26.6245 29.5557 27.0688 29.4092C27.5132 29.2627 28.0088 29.1895 28.5557 29.1895C29.3564 29.1895 30.0352 29.3433 30.5918 29.6509C31.1533 29.9536 31.5806 30.3516 31.8735 30.8447C32.1665 31.333 32.313 31.8555 32.313 32.4121H30.9067C30.9067 32.0117 30.8213 31.6577 30.6504 31.3501C30.4795 31.0376 30.2207 30.7935 29.874 30.6177C29.5273 30.437 29.0879 30.3467 28.5557 30.3467C28.0527 30.3467 27.6377 30.4224 27.3105 30.5737C26.9834 30.7251 26.7393 30.9302 26.5781 31.189C26.4219 31.4478 26.3438 31.7432 26.3438 32.0752C26.3438 32.2998 26.3901 32.5049 26.4829 32.6904C26.5806 32.8711 26.7295 33.0396 26.9297 33.1958C27.1348 33.3521 27.3936 33.4961 27.7061 33.6279C28.0234 33.7598 28.4019 33.8867 28.8413 34.0088C29.4468 34.1797 29.9692 34.3701 30.4087 34.5801C30.8481 34.79 31.2095 35.0269 31.4927 35.2905C31.7808 35.5493 31.9932 35.8447 32.1299 36.1768C32.2715 36.5039 32.3423 36.875 32.3423 37.29C32.3423 37.7246 32.2544 38.1177 32.0786 38.4692C31.9028 38.8208 31.6514 39.1211 31.3242 39.3701C30.9971 39.6191 30.604 39.812 30.145 39.9487C29.6909 40.0806 29.1831 40.1465 28.6216 40.1465C28.1284 40.1465 27.6426 40.0781 27.1641 39.9414C26.6904 39.8047 26.2583 39.5996 25.8677 39.3262C25.4819 39.0527 25.1719 38.7158 24.9375 38.3154C24.708 37.9102 24.5933 37.4414 24.5933 36.9092H25.9995C25.9995 37.2754 26.0703 37.5903 26.2119 37.854C26.3535 38.1128 26.5464 38.3276 26.7905 38.4985C27.0396 38.6694 27.3203 38.7964 27.6328 38.8794C27.9502 38.9575 28.2798 38.9966 28.6216 38.9966C29.1147 38.9966 29.5322 38.9282 29.874 38.7915C30.2158 38.6548 30.4746 38.4595 30.6504 38.2056C30.8311 37.9517 30.9214 37.6514 30.9214 37.3047ZM35.3013 28.75V40H33.939V28.75H35.3013ZM40.1426 32.0752L36.6855 35.7739L34.752 37.7808L34.6421 36.3379L36.0264 34.6826L38.4873 32.0752H40.1426ZM38.9048 40L36.0776 36.2207L36.7808 35.0122L40.5015 40H38.9048ZM43.0137 32.0752V40H41.6514V32.0752H43.0137ZM41.5488 29.9731C41.5488 29.7534 41.6147 29.5679 41.7466 29.4165C41.8833 29.2651 42.0835 29.1895 42.3472 29.1895C42.606 29.1895 42.8037 29.2651 42.9404 29.4165C43.082 29.5679 43.1528 29.7534 43.1528 29.9731C43.1528 30.1831 43.082 30.3638 42.9404 30.5151C42.8037 30.6616 42.606 30.7349 42.3472 30.7349C42.0835 30.7349 41.8833 30.6616 41.7466 30.5151C41.6147 30.3638 41.5488 30.1831 41.5488 29.9731ZM46.6611 28.75V40H45.2988V28.75H46.6611ZM50.3086 28.75V40H48.9463V28.75H50.3086ZM64.6128 29.3359V40H63.1919L57.8232 31.7749V40H56.4097V29.3359H57.8232L63.2139 37.583V29.3359H64.6128ZM71.5854 38.645V34.5654C71.5854 34.2529 71.522 33.9819 71.395 33.7524C71.2729 33.5181 71.0874 33.3374 70.8384 33.2104C70.5894 33.0835 70.2817 33.02 69.9155 33.02C69.5737 33.02 69.2734 33.0786 69.0146 33.1958C68.7607 33.313 68.5605 33.4668 68.4141 33.6572C68.2725 33.8477 68.2017 34.0527 68.2017 34.2725H66.8467C66.8467 33.9893 66.9199 33.7085 67.0664 33.4302C67.2129 33.1519 67.4229 32.9004 67.6963 32.6758C67.9746 32.4463 68.3066 32.2656 68.6924 32.1338C69.083 31.9971 69.5176 31.9287 69.9961 31.9287C70.5723 31.9287 71.0801 32.0264 71.5195 32.2217C71.9639 32.417 72.3105 32.7124 72.5596 33.1079C72.8135 33.4985 72.9404 33.9893 72.9404 34.5801V38.2715C72.9404 38.5352 72.9624 38.8159 73.0063 39.1138C73.0552 39.4116 73.126 39.668 73.2188 39.8828V40H71.8052C71.7368 39.8438 71.6831 39.6362 71.644 39.3774C71.605 39.1138 71.5854 38.8696 71.5854 38.645ZM71.8198 35.1953L71.8345 36.1475H70.4648C70.0791 36.1475 69.7349 36.1792 69.4321 36.2427C69.1294 36.3013 68.8755 36.3916 68.6704 36.5137C68.4653 36.6357 68.3091 36.7896 68.2017 36.9751C68.0942 37.1558 68.0405 37.3682 68.0405 37.6123C68.0405 37.8613 68.0967 38.0884 68.209 38.2935C68.3213 38.4985 68.4897 38.6621 68.7144 38.7842C68.9438 38.9014 69.2246 38.96 69.5566 38.96C69.9717 38.96 70.3379 38.8721 70.6553 38.6963C70.9727 38.5205 71.2241 38.3057 71.4097 38.0518C71.6001 37.7979 71.7026 37.5513 71.7173 37.312L72.2959 37.9639C72.2617 38.1689 72.1689 38.396 72.0176 38.645C71.8662 38.894 71.6636 39.1333 71.4097 39.3628C71.1606 39.5874 70.8628 39.7754 70.5161 39.9268C70.1743 40.0732 69.7886 40.1465 69.3589 40.1465C68.8218 40.1465 68.3506 40.0415 67.9453 39.8315C67.5449 39.6216 67.2324 39.3408 67.0078 38.9893C66.7881 38.6328 66.6782 38.2349 66.6782 37.7954C66.6782 37.3706 66.7612 36.9971 66.9272 36.6748C67.0933 36.3477 67.3325 36.0767 67.645 35.8618C67.9575 35.6421 68.3335 35.4761 68.7729 35.3638C69.2124 35.2515 69.7031 35.1953 70.2451 35.1953H71.8198ZM76.4194 33.6499V40H75.0571V32.0752H76.3462L76.4194 33.6499ZM76.1411 35.7373L75.5112 35.7153C75.5161 35.1733 75.5869 34.6729 75.7236 34.2139C75.8604 33.75 76.063 33.3472 76.3315 33.0054C76.6001 32.6636 76.9346 32.3999 77.335 32.2144C77.7354 32.0239 78.1992 31.9287 78.7266 31.9287C79.0977 31.9287 79.4395 31.9824 79.752 32.0898C80.0645 32.1924 80.3354 32.356 80.5649 32.5806C80.7944 32.8052 80.9727 33.0933 81.0996 33.4448C81.2266 33.7964 81.29 34.2212 81.29 34.7192V40H79.9351V34.7852C79.9351 34.3701 79.8643 34.0381 79.7227 33.7891C79.5859 33.54 79.3906 33.3594 79.1367 33.2471C78.8828 33.1299 78.585 33.0713 78.2432 33.0713C77.8428 33.0713 77.5083 33.1421 77.2397 33.2837C76.9712 33.4253 76.7563 33.6206 76.5952 33.8696C76.4341 34.1187 76.3169 34.4043 76.2437 34.7266C76.1753 35.0439 76.1411 35.3809 76.1411 35.7373ZM81.2754 34.9902L80.3672 35.2686C80.3721 34.834 80.4429 34.4165 80.5796 34.0161C80.7212 33.6157 80.9238 33.2593 81.1875 32.9468C81.4561 32.6343 81.7856 32.3877 82.1763 32.207C82.5669 32.0215 83.0137 31.9287 83.5166 31.9287C83.9414 31.9287 84.3174 31.9849 84.6445 32.0972C84.9766 32.2095 85.2549 32.3828 85.4795 32.6172C85.709 32.8467 85.8823 33.1421 85.9995 33.5034C86.1167 33.8647 86.1753 34.2944 86.1753 34.7925V40H84.813V34.7778C84.813 34.3335 84.7422 33.9893 84.6006 33.7451C84.4639 33.4961 84.2686 33.3228 84.0146 33.2251C83.7656 33.1226 83.4678 33.0713 83.1211 33.0713C82.8232 33.0713 82.5596 33.1226 82.3301 33.2251C82.1006 33.3276 81.9077 33.4692 81.7515 33.6499C81.5952 33.8257 81.4756 34.0283 81.3926 34.2578C81.3145 34.4873 81.2754 34.7314 81.2754 34.9902ZM91.5146 40.1465C90.9629 40.1465 90.4624 40.0537 90.0132 39.8682C89.5688 39.6777 89.1855 39.4116 88.8633 39.0698C88.5459 38.728 88.3018 38.3228 88.1309 37.854C87.96 37.3853 87.8745 36.8726 87.8745 36.3159V36.0083C87.8745 35.3638 87.9697 34.79 88.1602 34.2871C88.3506 33.7793 88.6094 33.3496 88.9365 32.998C89.2637 32.6465 89.6348 32.3804 90.0498 32.1997C90.4648 32.019 90.8945 31.9287 91.3389 31.9287C91.9053 31.9287 92.3936 32.0264 92.8037 32.2217C93.2188 32.417 93.5581 32.6904 93.8218 33.042C94.0854 33.3887 94.2808 33.7988 94.4077 34.2725C94.5347 34.7412 94.5981 35.2539 94.5981 35.8105V36.4185H88.6802V35.3125H93.2432V35.21C93.2236 34.8584 93.1504 34.5166 93.0234 34.1846C92.9014 33.8525 92.7061 33.5791 92.4375 33.3643C92.1689 33.1494 91.8027 33.042 91.3389 33.042C91.0312 33.042 90.748 33.1079 90.4893 33.2397C90.2305 33.3667 90.0083 33.5571 89.8228 33.811C89.6372 34.0649 89.4932 34.375 89.3906 34.7412C89.2881 35.1074 89.2368 35.5298 89.2368 36.0083V36.3159C89.2368 36.6919 89.2881 37.0459 89.3906 37.3779C89.498 37.7051 89.6519 37.9932 89.8521 38.2422C90.0571 38.4912 90.3037 38.6865 90.5918 38.8281C90.8848 38.9697 91.2168 39.0405 91.5879 39.0405C92.0664 39.0405 92.4717 38.9429 92.8037 38.7476C93.1357 38.5522 93.4263 38.291 93.6753 37.9639L94.4956 38.6157C94.3247 38.8745 94.1074 39.1211 93.8438 39.3555C93.5801 39.5898 93.2554 39.7803 92.8696 39.9268C92.4888 40.0732 92.0371 40.1465 91.5146 40.1465Z" fill="black"/>
<defs>
<filter id="filter0_d_16_71" x="0" y="0" width="378" height="86" filterUnits="userSpaceOnUse" color-interpolation-filters="sRGB">
<feFlood flood-opacity="0" result="BackgroundImageFix"/>
<feColorMatrix in="SourceAlpha" type="matrix" values="0 0 0 0 0 0 0 0 0 0 0 0 0 0 0 0 0 0 127 0" result="hardAlpha"/>
<feOffset dy="4"/>
<feGaussianBlur stdDeviation="2"/>
<feComposite in2="hardAlpha" operator="out"/>
<feColorMatrix type="matrix" values="0 0 0 0 0 0 0 0 0 0 0 0 0 0 0 0 0 0 0.25 0"/>
<feBlend mode="normal" in2="BackgroundImageFix" result="effect1_dropShadow_16_71"/>
<feBlend mode="normal" in="SourceGraphic" in2="effect1_dropShadow_16_71" result="shape"/>
</filter>
</defs>
</svg>
